<?xml version="1.0" encoding="utf-8"?>
<!-- Generator: Adobe Illustrator 22.1.0, SVG Export Plug-In . SVG Version: 6.00 Build 0)  -->
<svg version="1.1" id="Layer_1" xmlns="http://www.w3.org/2000/svg" xmlns:xlink="http://www.w3.org/1999/xlink" x="0px" y="0px"
	 viewBox="0 0 225.4 140.9" style="enable-background:new 0 0 225.4 140.9;" xml:space="preserve">
<style type="text/css">
	.st0{fill:#0073A5;}
	.st1{fill:#FFFFFF;}
</style>
<title>dial</title>
<g>
	<path class="st0" d="M225.4,133.4c0,4.1-3.4,7.5-7.5,7.5H7.5c-4.2,0-7.5-3.4-7.5-7.5V7.5C0,3.4,3.4,0,7.5,0h210.4
		c4.1,0,7.5,3.4,7.5,7.5V133.4z"/>
</g>
<g>
	<g>
		<path class="st1" d="M64.3,67.4v-2.2l-1.1,2.2h-9.1L53,65v2.4H35.9l-2-4.8h-3.4l-2.1,4.8h-8.9V53L26,38.3h12.4l1.7,4.2v-4.1h15.2
			l3.3,7l3.3-7h48c0,0,2.5,0,4.2,1.1l0-1.1h12.1v1.6c0,0,2.2-1.6,5.4-1.6c3.2,0,21.3,0,21.3,0l1.9,4.2v-4.2h13.7l2.5,4.2v-4.2H184
			v29.1h-13.4l-3.2-5.1v5h-16.7l-2.3-5.2h-3.3l-2.2,5.2h-10.1c0,0-3.8,0-6.6-2.1c0,1.1,0,2.1,0,2.1h-20.1c0,0,0-5.8,0-6.8
			c0-1-0.8-0.9-0.8-0.9h-0.7v7.7H64.3z"/>
		<path class="st1" d="M54.3,73.7h26.4l3.8,4.3l3.9-4.3h20.3c0,0,1.9,0,3.7,1v-1c0,0,15.8,0,18.1,0c2.3,0,4.2,1.1,4.2,1.1v-1.1H158
			v1.1c0,0,1.7-1.1,3.9-1.1c2.2,0,15.1,0,15.1,0v1.1c0,0,1.9-1.1,3.9-1.1c2,0,11.9,0,11.9,0v27.4c0,0-1.6,1.8-4.8,1.8h-15.7V102
			c0,0-1.5,0.9-3.8,0.9c-2.3,0-41.6,0-41.6,0s0-6.4,0-7.1c0-0.7-0.3-0.8-0.9-0.8h-0.6v7.9h-13V95c0,0-1.4,0.8-3.9,0.8
			c-2.4,0-4.7,0-4.7,0v7.1h-16l-3.6-4.5l-3.9,4.5h-26V73.7z"/>
		<polygon class="st0" points="137.5,78.1 154.1,78.1 154.1,82.5 142.6,82.5 142.6,86.4 153.8,86.4 153.8,90.3 142.6,90.3 
			142.6,94.4 154.1,94.4 154.1,98.7 137.5,98.7 		"/>
		<path class="st0" d="M186.1,86.1c6.2,0.3,6.7,3.4,6.7,6.7c0,3.9-3.2,5.9-6.5,5.9h-10.6v-4.4h8.3c1.4,0,3.5,0,3.5-2
			c0-0.9-0.4-1.5-1.9-1.7c-0.7-0.1-3.1-0.2-3.5-0.2c-5.6-0.1-6.9-2.9-6.9-6.4c0-3.9,2.7-6,6-6h10.6v4.4h-7.8c-1.8,0-3.7-0.2-3.7,1.8
			c0,1.3,0.9,1.5,2.1,1.6C183,86,185.7,86.1,186.1,86.1z"/>
		<path class="st0" d="M167,86.1c6.2,0.3,6.8,3.4,6.8,6.7c0,3.9-3.2,5.9-6.5,5.9h-10.6v-4.4h8.3c1.4,0,3.5,0,3.5-2
			c0-0.9-0.4-1.5-1.9-1.7c-0.7-0.1-3.1-0.2-3.5-0.2c-5.6-0.1-6.9-2.9-6.9-6.4c0-3.9,2.7-6,6-6h10.6v4.4H165c-1.8,0-3.7-0.2-3.7,1.8
			c0,1.3,0.9,1.5,2.1,1.6C163.9,86,166.7,86.1,167,86.1z"/>
		<path class="st0" d="M106.9,78.1H89.1l-5.8,6.4l-5.6-6.4h-20v20.6h19.3l6.1-6.8l5.9,6.9h9.7v-7h6.8c2.6,0,7.4-0.1,7.4-7.3
			C113.1,79.3,109.4,78.1,106.9,78.1z M74.4,94.4H62.7v-4.1h11.2v-3.9H62.7v-3.9l12.3,0l4.9,5.6L74.4,94.4z M93.8,96.8l-7.3-8.6
			l7.3-8.1V96.8z M105.2,87.5h-6.3v-5h6.3c2.1,0,2.8,1.4,2.8,2.4C108,86.3,107.3,87.5,105.2,87.5z"/>
		<path class="st0" d="M131.4,89.4c2.8-1.4,3.5-3.2,3.5-5.7c0-4.4-3.6-5.5-6.1-5.5h-13.2v20.6h5.1v-7.3h6.6c1.8,0,2.4,1.8,2.5,3.5
			l0.1,3.8h4.9l-0.2-4.2C134.7,91.2,133.8,89.6,131.4,89.4z M127,87.2h-6.3v-4.7h6.3c2.1,0,2.8,1.4,2.8,2.4
			C129.9,86.3,129.1,87.2,127,87.2z"/>
		<rect x="117.7" y="42.4" class="st0" width="5.1" height="20.7"/>
		<polygon class="st0" points="76.2,42.4 92.8,42.4 92.8,46.9 81.3,46.9 81.3,50.8 92.4,50.8 92.4,54.7 81.3,54.7 81.3,58.8 
			92.8,58.8 92.8,63.1 76.2,63.1 		"/>
		<path class="st0" d="M111.5,53.7c2.8-1.4,3.5-3.2,3.5-5.7c0-4.4-3.6-5.5-6.1-5.5H95.8v20.6h5.1v-7.3h6.6c1.8,0,2.4,1.7,2.5,3.5
			l0.1,3.8h4.9l-0.2-4.2C114.9,55.5,113.9,54,111.5,53.7z M107.2,51.6h-6.3v-4.7h6.3c2.1,0,2.8,1.4,2.8,2.4
			C110,50.6,109.2,51.6,107.2,51.6z"/>
		<path class="st0" d="M64.5,42.4l-6.2,13.8l-6.2-13.8h-7.9v19.9l-8.8-19.9h-6.7l-9,20.6h5.3l2-4.6H37l2,4.6h10.2V47.8L56,63.1h4.6
			L67.5,48v15.1h5.1V42.4H64.5z M28.8,54l3-7.2L35,54H28.8z"/>
		<path class="st0" d="M175.1,42.4v14.3l-8.5-14.3H159v19.4l-8.6-19.4h-6.7l-7,16c0,0-3,0-3.2-0.1c-1.2-0.3-3.1-1.1-3.2-4.8v-1.5
			c0-4.8,2.6-5.2,6-5.2h3.1v-4.5h-6.6c-2.3,0-7.3,1.8-7.5,10.2c-0.1,5.7,2.4,10.4,8,10.4h6.7l2-4.6h10.1l2,4.6h10V48l9.1,15.1h6.9
			V42.4H175.1z M143.9,54l3-7.2l3.2,7.2H143.9z"/>
	</g>
</g>
</svg>
