<?xml version="1.0" encoding="utf-8"?>
<!-- Generator: Adobe Illustrator 22.0.1, SVG Export Plug-In . SVG Version: 6.00 Build 0)  -->
<svg version="1.1" id="Layer_1" xmlns="http://www.w3.org/2000/svg" xmlns:xlink="http://www.w3.org/1999/xlink" x="0px" y="0px"
	 viewBox="0 0 566.9 566.9" style="enable-background:new 0 0 566.9 566.9;" xml:space="preserve">
<style type="text/css">
	.st0{fill:#064A94;}
	.st1{fill:#FBFBFB;}
</style>
<circle class="st0" cx="283.2" cy="283.2" r="283.2"/>
<g>
	<path class="st1" d="M283.8,155.1c38.1,0,76.1,0,114.2,0c9.8,0,18.7,2,26.1,8.8c7.4,6.7,10.9,15.3,10.9,25.2
		c0,55.4,0.1,110.8,0,166.2c-0.1,19.3-14.5,33.5-33.8,33.5c-49.7,0.1-99.5,0.1-149.2-0.1c-6.3,0-10.9,1.6-15.6,5.9
		c-16.8,15.4-34,30.4-51,45.5c-3.4,3-6.9,5.7-11.6,3.2c-4.7-2.5-4.3-6.9-3.8-11.4c1.4-12,2.7-24,3.9-35.9c0.7-6.7,0.3-7-6.4-7.1
		c-18.1-0.2-31.3-10.2-34.6-26.4c-0.7-3.3-0.8-6.7-0.8-10.1c0-53.5-0.1-107,0-160.5c0-23.1,13.4-36.5,36.5-36.6
		C206.9,155.1,245.3,155.1,283.8,155.1z M283.5,170.7c-36.9,0-73.9,0-110.8,0c-3,0-6,0-9,0.5c-10,1.4-15.9,7.9-15.9,18
		c-0.1,55.2-0.1,110.4,0,165.6c0,10.9,7,17.9,18,18.2c5.1,0.2,10.2,0,15.3,0.1c7.5,0.1,10.3,3.1,9.7,10.5
		c-0.7,8.4-1.8,16.9-2.6,25.3c-0.2,1.9-1.8,4.6,0.4,5.6c1.9,0.9,3.4-1.8,4.9-3.1c12.4-11,24.9-21.9,37.1-33.1
		c4.2-3.8,8.6-5.4,14.2-5.4c50.9,0.2,101.7,0.1,152.6,0.1c15.3,0,21.7-6.4,21.7-21.6c0-43.3,0-86.7,0-130c0-10.7,0.1-21.5-0.1-32.2
		c-0.2-10-6.1-16.7-16-18.1c-3-0.4-6-0.5-9-0.5C357.4,170.7,320.4,170.7,283.5,170.7z"/>
</g>
<path class="st1" d="M342.7,225.7H222.3c-4.4,0-8-3.6-8-8v-0.1c0-4.4,3.6-8,8-8h120.4c4.4,0,8,3.6,8,8v0.1
	C350.7,222.1,347.1,225.7,342.7,225.7z"/>
<path class="st1" d="M378,272.1H192.6c-4.4,0-8-3.6-8-8v0c0-4.4,3.6-8,8-8H378c4.4,0,8,3.6,8,8v0C386,268.5,382.4,272.1,378,272.1z"
	/>
<path class="st1" d="M378,304.1H192.6c-4.4,0-8-3.6-8-8v0c0-4.4,3.6-8,8-8H378c4.4,0,8,3.6,8,8v0C386,300.5,382.4,304.1,378,304.1z"
	/>
<path class="st1" d="M341.7,336.1H192.6c-4.4,0-8-3.6-8-8l0,0c0-4.4,3.6-8,8-8h149.2c4.4,0,8,3.6,8,8l0,0
	C349.7,332.5,346.1,336.1,341.7,336.1z"/>
</svg>
