<?xml version="1.0" encoding="utf-8"?>
<!-- Generator: Adobe Illustrator 22.1.0, SVG Export Plug-In . SVG Version: 6.00 Build 0)  -->
<svg version="1.1" id="Layer_1" xmlns="http://www.w3.org/2000/svg" xmlns:xlink="http://www.w3.org/1999/xlink" x="0px" y="0px"
	 viewBox="0 0 283.5 283.5" style="enable-background:new 0 0 283.5 283.5;" xml:space="preserve">
<style type="text/css">
	.st0{fill:#FFFFFF;}
</style>
<title>graph</title>
<g>
	<path class="st0" d="M141.6,267.2c-31.6,0-63.2,0-94.8,0c-23,0-39.7-16.8-39.7-39.9c0-44.3,0-88.7,0-133c0-21.4,13.9-37,35.2-39.5
		c2.2-0.3,3.7-0.7,4.4-3.2c0.8-2.8,3.1-4.4,6-4.5c5-0.2,10-0.2,15.1,0c2.7,0.1,5.2,1.4,5.8,4.1c0.7,3.5,2.9,3.4,5.5,3.3
		c3.5-0.1,6.9-0.2,10.4,0c2.8,0.2,3.9-0.7,3.8-3.6c-0.2-4.5-0.1-9.1,0-13.7c0.2-11.2,8.1-18.8,19.2-18.8c19.7,0,39.3,0,59,0
		c10.9,0,18.7,7.7,19,18.6c0.1,4.9,0.1,9.7,0,14.6c-0.1,2.3,0.8,3.1,3,2.9c3-0.1,6,0,9,0c3.5,0,6.4,0.6,8.3-4.2
		c2.1-5.3,22.9-5.3,25.2,0c1.9,4.3,4.8,4.4,8.4,4.9c17.9,2.6,32.1,18.9,32.1,37c0.1,45.9,0.1,91.8,0,137.7c0,20.2-17.5,37.2-38,37.3
		C206.1,267.2,173.9,267.2,141.6,267.2z M142.1,68.7c-31.4,0-62.9,0-94.3,0c-16.3,0-26.6,10-26.7,26.3c-0.1,43.9-0.1,87.7,0,131.6
		c0,16.2,10.5,26.4,26.7,26.4c62.6,0.1,125.1,0.1,187.7,0c16.5,0,26.9-10.3,26.9-26.7c0.1-43.7,0.1-87.4,0-131.1
		c0-16.6-10.4-26.5-27-26.5C204.3,68.7,173.2,68.7,142.1,68.7z M141.2,54.4c10.5,0,21,0,31.6,0c2.2,0,3.5-0.3,3.4-3
		c-0.2-4.5,0-9.1-0.1-13.7c-0.1-3.6-1.9-5.4-5.6-5.4c-19.2,0-38.3,0-57.5,0c-4,0-5.7,2.1-5.7,5.9c0,3.9,0.2,7.9-0.1,11.8
		c-0.2,3.4,0.6,4.6,4.3,4.5C121.5,54.2,131.4,54.4,141.2,54.4z"/>
</g>
</svg>
