<?xml version="1.0" encoding="utf-8"?>
<!-- Generator: Adobe Illustrator 22.1.0, SVG Export Plug-In . SVG Version: 6.00 Build 0)  -->
<svg version="1.1" id="Layer_1" xmlns="http://www.w3.org/2000/svg" xmlns:xlink="http://www.w3.org/1999/xlink" x="0px" y="0px"
	 viewBox="0 0 283.5 283.5" style="enable-background:new 0 0 283.5 283.5;" xml:space="preserve">
<style type="text/css">
	.st0{fill:#FFFFFF;}
</style>
<title>graph</title>
<g>
	<path class="st0" d="M120.4,26.2c20.8,0,41.7,0,62.5,0c27.6,0,49,21.3,49.3,49c0.1,10.3,0,20.7,0,31c0,2.3,0.1,3.7,3.1,4.5
		c23.2,6,37.2,21.8,38.4,45.7c1,20.6,1.3,41.3-0.2,61.9c-1.8,25.4-22.5,44.4-47.8,44.6c-42.2,0.2-84.3,0.3-126.5,0
		c-27.3-0.2-48.1-21.9-48.3-50c-0.1-10-0.1-20,0-30c0-2.7-0.6-4-3.6-4.7c-23.6-6-37.9-24.4-38-48.6c-0.1-18-0.1-36,0-54
		c0.1-28.4,21.3-49.4,49.8-49.4C79.4,26.2,99.9,26.2,120.4,26.2z M230.4,144.3c-1.4,3.5-2.8,7-4.6,10.4c-3.6,6.9-9.5,11.7-14.8,17.1
		c-1,0.3-2,0.3-2.9,0.8c-9.4,5.5-19.5,6.8-30.2,6.8c-36-0.2-72-0.1-108,0c-2,0-4.8-1.3-4.8,2.9c0.2,11.7-0.3,23.3,0.3,35
		c0.8,16.7,16,31.1,32.7,31.2c42.8,0.1,85.6,0.1,128.5,0c16.9-0.1,32.3-14.7,32.8-31.6c0.5-14.8,0-29.6,0-44.5
		c-0.2-9.5,1.7-19.1-3-28.1c-3.7-9.4-10.9-15.1-20.1-18.7c-2.9-1.1-4.3-0.5-4,3C232.6,133.9,231.1,139.1,230.4,144.3z M120.7,40.4
		c-20.8,0-41.7,0-62.5,0c-19.5,0-34.8,15.2-34.9,34.8c-0.1,18.3-0.1,36.7,0,55c0.1,19.6,15.3,35,34.8,35c41.7,0,83.3,0.1,125,0
		c18.8,0,34.2-14.9,34.5-33.6c0.3-19.2,0.3-38.3,0-57.5c-0.2-18.8-15.6-33.6-34.4-33.7C162.4,40.4,141.6,40.4,120.7,40.4z"/>
	<path class="st0" d="M259.3,172.4c-14.1,0-28.2,0-42.4-0.1c-2,0-4,0.3-5.9-0.5c5.2-5.4,11.1-10.2,14.8-17.1
		c1.8-3.4,3.2-6.9,4.6-10.4c8.6,0,17.2,0,25.9,0C261,153.3,259.1,163,259.3,172.4z"/>
	<path class="st0" d="M57.9,74.6c1.7,0,3.3-0.2,5,0c1.6,0.2,3.3,0.5,4.8,1.2c4.6,2.3,6.4,11.6,4.2,20.3c-1.2,4.6-4.5,7-10.1,7.1
		c-0.7,0-1.3,0-2,0c-17.2,1.3-17.3-7.3-15.9-20.4C44.6,76.1,47.9,74.5,57.9,74.6z"/>
	<path class="st0" d="M64.8,137.5c-5.8,0-11.6-0.1-17.5,0c-2.7,0.1-3.8-0.7-3.9-3.6c-0.4-10.5-0.5-10.5,9.9-10.5
		c9.5,0,19,0.1,28.4-0.1c3.1-0.1,4.4,0.7,4.4,4.1c0.1,10,0.2,10-9.9,10C72.4,137.5,68.6,137.5,64.8,137.5z"/>
	<path class="st0" d="M120.5,123.4c5.8,0,11.6,0.1,17.5,0c2.3,0,3.5,0.7,3.3,3.1c0,0.2,0,0.3,0,0.5c0.6,10.5,0.6,10.5-9.9,10.5
		c-9.3,0-18.6-0.1-27.9,0.1c-2.9,0-4.2-0.8-4.1-3.9c0.3-12.7-1.6-9.9,9.7-10.2C112.8,123.3,116.7,123.4,120.5,123.4z"/>
	<path class="st0" d="M175.8,137.5c-5.7,0-11.3-0.1-17,0c-2.5,0-3.5-0.7-3.6-3.3c-0.6-10.8-0.7-10.8,10.1-10.8
		c9.1,0,18.3,0.1,27.4-0.1c3.3-0.1,4.7,0.7,4.6,4.4c-0.1,9.8,0.1,9.8-9.6,9.8C183.8,137.5,179.8,137.5,175.8,137.5z"/>
</g>
</svg>
