<?xml version="1.0" encoding="utf-8"?>
<!-- Generator: Adobe Illustrator 23.1.1, SVG Export Plug-In . SVG Version: 6.00 Build 0)  -->
<svg version="1.1" id="Layer_1" xmlns="http://www.w3.org/2000/svg" xmlns:xlink="http://www.w3.org/1999/xlink" x="0px" y="0px"
	 viewBox="0 0 285.4 287.7" style="enable-background:new 0 0 285.4 287.7;" xml:space="preserve">
<style type="text/css">
	.st0{fill:#E2A235;}
	.st1{fill:#EAB66A;}
	.st2{fill:#D6121B;}
	.st3{fill:#D61019;}
	.st4{fill:#FFFFFF;}
	.st5{fill:none;stroke:#D61019;stroke-width:5;stroke-linecap:round;stroke-linejoin:bevel;stroke-miterlimit:10;}
</style>
<g>
	<path class="st0" d="M142.7,20.3c68.9,0,124.7,55.8,124.7,124.7s-55.8,124.7-124.7,124.7S18,213.9,18,145S73.8,20.3,142.7,20.3"/>
</g>
<g>
	<path class="st1" d="M157.9,89.1c-1.6,16.5-3,32.2-4.5,47.9c-0.9,9.1-1.8,18.1-2.8,27.2c-0.1,1.2-0.1,2.5-0.4,3.7
		c-1,3.8-2.8,6.8-7.4,6.9c-4.9,0.1-6.9-3.1-7.7-7.1c-0.8-3.9-0.9-8-1.3-12c-2.1-20.9-4.1-41.8-6.2-62.7c-0.5-4.8,0.1-9.5,2.9-13.6
		c3.9-5.7,10.4-8.3,15.9-6.4C153.4,75.1,157.9,81.8,157.9,89.1z"/>
	<path class="st1" d="M142.5,189.3c8.5-0.1,15.3,6.5,15.4,14.7c0.1,8-7,14.9-15.3,14.9c-8.1,0-15-6.6-15.1-14.5
		C127.3,196.2,134.1,189.4,142.5,189.3z"/>
</g>
<g>
	<g>
		<circle class="st2" cx="142.6" cy="143.9" r="114.3"/>
		<path class="st3" d="M142.6,283.4C65.6,283.4,3,220.8,3,143.9S65.6,4.3,142.6,4.3s139.6,62.6,139.6,139.6S219.5,283.4,142.6,283.4
			z M142.6,54.9c-49,0-88.9,39.9-88.9,88.9s39.9,88.9,88.9,88.9s88.9-39.9,88.9-88.9S191.6,54.9,142.6,54.9z"/>
	</g>
	<path class="st4" d="M88.7,216.2c-3.9,0-7.8-1.5-10.7-4.4c-5.9-5.9-5.9-15.5,0-21.5c33.3-33.3,87.4-34.4,123.2-2.5
		c6.3,5.6,6.8,15.2,1.2,21.4c-5.6,6.3-15.2,6.8-21.4,1.2c-23.8-21.2-59.6-20.7-81.6,1.3C96.5,214.7,92.6,216.2,88.7,216.2z"/>
	<circle class="st4" cx="101" cy="103.9" r="26.8"/>
	<circle class="st4" cx="184.1" cy="103.9" r="26.8"/>
	<path class="st5" d="M207.6,154"/>
	<path class="st4" d="M88.7,216.2c-3.9,0-7.8-1.5-10.7-4.4c-5.9-5.9-5.9-15.5,0-21.5c33.3-33.3,87.4-34.4,123.2-2.5
		c6.3,5.6,6.8,15.2,1.2,21.4c-5.6,6.3-15.2,6.8-21.4,1.2c-23.8-21.2-59.6-20.7-81.6,1.3C96.5,214.7,92.6,216.2,88.7,216.2z"/>
	<circle class="st4" cx="101" cy="103.9" r="26.8"/>
	<circle class="st4" cx="184.1" cy="103.9" r="26.8"/>
	<path class="st5" d="M207.6,154"/>
	<path class="st4" d="M88.7,216.2c-3.9,0-7.8-1.5-10.7-4.4c-5.9-5.9-5.9-15.5,0-21.5c33.3-33.3,87.4-34.4,123.2-2.5
		c6.3,5.6,6.8,15.2,1.2,21.4c-5.6,6.3-15.2,6.8-21.4,1.2c-23.8-21.2-59.6-20.7-81.6,1.3C96.5,214.7,92.6,216.2,88.7,216.2z"/>
	<circle class="st4" cx="101" cy="103.9" r="26.8"/>
	<circle class="st4" cx="184.1" cy="103.9" r="26.8"/>
	<path class="st5" d="M207.6,154"/>
	<path class="st4" d="M88.7,216.2c-3.9,0-7.8-1.5-10.7-4.4c-5.9-5.9-5.9-15.5,0-21.5c33.3-33.3,87.4-34.4,123.2-2.5
		c6.3,5.6,6.8,15.2,1.2,21.4c-5.6,6.3-15.2,6.8-21.4,1.2c-23.8-21.2-59.6-20.7-81.6,1.3C96.5,214.7,92.6,216.2,88.7,216.2z"/>
	<circle class="st4" cx="101" cy="103.9" r="26.8"/>
	<circle class="st4" cx="184.1" cy="103.9" r="26.8"/>
	<path class="st5" d="M207.6,154"/>
</g>
</svg>
