<?xml version="1.0" encoding="utf-8"?>
<!-- Generator: Adobe Illustrator 22.1.0, SVG Export Plug-In . SVG Version: 6.00 Build 0)  -->
<svg version="1.1" id="Layer_1" xmlns="http://www.w3.org/2000/svg" xmlns:xlink="http://www.w3.org/1999/xlink" x="0px" y="0px"
	 viewBox="0 0 283.5 283.5" style="enable-background:new 0 0 283.5 283.5;" xml:space="preserve">
<style type="text/css">
	.st0{fill:#622A78;}
	.st1{fill:#BBA2C1;}
</style>
<title>dial</title>
<g id="_x33_10631df-eeda-4a35-b204-207545c3c30a">
	<g id="_x38_1f2e86e-ac36-48f0-a41f-c6e4cd51a89e">
		<path class="st0" d="M256.7,217.7h-25.5c-0.7,0-1.4,0-2-0.1H54.3c-0.7,0.1-1.4,0.1-2.1,0.1H26.7c-0.9,0-1.7-0.1-2.6-0.2
			c-9.7-1.3-16.9-9.6-16.9-19.3v-14.7c0-0.1,0-0.2,0-0.3c3.3-74.3,66.1-131.8,140.3-128.5c62.5,2.7,114.9,48.2,126.4,109.7l0,0
			c1.5,8.2,2.3,16.4,2.3,24.7v9.2C276.1,209,267.4,217.6,256.7,217.7L256.7,217.7z M53.9,204.1h175.6c0.3,0,0.6,0,0.9,0
			c0.3,0,0.5,0,0.8,0h25.6c0.3,0,0.5,0,0.8,0c3-0.4,5.3-3,5.3-6V189c0-7.5-0.7-14.9-2-22.3l0,0C248.2,101,184.7,57.9,119,70.4
			c-55,10.5-95.7,57.3-98.4,113.3v14.5c0,3,2.3,5.6,5.3,6c0.3,0,0.5,0,0.8,0h25.5c0.3,0,0.5,0,0.8,0
			C53.3,204.2,53.6,204.1,53.9,204.1z"/>
		<path class="st1" d="M91.7,147.8c5.5-6.8,12.3-12.5,20.1-16.5l-11.2-40.8c-16.2,6.8-30.4,17.6-41.4,31.3L91.7,147.8z"/>
		<path class="st1" d="M81.7,165.5c0.4-1,0.8-2,1.2-3L49.6,136c-2.7,4.8-5,9.8-6.9,14.9c-3.9,10.6-6.1,24.7-6.6,35.4h41.6
			C78,179.2,79.4,172.2,81.7,165.5"/>
		<path class="st1" d="M205.2,186.3h41.6c0.7-17.8-3.1-29.5-10.7-45l-35.2,23.3C204.1,172.7,205.6,177.4,205.2,186.3"/>
		<path class="st1" d="M171.5,131.5c8.4,4.4,15.6,10.7,21.3,18.3l34.8-23c-10.5-14.9-24.8-26.8-41.4-34.6L171.5,131.5z"/>
		<path class="st1" d="M127.7,125.5c9.2-2.1,18.8-2,28,0.1l14.7-39.3c-17.6-5-36.1-5.4-53.8-1L127.7,125.5z"/>
		<path class="st0" d="M142.3,182.8c-3.7,0-6.7-3-6.7-6.7c0-1.8,0.7-3.5,2-4.8l46.5-46.6c2.6-2.6,6.9-2.6,9.5,0
			c2.6,2.6,2.6,6.9,0,9.5l0,0L147,180.8C145.8,182.1,144.1,182.8,142.3,182.8z"/>
		<path class="st0" d="M155.5,176c0,7.4-6,13.5-13.4,13.5c-7.4,0-13.5-6-13.5-13.4c0-7.4,6-13.5,13.4-13.5c0,0,0,0,0,0
			C149.5,162.6,155.5,168.6,155.5,176"/>
	</g>
</g>
</svg>
