<?xml version="1.0" encoding="utf-8"?>
<!-- Generator: Adobe Illustrator 23.1.1, SVG Export Plug-In . SVG Version: 6.00 Build 0)  -->
<svg version="1.1" id="Layer_1" xmlns="http://www.w3.org/2000/svg" xmlns:xlink="http://www.w3.org/1999/xlink" x="0px" y="0px"
	 viewBox="0 0 24 24" style="enable-background:new 0 0 24 24;" xml:space="preserve">
<style type="text/css">
	.st0{fill:url(#SVGID_1_);}
	.st1{fill:#FFFFFF;}
</style>
<linearGradient id="SVGID_1_" gradientUnits="userSpaceOnUse" x1="0.2757" y1="12" x2="23.7243" y2="12">
	<stop  offset="0" style="stop-color:#702B84"/>
	<stop  offset="0.1594" style="stop-color:#692D85"/>
	<stop  offset="0.3896" style="stop-color:#563388"/>
	<stop  offset="0.6625" style="stop-color:#373C8D"/>
	<stop  offset="0.9662" style="stop-color:#0B4893"/>
	<stop  offset="1" style="stop-color:#064A94"/>
</linearGradient>
<path class="st0" d="M23,11.5L12.5,1c-0.4-0.4-1-0.7-1.7-0.7H2.6c-1.3,0-2.3,1.1-2.3,2.3v8.2c0,0.6,0.3,1.2,0.7,1.7L11.5,23
	c0.4,0.4,1,0.7,1.7,0.7c0.6,0,1.2-0.3,1.7-0.7l8.2-8.2c0.4-0.4,0.7-1,0.7-1.7C23.7,12.5,23.5,11.9,23,11.5z M4.4,6.1
	c-1,0-1.8-0.8-1.8-1.8s0.8-1.8,1.8-1.8s1.8,0.8,1.8,1.8S5.4,6.1,4.4,6.1z"/>
<g>
	<path class="st1" d="M8,8.9L7.6,9.3C7.4,9.5,7.2,9.6,6.9,9.6l1.8,1.8L8,12.1L5.1,9.2l0.7-0.7L6,8.8c0.2,0.1,0.4,0,0.7-0.3l0.4-0.4
		L6.7,7.6L7.4,7l0.4,0.4l0.6-0.6c0.4-0.4,0.8-0.5,1.2-0.5c0.4,0,0.8,0.2,1.2,0.6c0.4,0.4,0.6,0.8,0.6,1.2c0,0.4-0.2,0.8-0.5,1.2
		l-0.8-0.8c0.2-0.2,0.2-0.3,0.2-0.5c0-0.2-0.1-0.3-0.2-0.5C10,7.3,9.9,7.3,9.7,7.3c-0.2,0-0.3,0.1-0.5,0.3L8.6,8.2l0.8,0.8L8.8,9.7
		L8,8.9z"/>
	<path class="st1" d="M11.6,13.6c0.2-0.2,0.2-0.3,0.2-0.5c0-0.2-0.1-0.4-0.2-0.7c-0.1-0.3-0.2-0.5-0.3-0.7c-0.1-0.2-0.1-0.4-0.1-0.6
		c0-0.2,0-0.4,0.1-0.6c0.1-0.2,0.2-0.4,0.4-0.6c0.3-0.3,0.7-0.5,1.1-0.5s0.8,0.1,1.1,0.4l0.6-0.6L15,9.8l-0.6,0.6
		c0.3,0.4,0.4,0.8,0.4,1.2c0,0.4-0.2,0.8-0.6,1.1l-0.8-0.8c0.2-0.2,0.3-0.4,0.4-0.6c0-0.2,0-0.4-0.2-0.5c-0.2-0.2-0.3-0.2-0.5-0.2
		c-0.2,0-0.3,0.1-0.5,0.2c-0.1,0.1-0.2,0.3-0.2,0.5c0,0.2,0.1,0.4,0.2,0.7c0.1,0.3,0.2,0.6,0.3,0.8c0.1,0.2,0.1,0.4,0.1,0.6
		c0,0.2,0,0.4-0.1,0.6c-0.1,0.2-0.2,0.3-0.4,0.5c-0.3,0.3-0.7,0.5-1,0.5c-0.4,0-0.8-0.2-1.1-0.5L9.7,15l-0.4-0.4L9.8,14
		c-0.3-0.4-0.5-0.8-0.5-1.3c0-0.4,0.2-0.8,0.6-1.2l0.8,0.8c-0.2,0.2-0.3,0.4-0.3,0.7c0,0.2,0.1,0.4,0.3,0.6c0.2,0.2,0.3,0.2,0.5,0.3
		C11.3,13.8,11.5,13.8,11.6,13.6z"/>
	<path class="st1" d="M15.8,15l2.2-0.9l0.9,0.9L16,16l0.6,0.6l-0.5,0.5l-0.8-0.8L15,16.6l0.8,0.8l-0.5,0.5l-0.8-0.8l-0.8,0.8L13,17
		l0.8-0.8l-0.8-0.8l0.5-0.5l0.8,0.8l0.3-0.3l-0.8-0.8l0.5-0.5l0.7,0.7l1.1-2.8l0.9,0.9L15.8,15z"/>
</g>
</svg>
