<?xml version="1.0" standalone="no"?>
<!DOCTYPE svg PUBLIC "-//W3C//DTD SVG 1.1//EN" "http://www.w3.org/Graphics/SVG/1.1/DTD/svg11.dtd">
<svg xmlns="http://www.w3.org/2000/svg">
<metadata>Copyright (C) 2018 by original authors @ fontello.com</metadata>
<defs>
<font id="experianiconfont" horiz-adv-x="1000" >
<font-face font-family="experianiconfont" font-weight="400" font-stretch="normal" units-per-em="1000" ascent="850" descent="-150" />
<missing-glyph horiz-adv-x="1000" />
<glyph glyph-name="calendar-today" unicode="&#xe800;" d="M292 433h208v-208h-208m500-167h-584v459h584m0 208h-42v83h-83v-83h-334v83h-83v-83h-42c-46 0-83-37-83-83v-584a83 83 0 0 1 83-83h584a83 83 0 0 1 83 83v584a83 83 0 0 1-83 83z" horiz-adv-x="1000" />

<glyph glyph-name="help-circle" unicode="&#xe801;" d="M628 381l-38-38c-30-30-48-55-48-118h-84v21c0 46 19 88 49 118l52 52c15 15 24 36 24 59 0 46-37 83-83 83a83 83 0 0 1-83-83h-84a167 167 0 0 0 167 167 167 167 0 0 0 167-167c0-37-15-70-39-94m-86-323h-84v84h84m-42 625a417 417 0 0 1-417-417 417 417 0 0 1 417-417 417 417 0 0 1 417 417c0 230-188 417-417 417z" horiz-adv-x="1000" />

<glyph glyph-name="cash-multiple" unicode="&#xe802;" d="M208 600h750v-500h-750v500m375-125a125 125 0 0 0 125-125 125 125 0 0 0-125-125 125 125 0 0 0-125 125 125 125 0 0 0 125 125m-208 42a83 83 0 0 0-83-84v-166a83 83 0 0 0 83-84h417a83 83 0 0 0 83 84v166a83 83 0 0 0-83 84h-417m-333-84h83v-416h667v-84h-750v500z" horiz-adv-x="1000" />

<glyph glyph-name="check-circle" unicode="&#xe803;" d="M500 767a417 417 0 0 0 417-417 417 417 0 0 0-417-417 417 417 0 0 0-417 417 417 417 0 0 0 417 417m-42-604l292 291-59 59-233-233-128 129-59-59 187-187z" horiz-adv-x="1000" />

<glyph glyph-name="share" unicode="&#xe804;" d="M875 392l-292 291v-166c-291-42-416-250-458-459 104 146 250 213 458 213v-171l292 292z" horiz-adv-x="1000" />

<glyph glyph-name="folder-plus" unicode="&#xe805;" d="M417 683l83-83h333a83 83 0 0 0 84-83v-417a83 83 0 0 0-84-83h-666c-47 0-84 37-84 83v500c0 46 37 83 84 83h250m208-208v-125h-125v-83h125v-125h83v125h125v83h-125v125h-83z" horiz-adv-x="1000" />

<glyph glyph-name="debug-step-out" unicode="&#xe806;" d="M500-67a83 83 0 0 0-83 84 83 83 0 0 0 83 83 83 83 0 0 0 83-83 83 83 0 0 0-83-84m42 250h-84v417l-187-187-59 59 288 288 288-288-59-59-187 187v-417z" horiz-adv-x="1000" />

<glyph glyph-name="alert-box" unicode="&#xe807;" d="M208 725h584a83 83 0 0 0 83-83v-584a83 83 0 0 0-83-83h-584a83 83 0 0 0-83 83v584a83 83 0 0 0 83 83m334-417v250h-84v-250h84m0-166v83h-84v-83h84z" horiz-adv-x="1000" />

<glyph glyph-name="note-text" unicode="&#xe808;" d="M583 433h230l-230 230v-230m-375 292h417l250-250v-417a83 83 0 0 0-83-83h-584c-46 0-83 38-83 83v584c0 46 37 83 83 83m0-375v-83h584v83h-584m0-167v-83h375v83h-375z" horiz-adv-x="1000" />

<glyph glyph-name="arrow-left" unicode="&#xe809;" d="M833 392v-84h-500l230-229-60-59-330 330 330 330 60-59-230-229h500z" horiz-adv-x="1000" />

<glyph glyph-name="link-variant" unicode="&#xe80a;" d="M441 291c17-16 17-43 0-59-16-16-43-16-59 0-81 81-81 213 0 295v0l148 147c81 81 213 81 294 0 81-81 81-213 0-294l-62-62c1 34-5 68-17 100l20 20c49 49 49 128 0 177-49 49-128 49-177 0l-147-147c-49-49-49-128 0-177m118 177c16 16 43 16 59 0 81-81 81-213 0-295v0l-148-147c-81-81-213-81-294 0-81 81-81 213 0 294l62 63c0-35 5-69 17-102l-20-19c-49-49-49-128 0-177 49-49 128-49 177 0l147 147c49 49 49 128 0 177-17 16-17 43 0 59z" horiz-adv-x="1000" />

<glyph glyph-name="folder-account" unicode="&#xe80b;" d="M792 142h-334v41c0 56 112 84 167 84 55 0 167-28 167-84m-167 292a83 83 0 0 0 83-83 83 83 0 0 0-83-84 83 83 0 0 0-83 84c0 46 37 83 83 83m208 125h-333l-83 83h-250c-47 0-84-37-84-83v-500a83 83 0 0 1 84-83h666a83 83 0 0 1 84 83v417c0 46-38 83-84 83z" horiz-adv-x="1000" />

<glyph glyph-name="close-box" unicode="&#xe80c;" d="M792 725h-113-358-113a83 83 0 0 1-83-83v-113-362-109a83 83 0 0 1 83-83h113 362 109a83 83 0 0 1 83 83v113 358 113a83 83 0 0 1-83 83m-142-583l-150 150-150-150-58 58 150 150-150 150 58 58 150-150 150 150 58-58-150-150 150-150-58-58z" horiz-adv-x="1000" />

<glyph glyph-name="skip-next" unicode="&#xe80d;" d="M667 100h83v500h-83m-417-500l354 250-354 250v-500z" horiz-adv-x="1000" />

<glyph glyph-name="format-list-bulleted" unicode="&#xe80e;" d="M292 642h583v-84h-583v84m0-334v84h583v-84h-583m-125 355a63 63 0 0 0 62-63 63 63 0 0 0-62-62 63 63 0 0 0-63 62 63 63 0 0 0 63 63m0-250a63 63 0 0 0 62-63 63 63 0 0 0-62-62 63 63 0 0 0-63 62 63 63 0 0 0 63 63m125-355v84h583v-84h-583m-125 105a63 63 0 0 0 62-63 63 63 0 0 0-62-62 63 63 0 0 0-63 62 63 63 0 0 0 63 63z" horiz-adv-x="1000" />

<glyph glyph-name="phone-outgoing" unicode="&#xe80f;" d="M167 725a42 42 0 0 1-42-42 708 708 0 0 1 708-708 42 42 0 0 1 42 42v146a42 42 0 0 1-42 41c-52 0-102 9-148 24-15 5-31 1-43-10l-92-92c-117 60-214 157-274 275l92 92c11 11 15 27 10 42-15 46-24 96-24 148a42 42 0 0 1-41 42h-146m458 0v-62h146l-229-230 41-41 230 229v-146h62v250h-250z" horiz-adv-x="1000" />

<glyph glyph-name="phone-incoming" unicode="&#xe810;" d="M167 725a42 42 0 0 1-42-42 708 708 0 0 1 708-708 42 42 0 0 1 42 42v146a42 42 0 0 1-42 41c-52 0-102 9-148 24-15 5-31 1-43-10l-92-92c-117 60-214 157-274 275l92 92c11 11 15 27 10 42-15 46-24 96-24 148a42 42 0 0 1-41 42h-146m625-333v62h-146l229 229-42 42-229-229v146h-62v-250h250z" horiz-adv-x="1000" />

<glyph glyph-name="magnify" unicode="&#xe811;" d="M396 725a271 271 0 0 0 271-271c0-67-25-129-65-176l11-11h33l208-209-62-62-209 208v33l-11 11c-47-40-109-65-176-65a271 271 0 0 0-271 271 271 271 0 0 0 271 271m0-83c-104 0-188-84-188-188 0-104 84-187 188-187 104 0 187 83 187 187 0 104-83 188-187 188z" horiz-adv-x="1000" />

<glyph glyph-name="bell" unicode="&#xe812;" d="M583 17a83 83 0 0 0-83-84 83 83 0 0 0-83 84h166m-83 750a42 42 0 0 0 42-42v-45c118-20 208-123 208-247v-250l125-125h-750l125 125v250c0 124 90 227 208 247v45a42 42 0 0 0 42 42z" horiz-adv-x="1000" />

<glyph glyph-name="customer-contact-details" unicode="&#xe813;" d="M833 600h-333l-83 83h-250c-46 0-84-37-84-83v-500c0-46 38-83 84-83h666c46 0 84 37 84 83v417c0 46-38 83-84 83z m-33-450c0-12-8-21-21-21-179 0-321 146-321 321 0 13 9 21 21 21h63c12 0 21-8 21-21 0-25 4-46 12-67 0-8 0-12-4-20l-42-42c29-54 71-96 125-125l42 42c4 4 12 8 21 4 21-9 46-13 66-13 13 0 21-8 21-21v-58z" horiz-adv-x="1000" />

<glyph glyph-name="table-large" unicode="&#xe814;" d="M167 725h666a83 83 0 0 0 84-83v-625a83 83 0 0 0-84-84h-666a83 83 0 0 0-84 84v625a83 83 0 0 0 84 83m0-167v-125h166v125h-166m250 0v-125h166v125h-166m416-125v125h-166v-125h166m-666-83v-125h166v125h-166m0-333h166v125h-166v-125m250 333v-125h166v125h-166m0-333h166v125h-166v-125m416 0v125h-166v-125h166m0 333h-166v-125h166v125z" horiz-adv-x="1000" />

<glyph glyph-name="key" unicode="&#xe815;" d="M292 267a83 83 0 0 0-84 83 83 83 0 0 0 84 83 83 83 0 0 0 83-83 83 83 0 0 0-83-83m235 166c-34 97-127 167-235 167a250 250 0 0 1-250-250 250 250 0 0 1 250-250c108 0 201 70 235 167h181v-167h167v167h83v166h-431z" horiz-adv-x="1000" />

<glyph glyph-name="currency-usd-off" unicode="&#xe816;" d="M521 563c74 0 102-36 104-88h92c-3 72-47 138-134 159v91h-125v-90c-22-5-43-12-62-22l62-62c17 7 38 12 63 12m-299 118l-53-53 144-143c0-87 65-135 162-163l147-147c-14-20-44-37-101-37-86 0-120 38-125 87h-91c5-91 73-142 153-160v-90h125v90c40 7 76 23 102 46l93-92 53 53-609 609z" horiz-adv-x="1000" />

<glyph glyph-name="credit-card" unicode="&#xe817;" d="M833 517h-666v83h666m0-500h-666v250h666m0 333h-666c-47 0-84-37-84-83v-500a83 83 0 0 1 84-83h666a83 83 0 0 1 84 83v500c0 46-38 83-84 83z" horiz-adv-x="1000" />

<glyph glyph-name="pause-octagon" unicode="&#xe818;" d="M655 725l220-220v-310l-220-220h-310l-220 220v310l220 220h310m-30-542v334h-83v-334h83m-167 0v334h-83v-334h83z" horiz-adv-x="1000" />

<glyph glyph-name="calendar-clock" unicode="&#xe819;" d="M625 308h63v-117l101-59-31-54-133 77v153m167 209h-584v-459h195c-18 38-28 81-28 125a292 292 0 0 0 292 292c44 0 87-10 125-28v70m-584-542c-46 0-83 38-83 83v584c0 46 37 83 83 83h42v83h83v-83h334v83h83v-83h42a83 83 0 0 0 83-83v-254c52-53 83-125 83-205a292 292 0 0 0-291-291c-80 0-152 31-204 83h-255m459 410a202 202 0 0 1-202-202c0-111 90-202 202-202a202 202 0 0 1 202 202c0 112-91 202-202 202z" horiz-adv-x="1000" />

<glyph glyph-name="stop-circle" unicode="&#xe81a;" d="M500 767a417 417 0 0 1-417-417 417 417 0 0 1 417-417 417 417 0 0 1 417 417 417 417 0 0 1-417 417m-125-292h250v-250h-250" horiz-adv-x="1000" />

<glyph glyph-name="credit-card-plus" unicode="&#xe81b;" d="M875 100h125v-83h-125v-125h-83v125h-125v83h125v125h83v-125m-83 417v83h-667v-83h667m0-167h-667v-250h458v-83h-458c-46 0-83 37-83 83v500c0 46 37 83 83 83h667a83 83 0 0 0 83-83v-292h-83v42z" horiz-adv-x="1000" />

<glyph glyph-name="check" unicode="&#xe81c;" d="M875 558l-500-500-229 230 59 58 170-170 441 441 59-59z" horiz-adv-x="1000" />

<glyph glyph-name="transfer" unicode="&#xe81d;" d="M125 517h83v-334h-83v334m167 0h83v-334h-83v334m166 0h84v-334h-84v334m167-469v604l302-302-302-302z" horiz-adv-x="1000" />

<glyph glyph-name="eye" unicode="&#xe81e;" d="M500 475a125 125 0 0 1-125-125 125 125 0 0 1 125-125 125 125 0 0 1 125 125 125 125 0 0 1-125 125m0-333a208 208 0 0 0-208 208 208 208 0 0 0 208 208 208 208 0 0 0 208-208 208 208 0 0 0-208-208m0 521c-208 0-386-130-458-313 72-183 250-312 458-312 208 0 386 129 458 312-72 183-250 313-458 313z" horiz-adv-x="1000" />

<glyph glyph-name="chevron-double-left" unicode="&#xe81f;" d="M767 541l-59 59-250-250 250-250 59 59-191 191 191 191m-250 0l-59 59-250-250 250-250 59 59-191 191 191 191z" horiz-adv-x="1000" />

<glyph glyph-name="chevron-double-right" unicode="&#xe820;" d="M233 541l59 59 250-250-250-250-59 59 191 191-191 191m250 0l59 59 250-250-250-250-59 59 191 191-191 191z" horiz-adv-x="1000" />

<glyph glyph-name="chevron-down" unicode="&#xe821;" d="M309 493l191-192 191 192 59-60-250-250-250 250 59 60z" horiz-adv-x="1000" />

<glyph glyph-name="chevron-up" unicode="&#xe822;" d="M309 208l191 191 191-191 59 59-250 250-250-250 59-59z" horiz-adv-x="1000" />

<glyph glyph-name="chevron-right" unicode="&#xe823;" d="M358 159l191 191-191 191 59 59 250-250-250-250-59 59z" horiz-adv-x="1000" />

<glyph glyph-name="chevron-left" unicode="&#xe824;" d="M642 159l-191 191 191 191-59 59-250-250 250-250 59 59z" horiz-adv-x="1000" />

<glyph glyph-name="filter" unicode="&#xe825;" d="M125 767h750v0h0v-84h-3l-289-288v-500l-166 167v333l-288 288h-4v84z" horiz-adv-x="1000" />

<glyph glyph-name="pencil-box-outline" unicode="&#xe826;" d="M792 58v584h-584v-584h584m0 667a83 83 0 0 0 83-83v-584c0-46-37-83-83-83h-584a83 83 0 0 0-83 83v584a83 83 0 0 0 83 83h584m-96-265l-42-41-85 85 41 42c9 9 24 9 33 0l53-53c9-9 9-24 0-33m-404-232l252 252 86-86-252-252h-86v86z" horiz-adv-x="1000" />

<glyph glyph-name="plus" unicode="&#xe827;" d="M792 308h-250v-250h-84v250h-250v84h250v250h84v-250h250v-84z" horiz-adv-x="1000" />

<glyph glyph-name="phone-hangup" unicode="&#xe828;" d="M500 475c-67 0-131-10-192-30v-129c0-17-9-31-23-38-41-20-78-46-111-77-7-7-18-12-28-12-13 0-23 5-31 13l-103 103c-7 8-12 18-12 29 0 12 5 22 12 30 127 121 299 194 488 194 189 0 361-73 488-194 7-8 12-18 12-30 0-11-5-21-12-29l-103-103c-8-8-18-13-31-13-10 0-21 5-28 12-33 31-70 57-111 77-14 7-23 21-23 38v129c-61 20-125 30-192 30z" horiz-adv-x="1000" />

<glyph glyph-name="arrow-down" unicode="&#xe829;" d="M458 683h84v-500l229 230 59-60-330-330-330 330 59 60 229-230v500z" horiz-adv-x="1000" />

<glyph glyph-name="close" unicode="&#xe82a;" d="M792 583l-59 59-233-233-233 233-59-59 233-233-233-233 59-59 233 233 233-233 59 59-233 233 233 233z" horiz-adv-x="1000" />

<glyph glyph-name="account" unicode="&#xe82b;" d="M500 683a167 167 0 0 0 167-166 167 167 0 0 0-167-167 167 167 0 0 0-167 167 167 167 0 0 0 167 166m0-416c184 0 333-75 333-167v-83h-666v83c0 92 149 167 333 167z" horiz-adv-x="1000" />

<glyph glyph-name="phone-redial" unicode="&#xe82c;" d="M167 725a42 42 0 0 1-42-42 708 708 0 0 1 708-708 42 42 0 0 1 42 42v146a42 42 0 0 1-42 41 475 475 0 0 0-148 24 42 42 0 0 1-42-10l-92-92a631 631 0 0 0-274 274l91 93a42 42 0 0 1 11 41 475 475 0 0 0-25 149 42 42 0 0 1-41 42m500-149h62l-92-91-92 91h84a108 108 0 0 1-32 79 111 111 0 1 1-30-180l27-27a148 148 0 1 0 73 128z" horiz-adv-x="1000" />

<glyph glyph-name="eye-off" unicode="&#xe82d;" d="M493 475l132-132c0 2 0 5 0 7a125 125 0 0 1-125 125c-2 0-5 0-7 0m-179-33l64-65c-2-9-3-17-3-27a125 125 0 0 1 125-125c9 0 18 1 27 3l65-64c-28-14-59-22-92-22a208 208 0 0 0-208 208c0 33 8 64 22 92m-231 230l95-95 19-19c-69-54-123-125-155-208 72-183 250-312 458-312 65 0 126 12 183 35l17-18 122-122 53 53-739 739m364-167a208 208 0 0 0 208-208c0-27-5-52-15-76l122-122c63 52 113 121 143 198-72 183-250 313-458 313-58 0-114-11-167-30l91-89c24 9 49 14 76 14z" horiz-adv-x="1000" />

<glyph glyph-name="email-variant" unicode="&#xe82e;" d="M500 308l-417 260v32c0 46 37 83 84 83h666a83 83 0 0 0 84-83v-31l-417-261m417-208a83 83 0 0 0-84-83h-666c-47 0-84 37-84 83v370l84-52v-318h666v318l84 52v-370z" horiz-adv-x="1000" />

<glyph glyph-name="credit-card-minus" unicode="&#xe82f;" d="M875 183h125v-83h-125l0 0h-83l0 0h-125v83h125l0 0h83l0 0m-83 334v83h-667v-83h667m0-167h-667v-250h458v-83h-458c-46 0-83 37-83 83v500c0 46 37 83 83 83h667c46 0 83-37 83-83v-292h-83v42z" horiz-adv-x="1000" />

<glyph glyph-name="credit-card-plus-1" unicode="&#xe830;" d="M875 100h125v-83h-125v-125h-83v125h-125v83h125v125h83v-125m-83 417v83h-667v-83h667m0-167h-667v-250h458v-83h-458c-46 0-83 37-83 83v500c0 46 37 83 83 83h667a83 83 0 0 0 83-83v-292h-83v42z" horiz-adv-x="1000" />

<glyph glyph-name="account-link" unicode="&#xe831;" d="M833 600h-333l-83 83h-250c-46 0-84-37-84-83v-500c0-46 38-83 84-83h666c46 0 84 37 84 83v417c0 46-38 83-84 83z m0-458h-333v41c0 55 113 84 167 84s166-29 166-84m-166 292c46 0 83-37 83-83s-37-84-83-84-84 38-84 84 38 83 84 83m-313-142c-8 9-8 17 0 25 9 9 17 9 25 0 34-33 34-91 0-129l0 0-62-62c-34-34-92-34-129 0-34 33-34 91 0 129l25 25c0-17 4-29 8-42l-8-8c-21-21-21-54 0-75 20-21 54-21 75 0l62 62c25 21 25 55 4 75m-50-75c-8-8-16-8-25 0-33 34-33 92 0 130l0 0 63 62c33 33 91 33 129 0 33-33 33-92 0-129l-25-25c0 17-4 29-8 46l8 8c21 21 21 54 0 75-21 21-54 21-75 0l-63-62c-20-21-20-55 0-75 5-13 5-25-4-30z" horiz-adv-x="1000" />

<glyph glyph-name="folder-contact" unicode="&#xe832;" d="M833 600h-333l-83 83h-250c-46 0-84-37-84-83v-500c0-46 38-83 84-83h666c46 0 84 37 84 83v417c0 46-38 83-84 83z m-379-158c0-9-8-17-16-17-21 0-42-4-59-8-4 0-12 0-16 4l-38 37c-46-25-83-62-108-108l37-37c4-5 4-13 4-17-4-17-8-33-8-54 0-9-8-17-17-17h-54c-8 0-16 8-16 17 0 154 125 275 275 275 8 0 16-9 16-17v-58z m338-134v42l-125-83-125 83v-42l125-83m166-83h-333v250h333" horiz-adv-x="1000" />

<glyph glyph-name="pencil" unicode="&#xe833;" d="M863 557c16 16 16 43 0 58l-98 98c-15 16-42 16-58 0l-77-76 156-157m-661-349v-156h156l461 461-156 157-461-462z" horiz-adv-x="1000" />

<glyph glyph-name="book-open" unicode="&#xe834;" d="M542 350h291v-62h-291m0 166h291v-62h-291m0-146h291v-63h-291m333 500h-750a83 83 0 0 1-83-83v-542a83 83 0 0 1 83-83h750a83 83 0 0 1 83 83v542a83 83 0 0 1-83 83m0-625h-375v542h375" horiz-adv-x="1000" />

<glyph glyph-name="account-alert" unicode="&#xe835;" d="M417 683a167 167 0 0 0 166-166 167 167 0 0 0-166-167 167 167 0 0 0-167 167 167 167 0 0 0 167 166m0-416c184 0 333-75 333-167v-83h-667v83c0 92 150 167 334 167m416 83v208h84v-208h-84m0-167v84h84v-84h-84z" horiz-adv-x="1000" />

<glyph glyph-name="page-first" unicode="&#xe836;" d="M767 159l-191 191 191 191-59 59-250-250 250-250 59 59m-517 441h83v-500h-83v500z" horiz-adv-x="1000" />

<glyph glyph-name="page-last" unicode="&#xe837;" d="M233 541l191-191-191-191 59-59 250 250-250 250-59-59m434 59h83v-500h-83v500z" horiz-adv-x="1000" />

<glyph glyph-name="personal-information" unicode="&#xe838;" d="M567 258c-104 0-317-50-317-158v-79h633v79c0 108-212 158-316 158m0 80c87 0 158 70 158 158s-71 158-158 158-159-66-159-154 71-162 159-162z m-292 375c-21 0-42-17-42-42s17-42 42-42 42 17 42 42-21 42-42 42m-8-130c-34-4-121-70-121-70-4-5-4-5 0-13 4-8 4-8 8-4 4 4 13 8 29 17 59 37 9-46-16-192-9-71 54-33 71-25 16 12 58 42 62 42 4 4 0 8-4 12-4 4-8 0-8 0-17-12-50-37-55-21-4 17 30 121 46 192 9 29 17 67-12 62z" horiz-adv-x="1000" />

<glyph glyph-name="fasttrack-to-legal" unicode="&#xe839;" d="M150 0l375 375-54 54-29-29c-17-17-42-17-54 0l-30 29c-16 17-16 42 0 54l221 221c17 17 42 17 54 0l30-29c16-17 16-42 0-54l-30-25 55-54c16 16 41 16 54 0 16-17 16-42 0-54l54-55 29 30c17 16 42 16 54 0l29-30c17-16 17-41 0-54l-220-221c-17-16-42-16-55 0l-25 25c-16 17-16 42 0 55l30 29-55 54-375-375c-16-17-41-17-54 0s-21 37-4 54m688 50c41 0 79-33 79-79v-38h-392v38c0 42 33 79 79 79h234z m-721 604v-62h146l-59-59 38-37 129 129-125 125-42-42 59-58h-146z" horiz-adv-x="1000" />

<glyph glyph-name="cursor-move" unicode="&#xe83a;" d="M542 600v-208h208v135l177-177-177-177v135h-208v-208h135l-177-177-177 177h135v208h-208v-135l-177 177 177 177v-135h208v208h-135l177 177 177-177h-135z" horiz-adv-x="1000" />

<glyph glyph-name="letter" unicode="&#xe83b;" d="M833 517l-333-209-333 209v83l333-208 333 208m0 83h-666c-47 0-84-37-84-83v-500a83 83 0 0 1 84-83h666a83 83 0 0 1 84 83v500c0 46-38 83-84 83z" horiz-adv-x="1000" />

<glyph glyph-name="truck-delivery" unicode="&#xe83c;" d="M125 683a83 83 0 0 1-83-83v-458h83a125 125 0 0 1 125-125 125 125 0 0 1 125 125h250a125 125 0 0 1 125-125 125 125 0 0 1 125 125h83v208l-125 167h-125v166m-291-83l166-167-166-166v125h-250v83h250m291-21h105l82-104h-187m-458-146a63 63 0 0 0 63-62 63 63 0 0 0-63-63 63 63 0 0 0-62 63 63 63 0 0 0 62 62m500 0a63 63 0 0 0 63-62 63 63 0 0 0-63-63 63 63 0 0 0-62 63 63 63 0 0 0 62 62z" horiz-adv-x="1000" />

<glyph glyph-name="team" unicode="&#xe83d;" d="M496 683c37 0 67-29 67-66s-30-67-67-67-67 29-67 67 29 66 67 66m0-166c75 0 133-29 133-67v-33h-266v33c0 38 58 67 133 67z m-204-267c33 0 58-25 58-58 0-34-25-59-58-59s-59 25-59 59c0 33 30 58 59 58m0-146c66 0 116-25 116-58v-29h-233v29c0 33 54 58 117 58z m425 146c33 0 58-25 58-58 0-34-25-59-58-59s-59 25-59 59c0 33 25 58 59 58m0-146c66 0 116-25 116-58v-29h-233v29c0 33 50 58 117 58z m129 250h-692v-21h692v21z" horiz-adv-x="1000" />

<glyph glyph-name="team-noleader" unicode="&#xe83e;" d="M679 483c54 0 96-41 96-95s-42-96-96-96c-54 0-96 41-96 96s42 95 96 95m0-241c109 0 196-42 196-96v-50h-387v46c0 54 83 100 191 100z m-446 279c34 0 63-25 63-63 0-33-25-62-63-62s-62 25-62 62c0 38 33 63 62 63m0-154c71 0 121-25 121-63v-29h-241v29c0 38 54 63 120 63z m221 141c42 0 75-33 75-75s-33-75-75-75-75 34-75 75c0 42 34 75 75 75m0-183c88 0 150-33 150-75v-37h-300v37c0 42 63 75 150 75z" horiz-adv-x="1000" />

<glyph glyph-name="web" unicode="&#xe83f;" d="M682 267c3 27 6 55 6 83 0 28-3 56-6 83h141c6-26 10-54 10-83 0-29-4-57-10-83m-215-232c25 46 44 96 57 148h123c-40-68-103-122-180-148m-10 232h-195c-5 27-7 55-7 83 0 28 2 56 7 83h195c3-27 6-55 6-83 0-28-3-56-6-83m-98-249c-35 50-62 106-80 165h160c-17-59-45-115-80-165m-167 499h-121c39 69 103 122 180 148-25-46-44-96-59-148m-121-334h121c15-52 34-102 59-148-77 26-141 80-180 148m-34 84c-7 26-11 54-11 83 0 29 4 57 11 83h140c-3-27-5-55-5-83 0-28 2-56 5-83m182 415c35-50 63-106 80-165h-160c18 59 45 115 80 165m288-165h-123c-13 52-32 102-57 148 77-26 140-79 180-148m-288 250c-230 0-417-188-417-417a417 417 0 0 1 417-417 417 417 0 0 1 417 417 417 417 0 0 1-417 417z" horiz-adv-x="1000" />

<glyph glyph-name="window-maximize" unicode="&#xe840;" d="M167 683h666v-666h-666v666m83-166v-417h500v417h-500z" horiz-adv-x="1000" />

<glyph glyph-name="phone-in-talk" unicode="&#xe841;" d="M625 350h83a208 208 0 0 1-208 208v-83a125 125 0 0 0 125-125m167 0h83c0 208-168 375-375 375v-83c161 0 292-131 292-292m41-146c-52 0-102 9-148 24-15 5-31 1-43-10l-92-92c-117 60-214 157-274 274l92 92c11 12 15 28 10 43-15 46-24 96-24 148a42 42 0 0 1-41 42h-146a42 42 0 0 1-42-42 708 708 0 0 1 708-708 42 42 0 0 1 42 42v146a42 42 0 0 1-42 41z" horiz-adv-x="1000" />

<glyph glyph-name="download" unicode="&#xe842;" d="M208 17h584v83h-584m584 375h-167v250h-250v-250h-167l292-292 292 292z" horiz-adv-x="1000" />

<glyph glyph-name="settings" unicode="&#xe843;" d="M500 204a146 146 0 0 0-146 146 146 146 0 0 0 146 146 146 146 0 0 0 146-146 146 146 0 0 0-146-146m310 106c1 13 3 26 3 40 0 14-2 28-3 42l88 68c7 6 10 17 5 26l-84 144c-5 10-16 13-25 10l-104-42c-22 16-44 30-70 41l-16 110c-1 10-10 18-21 18h-166c-11 0-19-8-21-18l-16-110c-26-11-48-25-70-41l-104 42c-9 3-20 0-25-10l-83-144c-6-9-3-20 5-26l87-68c-1-14-2-28-2-42 0-14 1-27 2-40l-87-70c-8-6-11-17-5-26l83-144c5-10 16-13 25-10l104 43c22-17 44-31 70-42l16-110c2-10 10-18 21-18h166c11 0 20 8 21 18l16 110c26 11 48 25 70 42l104-43c9-3 20 0 25 10l84 144c5 9 2 20-5 26l-88 70z" horiz-adv-x="1000" />

<glyph glyph-name="settings-box" unicode="&#xe844;" d="M719 350c0-10-1-19-2-28l61-49c6-4 7-12 4-18l-59-101c-3-6-11-9-18-6l-72 29c-15-12-32-22-50-29l-10-77c-1-7-8-13-15-13h-116c-7 0-14 6-15 13l-10 77c-19 7-35 17-50 29l-72-29c-7-3-15 0-18 6l-59 101c-3 6-2 14 4 18l61 49c-1 9-2 18-2 28 0 10 1 19 2 28l-61 49c-6 4-7 12-4 18l59 101c3 7 11 9 18 7l72-30c15 12 31 22 50 29l10 78c1 6 8 12 15 12h116c7 0 14-6 15-12l10-78c18-7 35-17 50-29l72 30c7 2 15 0 18-7l59-101c3-6 2-14-4-18l-61-49c1-9 2-18 2-28m73 375h-584c-46 0-83-37-83-83v-584a83 83 0 0 1 83-83h584a83 83 0 0 1 83 83v584c0 46-37 83-83 83m-292-292c-46 0-83-37-83-83a83 83 0 0 1 83-83 83 83 0 0 1 83 83c0 46-37 83-83 83z" horiz-adv-x="1000" />

<glyph glyph-name="authorise-transfer" unicode="&#xe845;" d="M275 96h604v-75h-604v75z m0 108h604v-79h-604v79z m529-75h-454c-42 0-75 34-75 75l0 0c0 42 33 75 75 75h454c42 0 75-33 75-75l0 0c0-46-33-75-75-75z m-216 629c62 0 116-100 116-220s-54-221-116-221-117 100-117 221 50 220 117 220z m4-625h-9c-29 0-54 25-54 55v254c0 29 25 54 54 54h9c29 0 54-25 54-54v-254c0-34-25-55-54-55z m-550 234l33 29c38-17 63-33 104-63 84 92 138 142 234 200l12-25c-83-70-142-150-229-304-54 63-88 104-154 163z" horiz-adv-x="1000" />

<glyph glyph-name="arrangement-reducing-payment" unicode="&#xe846;" d="M442 421c71 0 125-54 125-125s-54-125-125-125-125 54-125 125 54 125 125 125m129 42l-338 0c0-46-37-84-83-84v-166c46 0 83-38 83-84h417c0 46 38 84 83 84l0 100 84 0v-267h-750v500h504m317-138l-230 0 0 175 230 0m-50 121v-33h-138v33h-33v-33h-17c-21 0-33-17-33-33v-238c0-21 16-33 33-33h238c20 0 33 16 33 33v233c0 21-17 34-33 34h-17v37m-17-187h-83v-84h83v84z" horiz-adv-x="1000" />

<glyph glyph-name="arrangement-installment" unicode="&#xe847;" d="M442 421c71 0 125-54 125-125s-54-125-125-125-125 54-125 125 54 125 125 125m129 42l-338 0c0-46-37-84-83-84v-166c46 0 83-38 83-84h417c0 46 38 84 83 84l0 100 84 0v-267h-750v500h504m79 121c-17 0-33-17-33-34v-166h33v166h167v34h-167m67-67c-17 0-34-17-34-33v-167h34v167h166v33h-166m66-67c-16 0-33-16-33-33v-133c0-17 17-34 33-34h134c16 0 33 17 33 34v133c0 17-17 33-33 33h-134z" horiz-adv-x="1000" />

<glyph glyph-name="print-history" unicode="&#xe848;" d="M521 475h-296v146h296v-146z m279-183v-175h-142v-142h-433v142h-142v212c0 63 50 113 109 113h329v-146h279z m-217-67h-283v-179h283v179z m180 200c-80 0-146 67-146 146s66 146 146 146 145-67 145-146-66-146-145-146m0 329c-100 0-184-83-184-183 0-100 84-183 184-183 100 0 183 83 183 183s-83 183-183 183m-17-91v-109l96-58 12 21-83 50v96h-25z" horiz-adv-x="1000" />

<glyph glyph-name="suspend-product2" unicode="&#xe849;" d="M733 100c0-12-8-25-16-29l-271-154c-4-5-13-5-21-5s-12 0-21 5l-271 154c-12 4-16 17-16 29v308c0 13 8 25 16 30l271 154c4 8 13 8 17 8 8 0 12 0 21-4l271-154c12-4 16-17 16-29v-313m-308 429l-204-116 204-117 204 117-204 116z m254 238h238v-238h-238v238z" horiz-adv-x="1000" />

<glyph glyph-name="account-close" unicode="&#xe84a;" d="M833 600h-333l-83 83h-250c-46 0-84-37-84-83v-500c0-46 38-83 84-83h666c46 0 84 37 84 83v417c0 46-38 83-84 83z m-29-433l-37-38-146 146-146-146-37 38 145 146-145 145 37 38 146-146 146 146 37-38-146-145 146-146z" horiz-adv-x="1000" />

<glyph glyph-name="file-import" unicode="&#xe84b;" d="M250 767c-46 0-83-38-83-84v-666a83 83 0 0 1 83-84h500a83 83 0 0 1 83 84v500l-250 250m-41-63l229-229h-229m-123-92l118-118 88 88v-295h-295l89 89-118 118" horiz-adv-x="1000" />

<glyph glyph-name="file-export" unicode="&#xe84c;" d="M250 767c-46 0-83-38-83-84v-666a83 83 0 0 1 83-84h500a83 83 0 0 1 83 84v500l-250 250m-41-63l229-229h-229m-170-134h295v-295l-89 89-118-118-117 118 117 117" horiz-adv-x="1000" />

<glyph glyph-name="file-view" unicode="&#xe84d;" d="M583 767h-333c-46 0-83-38-83-84v-666c0-46 37-84 83-84h500c46 0 83 38 83 84v500l-250 250z m-120-763c-105 0-192 63-225 154 37 92 125 155 225 155s191-63 225-155c-34-91-121-154-225-154z m83 484v229l229-229h-229z m-83-225c-59 0-105-46-105-105 0-58 46-104 105-104s104 46 104 104c0 59-46 105-104 105z m0-167c-34 0-63 29-63 62 0 34 29 63 63 63 33 0 62-29 62-63 0-33-25-62-62-62z" horiz-adv-x="1000" />

<glyph glyph-name="printer" unicode="&#xe84e;" d="M750 725h-500v-167h500m42-208a42 42 0 0 0-42 42 42 42 0 0 0 42 41 42 42 0 0 0 41-41 42 42 0 0 0-41-42m-125-292h-334v209h334m125 250h-584a125 125 0 0 1-125-125v-250h167v-167h500v167h167v250a125 125 0 0 1-125 125z" horiz-adv-x="1000" />

<glyph glyph-name="reschedule-arrangement" unicode="&#xe84f;" d="M792 58h-584v459h584m-125 291v-83h-334v83h-83v-83h-42c-45 0-83-37-83-83v-584c0-45 38-83 83-83h584c46 0 83 38 83 83v584c0 46-37 83-83 83h-42v83m-112-383c-34 33-84 58-138 58-108 0-196-87-196-195s88-196 196-196c92 0 167 62 188 146h-50c-21-55-75-96-138-96-79 0-146 66-146 146s67 145 146 145c42 0 75-16 104-41l-79-79h171v170l-58-58z" horiz-adv-x="1000" />

<glyph glyph-name="dca-allocate" unicode="&#xe850;" d="M292 579c0 0 12 104 41 104 21 0 96 0 96 0s34 9 46-104m104-54c0-33-87-58-200-58s-196 25-196 58 88 58 200 58 196-25 196-58z m-175-250l-16-33 29-284h-84l30 288-17 29 29 29 29-29z m-116 38c-5 0-155-5-175-38s-42-288-42-288l237-16v342m163 0c4 0 154-5 175-38s42-288 42-288l-238-16v342m33 83c0 54-45 29-104 29s-100 25-100-29 46-79 104-79 100 29 100 79z m296 75c-29 0-58 25-58 58s25 59 58 59c29 0 59-25 59-59s-30-58-59-58m125 37c0 5 0 9 0 17 0 4 0 8 0 17l34 25c4 4 4 4 0 8l-34 58c0 9-8 9-12 9l-38-17c-12 8-21 13-29 17l-4 46-4 4h-67c-4 0-8-4-8-4l-4-46c-9-4-21-9-30-17l-45 17c-5 0-9 0-9-4l-33-59c0-4 0-8 0-8l37-25c0-4 0-8 0-17s0-8 0-16l-33-30c-4-4-4-4 0-8l33-58c0-4 5-4 9-4l37 16c9-4 21-8 29-16l5-46c0-4 4-4 8-4h62c5 0 9 4 9 4l4 46c8 4 21 8 29 16l38-16c4 0 8 0 8 4l46 58c0 4 0 8 0 8l-38 25z" horiz-adv-x="1000" />

<glyph glyph-name="dca-preset" unicode="&#xe851;" d="M754 508h217v-104h-217v104z m-125-50l125-108v217l-125-109z m-296 163c0 0 13 104 42 104 21 0 96 0 96 0s33 8 46-104m104-54c0-34-88-59-200-59s-196 25-196 59 88 58 200 58 196-25 196-58z m-175-250l-17-34 29-283h-83l29 288-16 29 29 29 29-29z m-117 37c-4 0-154-4-175-37s-41-288-41-288l237-16v341m163 0c4 0 154-4 175-37s41-288 41-288l-237-16v341m33 84c0 54-46 29-104 29s-100 29-100-29 46-80 104-80 100 30 100 80z" horiz-adv-x="1000" />

<glyph glyph-name="play-circle" unicode="&#xe852;" d="M417 163v375l250-188m-167 417a417 417 0 0 1-417-417 417 417 0 0 1 417-417 417 417 0 0 1 417 417 417 417 0 0 1-417 417z" horiz-adv-x="1000" />

<glyph glyph-name="edit-history" unicode="&#xe853;" d="M733-13c84 0 150 67 150 151s-66 150-150 150-150-67-150-150 67-151 150-151m0 342c105 0 188-83 188-187s-83-188-188-188c-104 0-187 84-187 188-4 100 83 187 187 187m9-96v-100l83-50-12-25-100 59v112h29z m100 355c16 16 16 41 0 58l-96 96c-17 16-42 16-58 0l-75-75 158-159m-667-345v-159h159l458 463-154 158-463-462z" horiz-adv-x="1000" />

<glyph glyph-name="logout" unicode="&#xe854;" d="M708 131v136h-291v166h291v136l219-219-219-219m-166 636a83 83 0 0 0 83-84v-166h-83v166h-375v-666h375v166h83v-166a83 83 0 0 0-83-84h-375a83 83 0 0 0-84 84v666a83 83 0 0 0 84 84h375z" horiz-adv-x="1000" />

<glyph glyph-name="dca-complete" unicode="&#xe855;" d="M333 621c0 0 13 104 42 104 21 0 96 0 96 0s33 8 46-104m104-54c0-34-88-59-200-59s-196 25-196 59 88 58 200 58 196-25 196-58z m-175-250l-17-34 29-283h-83l29 288-16 29 29 29 29-29z m-117 37c-4 0-154-4-175-37s-41-288-41-288l237-16v341m163 0c4 0 154-4 175-37s41-288 41-288l-237-16v341m33 84c0 54-46 29-104 29s-100 29-100-29 46-80 104-80 100 30 100 80z m446 166l-238-237-112 108 29 29 83-79 213 213 25-34z m-17 17l-212-213-96 92 25 25 71-67 187 188 25-25z" horiz-adv-x="1000" />

<glyph glyph-name="dca-withdraw" unicode="&#xe856;" d="M821-75l-100 100-150-12v158l-58 58 25-229h-84l25 263-50 50v-300l-237 16c0 0 21 254 41 288 17 25 117 33 159 37l-304 304 33 34 733-734-33-33z m-483 608c33-16 91-25 166-25 113 0 200 25 200 59 0 25-50 46-121 54h17c-12 112-46 104-46 104s-75 0-96 0c-29 0-41-104-41-104h16c-75-8-125-29-125-54 0 0 0 0 0-4l30-30z m237-179v-54l233-233c-8 71-20 229-37 254-21 33-171 37-175 37h-21z m33 84c0 54-45 29-104 29-46 0-79 16-96-4l105-105c58 5 95 30 95 80z" horiz-adv-x="1000" />

<glyph glyph-name="deactivate-product" unicode="&#xe857;" d="M992-17m-871 746m792-758l-817 812-54-54 191-191-29-13c-12-8-21-21-21-37v-346c0-13 9-29 21-34l304-171c5-4 13-8 21-8s17 4 21 8l179 101 125-126 59 59z m-384 646l229-129-170-96 275-275c8 8 12 16 12 29v342c0 12-8 29-21 33l-304 171c-4 4-12 8-21 8s-16-4-21-8l-141-79 54-55 108 59z" horiz-adv-x="1000" />

<glyph glyph-name="btn-remove" unicode="&#xe858;" d="M500 756c225 0 406-181 406-406s-181-406-406-406-406 181-406 406 181 406 406 406m0 63c-259 0-469-210-469-469s210-469 469-469 469 210 469 469-210 469-469 469l0 0z m156-344l-31 31-125-125-125 125-31-31 125-125-125-125 31-31 125 125 125-125 31 31-125 125 125 125z" horiz-adv-x="1000" />

<glyph glyph-name="authorise-writeoff" unicode="&#xe859;" d="M721 588c50 0 67-25 67-59h62c0 46-29 92-87 104v59h-84v-59c-12-4-29-8-41-16l41-42c13 8 25 13 42 13m-196 79l-33-34 91-100c0-58 42-87 109-108l96-96c-9-12-30-25-67-25-58 0-79 25-83 59h-59c4-59 50-96 100-105v-58h84v58c25 5 50 17 66 30l63-63 33 33-400 409z m-425-634h529v-66h-529v66z m0 96h529v-71h-529v71z m463-66h-396c-38 0-67 29-67 66l0 0c0 38 29 67 67 67h396c37 0 66-29 66-67l0 0c0-41-29-66-66-66z m-188 550c54 0 100-88 100-192s-46-196-100-196-100 88-100 192 42 196 100 196z m0-546h-4c-25 0-46 21-46 46v220c0 25 21 46 46 46h4c25 0 46-21 46-46v-220c4-30-17-46-46-46z" horiz-adv-x="1000" />

<glyph glyph-name="reactivate-product" unicode="&#xe85a;" d="M733 100c0-12-8-25-16-29l-271-154c-4-5-13-5-21-5-8 0-12 0-21 5l-271 154c-12 4-16 17-16 29v308c0 13 8 25 16 30l271 154c4 8 13 8 17 8 8 0 12 0 21-4l271-154c12-4 16-17 16-29v-313m-308 429l-204-116 204-117 204 117-204 116z m525 104l-238 138v-275l238 137z" horiz-adv-x="1000" />

<glyph glyph-name="dca-reinstatement" unicode="&#xe85b;" d="M292 621c0 0 12 104 41 104 21 0 96 0 96 0s34 8 46-104m104-54c0-34-87-59-200-59s-196 25-196 59 88 58 200 58 196-25 196-58z m-175-250l-16-34 29-283h-84l30 288-17 29 29 29 29-29z m-116 37c-5 0-155-4-175-37s-42-288-42-288l237-16v341m163 0c4 0 154-4 175-37s42-288 42-288l-238-16v341m33 84c0 54-45 29-104 29s-100 29-100-29 46-80 104-80 100 30 100 80z m346 204h-112l62 62-29 25-112-112 112-109 29 30-62 62h112c50 0 92-42 92-92s-42-91-92-91h-71v-42h71c71 0 129 58 129 129s-54 138-129 138m-150-263h42v42h-42v-42z" horiz-adv-x="1000" />

<glyph glyph-name="bar-product" unicode="&#xe85c;" d="M733 100c0-12-8-25-16-29l-271-154c-4-5-13-5-21-5s-12 0-21 5l-271 154c-12 4-16 17-16 29v308c0 13 8 25 16 30l271 154c4 8 13 8 17 8 8 0 12 0 21-4l271-154c12-4 16-17 16-29v-313m-308 429l-204-116 204-117 204 117-204 116z m304 213h58v-221h-58v221z m100 0h58v-221h-58v221z" horiz-adv-x="1000" />

<glyph glyph-name="reinstate-product" unicode="&#xe85d;" d="M767 142c0-13-9-25-21-34l-292-162c-4-4-12-9-21-9s-16 5-20 9l-292 162c-13 5-21 17-21 34v329c0 12 8 25 21 33l292 163c4 4 12 8 20 8s17-4 21-8l292-163c12-4 21-16 21-33v-329m-329 450l-221-125 221-125 220 125-220 125z m491 158l-187-192-88 88 21 21 63-63 166 167 25-21z" horiz-adv-x="1000" />

<glyph glyph-name="content-save" unicode="&#xe85e;" d="M625 475h-417v167h417m-125-584a125 125 0 0 0-125 125 125 125 0 0 0 125 125 125 125 0 0 0 125-125 125 125 0 0 0-125-125m208 667h-500c-46 0-83-37-83-83v-584a83 83 0 0 1 83-83h584a83 83 0 0 1 83 83v500l-167 167z" horiz-adv-x="1000" />

<glyph glyph-name="content-paste" unicode="&#xe85f;" d="M792 17h-584v666h84v-125h416v125h84m-292 84a42 42 0 0 0 42-42 42 42 0 0 0-42-42 42 42 0 0 0-42 42 42 42 0 0 0 42 42m292 0h-174c-18 48-64 83-118 83-54 0-100-35-117-83h-175a83 83 0 0 1-83-84v-666a83 83 0 0 1 83-84h584a83 83 0 0 1 83 84v666a83 83 0 0 1-83 84z" horiz-adv-x="1000" />

<glyph glyph-name="tower-import" unicode="&#xe860;" d="M575 325h225c21 0 38-17 38-37v-301c0-20-17-37-38-37h-225c-21 0-37 17-37 37v301c0 20 16 37 37 37m113-37c-63 0-113-50-113-113 0-62 50-112 117-112l-17 41c-4 9 0 21 8 25l17 9c8 4 21 0 25-9l38-46c25 21 41 55 41 88-4 67-54 117-116 117m0-96c12 0 20-9 20-21 0-13-8-21-20-21-13 0-21 8-21 21 0 12 8 21 21 21m-96-171c-13 0-21-8-21-21s8-21 21-21c12 0 21 8 21 21s-9 21-21 21m96 92l45-121 50 29-79 100-16-8z m-234 129h-262v66h266c9 25 25 50 50 67h-316v63h391v-46h67v179l-196 196h-262c-38 0-67-29-67-67v-525c0-37 29-67 67-67h262v134z m-33 475l179-179h-179v179z" horiz-adv-x="1000" />

<glyph glyph-name="alert-circle-outline" unicode="&#xe861;" d="M458 225h84v-83h-84v83m0 333h84v-250h-84v250m42 209c-230 0-417-188-417-417a417 417 0 0 1 417-417 417 417 0 0 1 417 417 417 417 0 0 1-417 417m0-750a333 333 0 0 0-333 333 333 333 0 0 0 333 333 333 333 0 0 0 333-333 333 333 0 0 0-333-333z" horiz-adv-x="1000" />

<glyph glyph-name="chart-arc" unicode="&#xe862;" d="M674 33l-84 145c41 30 70 77 75 130h168c-7-115-68-215-159-275m-132 524v168c179-11 322-154 333-333h-168c-9 87-78 156-165 165m-250-228c0-26 5-52 16-75l-145-84c-25 48-38 102-38 159 0 189 148 343 333 354v-168c-93-10-166-89-166-186m187-354c-124 0-232 63-296 159l145 84c35-46 89-76 151-76 27 0 52 5 75 16l84-145c-48-25-102-38-159-38z" horiz-adv-x="1000" />

<glyph glyph-name="chart-bar" unicode="&#xe863;" d="M917-25h-834v750h84v-667h83v375h167v-375h83v542h167v-542h83v209h167v-292z" horiz-adv-x="1000" />

<glyph glyph-name="chart-line" unicode="&#xe864;" d="M667 359l176 306 72-42-217-377-272 156-198-344h689v-83h-834v750h84v-606l229 398 271-158z" horiz-adv-x="1000" />

<glyph glyph-name="database" unicode="&#xe865;" d="M500 725c-184 0-333-75-333-167 0-92 149-166 333-166 184 0 333 74 333 166 0 92-149 167-333 167m-333-250v-125c0-92 149-167 333-167 184 0 333 75 333 167v125c0-92-149-167-333-167-184 0-333 75-333 167m0-208v-125c0-92 149-167 333-167 184 0 333 75 333 167v125c0-92-149-167-333-167-184 0-333 75-333 167z" horiz-adv-x="1000" />

<glyph glyph-name="database-plus" unicode="&#xe866;" d="M375 725c-184 0-333-75-333-167 0-92 149-166 333-166 184 0 333 74 333 166 0 92-149 167-333 167m-333-250v-125c0-92 149-167 333-167 184 0 333 75 333 167v125c0-92-149-167-333-167-184 0-333 75-333 167m0-208v-125c0-92 149-167 333-167 59 0 116 8 167 22v126c-51-15-108-23-167-23-184 0-333 75-333 167m708 0v-125h-125v-84h125v-125h83v125h125v84h-125v125" horiz-adv-x="1000" />

<glyph glyph-name="dots-horizontal" unicode="&#xe867;" d="M667 350a83 83 0 0 0 83 83 83 83 0 0 0 83-83 83 83 0 0 0-83-83 83 83 0 0 0-83 83m-250 0a83 83 0 0 0 83 83 83 83 0 0 0 83-83 83 83 0 0 0-83-83 83 83 0 0 0-83 83m-250 0a83 83 0 0 0 83 83 83 83 0 0 0 83-83 83 83 0 0 0-83-83 83 83 0 0 0-83 83z" horiz-adv-x="1000" />

<glyph glyph-name="dots-vertical" unicode="&#xe868;" d="M500 183a83 83 0 0 0 83-83 83 83 0 0 0-83-83 83 83 0 0 0-83 83 83 83 0 0 0 83 83m0 250a83 83 0 0 0 83-83 83 83 0 0 0-83-83 83 83 0 0 0-83 83 83 83 0 0 0 83 83m0 250a83 83 0 0 0 83-83 83 83 0 0 0-83-83 83 83 0 0 0-83 83 83 83 0 0 0 83 83z" horiz-adv-x="1000" />

<glyph glyph-name="home" unicode="&#xe869;" d="M417 17v250h166v-250h209v333h125l-417 375-417-375h125v-333h209z" horiz-adv-x="1000" />

<glyph glyph-name="menu" unicode="&#xe86a;" d="M125 600h750v-83h-750v83m0-208h750v-84h-750v84m0-209h750v-83h-750v83z" horiz-adv-x="1000" />

<glyph glyph-name="exclamation" unicode="&#xe86b;" d="M458 663h84v-459h-84v459m84-542v-83h-84v83h84z" horiz-adv-x="1000" />

<glyph glyph-name="flag-outline-variant" unicode="&#xe86c;" d="M250 725a42 42 0 0 0 42-42v-36c44 18 104 36 166 36 125 0 125-83 209-83 125 0 166 83 166 83v-333c0 0-41-83-166-83-125 0-125 83-209 83-125 0-166-83-166-83v-292h-84v708a42 42 0 0 0 42 42m42-177v-177c0 0 83 62 166 62 84 0 125-83 209-83 83 0 83 42 83 42v146c0 0-42-21-83-21-84 0-125 83-209 83-83 0-166-52-166-52z" horiz-adv-x="1000" />

<glyph glyph-name="refresh" unicode="&#xe86d;" d="M735 585c-60 61-143 98-235 98a333 333 0 0 1-333-333 333 333 0 0 1 333-333c155 0 285 106 322 250h-87c-34-97-126-167-235-167a250 250 0 0 0-250 250 250 250 0 0 0 250 250c69 0 131-29 176-74l-134-134h291v291l-98-98z" horiz-adv-x="1000" />

<glyph glyph-name="timer-sand" unicode="&#xe86e;" d="M833 767v-84h-83v-183l-150-150 150-150v-183h83v-84h-666v84h83v183l150 150-150 150v183h-83v84h666m-166-601l-125 125v118l125 125v149h-334v-149l125-125v-118l-125-125v-24h84l83 83 83-83h84v24m-167 309l-83 83h166l-83-83z" horiz-adv-x="1000" />

<glyph glyph-name="star-outline" unicode="&#xe86f;" d="M500 209l-157-95 42 179-139 120 183 15 71 168 71-168 183-15-139-120 42-179m260 351l-300 25-117 277-117-277-300-25 227-197-67-293 257 155 258-155-69 293 228 197z" horiz-adv-x="1000" />
</font>
</defs>
</svg>
