<?xml version="1.0" encoding="utf-8"?>
<!-- Generator: Adobe Illustrator 22.1.0, SVG Export Plug-In . SVG Version: 6.00 Build 0)  -->
<svg version="1.1" id="Layer_1" xmlns="http://www.w3.org/2000/svg" xmlns:xlink="http://www.w3.org/1999/xlink" x="0px" y="0px"
	 viewBox="0 0 283.5 283.5" style="enable-background:new 0 0 283.5 283.5;" xml:space="preserve">
<style type="text/css">
	.st0{fill:#632678;}
	.st1{fill:#DACEDE;}
</style>
<title>eye</title>
<g id="_x31_096cd13-1715-46dd-9ccd-0b2881726b4e">
	<g id="_x38_86e51a2-cae7-4976-9fc5-6d87abea1e6c">
		<path class="st0" d="M141.7,214.1c-54.3,0-104-24.9-133-66.7c-2.2-3.1-2.3-7.3-0.1-10.4c29-41.8,78.7-66.7,133.1-66.7l0,0
			c54.3,0,104,24.9,133,66.6c2.3,3.2,2.3,7.4,0,10.6C245.8,189.2,196.1,214.1,141.7,214.1z M19.9,142.2
			c26.9,37.4,72.3,59.7,121.8,59.7s95-22.3,121.8-59.7c-26.9-37.4-72.2-59.7-121.8-59.7l0,0C92.2,82.5,46.8,104.8,19.9,142.2z
			 M265,144.2L265,144.2z M264.8,140.4L264.8,140.4z M18.5,140.2L18.5,140.2z"/>
		<circle class="st1" cx="141.8" cy="142.2" r="48.2"/>
		<path class="st0" d="M141.8,196.5c-30,0-54.3-24.3-54.3-54.3s24.3-54.3,54.3-54.3s54.3,24.3,54.3,54.3S171.7,196.5,141.8,196.5z
			 M141.8,100.2c-23.2,0-42.1,18.8-42.1,42.1s18.8,42.1,42.1,42.1s42.1-18.8,42.1-42.1S165,100.2,141.8,100.2z"/>
	</g>
</g>
</svg>
