<?xml version="1.0" encoding="utf-8"?>
<!-- Generator: Adobe Illustrator 22.0.1, SVG Export Plug-In . SVG Version: 6.00 Build 0)  -->
<svg version="1.1" id="Layer_1" xmlns="http://www.w3.org/2000/svg" xmlns:xlink="http://www.w3.org/1999/xlink" x="0px" y="0px"
	 viewBox="0 0 566.9 566.9" style="enable-background:new 0 0 566.9 566.9;" xml:space="preserve">
<style type="text/css">
	.st0{fill:#064A94;}
	.st1{fill:#FFFFFF;}
</style>
<circle class="st0" cx="283.2" cy="283.2" r="283.2"/>
<path id="Facebook_13_" class="st1" d="M402.4,149.3H164.1c-8.2,0-14.8,6.6-14.8,14.8v238.3c0,8.2,6.6,14.8,14.8,14.8h128.3V313.4
	h-34.9V273h34.9v-29.8c0-34.6,21.1-53.4,52-53.4c14.8,0,27.5,1.1,31.2,1.6v36.2l-21.4,0c-16.8,0-20,8-20,19.7V273h40l-5.2,40.4
	h-34.8v103.7h68.3c8.2,0,14.8-6.6,14.8-14.8V164.1C417.2,155.9,410.5,149.3,402.4,149.3z"/>
</svg>
