<?xml version="1.0" encoding="utf-8"?>
<!-- Generator: Adobe Illustrator 22.1.0, SVG Export Plug-In . SVG Version: 6.00 Build 0)  -->
<svg version="1.1" id="Layer_1" xmlns="http://www.w3.org/2000/svg" xmlns:xlink="http://www.w3.org/1999/xlink" x="0px" y="0px"
	 viewBox="0 0 283.5 283.5" style="enable-background:new 0 0 283.5 283.5;" xml:space="preserve">
<style type="text/css">
	.st0{fill:#632678;}
	.st1{fill:#D5D5D5;}
	.st2{fill:#DACEDE;}
</style>
<title>graph</title>
<g id="_x37_e66538d-b8f5-4630-bc7c-060efc98fca1">
	<g id="ac10a818-0eef-4d9b-836b-072c2c06b50d">
		<polygon class="st0" points="27.6,265.2 17.2,257 71.2,189 163.4,163 202.5,72.9 214.7,78.1 173.1,174.1 78.9,200.6 		"/>
		<path class="st1" d="M94.9,194.8c0,11-8.9,19.9-19.9,19.9s-19.9-8.9-19.9-19.9S64,174.9,75,174.9S94.9,183.9,94.9,194.8"/>
		<circle class="st2" cx="75" cy="194.8" r="19.9"/>
		<path class="st0" d="M75,221.4c-14.6,0-26.5-11.9-26.5-26.5s11.9-26.5,26.5-26.5s26.5,11.9,26.5,26.5S89.7,221.3,75,221.4z
			 M75,181.6c-7.3,0-13.3,5.9-13.3,13.3c0,7.3,5.9,13.3,13.3,13.3c7.3,0,13.3-5.9,13.3-13.3S82.4,181.6,75,181.6L75,181.6z"/>
		<path class="st1" d="M188.6,168.6c0,11-8.9,19.9-19.9,19.9s-19.9-8.9-19.9-19.9s8.9-19.9,19.9-19.9
			C179.7,148.7,188.6,157.6,188.6,168.6"/>
		<circle class="st2" cx="168.7" cy="168.6" r="19.9"/>
		<path class="st0" d="M168.7,195.1c-14.6,0-26.5-11.9-26.5-26.5s11.9-26.5,26.5-26.5s26.5,11.9,26.5,26.5l0,0
			C195.2,183.2,183.4,195.1,168.7,195.1z M168.7,155.3c-7.3,0-13.3,5.9-13.3,13.3c0,7.3,5.9,13.3,13.3,13.3
			c7.3,0,13.3-5.9,13.3-13.3l0,0C182,161.2,176.1,155.3,168.7,155.3L168.7,155.3z"/>
		<path class="st1" d="M227.9,75.5c0,11-8.9,19.9-19.9,19.9s-19.9-8.9-19.9-19.9S197,55.6,208,55.6S227.9,64.5,227.9,75.5"/>
		<circle class="st2" cx="208" cy="75.4" r="19.9"/>
		<path class="st0" d="M208,101.9c-14.6,0-26.5-11.9-26.5-26.5s11.9-26.5,26.5-26.5s26.5,11.9,26.5,26.5c0,0,0,0,0,0.1
			C234.5,90.1,222.6,101.9,208,101.9z M208,62.1c-7.3,0-13.3,5.9-13.3,13.3c0,7.3,5.9,13.3,13.3,13.3c7.3,0,13.2-5.9,13.3-13.2
			C221.3,68.1,215.4,62.2,208,62.1C208.1,62.1,208.1,62.1,208,62.1z"/>
		<path class="st0" d="M261.1,267.8H15.7V22.4c0-3.7,3-6.6,6.6-6.6s6.6,3,6.6,6.6v232.1H261c3.7,0,6.6,3,6.6,6.6
			S264.8,267.8,261.1,267.8L261.1,267.8z"/>
	</g>
</g>
</svg>
