<?xml version="1.0" encoding="utf-8"?>
<!-- Generator: Adobe Illustrator 22.1.0, SVG Export Plug-In . SVG Version: 6.00 Build 0)  -->
<svg version="1.1" id="Layer_1" xmlns="http://www.w3.org/2000/svg" xmlns:xlink="http://www.w3.org/1999/xlink" x="0px" y="0px"
	 viewBox="0 0 283.5 283.5" style="enable-background:new 0 0 283.5 283.5;" xml:space="preserve">
<style type="text/css">
	.st0{fill:#FFFFFF;}
</style>
<title>graph</title>
<g>
	<path class="st0" d="M73.3,77.1c2.2-2,3.4-3.1,4.5-4.3c19.3-19.3,38.5-38.5,57.8-57.8c5.3-5.3,8.5-5.2,13.8,0.1
		C189.2,55,229,94.8,268.9,134.6c2.6,2.6,3.8,5.2,3.7,8.8c-0.1,39.6,0,79.1-0.1,118.7c0,7.1-2.6,9.7-9.6,9.7
		c-80.4,0-160.7,0-241.1,0c-7,0-9.6-2.6-9.6-9.7c0-70.2,0-140.3,0-210.5c0-7.4,2.3-9.6,9.4-9.6c14.2,0,28.3,0,42.5,0
		c6.5,0,9,2.6,9,9.2C73.3,59.4,73.3,67.6,73.3,77.1z M142.4,29.7c-1.2,1.2-2.4,2.2-3.4,3.2C116.9,55,94.8,77.1,72.8,99.1
		c-2.7,2.7-5.6,4.8-9.7,3.2c-4.2-1.7-5-5.2-5-9.3c0.1-10.3,0-20.7,0-31c0-1.6-0.1-3.2-0.2-4.7c-10.4,0-20.2,0-30.1,0
		c0,66.6,0,132.8,0,199.2c1.8,0.1,3.1,0.2,4.5,0.2c73.4,0,146.7,0,220.1,0.1c4.5,0,5.2-1.6,5.2-5.5c-0.1-33.9-0.1-67.9,0-101.8
		c0-3.5-1-5.9-3.5-8.4c-36.2-36.1-72.4-72.3-108.5-108.4C144.6,31.6,143.6,30.8,142.4,29.7z"/>
</g>
</svg>
