<?xml version="1.0" encoding="utf-8"?>
<!-- Generator: Adobe Illustrator 22.0.1, SVG Export Plug-In . SVG Version: 6.00 Build 0)  -->
<svg version="1.1" id="Layer_1" xmlns="http://www.w3.org/2000/svg" xmlns:xlink="http://www.w3.org/1999/xlink" x="0px" y="0px"
	 viewBox="0 0 566.9 566.9" style="enable-background:new 0 0 566.9 566.9;" xml:space="preserve">
<style type="text/css">
	.st0{fill:#064A94;}
	.st1{fill:#FFFFFF;}
</style>
<circle class="st0" cx="283.2" cy="283.2" r="283.2"/>
<g id="Linkedin_1_">
	<g id="Linkedin_9_">
		<path class="st1" d="M160.4,228.7h52.8v169.7h-52.8V228.7z M186.8,144.3c16.9,0,30.6,13.7,30.6,30.6c0,16.9-13.7,30.6-30.6,30.6
			c-16.9,0-30.6-13.7-30.6-30.6C156.2,158,169.8,144.3,186.8,144.3"/>
		<path class="st1" d="M246.3,228.7h50.6v23.2h0.7c7-13.3,24.2-27.4,49.9-27.4c53.4,0,63.3,35.1,63.3,80.9v93.1H358v-82.5
			c0-19.7-0.3-45-27.4-45c-27.4,0-31.6,21.5-31.6,43.6v84h-52.7V228.7z"/>
	</g>
</g>
</svg>
