<?xml version="1.0" encoding="utf-8"?>
<!-- Generator: Adobe Illustrator 22.1.0, SVG Export Plug-In . SVG Version: 6.00 Build 0)  -->
<svg version="1.1" id="Layer_1" xmlns="http://www.w3.org/2000/svg" xmlns:xlink="http://www.w3.org/1999/xlink" x="0px" y="0px"
	 viewBox="0 0 225.4 140.9" style="enable-background:new 0 0 225.4 140.9;" xml:space="preserve">
<style type="text/css">
	.st0{fill-rule:evenodd;clip-rule:evenodd;fill:#0C0C17;}
	.st1{fill:#0C0C17;}
	.st2{fill:#00437F;}
	.st3{fill-rule:evenodd;clip-rule:evenodd;fill:#FFB216;}
	.st4{fill-rule:evenodd;clip-rule:evenodd;fill:#FF152B;}
	.st5{fill-rule:evenodd;clip-rule:evenodd;fill:#FFFFFF;}
	.st6{fill:none;stroke:#FFFFFF;stroke-width:0.216;stroke-miterlimit:2.6131;}
</style>
<title>dial</title>
<g>
	<g>
		<polygon class="st0" points="143.8,114.9 145.9,114.8 147.9,114.7 149.9,114.4 151.9,114.1 153.9,113.6 155.8,113.1 157.7,112.4 
			159.5,111.7 161.3,110.9 163.1,110 164.8,109 166.4,108 168,106.8 169.5,105.6 171,104.4 172.4,103 173.8,101.6 175,100.1 
			176.2,98.6 177.4,97 178.4,95.4 179.4,93.7 180.3,91.9 181.1,90.1 181.8,88.3 182.5,86.4 183,84.5 183.5,82.5 183.8,80.5 
			184.1,78.5 184.2,76.5 184.3,74.4 184.2,72.3 184.1,70.3 183.8,68.2 183.5,66.3 183,64.3 182.5,62.4 181.8,60.5 181.1,58.7 
			180.3,56.9 179.4,55.2 178.4,53.5 177.4,51.8 176.2,50.2 175,48.7 173.8,47.3 172.4,45.8 171,44.5 169.5,43.2 168,42 166.4,40.9 
			164.8,39.9 163.1,38.9 161.3,38 159.5,37.2 157.7,36.5 155.8,35.8 153.9,35.3 151.9,34.8 149.9,34.5 147.9,34.2 145.9,34.1 
			143.8,34 141.7,34.1 139.6,34.2 137.6,34.5 135.6,34.8 133.7,35.3 131.8,35.8 129.9,36.5 128,37.2 126.3,38 124.5,38.9 
			122.8,39.9 121.2,40.9 119.6,42 118.1,43.2 116.6,44.5 115.2,45.8 113.9,47.3 112.6,48.7 111.4,50.2 110.3,51.8 109.2,53.5 
			108.3,55.2 107.4,56.9 106.6,58.7 105.8,60.5 105.2,62.4 104.7,64.3 104.2,66.3 103.9,68.2 103.6,70.3 103.5,72.3 103.4,74.4 
			103.5,76.5 103.6,78.5 103.9,80.5 104.2,82.5 104.7,84.5 105.2,86.4 105.8,88.3 106.6,90.1 107.4,91.9 108.3,93.7 109.2,95.4 
			110.3,97 111.4,98.6 112.6,100.1 113.9,101.6 115.2,103 116.6,104.4 118.1,105.6 119.6,106.8 121.2,108 122.8,109 124.5,110 
			126.3,110.9 128,111.7 129.9,112.4 131.8,113.1 133.7,113.6 135.6,114.1 137.6,114.4 139.6,114.7 141.7,114.8 143.8,114.9 
			143.8,114.9 		"/>
		<polygon class="st0" points="89.7,114.9 91.7,114.8 93.8,114.7 95.8,114.4 97.8,114.1 99.8,113.6 101.7,113.1 103.6,112.4 
			105.4,111.7 107.2,110.9 108.9,110 110.6,109 112.2,108 113.8,106.8 115.4,105.6 116.8,104.4 118.2,103 119.6,101.6 120.8,100.1 
			122,98.6 123.1,97 124.2,95.4 125.2,93.7 126.1,91.9 126.9,90.1 127.6,88.3 128.2,86.4 128.8,84.5 129.2,82.5 129.6,80.5 
			129.8,78.5 130,76.5 130,74.4 130,72.3 129.8,70.3 129.6,68.2 129.2,66.3 128.8,64.3 128.2,62.4 127.6,60.5 126.9,58.7 
			126.1,56.9 125.2,55.2 124.2,53.5 123.1,51.8 122,50.2 120.8,48.7 119.6,47.3 118.2,45.8 116.8,44.5 115.4,43.2 113.8,42 
			112.2,40.9 110.6,39.9 108.9,38.9 107.2,38 105.4,37.2 103.6,36.5 101.7,35.8 99.8,35.3 97.8,34.8 95.8,34.5 93.8,34.2 91.7,34.1 
			89.7,34 87.6,34.1 85.5,34.2 83.5,34.5 81.5,34.8 79.5,35.3 77.6,35.8 75.7,36.5 73.9,37.2 72.1,38 70.3,38.9 68.7,39.9 67,40.9 
			65.4,42 63.9,43.2 62.4,44.5 61,45.8 59.7,47.3 58.4,48.7 57.2,50.2 56.1,51.8 55,53.5 54,55.2 53.1,56.9 52.3,58.7 51.6,60.5 
			51,62.4 50.4,64.3 50,66.3 49.6,68.2 49.3,70.3 49.2,72.3 49.1,74.4 49.2,76.5 49.3,78.5 49.6,80.5 50,82.5 50.4,84.5 51,86.4 
			51.6,88.3 52.3,90.1 53.1,91.9 54,93.7 55,95.4 56.1,97 57.2,98.6 58.4,100.1 59.7,101.6 61,103 62.4,104.4 63.9,105.6 
			65.4,106.8 67,108 68.7,109 70.3,110 72.1,110.9 73.9,111.7 75.7,112.4 77.6,113.1 79.5,113.6 81.5,114.1 83.5,114.4 85.5,114.7 
			87.6,114.8 89.7,114.9 89.7,114.9 		"/>
		<polygon class="st0" points="112,49.5 133.5,49.5 133.5,47.3 113.8,47.3 112,49.5 112,49.5 		"/>
		<polygon class="st0" points="108.8,54.4 133.5,54.4 133.5,52.2 110.1,52.2 108.8,54.4 108.8,54.4 		"/>
		<polygon class="st0" points="106.4,59.3 133.5,59.3 133.5,57.1 107.3,57.1 106.4,59.3 106.4,59.3 		"/>
		<polygon class="st0" points="104.7,64.2 133.5,64.2 133.5,62 105.4,62 104.7,64.2 104.7,64.2 		"/>
		<polygon class="st0" points="105.7,87.8 133.5,87.8 133.5,85.6 105,85.6 105.7,87.8 105.7,87.8 		"/>
		<polygon class="st0" points="107.7,92.6 133.5,92.6 133.5,90.4 106.7,90.4 107.7,92.6 107.7,92.6 		"/>
		<polygon class="st0" points="110.6,97.5 133.5,97.5 133.5,95.3 109.2,95.3 110.6,97.5 110.6,97.5 		"/>
		<polygon class="st0" points="114.6,102.4 133.5,102.4 133.5,100.2 112.7,100.2 114.6,102.4 114.6,102.4 		"/>
		<polygon class="st0" points="103.7,69 133.5,69 133.5,66.8 104.2,66.8 103.7,69 103.7,69 		"/>
		<polygon class="st0" points="121.9,82.9 133.2,82.9 133.2,80.7 122.3,80.7 121.9,82.9 121.9,82.9 		"/>
		<polygon class="st0" points="122.8,78 133.2,78 133.2,75.8 123.2,75.8 122.8,78 122.8,78 		"/>
		<polygon class="st0" points="103,75.8 105.9,75.8 105.9,78 103.1,78 103,75.8 103,75.8 		"/>
		<polygon class="st0" points="97.5,73.1 97.3,73.1 97.1,73.1 96.9,73.1 96.8,73.1 96.6,73 96.4,73 96.2,73 96,72.9 95.9,72.9 
			95.6,72.9 95.4,72.9 95.1,72.9 94.9,72.9 94.5,72.9 94.2,72.9 93.8,72.9 93.5,73 93.3,73 93,73.1 92.8,73.2 92.6,73.3 92.4,73.4 
			92.3,73.5 92.2,73.7 92.1,73.8 92,74 92,74.1 92,74.3 92.1,74.5 92.1,74.6 92.2,74.8 92.4,75 92.6,75.2 93,75.5 93.3,75.6 
			93.7,75.8 94.2,75.9 94.6,76.1 95.1,76.2 95.5,76.4 95.9,76.6 96.3,76.9 96.7,77.3 96.9,77.7 97.2,78.2 97.3,78.8 97.3,79.6 
			97.3,80.4 97.2,81.1 97,81.6 96.8,82.1 96.5,82.6 96.2,83 95.9,83.3 95.5,83.6 95.1,83.9 94.6,84.1 94.2,84.3 93.7,84.4 
			93.2,84.5 92.8,84.6 92.3,84.6 91.9,84.7 91.5,84.7 90.9,84.7 90.3,84.7 89.8,84.7 89.4,84.7 89,84.6 88.6,84.6 88.3,84.6 
			88,84.5 87.7,84.5 87.4,84.5 87.2,84.4 86.9,84.4 86.7,84.3 86.5,84.2 86.3,84.1 86,84 86.7,81 86.8,81.1 86.9,81.1 87.1,81.2 
			87.3,81.2 87.6,81.3 87.9,81.3 88.2,81.4 88.5,81.4 88.8,81.5 89.2,81.6 89.6,81.6 89.9,81.6 90.3,81.6 90.7,81.7 91.1,81.7 
			91.5,81.6 91.9,81.6 92.2,81.5 92.5,81.3 92.7,81.1 92.8,80.9 92.9,80.7 93,80.5 93,80.3 93.1,79.9 92.9,79.5 92.7,79.3 92.4,79 
			92,78.8 91.5,78.6 90.9,78.4 90.4,78.2 89.9,78 89.3,77.7 88.9,77.3 88.4,76.9 88.1,76.4 87.9,75.8 87.7,75 87.7,74.2 87.8,73.6 
			87.9,73.1 88,72.7 88.2,72.2 88.4,71.8 88.7,71.5 89,71.1 89.3,70.8 89.7,70.6 90.1,70.4 90.6,70.1 91.2,70 91.8,69.9 92.4,69.8 
			93.2,69.7 94,69.7 94.5,69.7 95,69.7 95.4,69.7 95.8,69.8 96.1,69.8 96.4,69.8 96.7,69.8 96.9,69.9 97.2,69.9 97.4,69.9 97.5,70 
			97.7,70 97.8,70 98,70 98.1,70.1 98.2,70.1 97.5,73.1 97.5,73.1 		"/>
		<polyline class="st1" points="97.5,73.1 97.5,73.1 97.3,73.1 97.1,73.1 96.9,73.1 96.8,73.1 96.6,73 96.4,73 96.2,73 96,72.9 
			95.9,72.9 95.6,72.9 95.4,72.9 95.1,72.9 94.9,72.9 94.5,72.9 94.2,72.9 93.8,72.9 93.8,72.9 93.5,73 93.3,73 93,73.1 92.8,73.2 
			92.6,73.3 92.4,73.4 92.3,73.5 92.2,73.7 92.1,73.8 92,74 92,74.1 92,74.3 92.1,74.5 92.1,74.6 92.2,74.8 92.4,75 92.4,75 
			92.6,75.2 93,75.5 93.3,75.6 93.7,75.8 94.2,75.9 94.6,76.1 95.1,76.2 95.5,76.4 95.9,76.6 96.3,76.9 96.7,77.3 96.9,77.7 
			97.2,78.2 97.3,78.8 97.3,79.6 97.3,80.4 97.3,80.4 97.2,81.1 97,81.6 96.8,82.1 96.5,82.6 96.2,83 95.9,83.3 95.5,83.6 
			95.1,83.9 94.6,84.1 94.2,84.3 93.7,84.4 93.2,84.5 92.8,84.6 92.3,84.6 91.9,84.7 91.5,84.7 91.5,84.7 90.9,84.7 90.3,84.7 
			89.8,84.7 89.4,84.7 89,84.6 88.6,84.6 88.3,84.6 88,84.5 87.7,84.5 87.4,84.5 87.2,84.4 86.9,84.4 86.7,84.3 86.5,84.2 
			86.3,84.1 86,84 86.7,81 86.7,81 86.8,81.1 86.9,81.1 87.1,81.2 87.3,81.2 87.6,81.3 87.9,81.3 88.2,81.4 88.5,81.4 88.8,81.5 
			89.2,81.6 89.6,81.6 89.9,81.6 90.3,81.6 90.7,81.7 91.1,81.7 91.5,81.6 91.5,81.6 91.9,81.6 92.2,81.5 92.5,81.3 92.7,81.1 
			92.8,80.9 92.9,80.7 93,80.5 93,80.3 93,80.3 93.1,79.9 92.9,79.5 92.7,79.3 92.4,79 92,78.8 91.5,78.6 90.9,78.4 90.4,78.2 
			89.9,78 89.3,77.7 88.9,77.3 88.4,76.9 88.1,76.4 87.9,75.8 87.7,75 87.7,74.2 87.7,74.2 87.8,73.6 87.9,73.1 88,72.7 88.2,72.2 
			88.4,71.8 88.7,71.5 89,71.1 89.3,70.8 89.7,70.6 90.1,70.4 90.6,70.1 91.2,70 91.8,69.9 92.4,69.8 93.2,69.7 94,69.7 94,69.7 
			94.5,69.7 95,69.7 95.4,69.7 95.8,69.8 96.1,69.8 96.4,69.8 96.7,69.8 96.9,69.9 97.2,69.9 97.4,69.9 97.5,70 97.7,70 97.8,70 
			98,70 98.1,70.1 98.2,70.1 97.5,73.1 		"/>
		<polygon class="st0" points="100.7,66.7 104.5,66.7 103.9,70 106.2,70 105.7,73.1 103.3,73 102,80.6 102,80.9 102.1,81.1 
			102.2,81.3 102.4,81.5 102.6,81.6 102.9,81.6 103.2,81.7 103.5,81.7 103.8,81.7 104.1,81.7 104.4,81.6 104.6,81.6 104.8,81.5 
			104.9,81.5 105,81.5 105,81.4 104.5,84 104.4,84 104.3,84.1 104.2,84.2 104.1,84.2 104,84.3 103.9,84.3 103.8,84.3 103.7,84.4 
			103.5,84.4 103.4,84.4 103.2,84.5 103.1,84.5 102.9,84.5 102.7,84.6 102.5,84.6 102.2,84.6 101.2,84.6 100.7,84.6 100.2,84.5 
			99.7,84.4 99.4,84.3 99.1,84.2 98.8,84.1 98.6,83.9 98.4,83.7 98.3,83.5 98.2,83.3 98.1,83.1 98.1,82.8 98,82.5 98,82.2 
			98.1,81.9 98.1,81.6 100.7,66.7 100.7,66.7 		"/>
		<polyline class="st1" points="100.7,66.7 104.5,66.7 103.9,70 106.2,70 105.7,73.1 103.3,73 102,80.6 102,80.6 102,80.9 
			102.1,81.1 102.2,81.3 102.4,81.5 102.6,81.6 102.9,81.6 103.2,81.7 103.5,81.7 103.5,81.7 103.8,81.7 104.1,81.7 104.4,81.6 
			104.6,81.6 104.8,81.5 104.9,81.5 105,81.5 105,81.4 104.5,84 104.5,84 104.4,84 104.3,84.1 104.2,84.2 104.1,84.2 104,84.3 
			103.9,84.3 103.8,84.3 103.7,84.4 103.5,84.4 103.4,84.4 103.2,84.5 103.1,84.5 102.9,84.5 102.7,84.6 102.5,84.6 102.2,84.6 
			101.2,84.6 101.2,84.6 100.7,84.6 100.2,84.5 99.7,84.4 99.4,84.3 99.1,84.2 98.8,84.1 98.6,83.9 98.4,83.7 98.3,83.5 98.2,83.3 
			98.1,83.1 98.1,82.8 98,82.5 98,82.2 98.1,81.9 98.1,81.6 100.7,66.7 		"/>
		<polyline class="st1" points="109.2,78.2 109.2,78.2 109.2,78.5 109.2,78.7 109.2,79 109.3,79.2 109.4,79.5 109.5,79.7 109.6,80 
			109.8,80.2 110,80.4 110.2,80.7 110.4,80.9 110.6,81 110.9,81.2 111.2,81.3 111.4,81.4 111.7,81.4 111.7,81.4 112.1,81.5 
			112.4,81.5 112.8,81.6 113.1,81.6 113.5,81.6 113.8,81.6 114.2,81.6 114.6,81.6 114.9,81.5 115.3,81.5 115.7,81.4 116.1,81.3 
			116.4,81.1 116.8,80.9 117.2,80.7 117.6,80.5 117.1,83.8 117.1,83.8 116.8,84 116.6,84.1 116.4,84.1 116.2,84.2 116,84.3 
			115.8,84.4 115.6,84.4 115.3,84.5 115.1,84.5 114.8,84.5 114.5,84.6 114.2,84.6 113.9,84.6 113.5,84.6 113.1,84.6 112.6,84.6 
			112.6,84.6 111.9,84.6 111.3,84.5 110.6,84.4 109.9,84.3 109.2,84.1 108.6,83.8 108,83.5 107.4,83.1 106.9,82.6 106.4,82 
			106,81.4 105.7,80.7 105.4,79.9 105.3,79 105.3,78 105.3,76.8 105.3,76.8 105.4,76.4 105.5,75.9 105.6,75.4 105.7,74.8 
			105.9,74.2 106.2,73.6 106.5,73 106.9,72.5 107.3,71.9 107.8,71.4 108.4,70.9 109.1,70.5 109.9,70.2 110.8,69.9 111.8,69.8 
			112.9,69.7 112.9,69.7 113.4,69.7 114,69.8 114.5,69.9 115.1,70 115.6,70.2 116.2,70.5 116.7,70.8 117.1,71.2 117.5,71.6 
			117.9,72.2 118.1,72.8 118.3,73.5 118.4,74.3 118.5,75.3 118.4,76.3 118.2,77.5 118.1,78.3 108.1,78.3 108.8,75.6 114.7,75.6 
			114.7,75.6 114.8,75.3 114.8,74.9 114.7,74.6 114.7,74.4 114.6,74.1 114.5,73.9 114.3,73.7 114.2,73.5 114,73.3 113.9,73.2 
			113.7,73.1 113.5,72.9 113.2,72.9 113,72.8 112.8,72.8 112.5,72.7 112.5,72.7 112.3,72.8 112,72.8 111.8,72.9 111.6,72.9 
			111.3,73 111.1,73.2 110.9,73.3 110.8,73.5 110.6,73.7 110.4,73.9 110.3,74.1 110.1,74.3 110,74.6 109.9,74.8 109.8,75.1 
			109.8,75.4 109.2,78.2 		"/>
		<polygon class="st0" points="141.8,70.8 141.6,70.7 141.4,70.6 141.2,70.5 141,70.4 140.8,70.4 140.6,70.3 140.4,70.2 140.1,70.1 
			139.9,70.1 139.6,70 139.3,69.9 139,69.9 138.7,69.9 138.4,69.8 138.1,69.8 137.7,69.8 137.4,69.8 137,69.9 136.7,69.9 136.3,70 
			135.9,70.1 135.5,70.2 135.1,70.4 134.8,70.7 134.4,71 134,71.3 133.7,71.8 133.4,72.3 133.1,72.9 132.8,73.6 132.5,74.3 
			132.3,75.2 132.2,75.7 132.2,76.2 132.1,76.6 132.1,77.1 132.2,77.6 132.3,78 132.4,78.4 132.6,78.8 132.8,79.2 133,79.5 
			133.3,79.9 133.6,80.1 134,80.4 134.4,80.6 134.9,80.8 135.4,80.9 135.6,80.9 135.8,81 136,81 136.3,81 136.6,81.1 136.9,81.1 
			137.3,81.1 137.6,81 137.9,81 138.3,80.9 138.6,80.8 139,80.7 139.3,80.6 139.6,80.4 139.9,80.2 140.2,79.9 139.6,83.6 
			139.5,83.6 139.4,83.7 139.3,83.8 139.2,83.9 139,84 138.8,84.1 138.6,84.2 138.4,84.3 138.1,84.4 137.7,84.4 137.3,84.5 
			136.8,84.6 136.3,84.6 135.7,84.6 135,84.6 134.2,84.5 133.6,84.5 133,84.3 132.3,84.1 131.7,83.9 131.1,83.5 130.5,83.1 
			130,82.6 129.5,82.1 129,81.5 128.7,80.8 128.3,80 128.1,79.2 127.9,78.3 127.9,77.3 127.9,76.3 128,75.1 128.2,74.6 128.3,74 
			128.4,73.5 128.5,73 128.7,72.5 128.9,72 129.1,71.6 129.2,71.2 129.4,70.7 129.7,70.3 129.9,70 130.1,69.6 130.4,69.3 
			130.6,68.9 130.9,68.6 131.2,68.3 131.5,68.1 131.8,67.8 132.2,67.6 132.5,67.4 132.9,67.2 133.2,67 133.6,66.8 134,66.7 
			134.4,66.5 134.9,66.4 135.3,66.3 135.8,66.2 136.2,66.2 136.7,66.1 137.2,66.1 137.7,66.1 138.2,66.1 138.6,66.1 139,66.2 
			139.4,66.2 139.8,66.3 140.2,66.4 140.5,66.4 140.8,66.5 141.2,66.6 141.4,66.7 141.7,66.8 141.9,66.8 142.1,66.9 142.3,67 
			142.4,67 142.5,67 141.8,70.8 141.8,70.8 		"/>
		<polyline class="st1" points="141.8,70.8 141.8,70.8 141.6,70.7 141.4,70.6 141.2,70.5 141,70.4 140.8,70.4 140.6,70.3 
			140.4,70.2 140.1,70.1 139.9,70.1 139.6,70 139.3,69.9 139,69.9 138.7,69.9 138.4,69.8 138.1,69.8 137.7,69.8 137.7,69.8 
			137.4,69.8 137,69.9 136.7,69.9 136.3,70 135.9,70.1 135.5,70.2 135.1,70.4 134.8,70.7 134.4,71 134,71.3 133.7,71.8 133.4,72.3 
			133.1,72.9 132.8,73.6 132.5,74.3 132.3,75.2 132.3,75.2 132.2,75.7 132.2,76.2 132.1,76.6 132.1,77.1 132.2,77.6 132.3,78 
			132.4,78.4 132.6,78.8 132.8,79.2 133,79.5 133.3,79.9 133.6,80.1 134,80.4 134.4,80.6 134.9,80.8 135.4,80.9 135.4,80.9 
			135.6,80.9 135.8,81 136,81 136.3,81 136.6,81.1 136.9,81.1 137.3,81.1 137.6,81 137.9,81 138.3,80.9 138.6,80.8 139,80.7 
			139.3,80.6 139.6,80.4 139.9,80.2 140.2,79.9 139.6,83.6 139.6,83.6 139.5,83.6 139.4,83.7 139.3,83.8 139.2,83.9 139,84 
			138.8,84.1 138.6,84.2 138.4,84.3 138.1,84.4 137.7,84.4 137.3,84.5 136.8,84.6 136.3,84.6 135.7,84.6 135,84.6 134.2,84.5 
			134.2,84.5 133.6,84.5 133,84.3 132.3,84.1 131.7,83.9 131.1,83.5 130.5,83.1 130,82.6 129.5,82.1 129,81.5 128.7,80.8 128.3,80 
			128.1,79.2 127.9,78.3 127.9,77.3 127.9,76.3 128,75.1 128,75.1 128.2,74.6 128.3,74 128.4,73.5 128.5,73 128.7,72.5 128.9,72 
			129.1,71.6 129.2,71.2 129.4,70.7 129.7,70.3 129.9,70 130.1,69.6 130.4,69.3 130.6,68.9 130.9,68.6 131.2,68.3 131.5,68.1 
			131.8,67.8 132.2,67.6 132.5,67.4 132.9,67.2 133.2,67 133.6,66.8 134,66.7 134.4,66.5 134.9,66.4 135.3,66.3 135.8,66.2 
			136.2,66.2 136.7,66.1 137.2,66.1 137.7,66.1 137.7,66.1 138.2,66.1 138.6,66.1 139,66.2 139.4,66.2 139.8,66.3 140.2,66.4 
			140.5,66.4 140.8,66.5 141.2,66.6 141.4,66.7 141.7,66.8 141.9,66.8 142.1,66.9 142.3,67 142.4,67 142.5,67 141.8,70.8 		"/>
		<polygon class="st0" points="175.4,84.6 171.6,84.6 171.9,83.1 171.9,83 171.6,83.2 171.4,83.5 171.2,83.7 170.9,83.9 170.7,84.1 
			170.4,84.2 170.2,84.3 169.9,84.5 169.7,84.6 169.4,84.6 169.2,84.7 168.9,84.7 168.6,84.8 168.4,84.8 168.1,84.8 167.8,84.8 
			167.1,84.8 166.4,84.6 165.8,84.4 165.3,84.1 164.8,83.7 164.4,83.2 164,82.7 163.7,82.1 163.4,81.5 163.2,80.9 163,80.2 
			162.9,79.5 162.9,78.8 162.9,78.1 163,77.4 163.1,76.7 163.3,75.9 163.5,75.1 163.8,74.4 164.2,73.8 164.5,73.2 164.9,72.6 
			165.3,72.1 165.8,71.7 166.3,71.3 166.8,71 167.3,70.7 167.8,70.4 168.4,70.2 168.9,70.1 169.5,70 170,70 170.4,70 170.8,70.1 
			171.1,70.1 171.5,70.2 171.8,70.3 172.1,70.4 172.3,70.6 172.6,70.7 172.8,70.9 173,71.1 173.2,71.3 173.3,71.4 173.5,71.6 
			173.6,71.8 173.7,72 173.8,72.1 173.8,72.1 174.7,66.8 178.5,66.8 175.4,84.6 175.4,84.6 		"/>
		<polyline class="st1" points="175.4,84.6 171.6,84.6 171.9,83.1 171.9,83 171.9,83 171.6,83.2 171.4,83.5 171.2,83.7 170.9,83.9 
			170.7,84.1 170.4,84.2 170.2,84.3 169.9,84.5 169.7,84.6 169.4,84.6 169.2,84.7 168.9,84.7 168.6,84.8 168.4,84.8 168.1,84.8 
			167.8,84.8 167.8,84.8 167.1,84.8 166.4,84.6 165.8,84.4 165.3,84.1 164.8,83.7 164.4,83.2 164,82.7 163.7,82.1 163.4,81.5 
			163.2,80.9 163,80.2 162.9,79.5 162.9,78.8 162.9,78.1 163,77.4 163.1,76.7 163.1,76.7 163.3,75.9 163.5,75.1 163.8,74.4 
			164.2,73.8 164.5,73.2 164.9,72.6 165.3,72.1 165.8,71.7 166.3,71.3 166.8,71 167.3,70.7 167.8,70.4 168.4,70.2 168.9,70.1 
			169.5,70 170,70 170,70 170.4,70 170.8,70.1 171.1,70.1 171.5,70.2 171.8,70.3 172.1,70.4 172.3,70.6 172.6,70.7 172.8,70.9 
			173,71.1 173.2,71.3 173.3,71.4 173.5,71.6 173.6,71.8 173.7,72 173.8,72.1 173.8,72.1 174.7,66.8 178.5,66.8 175.4,84.6 		"/>
		<polygon class="st0" points="169.2,81.3 169.6,81.3 169.9,81.2 170.3,81.1 170.6,81 170.9,80.8 171.1,80.6 171.4,80.4 171.6,80.1 
			171.8,79.8 172,79.5 172.2,79.2 172.3,78.9 172.5,78.6 172.6,78.2 172.7,77.8 172.8,77.5 172.8,77.1 172.9,76.7 172.9,76.3 
			172.8,75.9 172.8,75.6 172.8,75.2 172.7,74.9 172.5,74.6 172.4,74.3 172.2,74.1 172.1,73.8 171.9,73.7 171.6,73.5 171.4,73.4 
			171.1,73.3 170.8,73.3 170.5,73.3 170.1,73.4 169.8,73.5 169.5,73.6 169.2,73.8 169,74 168.7,74.2 168.5,74.5 168.3,74.8 
			168.1,75.1 167.9,75.4 167.8,75.8 167.6,76.2 167.5,76.5 167.4,76.9 167.3,77.3 167.3,77.9 167.3,78.6 167.4,79.2 167.6,79.9 
			167.8,80.4 168.2,80.9 168.6,81.2 169.2,81.3 169.2,81.3 		"/>
		<polygon class="st0" points="85.4,81.6 84.9,84.6 81.4,84.6 81.5,84 81.6,83.5 81.6,83.2 81.7,83 81.5,83.2 81.3,83.4 81,83.6 
			80.7,83.8 80.4,84 80.1,84.1 79.7,84.3 79.4,84.4 79,84.6 78.6,84.7 78.2,84.7 77.8,84.8 77.4,84.8 77,84.8 76.6,84.8 76.2,84.7 
			75.7,84.6 75.3,84.5 74.9,84.3 74.6,84.1 74.3,83.9 74,83.6 73.8,83.4 73.6,83.1 73.4,82.8 73.3,82.5 73.2,82.2 73.1,81.9 
			73,81.6 73,81.3 73,81 73,80.7 73,80.2 73.1,79.7 73.2,79.2 73.4,78.7 73.6,78.3 73.9,77.9 74.2,77.5 74.5,77.2 74.8,76.8 
			75.2,76.6 75.6,76.3 76,76.1 76.5,75.9 76.9,75.7 77.4,75.6 77.8,75.5 77.9,75.5 77.9,75.5 78,75.5 78.2,75.5 78.4,75.5 
			78.5,75.5 78.7,75.4 79,75.4 79.2,75.4 79.4,75.3 79.7,75.3 79.9,75.3 80.1,75.3 80.3,75.3 80.5,75.3 80.7,75.3 81,75.3 
			81.3,75.3 81.6,75.3 81.9,75.3 82.2,75.3 82.4,75.3 82.5,75.3 82.5,75.3 82.6,75.2 82.6,75 82.7,74.7 82.7,74.4 82.7,74.1 
			82.6,73.9 82.4,73.6 82.2,73.4 81.9,73.2 81.6,73.1 81.3,73 80.9,73 80.6,73 80.2,73 79.7,73 79.3,73 78.8,73 78.4,73.1 78,73.1 
			77.5,73.2 77.1,73.2 76.7,73.3 76.4,73.4 76.1,73.4 75.8,73.5 75.5,73.6 75.3,73.7 75.2,73.8 76.1,70.5 76.4,70.4 76.7,70.2 
			77.1,70.1 77.4,70.1 77.7,70 78.1,70 78.4,69.9 78.8,69.9 79.2,69.8 79.6,69.8 80,69.8 80.4,69.8 80.9,69.8 81.3,69.8 81.8,69.8 
			82.3,69.8 82.6,69.9 83,69.9 83.5,70 83.9,70.2 84.3,70.3 84.7,70.5 85.1,70.7 85.5,71 85.9,71.3 86.2,71.6 86.4,72 86.7,72.4 
			86.8,72.9 86.9,73.3 86.9,73.8 86.8,74.4 85.4,81.6 85.4,81.6 		"/>
		<polyline class="st1" points="85.4,81.6 84.9,84.6 81.4,84.6 81.4,84.6 81.5,84 81.6,83.5 81.6,83.2 81.7,83 81.7,83 81.5,83.2 
			81.3,83.4 81,83.6 80.7,83.8 80.4,84 80.1,84.1 79.7,84.3 79.4,84.4 79,84.6 78.6,84.7 78.2,84.7 77.8,84.8 77.4,84.8 77,84.8 
			76.6,84.8 76.2,84.7 76.2,84.7 75.7,84.6 75.3,84.5 74.9,84.3 74.6,84.1 74.3,83.9 74,83.6 73.8,83.4 73.6,83.1 73.4,82.8 
			73.3,82.5 73.2,82.2 73.1,81.9 73,81.6 73,81.3 73,81 73,80.7 73,80.7 73,80.2 73.1,79.7 73.2,79.2 73.4,78.7 73.6,78.3 
			73.9,77.9 74.2,77.5 74.5,77.2 74.8,76.8 75.2,76.6 75.6,76.3 76,76.1 76.5,75.9 76.9,75.7 77.4,75.6 77.8,75.5 77.8,75.5 
			77.9,75.5 77.9,75.5 78,75.5 78.2,75.5 78.4,75.5 78.5,75.5 78.7,75.4 79,75.4 79.2,75.4 79.4,75.3 79.7,75.3 79.9,75.3 
			80.1,75.3 80.3,75.3 80.5,75.3 80.7,75.3 80.7,75.3 81,75.3 81.3,75.3 81.6,75.3 81.9,75.3 82.2,75.3 82.4,75.3 82.5,75.3 
			82.5,75.3 82.5,75.3 82.6,75.2 82.6,75 82.7,74.7 82.7,74.4 82.7,74.4 82.7,74.1 82.6,73.9 82.4,73.6 82.2,73.4 81.9,73.2 
			81.6,73.1 81.3,73 80.9,73 80.9,73 80.6,73 80.2,73 79.7,73 79.3,73 78.8,73 78.4,73.1 78,73.1 77.5,73.2 77.1,73.2 76.7,73.3 
			76.4,73.4 76.1,73.4 75.8,73.5 75.5,73.6 75.3,73.7 75.2,73.8 76.1,70.5 76.1,70.5 76.4,70.4 76.7,70.2 77.1,70.1 77.4,70.1 
			77.7,70 78.1,70 78.4,69.9 78.8,69.9 79.2,69.8 79.6,69.8 80,69.8 80.4,69.8 80.9,69.8 81.3,69.8 81.8,69.8 82.3,69.8 82.3,69.8 
			82.6,69.9 83,69.9 83.5,70 83.9,70.2 84.3,70.3 84.7,70.5 85.1,70.7 85.5,71 85.9,71.3 86.2,71.6 86.4,72 86.7,72.4 86.8,72.9 
			86.9,73.3 86.9,73.8 86.8,74.4 85.4,81.6 		"/>
		<polygon class="st0" points="82.1,78 82.1,78 82.1,77.9 82,77.8 81.8,77.8 81.7,77.8 81.5,77.8 81.3,77.8 81.1,77.8 80.9,77.8 
			80.6,77.8 80.4,77.8 80.2,77.9 80,77.9 79.8,77.9 79.7,78 79.5,78 79.4,78 79.3,78.1 79.1,78.1 79,78.2 78.8,78.3 78.6,78.4 
			78.4,78.5 78.3,78.6 78.1,78.7 77.9,78.9 77.7,79 77.6,79.2 77.5,79.4 77.4,79.6 77.3,79.8 77.2,80 77.2,80.5 77.3,80.8 
			77.4,81.1 77.6,81.3 77.8,81.4 78,81.5 78.3,81.6 78.5,81.6 78.9,81.6 79.3,81.5 79.6,81.5 79.9,81.4 80.2,81.3 80.5,81.2 
			80.7,81 80.9,80.9 81.1,80.8 81.2,80.6 81.4,80.4 81.5,80.3 81.6,80.1 81.7,80 81.7,79.8 81.8,79.7 81.9,79.3 82,78.8 82.1,78.4 
			82.1,78 82.1,78 		"/>
		<polygon class="st0" points="56.7,84.6 53,84.6 56.1,66.7 62.5,66.7 63.2,77.3 67.6,66.7 74.4,66.7 71.2,84.6 67.5,84.6 
			69.8,71.2 69.7,71.2 64.1,84.6 59.9,84.6 59.9,84 59.8,82.6 59.7,80.4 59.6,78 59.4,75.6 59.3,73.4 59.2,71.9 59.2,71.2 
			59.1,71.2 59.1,71.2 59,71.2 59,71.2 56.7,84.6 56.7,84.6 		"/>
		<polyline class="st1" points="56.7,84.6 53,84.6 56.1,66.7 62.5,66.7 63.2,77.3 67.6,66.7 74.4,66.7 71.2,84.6 67.5,84.6 
			69.8,71.2 69.7,71.2 64.1,84.6 59.9,84.6 59.9,84.6 59.9,84 59.8,82.6 59.7,80.4 59.6,78 59.4,75.6 59.3,73.4 59.2,71.9 
			59.2,71.2 59.2,71.2 59.1,71.2 59.1,71.2 59,71.2 59,71.2 56.7,84.6 		"/>
		<polygon class="st0" points="153.1,81.6 152.6,84.6 149.1,84.6 149.2,84 149.2,83.6 149.2,83.2 149.2,83 149,83.2 148.8,83.4 
			148.6,83.6 148.3,83.8 148,84 147.7,84.2 147.3,84.3 147,84.5 146.6,84.6 146.3,84.7 145.9,84.7 145.5,84.8 145.1,84.8 
			144.7,84.8 144.3,84.8 144,84.7 143.5,84.6 143.1,84.5 142.7,84.3 142.3,84.1 142,83.9 141.8,83.6 141.5,83.4 141.3,83.1 
			141.2,82.8 141.1,82.5 140.9,82.2 140.9,81.9 140.8,81.6 140.8,81.3 140.8,81 140.8,80.7 140.8,80.2 140.9,79.7 141,79.2 
			141.2,78.7 141.4,78.3 141.6,77.9 141.9,77.5 142.2,77.2 142.6,76.8 143,76.6 143.4,76.3 143.8,76.1 144.2,75.9 144.6,75.7 
			145.1,75.6 145.6,75.5 145.6,75.5 145.7,75.5 145.8,75.5 145.9,75.5 146.1,75.5 146.3,75.5 146.5,75.4 146.7,75.4 146.9,75.4 
			147.2,75.3 147.4,75.3 147.6,75.3 147.8,75.3 148,75.3 148.2,75.3 148.4,75.3 148.7,75.3 149,75.3 149.3,75.3 149.6,75.3 
			149.9,75.3 150.1,75.3 150.2,75.3 150.3,75.3 150.3,75.2 150.4,75 150.4,74.7 150.4,74.4 150.4,74.1 150.3,73.9 150.1,73.6 
			149.9,73.4 149.6,73.2 149.4,73.1 149.1,73 148.7,73 148.3,73 147.9,73 147.5,73 147.1,73 146.6,73 146.2,73.1 145.8,73.1 
			145.3,73.2 144.9,73.2 144.5,73.3 144.2,73.4 143.8,73.4 143.5,73.5 143.3,73.6 143.1,73.7 143,73.8 143.9,70.5 144.2,70.4 
			144.5,70.2 144.8,70.1 145.2,70.1 145.5,70 145.8,70 146.2,69.9 146.6,69.9 147,69.8 147.3,69.8 147.7,69.8 148.2,69.8 
			148.6,69.8 149,69.8 149.5,69.8 150,69.8 150.3,69.9 150.7,69.9 151.2,70 151.6,70.2 152,70.3 152.4,70.5 152.9,70.7 153.2,71 
			153.6,71.3 153.9,71.6 154.2,72 154.4,72.4 154.5,72.9 154.6,73.3 154.6,73.8 154.6,74.4 153.1,81.6 153.1,81.6 		"/>
		<polygon class="st0" points="152.6,84.7 152.6,84.6 153.2,81.6 153,81.6 152.5,84.6 152.6,84.5 152.6,84.7 152.6,84.7 152.6,84.6 
			152.6,84.7 152.6,84.7 		"/>
		<polygon class="st0" points="149.1,84.6 149.1,84.7 152.6,84.7 152.6,84.5 149.1,84.5 149.2,84.6 149.1,84.6 149,84.7 149.1,84.7 
			149.1,84.6 149.1,84.6 		"/>
		<polygon class="st0" points="149.3,83.1 149.2,83 149.1,83.2 149.1,83.6 149.1,84 149.1,84.6 149.2,84.6 149.2,84 149.3,83.6 
			149.3,83.2 149.3,83.1 149.1,83 149.3,83.1 149.3,83.1 		"/>
		<polygon class="st0" points="144,84.8 144,84.8 144.3,84.9 144.7,84.9 145.1,84.9 145.5,84.9 145.9,84.8 146.3,84.8 146.7,84.7 
			147,84.5 147.4,84.4 147.7,84.2 148.1,84.1 148.3,83.9 148.6,83.7 148.9,83.5 149.1,83.3 149.3,83.1 149.1,83 149,83.2 
			148.8,83.4 148.5,83.6 148.3,83.8 148,83.9 147.6,84.1 147.3,84.2 147,84.4 146.6,84.5 146.2,84.6 145.9,84.7 145.5,84.7 
			145.1,84.7 144.7,84.8 144.3,84.7 144,84.7 144,84.7 144,84.8 144,84.8 		"/>
		<polygon class="st0" points="140.7,80.7 140.7,80.7 140.7,81 140.7,81.3 140.7,81.6 140.8,81.9 140.9,82.2 141,82.5 141.1,82.9 
			141.3,83.1 141.5,83.4 141.7,83.7 142,84 142.3,84.2 142.6,84.4 143,84.6 143.5,84.7 144,84.8 144,84.7 143.5,84.5 143.1,84.4 
			142.7,84.2 142.4,84 142.1,83.8 141.8,83.6 141.6,83.3 141.4,83.1 141.3,82.8 141.1,82.5 141,82.2 141,81.9 140.9,81.6 
			140.9,81.3 140.8,81 140.9,80.7 140.9,80.7 140.7,80.7 140.7,80.7 		"/>
		<polygon class="st0" points="145.6,75.5 145.6,75.5 145.1,75.5 144.6,75.7 144.2,75.8 143.7,76 143.3,76.2 142.9,76.5 142.5,76.8 
			142.2,77.1 141.8,77.4 141.6,77.8 141.3,78.2 141.1,78.7 140.9,79.2 140.8,79.6 140.7,80.2 140.7,80.7 140.9,80.7 140.9,80.2 
			140.9,79.7 141.1,79.2 141.2,78.7 141.5,78.3 141.7,77.9 142,77.6 142.3,77.2 142.6,76.9 143,76.6 143.4,76.4 143.8,76.2 
			144.2,76 144.7,75.8 145.1,75.7 145.6,75.6 145.6,75.6 145.6,75.5 145.6,75.5 		"/>
		<polygon class="st0" points="148.4,75.2 148.4,75.2 148.2,75.2 148,75.2 147.8,75.2 147.6,75.2 147.4,75.2 147.2,75.3 146.9,75.3 
			146.7,75.3 146.5,75.3 146.3,75.4 146.1,75.4 145.9,75.4 145.8,75.4 145.6,75.4 145.6,75.5 145.6,75.5 145.6,75.6 145.6,75.6 
			145.7,75.6 145.8,75.6 145.9,75.6 146.1,75.6 146.3,75.5 146.5,75.5 146.7,75.5 146.9,75.5 147.2,75.4 147.4,75.4 147.6,75.4 
			147.8,75.4 148,75.4 148.2,75.4 148.4,75.4 148.4,75.4 148.4,75.2 148.4,75.2 		"/>
		<polygon class="st0" points="150.2,75.3 150.3,75.2 150.2,75.2 150.1,75.2 149.9,75.2 149.6,75.2 149.3,75.2 149,75.2 148.7,75.2 
			148.4,75.2 148.4,75.4 148.7,75.4 149,75.4 149.3,75.4 149.6,75.4 149.9,75.4 150.1,75.4 150.2,75.4 150.3,75.4 150.4,75.3 
			150.3,75.4 150.4,75.4 150.4,75.3 150.2,75.3 150.2,75.3 		"/>
		<polygon class="st0" points="150.4,74.4 150.3,74.4 150.3,74.7 150.3,75 150.2,75.2 150.2,75.3 150.4,75.3 150.4,75.2 150.4,75 
			150.5,74.7 150.5,74.4 150.5,74.4 150.4,74.4 150.4,74.4 		"/>
		<polygon class="st0" points="148.7,73.1 148.7,73.1 149,73.1 149.3,73.2 149.6,73.3 149.8,73.5 150,73.7 150.2,73.9 150.3,74.2 
			150.4,74.4 150.5,74.4 150.5,74.1 150.4,73.8 150.2,73.6 149.9,73.4 149.7,73.2 149.4,73 149.1,73 148.7,72.9 148.7,72.9 
			148.7,73.1 148.7,73.1 		"/>
		<polygon class="st0" points="142.9,73.8 143,73.8 143.1,73.8 143.3,73.7 143.6,73.6 143.9,73.5 144.2,73.4 144.5,73.4 144.9,73.3 
			145.3,73.2 145.8,73.2 146.2,73.1 146.6,73.1 147.1,73.1 147.5,73.1 147.9,73.1 148.3,73.1 148.7,73.1 148.7,72.9 148.3,72.9 
			147.9,72.9 147.5,72.9 147.1,72.9 146.6,72.9 146.2,73 145.8,73 145.3,73.1 144.9,73.1 144.5,73.2 144.2,73.3 143.8,73.3 
			143.5,73.4 143.3,73.5 143.1,73.6 142.9,73.7 143,73.8 142.9,73.8 142.9,73.8 		"/>
		<polygon class="st0" points="143.9,70.4 143.8,70.5 142.9,73.8 143,73.8 144,70.5 143.9,70.6 143.9,70.4 143.8,70.4 143.8,70.5 
			143.9,70.4 143.9,70.4 		"/>
		<polygon class="st0" points="150,69.8 150,69.8 149.5,69.7 149,69.7 148.6,69.7 148.2,69.7 147.7,69.7 147.3,69.8 147,69.8 
			146.6,69.8 146.2,69.8 145.8,69.9 145.5,69.9 145.2,70 144.8,70.1 144.5,70.2 144.2,70.3 143.9,70.4 143.9,70.6 144.2,70.4 
			144.6,70.3 144.8,70.2 145.2,70.2 145.5,70.1 145.9,70 146.2,70 146.6,70 147,69.9 147.3,69.9 147.7,69.9 148.2,69.9 148.6,69.9 
			149,69.9 149.5,69.9 150,69.9 150,69.9 150,69.8 150,69.8 		"/>
		<polygon class="st0" points="154.6,74.4 154.6,74.4 154.7,73.8 154.7,73.3 154.6,72.8 154.5,72.4 154.2,72 154,71.6 153.6,71.2 
			153.3,70.9 152.9,70.7 152.5,70.4 152.1,70.2 151.6,70.1 151.2,70 150.8,69.9 150.3,69.8 150,69.8 150,69.9 150.3,70 150.7,70 
			151.2,70.1 151.6,70.2 152,70.4 152.4,70.6 152.8,70.8 153.2,71.1 153.5,71.4 153.8,71.7 154.1,72 154.3,72.4 154.4,72.9 
			154.5,73.3 154.5,73.8 154.5,74.4 154.5,74.4 154.6,74.4 154.6,74.4 		"/>
		<polygon class="st0" points="153.2,81.6 153.2,81.6 154.6,74.4 154.5,74.4 153,81.6 153,81.6 153.2,81.6 153.2,81.6 		"/>
		<polygon class="st0" points="149.8,78 149.8,77.9 149.7,77.9 149.6,77.8 149.5,77.8 149.4,77.8 149.2,77.8 149,77.8 148.8,77.8 
			148.5,77.8 148.3,77.8 148.1,77.9 147.9,77.9 147.7,77.9 147.5,78 147.3,78 147.2,78 147.1,78 147,78.1 146.9,78.1 146.7,78.2 
			146.5,78.2 146.4,78.3 146.2,78.4 146,78.6 145.8,78.7 145.7,78.8 145.5,79 145.4,79.2 145.2,79.3 145.1,79.5 145.1,79.8 145,80 
			145,80.5 145.1,80.8 145.2,81.1 145.3,81.3 145.5,81.4 145.8,81.5 146,81.6 146.2,81.6 146.7,81.6 147,81.5 147.4,81.5 
			147.7,81.4 148,81.3 148.3,81.1 148.5,81 148.7,80.8 148.9,80.7 149.1,80.5 149.2,80.3 149.4,80.2 149.4,80 149.5,79.8 
			149.6,79.7 149.6,79.5 149.7,79.1 149.7,78.7 149.8,78.4 149.8,78 149.8,78 		"/>
		<polygon class="st0" points="177.9,82.7 177.9,82.4 178.1,82.1 178.3,81.7 178.5,81.4 178.8,81.2 179.1,81 179.4,80.9 179.8,80.9 
			180.2,80.9 180.6,81 180.9,81.2 181.2,81.4 181.4,81.7 181.6,82.1 181.7,82.4 181.7,82.7 181.3,82.7 181.3,82.5 181.2,82.2 
			181.1,81.9 180.9,81.7 180.7,81.5 180.4,81.4 180.1,81.3 179.8,81.2 179.5,81.3 179.2,81.4 179,81.5 178.7,81.7 178.6,81.9 
			178.4,82.2 178.3,82.5 178.3,82.7 177.9,82.7 177.9,82.7 		"/>
		<polygon class="st0" points="179.2,82.7 179.2,81.9 179.9,81.9 180.1,81.9 180.2,82 180.3,82 180.4,82.1 180.5,82.1 180.5,82.2 
			180.6,82.3 180.6,82.4 180.6,82.5 180.5,82.6 180.5,82.7 180.5,82.7 179.9,82.7 180,82.7 180,82.7 180.1,82.7 180.2,82.7 
			180.3,82.6 180.3,82.6 180.3,82.5 180.3,82.4 180.3,82.3 180.3,82.3 180.2,82.3 180.2,82.2 180.1,82.2 180,82.2 180,82.2 
			179.9,82.2 179.5,82.2 179.5,82.7 179.2,82.7 179.2,82.7 		"/>
		<polygon class="st0" points="177.9,82.7 177.9,82.8 177.9,83.2 178.1,83.6 178.3,83.9 178.5,84.2 178.8,84.4 179.1,84.6 
			179.4,84.7 179.8,84.7 180.2,84.7 180.6,84.6 180.9,84.4 181.2,84.2 181.4,83.9 181.6,83.6 181.7,83.2 181.8,82.8 181.7,82.7 
			181.3,82.7 181.3,82.8 181.3,83.1 181.2,83.5 181.1,83.7 180.9,83.9 180.7,84.1 180.4,84.3 180.1,84.4 179.8,84.4 179.5,84.4 
			179.2,84.3 179,84.1 178.7,83.9 178.6,83.7 178.4,83.5 178.3,83.1 178.3,82.8 178.3,82.7 177.9,82.7 177.9,82.7 		"/>
		<polygon class="st0" points="179.2,82.7 179.2,83.6 179.5,83.6 179.5,82.9 179.8,82.9 180.2,83.6 180.5,83.6 180.1,82.9 
			180.2,82.9 180.3,82.9 180.4,82.8 180.4,82.8 180.5,82.7 179.9,82.7 179.8,82.8 179.5,82.8 179.5,82.7 179.2,82.7 179.2,82.7 		
			"/>
		<path class="st1" d="M177.9,82.8L177.9,82.8l0-0.4l0.1-0.4l0.2-0.3l0.2-0.3l0.3-0.2l0.3-0.2l0.4-0.1l0.4,0l0,0l0.4,0l0.4,0.1
			l0.3,0.2l0.3,0.2l0.2,0.3l0.2,0.3l0.1,0.4l0,0.4l0,0l0,0.4l-0.1,0.4l-0.2,0.3l-0.2,0.3l-0.3,0.2l-0.3,0.2l-0.4,0.1l-0.4,0l0,0
			l-0.4,0l-0.4-0.1l-0.3-0.2l-0.3-0.2l-0.2-0.3l-0.2-0.3l-0.1-0.4L177.9,82.8 M179.5,83.6h-0.3v-1.7h0.8l0,0l0.2,0l0.2,0l0.1,0
			l0.1,0.1l0.1,0.1l0.1,0.1l0,0.1l0,0.1l0,0l0,0.1l0,0.1l0,0.1l-0.1,0.1l-0.1,0.1l-0.1,0l-0.1,0h-0.1l0.4,0.7h-0.3l-0.4-0.7h-0.3
			V83.6 M179.8,82.8L179.8,82.8l0.1,0l0.1,0l0.1,0l0.1,0l0.1,0l0,0l0-0.1v-0.1l0,0l0-0.1l0-0.1l0,0l0,0l-0.1,0l-0.1,0H180h-0.1h-0.4
			v0.5H179.8 M179.8,84.4L179.8,84.4l0.3,0l0.3-0.1l0.3-0.1l0.2-0.2l0.2-0.2l0.1-0.3l0.1-0.3l0-0.3l0,0l0-0.3l-0.1-0.3l-0.1-0.3
			l-0.2-0.2l-0.2-0.2l-0.3-0.1l-0.3-0.1l-0.3,0l0,0l-0.3,0l-0.3,0.1l-0.3,0.1l-0.2,0.2l-0.2,0.2l-0.1,0.3l-0.1,0.3l0,0.3l0,0l0,0.3
			l0.1,0.3l0.1,0.3l0.2,0.2l0.2,0.2l0.3,0.1l0.3,0.1L179.8,84.4"/>
		<polygon class="st0" points="154.1,84.6 158,84.6 158,84.6 159.4,76.8 159.4,76.5 159.5,76.2 159.6,75.9 159.7,75.6 159.8,75.3 
			160,75.1 160.2,74.8 160.4,74.5 160.6,74.3 160.9,74.1 161.2,73.9 161.6,73.7 162,73.6 162.4,73.5 162.9,73.4 163.4,73.4 
			163.6,73.4 163.7,73.4 163.8,73.4 163.8,73.4 164.4,69.8 164,69.9 163.6,69.9 163.3,70 163,70.1 162.7,70.2 162.4,70.3 
			162.1,70.5 161.8,70.6 161.6,70.8 161.4,71 161.1,71.2 160.9,71.5 160.7,71.7 160.5,71.9 160.3,72.2 160.1,72.5 160.5,70 
			156.7,70 154.1,84.6 154.1,84.6 154.1,84.6 		"/>
		<polyline class="st1" points="154.1,84.6 158,84.6 158,84.6 159.4,76.8 159.4,76.8 159.4,76.5 159.5,76.2 159.6,75.9 159.7,75.6 
			159.8,75.3 160,75.1 160.2,74.8 160.4,74.5 160.6,74.3 160.9,74.1 161.2,73.9 161.6,73.7 162,73.6 162.4,73.5 162.9,73.4 
			163.4,73.4 163.4,73.4 163.6,73.4 163.7,73.4 163.8,73.4 163.8,73.4 164.4,69.8 164.4,69.8 164,69.9 163.6,69.9 163.3,70 
			163,70.1 162.7,70.2 162.4,70.3 162.1,70.5 161.8,70.6 161.6,70.8 161.4,71 161.1,71.2 160.9,71.5 160.7,71.7 160.5,71.9 
			160.3,72.2 160.1,72.5 160.5,70 156.7,70 154.1,84.6 154.1,84.6 		"/>
		<polygon class="st0" points="118,84.6 121.9,84.6 121.9,84.6 123.2,76.8 123.3,76.5 123.4,76.3 123.4,76 123.5,75.7 123.6,75.4 
			123.8,75.2 123.9,74.9 124.1,74.7 124.3,74.5 124.6,74.3 124.9,74.1 125.2,74 125.6,73.8 126,73.7 126.5,73.7 127,73.6 
			127.1,73.6 127.1,73.6 127.2,73.7 127.3,73.7 127.3,73.7 127.4,73.7 127.4,73.7 127.4,73.7 127.4,73.6 127.5,73.5 127.5,73.2 
			127.6,72.9 127.7,72.6 127.8,72.2 127.9,71.8 128,71.4 128.2,71.2 128.3,70.9 128.4,70.7 128.6,70.4 128.7,70.2 128.8,70.1 
			128.8,70 128.9,69.9 128.9,69.9 128.8,69.9 128.7,69.9 128.6,69.9 128.5,69.9 128.4,69.9 128.3,69.8 128.2,69.8 127.8,69.9 
			127.4,69.9 127.1,70 126.8,70.1 126.4,70.2 126.2,70.3 125.9,70.4 125.7,70.6 125.4,70.8 125.2,71 125,71.2 124.8,71.4 
			124.6,71.7 124.4,71.9 124.2,72.2 124,72.5 124.5,70 120.6,70 118,84.6 118,84.6 118,84.6 		"/>
		<polyline class="st1" points="118,84.6 121.9,84.6 121.9,84.6 123.2,76.8 123.2,76.8 123.3,76.5 123.4,76.3 123.4,76 123.5,75.7 
			123.6,75.4 123.8,75.2 123.9,74.9 124.1,74.7 124.3,74.5 124.6,74.3 124.9,74.1 125.2,74 125.6,73.8 126,73.7 126.5,73.7 
			127,73.6 127,73.6 127.1,73.6 127.1,73.6 127.2,73.7 127.3,73.7 127.3,73.7 127.4,73.7 127.4,73.7 127.4,73.7 127.4,73.7 
			127.4,73.6 127.5,73.5 127.5,73.2 127.6,72.9 127.7,72.6 127.8,72.2 127.9,71.8 128,71.4 128,71.4 128.2,71.2 128.3,70.9 
			128.4,70.7 128.6,70.4 128.7,70.2 128.8,70.1 128.8,70 128.9,69.9 128.9,69.9 128.9,69.9 128.8,69.9 128.7,69.9 128.6,69.9 
			128.5,69.9 128.4,69.9 128.3,69.8 128.2,69.8 128.2,69.8 127.8,69.9 127.4,69.9 127.1,70 126.8,70.1 126.4,70.2 126.2,70.3 
			125.9,70.4 125.7,70.6 125.4,70.8 125.2,71 125,71.2 124.8,71.4 124.6,71.7 124.4,71.9 124.2,72.2 124,72.5 124.5,70 120.6,70 
			118,84.6 118,84.6 		"/>
		<polygon class="st0" points="177.9,99 177.9,98.9 178.1,98.6 178.3,98.2 178.5,98 178.8,97.7 179.1,97.6 179.4,97.5 179.8,97.4 
			180.2,97.5 180.6,97.6 180.9,97.7 181.2,98 181.4,98.2 181.6,98.6 181.7,98.9 181.7,99 181.3,99 181.2,98.7 181.1,98.4 
			180.9,98.2 180.7,98 180.4,97.8 180.1,97.7 179.8,97.7 179.5,97.7 179.2,97.8 179,98 178.7,98.2 178.6,98.4 178.4,98.7 178.3,99 
			177.9,99 177.9,99 		"/>
		<polygon class="st0" points="179.2,99 179.2,98.5 179.9,98.5 180.1,98.5 180.2,98.5 180.3,98.5 180.4,98.6 180.5,98.7 180.5,98.7 
			180.6,98.8 180.6,99 180.3,99 180.3,98.9 180.3,98.8 180.3,98.8 180.2,98.7 180.2,98.7 180.1,98.7 180,98.7 180,98.7 179.9,98.7 
			179.5,98.7 179.5,99 179.2,99 179.2,99 		"/>
		<polygon class="st0" points="177.9,99.3 177.9,99 178.3,99 178.3,99 178.3,99.3 177.9,99.3 177.9,99.3 		"/>
		<polygon class="st0" points="179.2,99.3 179.2,99 179.5,99 179.5,99.2 179.8,99.2 180,99.2 180,99.2 180.1,99.2 180.2,99.1 
			180.3,99.1 180.3,99.1 180.3,99 180.3,99 180.6,99 180.6,99 180.6,99.1 180.5,99.1 180.5,99.2 180.4,99.3 179.2,99.3 179.2,99.3 
					"/>
		<polygon class="st0" points="181.3,99.3 181.3,99 181.3,99 181.7,99 181.8,99.3 181.3,99.3 181.3,99.3 		"/>
		<polygon class="st0" points="177.9,99.3 177.9,99.3 177.9,99.7 178.1,100.1 178.3,100.4 178.5,100.7 178.8,100.9 179.1,101.1 
			179.4,101.2 179.8,101.2 180.2,101.2 180.6,101.1 180.9,100.9 181.2,100.7 181.4,100.4 181.6,100.1 181.7,99.7 181.8,99.3 
			181.8,99.3 181.3,99.3 181.3,99.3 181.3,99.6 181.2,99.9 181.1,100.2 180.9,100.4 180.7,100.6 180.4,100.8 180.1,100.9 
			179.8,100.9 179.5,100.9 179.2,100.8 179,100.6 178.7,100.4 178.6,100.2 178.4,99.9 178.3,99.6 178.3,99.3 178.3,99.3 177.9,99.3 
			177.9,99.3 		"/>
		<polygon class="st0" points="179.2,99.3 179.2,100.1 179.5,100.1 179.5,99.4 179.8,99.4 180.2,100.1 180.5,100.1 180.1,99.4 
			180.2,99.4 180.3,99.3 180.4,99.3 180.4,99.3 180.4,99.3 179.2,99.3 179.2,99.3 		"/>
		<path class="st0" d="M118.4,74.3l-0.1-0.8l-0.2-0.7l-0.3-0.6l-0.3-0.5l-0.4-0.5l-0.4-0.4l-0.5-0.3l-0.5-0.2l-0.5-0.2l-0.6-0.1
			l-0.6-0.1l-0.6-0.1l-0.5,0l-1.1,0.1l-1,0.2l-0.9,0.2l-0.8,0.3l-0.7,0.4l-0.6,0.5l-0.5,0.5l-0.4,0.5l-0.4,0.6l-0.3,0.6l-0.2,0.6
			l-0.2,0.6l-0.2,0.6l-0.1,0.5l-0.1,0.5l-0.1,0.4l-0.1,1.1l0,1l0.2,0.9l0.2,0.8l0.3,0.7l0.4,0.6l0.5,0.6l0.5,0.5l0.6,0.4l0.6,0.3
			l0.6,0.3l0.7,0.2l0.7,0.2l0.7,0.1l0.7,0.1l0.7,0h0.4l0.4,0h0.4l0.4,0l0.3,0l0.3,0l0.3,0l0.2,0l0.2,0l0.2-0.1l0.2-0.1l0.2-0.1
			l0.2-0.1l0.2-0.1l0.2-0.1l0.2-0.1l0.5-3.4l-0.4,0.2l-0.4,0.2l-0.4,0.2l-0.4,0.1l-0.4,0.1l-0.4,0.1l-0.4,0.1l-0.4,0.1l-0.4,0
			l-0.4,0h-0.4l-0.4,0l-0.4,0l-0.4,0l-0.3,0l-0.4-0.1l-0.3-0.1l-0.3-0.1l-0.3-0.1l-0.2-0.2l-0.2-0.2l-0.2-0.2l-0.2-0.2l-0.2-0.2
			l-0.2-0.2l-0.1-0.3l-0.1-0.2l-0.1-0.3l-0.1-0.3l0-0.3l0-0.2l0-0.2h8.8l0.1-0.8l0.2-1.1l0.1-1L118.4,74.3z M114.7,75.6h-5l0,0l0,0
			l0-0.2l0.1-0.3l0.1-0.3l0.1-0.3l0.1-0.2l0.1-0.2l0.1-0.2l0.2-0.2l0.2-0.2l0.2-0.2l0.2-0.2l0.2-0.1l0.2-0.1l0.2-0.1l0.2-0.1l0.2,0
			l0.3,0l0.2,0l0.2,0l0.2,0.1l0.2,0.1l0.2,0.1l0.2,0.1l0.2,0.1l0.2,0.2l0.1,0.2l0.1,0.2l0.1,0.2l0.1,0.3l0.1,0.3l0,0.3l0,0.3
			L114.7,75.6z"/>
	</g>
</g>
<g>
	<path class="st2" d="M225.4,133.4c0,4.2-3.4,7.5-7.5,7.5H7.5c-4.1,0-7.5-3.4-7.5-7.5V7.5C0,3.4,3.4,0,7.5,0h210.4
		c4.1,0,7.5,3.4,7.5,7.5V133.4z"/>
	<g>
		<polygon class="st3" points="139.8,110.9 141.9,110.8 143.9,110.7 145.9,110.4 147.9,110.1 149.9,109.6 151.8,109.1 153.7,108.4 
			155.5,107.7 157.3,106.9 159.1,106 160.8,105 162.4,104 164,102.8 165.5,101.6 167,100.4 168.4,99 169.8,97.6 171,96.1 
			172.2,94.6 173.4,93 174.4,91.4 175.4,89.7 176.3,87.9 177.1,86.1 177.8,84.3 178.5,82.4 179,80.5 179.5,78.5 179.8,76.5 
			180.1,74.5 180.2,72.5 180.3,70.4 180.2,68.3 180.1,66.3 179.8,64.2 179.5,62.3 179,60.3 178.5,58.4 177.8,56.5 177.1,54.7 
			176.3,52.9 175.4,51.2 174.4,49.5 173.4,47.8 172.2,46.2 171,44.7 169.8,43.3 168.4,41.8 167,40.5 165.5,39.2 164,38 162.4,36.9 
			160.8,35.9 159.1,34.9 157.3,34 155.5,33.2 153.7,32.5 151.8,31.8 149.9,31.3 147.9,30.8 145.9,30.5 143.9,30.2 141.9,30.1 
			139.8,30 137.7,30.1 135.6,30.2 133.6,30.5 131.6,30.8 129.7,31.3 127.8,31.8 125.9,32.5 124,33.2 122.3,34 120.5,34.9 
			118.8,35.9 117.2,36.9 115.6,38 114.1,39.2 112.6,40.5 111.2,41.8 109.9,43.3 108.6,44.7 107.4,46.2 106.3,47.8 105.2,49.5 
			104.3,51.2 103.4,52.9 102.6,54.7 101.8,56.5 101.2,58.4 100.7,60.3 100.2,62.3 99.9,64.2 99.6,66.3 99.5,68.3 99.4,70.4 
			99.5,72.5 99.6,74.5 99.9,76.5 100.2,78.5 100.7,80.5 101.2,82.4 101.8,84.3 102.6,86.1 103.4,87.9 104.3,89.7 105.2,91.4 
			106.3,93 107.4,94.6 108.6,96.1 109.9,97.6 111.2,99 112.6,100.4 114.1,101.6 115.6,102.8 117.2,104 118.8,105 120.5,106 
			122.3,106.9 124,107.7 125.9,108.4 127.8,109.1 129.7,109.6 131.6,110.1 133.6,110.4 135.6,110.7 137.7,110.8 139.8,110.9 
			139.8,110.9 		"/>
		<polygon class="st4" points="85.7,110.9 87.7,110.8 89.8,110.7 91.8,110.4 93.8,110.1 95.8,109.6 97.7,109.1 99.6,108.4 
			101.4,107.7 103.2,106.9 104.9,106 106.6,105 108.2,104 109.8,102.8 111.4,101.6 112.8,100.4 114.2,99 115.6,97.6 116.8,96.1 
			118,94.6 119.1,93 120.2,91.4 121.2,89.7 122.1,87.9 122.9,86.1 123.6,84.3 124.2,82.4 124.8,80.5 125.2,78.5 125.6,76.5 
			125.8,74.5 126,72.5 126,70.4 126,68.3 125.8,66.3 125.6,64.2 125.2,62.3 124.8,60.3 124.2,58.4 123.6,56.5 122.9,54.7 
			122.1,52.9 121.2,51.2 120.2,49.5 119.1,47.8 118,46.2 116.8,44.7 115.6,43.3 114.2,41.8 112.8,40.5 111.4,39.2 109.8,38 
			108.2,36.9 106.6,35.9 104.9,34.9 103.2,34 101.4,33.2 99.6,32.5 97.7,31.8 95.8,31.3 93.8,30.8 91.8,30.5 89.8,30.2 87.7,30.1 
			85.7,30 83.6,30.1 81.5,30.2 79.5,30.5 77.5,30.8 75.5,31.3 73.6,31.8 71.7,32.5 69.9,33.2 68.1,34 66.3,34.9 64.7,35.9 63,36.9 
			61.4,38 59.9,39.2 58.4,40.5 57,41.8 55.7,43.3 54.4,44.7 53.2,46.2 52.1,47.8 51,49.5 50,51.2 49.1,52.9 48.3,54.7 47.6,56.5 
			47,58.4 46.4,60.3 46,62.3 45.6,64.2 45.3,66.3 45.2,68.3 45.1,70.4 45.2,72.5 45.3,74.5 45.6,76.5 46,78.5 46.4,80.5 47,82.4 
			47.6,84.3 48.3,86.1 49.1,87.9 50,89.7 51,91.4 52.1,93 53.2,94.6 54.4,96.1 55.7,97.6 57,99 58.4,100.4 59.9,101.6 61.4,102.8 
			63,104 64.7,105 66.3,106 68.1,106.9 69.9,107.7 71.7,108.4 73.6,109.1 75.5,109.6 77.5,110.1 79.5,110.4 81.5,110.7 83.6,110.8 
			85.7,110.9 85.7,110.9 		"/>
		<polygon class="st3" points="108,45.5 129.5,45.5 129.5,43.3 109.8,43.3 108,45.5 108,45.5 		"/>
		<polygon class="st3" points="104.8,50.4 129.5,50.4 129.5,48.2 106.1,48.2 104.8,50.4 104.8,50.4 		"/>
		<polygon class="st3" points="102.4,55.3 129.5,55.3 129.5,53.1 103.3,53.1 102.4,55.3 102.4,55.3 		"/>
		<polygon class="st3" points="100.7,60.2 129.5,60.2 129.5,58 101.4,58 100.7,60.2 100.7,60.2 		"/>
		<polygon class="st3" points="101.7,83.8 129.5,83.8 129.5,81.6 101,81.6 101.7,83.8 101.7,83.8 		"/>
		<polygon class="st3" points="103.7,88.6 129.5,88.6 129.5,86.4 102.7,86.4 103.7,88.6 103.7,88.6 		"/>
		<polygon class="st3" points="106.6,93.5 129.5,93.5 129.5,91.3 105.2,91.3 106.6,93.5 106.6,93.5 		"/>
		<polygon class="st3" points="110.6,98.4 129.5,98.4 129.5,96.2 108.7,96.2 110.6,98.4 110.6,98.4 		"/>
		<polygon class="st3" points="99.7,65 129.5,65 129.5,62.8 100.2,62.8 99.7,65 99.7,65 		"/>
		<polygon class="st3" points="117.9,78.9 129.2,78.9 129.2,76.7 118.3,76.7 117.9,78.9 117.9,78.9 		"/>
		<polygon class="st3" points="118.8,74 129.2,74 129.2,71.8 119.2,71.8 118.8,74 118.8,74 		"/>
		<polygon class="st3" points="99,71.8 101.9,71.8 101.9,74 99.1,74 99,71.8 99,71.8 		"/>
		<polygon class="st5" points="93.5,69.1 93.3,69.1 93.1,69.1 92.9,69.1 92.8,69.1 92.6,69 92.4,69 92.2,69 92,68.9 91.9,68.9 
			91.6,68.9 91.4,68.9 91.1,68.9 90.9,68.9 90.5,68.9 90.2,68.9 89.8,68.9 89.5,69 89.3,69 89,69.1 88.8,69.2 88.6,69.3 88.4,69.4 
			88.3,69.5 88.2,69.7 88.1,69.8 88,70 88,70.1 88,70.3 88.1,70.5 88.1,70.6 88.2,70.8 88.4,71 88.6,71.2 89,71.5 89.3,71.6 
			89.7,71.8 90.2,71.9 90.6,72.1 91.1,72.2 91.5,72.4 91.9,72.6 92.3,72.9 92.7,73.3 92.9,73.7 93.2,74.2 93.3,74.8 93.3,75.6 
			93.3,76.4 93.2,77.1 93,77.6 92.8,78.1 92.5,78.6 92.2,79 91.9,79.3 91.5,79.6 91.1,79.9 90.6,80.1 90.2,80.3 89.7,80.4 
			89.2,80.5 88.8,80.6 88.3,80.6 87.9,80.7 87.5,80.7 86.9,80.7 86.3,80.7 85.8,80.7 85.4,80.7 85,80.6 84.6,80.6 84.3,80.6 
			84,80.5 83.7,80.5 83.4,80.5 83.2,80.4 82.9,80.4 82.7,80.3 82.5,80.2 82.3,80.1 82,80 82.7,77 82.8,77.1 82.9,77.1 83.1,77.2 
			83.3,77.2 83.6,77.3 83.9,77.3 84.2,77.4 84.5,77.4 84.8,77.5 85.2,77.6 85.6,77.6 85.9,77.6 86.3,77.6 86.7,77.7 87.1,77.7 
			87.5,77.6 87.9,77.6 88.2,77.5 88.5,77.3 88.7,77.1 88.8,76.9 88.9,76.7 89,76.5 89,76.3 89.1,75.9 88.9,75.5 88.7,75.3 88.4,75 
			88,74.8 87.5,74.6 86.9,74.4 86.4,74.2 85.9,74 85.3,73.7 84.9,73.3 84.4,72.9 84.1,72.4 83.9,71.8 83.7,71 83.7,70.2 83.8,69.6 
			83.9,69.1 84,68.7 84.2,68.2 84.4,67.8 84.7,67.5 85,67.1 85.3,66.8 85.7,66.6 86.1,66.4 86.6,66.1 87.2,66 87.8,65.9 88.4,65.8 
			89.2,65.7 90,65.7 90.5,65.7 91,65.7 91.4,65.7 91.8,65.8 92.1,65.8 92.4,65.8 92.7,65.8 92.9,65.9 93.2,65.9 93.4,65.9 93.5,66 
			93.7,66 93.8,66 94,66 94.1,66.1 94.2,66.1 93.5,69.1 93.5,69.1 		"/>
		<polyline class="st6" points="93.5,69.1 93.5,69.1 93.3,69.1 93.1,69.1 92.9,69.1 92.8,69.1 92.6,69 92.4,69 92.2,69 92,68.9 
			91.9,68.9 91.6,68.9 91.4,68.9 91.1,68.9 90.9,68.9 90.5,68.9 90.2,68.9 89.8,68.9 89.8,68.9 89.5,69 89.3,69 89,69.1 88.8,69.2 
			88.6,69.3 88.4,69.4 88.3,69.5 88.2,69.7 88.1,69.8 88,70 88,70.1 88,70.3 88.1,70.5 88.1,70.6 88.2,70.8 88.4,71 88.4,71 
			88.6,71.2 89,71.5 89.3,71.6 89.7,71.8 90.2,71.9 90.6,72.1 91.1,72.2 91.5,72.4 91.9,72.6 92.3,72.9 92.7,73.3 92.9,73.7 
			93.2,74.2 93.3,74.8 93.3,75.6 93.3,76.4 93.3,76.4 93.2,77.1 93,77.6 92.8,78.1 92.5,78.6 92.2,79 91.9,79.3 91.5,79.6 
			91.1,79.9 90.6,80.1 90.2,80.3 89.7,80.4 89.2,80.5 88.8,80.6 88.3,80.6 87.9,80.7 87.5,80.7 87.5,80.7 86.9,80.7 86.3,80.7 
			85.8,80.7 85.4,80.7 85,80.6 84.6,80.6 84.3,80.6 84,80.5 83.7,80.5 83.4,80.5 83.2,80.4 82.9,80.4 82.7,80.3 82.5,80.2 
			82.3,80.1 82,80 82.7,77 82.7,77 82.8,77.1 82.9,77.1 83.1,77.2 83.3,77.2 83.6,77.3 83.9,77.3 84.2,77.4 84.5,77.4 84.8,77.5 
			85.2,77.6 85.6,77.6 85.9,77.6 86.3,77.6 86.7,77.7 87.1,77.7 87.5,77.6 87.5,77.6 87.9,77.6 88.2,77.5 88.5,77.3 88.7,77.1 
			88.8,76.9 88.9,76.7 89,76.5 89,76.3 89,76.3 89.1,75.9 88.9,75.5 88.7,75.3 88.4,75 88,74.8 87.5,74.6 86.9,74.4 86.4,74.2 
			85.9,74 85.3,73.7 84.9,73.3 84.4,72.9 84.1,72.4 83.9,71.8 83.7,71 83.7,70.2 83.7,70.2 83.8,69.6 83.9,69.1 84,68.7 84.2,68.2 
			84.4,67.8 84.7,67.5 85,67.1 85.3,66.8 85.7,66.6 86.1,66.4 86.6,66.1 87.2,66 87.8,65.9 88.4,65.8 89.2,65.7 90,65.7 90,65.7 
			90.5,65.7 91,65.7 91.4,65.7 91.8,65.8 92.1,65.8 92.4,65.8 92.7,65.8 92.9,65.9 93.2,65.9 93.4,65.9 93.5,66 93.7,66 93.8,66 
			94,66 94.1,66.1 94.2,66.1 93.5,69.1 		"/>
		<polygon class="st5" points="96.7,62.7 100.5,62.7 99.9,66 102.2,66 101.7,69.1 99.3,69 98,76.6 98,76.9 98.1,77.1 98.2,77.3 
			98.4,77.5 98.6,77.6 98.9,77.6 99.2,77.7 99.5,77.7 99.8,77.7 100.1,77.7 100.4,77.6 100.6,77.6 100.8,77.5 100.9,77.5 101,77.5 
			101,77.4 100.5,80 100.4,80 100.3,80.1 100.2,80.2 100.1,80.2 100,80.3 99.9,80.3 99.8,80.3 99.7,80.4 99.5,80.4 99.4,80.4 
			99.2,80.5 99.1,80.5 98.9,80.5 98.7,80.6 98.5,80.6 98.2,80.6 97.2,80.6 96.7,80.6 96.2,80.5 95.7,80.4 95.4,80.3 95.1,80.2 
			94.8,80.1 94.6,79.9 94.4,79.7 94.3,79.5 94.2,79.3 94.1,79.1 94.1,78.8 94,78.5 94,78.2 94.1,77.9 94.1,77.6 96.7,62.7 
			96.7,62.7 		"/>
		<polyline class="st6" points="96.7,62.7 100.5,62.7 99.9,66 102.2,66 101.7,69.1 99.3,69 98,76.6 98,76.6 98,76.9 98.1,77.1 
			98.2,77.3 98.4,77.5 98.6,77.6 98.9,77.6 99.2,77.7 99.5,77.7 99.5,77.7 99.8,77.7 100.1,77.7 100.4,77.6 100.6,77.6 100.8,77.5 
			100.9,77.5 101,77.5 101,77.4 100.5,80 100.5,80 100.4,80 100.3,80.1 100.2,80.2 100.1,80.2 100,80.3 99.9,80.3 99.8,80.3 
			99.7,80.4 99.5,80.4 99.4,80.4 99.2,80.5 99.1,80.5 98.9,80.5 98.7,80.6 98.5,80.6 98.2,80.6 97.2,80.6 97.2,80.6 96.7,80.6 
			96.2,80.5 95.7,80.4 95.4,80.3 95.1,80.2 94.8,80.1 94.6,79.9 94.4,79.7 94.3,79.5 94.2,79.3 94.1,79.1 94.1,78.8 94,78.5 
			94,78.2 94.1,77.9 94.1,77.6 96.7,62.7 		"/>
		<polyline class="st6" points="105.2,74.2 105.2,74.2 105.2,74.5 105.2,74.7 105.2,75 105.3,75.2 105.4,75.5 105.5,75.7 105.6,76 
			105.8,76.2 106,76.4 106.2,76.7 106.4,76.9 106.6,77 106.9,77.2 107.2,77.3 107.4,77.4 107.7,77.4 107.7,77.4 108.1,77.5 
			108.4,77.5 108.8,77.6 109.1,77.6 109.5,77.6 109.8,77.6 110.2,77.6 110.6,77.6 110.9,77.5 111.3,77.5 111.7,77.4 112.1,77.3 
			112.4,77.1 112.8,76.9 113.2,76.7 113.6,76.5 113.1,79.8 113.1,79.8 112.8,80 112.6,80.1 112.4,80.1 112.2,80.2 112,80.3 
			111.8,80.4 111.6,80.4 111.3,80.5 111.1,80.5 110.8,80.5 110.5,80.6 110.2,80.6 109.9,80.6 109.5,80.6 109.1,80.6 108.6,80.6 
			108.6,80.6 107.9,80.6 107.3,80.5 106.6,80.4 105.9,80.3 105.2,80.1 104.6,79.8 104,79.5 103.4,79.1 102.9,78.6 102.4,78 
			102,77.4 101.7,76.7 101.4,75.9 101.3,75 101.3,74 101.3,72.8 101.3,72.8 101.4,72.4 101.5,71.9 101.6,71.4 101.7,70.8 
			101.9,70.2 102.2,69.6 102.5,69 102.9,68.5 103.3,67.9 103.8,67.4 104.4,66.9 105.1,66.5 105.9,66.2 106.8,65.9 107.8,65.8 
			108.9,65.7 108.9,65.7 109.4,65.7 110,65.8 110.5,65.9 111.1,66 111.6,66.2 112.2,66.5 112.7,66.8 113.1,67.2 113.5,67.6 
			113.9,68.2 114.1,68.8 114.3,69.5 114.4,70.3 114.5,71.3 114.4,72.3 114.2,73.5 114.1,74.3 104.1,74.3 104.8,71.6 110.7,71.6 
			110.7,71.6 110.8,71.3 110.8,70.9 110.7,70.6 110.7,70.4 110.6,70.1 110.5,69.9 110.3,69.7 110.2,69.5 110,69.3 109.9,69.2 
			109.7,69.1 109.5,68.9 109.2,68.9 109,68.8 108.8,68.8 108.5,68.7 108.5,68.7 108.3,68.8 108,68.8 107.8,68.9 107.6,68.9 
			107.3,69 107.1,69.2 106.9,69.3 106.8,69.5 106.6,69.7 106.4,69.9 106.3,70.1 106.1,70.3 106,70.6 105.9,70.8 105.8,71.1 
			105.8,71.4 105.2,74.2 		"/>
		<polygon class="st5" points="137.8,66.8 137.6,66.7 137.4,66.6 137.2,66.5 137,66.4 136.8,66.4 136.6,66.3 136.4,66.2 136.1,66.1 
			135.9,66.1 135.6,66 135.3,65.9 135,65.9 134.7,65.9 134.4,65.8 134.1,65.8 133.7,65.8 133.4,65.8 133,65.9 132.7,65.9 132.3,66 
			131.9,66.1 131.5,66.2 131.1,66.4 130.8,66.7 130.4,67 130,67.3 129.7,67.8 129.4,68.3 129.1,68.9 128.8,69.6 128.5,70.3 
			128.3,71.2 128.2,71.7 128.2,72.2 128.1,72.6 128.1,73.1 128.2,73.6 128.3,74 128.4,74.4 128.6,74.8 128.8,75.2 129,75.5 
			129.3,75.9 129.6,76.1 130,76.4 130.4,76.6 130.9,76.8 131.4,76.9 131.6,76.9 131.8,77 132,77 132.3,77 132.6,77.1 132.9,77.1 
			133.3,77.1 133.6,77 133.9,77 134.3,76.9 134.6,76.8 135,76.7 135.3,76.6 135.6,76.4 135.9,76.2 136.2,75.9 135.6,79.6 
			135.5,79.6 135.4,79.7 135.3,79.8 135.2,79.9 135,80 134.8,80.1 134.6,80.2 134.4,80.3 134.1,80.4 133.7,80.4 133.3,80.5 
			132.8,80.6 132.3,80.6 131.7,80.6 131,80.6 130.2,80.5 129.6,80.5 129,80.3 128.3,80.1 127.7,79.9 127.1,79.5 126.5,79.1 
			126,78.6 125.5,78.1 125,77.5 124.7,76.8 124.3,76 124.1,75.2 123.9,74.3 123.9,73.3 123.9,72.3 124,71.1 124.2,70.6 124.3,70 
			124.4,69.5 124.5,69 124.7,68.5 124.9,68 125.1,67.6 125.2,67.2 125.4,66.7 125.7,66.3 125.9,66 126.1,65.6 126.4,65.3 
			126.6,64.9 126.9,64.6 127.2,64.3 127.5,64.1 127.8,63.8 128.2,63.6 128.5,63.4 128.9,63.2 129.2,63 129.6,62.8 130,62.7 
			130.4,62.5 130.9,62.4 131.3,62.3 131.8,62.2 132.2,62.2 132.7,62.1 133.2,62.1 133.7,62.1 134.2,62.1 134.6,62.1 135,62.2 
			135.4,62.2 135.8,62.3 136.2,62.4 136.5,62.4 136.8,62.5 137.2,62.6 137.4,62.7 137.7,62.8 137.9,62.8 138.1,62.9 138.3,63 
			138.4,63 138.5,63 137.8,66.8 137.8,66.8 		"/>
		<polyline class="st6" points="137.8,66.8 137.8,66.8 137.6,66.7 137.4,66.6 137.2,66.5 137,66.4 136.8,66.4 136.6,66.3 
			136.4,66.2 136.1,66.1 135.9,66.1 135.6,66 135.3,65.9 135,65.9 134.7,65.9 134.4,65.8 134.1,65.8 133.7,65.8 133.7,65.8 
			133.4,65.8 133,65.9 132.7,65.9 132.3,66 131.9,66.1 131.5,66.2 131.1,66.4 130.8,66.7 130.4,67 130,67.3 129.7,67.8 129.4,68.3 
			129.1,68.9 128.8,69.6 128.5,70.3 128.3,71.2 128.3,71.2 128.2,71.7 128.2,72.2 128.1,72.6 128.1,73.1 128.2,73.6 128.3,74 
			128.4,74.4 128.6,74.8 128.8,75.2 129,75.5 129.3,75.9 129.6,76.1 130,76.4 130.4,76.6 130.9,76.8 131.4,76.9 131.4,76.9 
			131.6,76.9 131.8,77 132,77 132.3,77 132.6,77.1 132.9,77.1 133.3,77.1 133.6,77 133.9,77 134.3,76.9 134.6,76.8 135,76.7 
			135.3,76.6 135.6,76.4 135.9,76.2 136.2,75.9 135.6,79.6 135.6,79.6 135.5,79.6 135.4,79.7 135.3,79.8 135.2,79.9 135,80 
			134.8,80.1 134.6,80.2 134.4,80.3 134.1,80.4 133.7,80.4 133.3,80.5 132.8,80.6 132.3,80.6 131.7,80.6 131,80.6 130.2,80.5 
			130.2,80.5 129.6,80.5 129,80.3 128.3,80.1 127.7,79.9 127.1,79.5 126.5,79.1 126,78.6 125.5,78.1 125,77.5 124.7,76.8 124.3,76 
			124.1,75.2 123.9,74.3 123.9,73.3 123.9,72.3 124,71.1 124,71.1 124.2,70.6 124.3,70 124.4,69.5 124.5,69 124.7,68.5 124.9,68 
			125.1,67.6 125.2,67.2 125.4,66.7 125.7,66.3 125.9,66 126.1,65.6 126.4,65.3 126.6,64.9 126.9,64.6 127.2,64.3 127.5,64.1 
			127.8,63.8 128.2,63.6 128.5,63.4 128.9,63.2 129.2,63 129.6,62.8 130,62.7 130.4,62.5 130.9,62.4 131.3,62.3 131.8,62.2 
			132.2,62.2 132.7,62.1 133.2,62.1 133.7,62.1 133.7,62.1 134.2,62.1 134.6,62.1 135,62.2 135.4,62.2 135.8,62.3 136.2,62.4 
			136.5,62.4 136.8,62.5 137.2,62.6 137.4,62.7 137.7,62.8 137.9,62.8 138.1,62.9 138.3,63 138.4,63 138.5,63 137.8,66.8 		"/>
		<polygon class="st5" points="171.4,80.6 167.6,80.6 167.9,79.1 167.9,79 167.6,79.2 167.4,79.5 167.2,79.7 166.9,79.9 166.7,80.1 
			166.4,80.2 166.2,80.3 165.9,80.5 165.7,80.6 165.4,80.6 165.2,80.7 164.9,80.7 164.6,80.8 164.4,80.8 164.1,80.8 163.8,80.8 
			163.1,80.8 162.4,80.6 161.8,80.4 161.3,80.1 160.8,79.7 160.4,79.2 160,78.7 159.7,78.1 159.4,77.5 159.2,76.9 159,76.2 
			158.9,75.5 158.9,74.8 158.9,74.1 159,73.4 159.1,72.7 159.3,71.9 159.5,71.1 159.8,70.4 160.2,69.8 160.5,69.2 160.9,68.6 
			161.3,68.1 161.8,67.7 162.3,67.3 162.8,67 163.3,66.7 163.8,66.4 164.4,66.2 164.9,66.1 165.5,66 166,66 166.4,66 166.8,66.1 
			167.1,66.1 167.5,66.2 167.8,66.3 168.1,66.4 168.3,66.6 168.6,66.7 168.8,66.9 169,67.1 169.2,67.3 169.3,67.4 169.5,67.6 
			169.6,67.8 169.7,68 169.8,68.1 169.8,68.1 170.7,62.8 174.5,62.8 171.4,80.6 171.4,80.6 		"/>
		<polyline class="st6" points="171.4,80.6 167.6,80.6 167.9,79.1 167.9,79 167.9,79 167.6,79.2 167.4,79.5 167.2,79.7 166.9,79.9 
			166.7,80.1 166.4,80.2 166.2,80.3 165.9,80.5 165.7,80.6 165.4,80.6 165.2,80.7 164.9,80.7 164.6,80.8 164.4,80.8 164.1,80.8 
			163.8,80.8 163.8,80.8 163.1,80.8 162.4,80.6 161.8,80.4 161.3,80.1 160.8,79.7 160.4,79.2 160,78.7 159.7,78.1 159.4,77.5 
			159.2,76.9 159,76.2 158.9,75.5 158.9,74.8 158.9,74.1 159,73.4 159.1,72.7 159.1,72.7 159.3,71.9 159.5,71.1 159.8,70.4 
			160.2,69.8 160.5,69.2 160.9,68.6 161.3,68.1 161.8,67.7 162.3,67.3 162.8,67 163.3,66.7 163.8,66.4 164.4,66.2 164.9,66.1 
			165.5,66 166,66 166,66 166.4,66 166.8,66.1 167.1,66.1 167.5,66.2 167.8,66.3 168.1,66.4 168.3,66.6 168.6,66.7 168.8,66.9 
			169,67.1 169.2,67.3 169.3,67.4 169.5,67.6 169.6,67.8 169.7,68 169.8,68.1 169.8,68.1 170.7,62.8 174.5,62.8 171.4,80.6 		"/>
		<polygon class="st3" points="165.2,77.3 165.6,77.3 165.9,77.2 166.3,77.1 166.6,77 166.9,76.8 167.1,76.6 167.4,76.4 167.6,76.1 
			167.8,75.8 168,75.5 168.2,75.2 168.3,74.9 168.5,74.6 168.6,74.2 168.7,73.8 168.8,73.5 168.8,73.1 168.9,72.7 168.9,72.3 
			168.8,71.9 168.8,71.6 168.8,71.2 168.7,70.9 168.5,70.6 168.4,70.3 168.2,70.1 168.1,69.8 167.9,69.7 167.6,69.5 167.4,69.4 
			167.1,69.3 166.8,69.3 166.5,69.3 166.1,69.4 165.8,69.5 165.5,69.6 165.2,69.8 165,70 164.7,70.2 164.5,70.5 164.3,70.8 
			164.1,71.1 163.9,71.4 163.8,71.8 163.6,72.2 163.5,72.5 163.4,72.9 163.3,73.3 163.3,73.9 163.3,74.6 163.4,75.2 163.6,75.9 
			163.8,76.4 164.2,76.9 164.6,77.2 165.2,77.3 165.2,77.3 		"/>
		<polygon class="st5" points="81.4,77.6 80.9,80.6 77.4,80.6 77.5,80 77.6,79.5 77.6,79.2 77.7,79 77.5,79.2 77.3,79.4 77,79.6 
			76.7,79.8 76.4,80 76.1,80.1 75.7,80.3 75.4,80.4 75,80.6 74.6,80.7 74.2,80.7 73.8,80.8 73.4,80.8 73,80.8 72.6,80.8 72.2,80.7 
			71.7,80.6 71.3,80.5 70.9,80.3 70.6,80.1 70.3,79.9 70,79.6 69.8,79.4 69.6,79.1 69.4,78.8 69.3,78.5 69.2,78.2 69.1,77.9 
			69,77.6 69,77.3 69,77 69,76.7 69,76.2 69.1,75.7 69.2,75.2 69.4,74.7 69.6,74.3 69.9,73.9 70.2,73.5 70.5,73.2 70.8,72.8 
			71.2,72.6 71.6,72.3 72,72.1 72.5,71.9 72.9,71.7 73.4,71.6 73.8,71.5 73.9,71.5 73.9,71.5 74,71.5 74.2,71.5 74.4,71.5 
			74.5,71.5 74.7,71.4 75,71.4 75.2,71.4 75.4,71.3 75.7,71.3 75.9,71.3 76.1,71.3 76.3,71.3 76.5,71.3 76.7,71.3 77,71.3 
			77.3,71.3 77.6,71.3 77.9,71.3 78.2,71.3 78.4,71.3 78.5,71.3 78.5,71.3 78.6,71.2 78.6,71 78.7,70.7 78.7,70.4 78.7,70.1 
			78.6,69.9 78.4,69.6 78.2,69.4 77.9,69.2 77.6,69.1 77.3,69 76.9,69 76.6,69 76.2,69 75.7,69 75.3,69 74.8,69 74.4,69.1 74,69.1 
			73.5,69.2 73.1,69.2 72.7,69.3 72.4,69.4 72.1,69.4 71.8,69.5 71.5,69.6 71.3,69.7 71.2,69.8 72.1,66.5 72.4,66.4 72.7,66.2 
			73.1,66.1 73.4,66.1 73.7,66 74.1,66 74.4,65.9 74.8,65.9 75.2,65.8 75.6,65.8 76,65.8 76.4,65.8 76.9,65.8 77.3,65.8 77.8,65.8 
			78.3,65.8 78.6,65.9 79,65.9 79.5,66 79.9,66.2 80.3,66.3 80.7,66.5 81.1,66.7 81.5,67 81.9,67.3 82.2,67.6 82.4,68 82.7,68.4 
			82.8,68.9 82.9,69.3 82.9,69.8 82.8,70.4 81.4,77.6 81.4,77.6 		"/>
		<polyline class="st6" points="81.4,77.6 80.9,80.6 77.4,80.6 77.4,80.6 77.5,80 77.6,79.5 77.6,79.2 77.7,79 77.7,79 77.5,79.2 
			77.3,79.4 77,79.6 76.7,79.8 76.4,80 76.1,80.1 75.7,80.3 75.4,80.4 75,80.6 74.6,80.7 74.2,80.7 73.8,80.8 73.4,80.8 73,80.8 
			72.6,80.8 72.2,80.7 72.2,80.7 71.7,80.6 71.3,80.5 70.9,80.3 70.6,80.1 70.3,79.9 70,79.6 69.8,79.4 69.6,79.1 69.4,78.8 
			69.3,78.5 69.2,78.2 69.1,77.9 69,77.6 69,77.3 69,77 69,76.7 69,76.7 69,76.2 69.1,75.7 69.2,75.2 69.4,74.7 69.6,74.3 
			69.9,73.9 70.2,73.5 70.5,73.2 70.8,72.8 71.2,72.6 71.6,72.3 72,72.1 72.5,71.9 72.9,71.7 73.4,71.6 73.8,71.5 73.8,71.5 
			73.9,71.5 73.9,71.5 74,71.5 74.2,71.5 74.4,71.5 74.5,71.5 74.7,71.4 75,71.4 75.2,71.4 75.4,71.3 75.7,71.3 75.9,71.3 
			76.1,71.3 76.3,71.3 76.5,71.3 76.7,71.3 76.7,71.3 77,71.3 77.3,71.3 77.6,71.3 77.9,71.3 78.2,71.3 78.4,71.3 78.5,71.3 
			78.5,71.3 78.5,71.3 78.6,71.2 78.6,71 78.7,70.7 78.7,70.4 78.7,70.4 78.7,70.1 78.6,69.9 78.4,69.6 78.2,69.4 77.9,69.2 
			77.6,69.1 77.3,69 76.9,69 76.9,69 76.6,69 76.2,69 75.7,69 75.3,69 74.8,69 74.4,69.1 74,69.1 73.5,69.2 73.1,69.2 72.7,69.3 
			72.4,69.4 72.1,69.4 71.8,69.5 71.5,69.6 71.3,69.7 71.2,69.8 72.1,66.5 72.1,66.5 72.4,66.4 72.7,66.2 73.1,66.1 73.4,66.1 
			73.7,66 74.1,66 74.4,65.9 74.8,65.9 75.2,65.8 75.6,65.8 76,65.8 76.4,65.8 76.9,65.8 77.3,65.8 77.8,65.8 78.3,65.8 78.3,65.8 
			78.6,65.9 79,65.9 79.5,66 79.9,66.2 80.3,66.3 80.7,66.5 81.1,66.7 81.5,67 81.9,67.3 82.2,67.6 82.4,68 82.7,68.4 82.8,68.9 
			82.9,69.3 82.9,69.8 82.8,70.4 81.4,77.6 		"/>
		<polygon class="st4" points="78.1,74 78.1,74 78.1,73.9 78,73.8 77.8,73.8 77.7,73.8 77.5,73.8 77.3,73.8 77.1,73.8 76.9,73.8 
			76.6,73.8 76.4,73.8 76.2,73.9 76,73.9 75.8,73.9 75.7,74 75.5,74 75.4,74 75.3,74.1 75.1,74.1 75,74.2 74.8,74.3 74.6,74.4 
			74.4,74.5 74.3,74.6 74.1,74.7 73.9,74.9 73.7,75 73.6,75.2 73.5,75.4 73.4,75.6 73.3,75.8 73.2,76 73.2,76.5 73.3,76.8 
			73.4,77.1 73.6,77.3 73.8,77.4 74,77.5 74.3,77.6 74.5,77.6 74.9,77.6 75.3,77.5 75.6,77.5 75.9,77.4 76.2,77.3 76.5,77.2 
			76.7,77 76.9,76.9 77.1,76.8 77.2,76.6 77.4,76.4 77.5,76.3 77.6,76.1 77.7,76 77.7,75.8 77.8,75.7 77.9,75.3 78,74.8 78.1,74.4 
			78.1,74 78.1,74 		"/>
		<polygon class="st5" points="52.7,80.6 49,80.6 52.1,62.7 58.5,62.7 59.2,73.3 63.6,62.7 70.4,62.7 67.2,80.6 63.5,80.6 
			65.8,67.2 65.7,67.2 60.1,80.6 55.9,80.6 55.9,80 55.8,78.6 55.7,76.4 55.6,74 55.4,71.6 55.3,69.4 55.2,67.9 55.2,67.2 
			55.1,67.2 55.1,67.2 55,67.2 55,67.2 52.7,80.6 52.7,80.6 		"/>
		<polyline class="st6" points="52.7,80.6 49,80.6 52.1,62.7 58.5,62.7 59.2,73.3 63.6,62.7 70.4,62.7 67.2,80.6 63.5,80.6 
			65.8,67.2 65.7,67.2 60.1,80.6 55.9,80.6 55.9,80.6 55.9,80 55.8,78.6 55.7,76.4 55.6,74 55.4,71.6 55.3,69.4 55.2,67.9 
			55.2,67.2 55.2,67.2 55.1,67.2 55.1,67.2 55,67.2 55,67.2 52.7,80.6 		"/>
		<polygon class="st5" points="149.1,77.6 148.6,80.6 145.1,80.6 145.2,80 145.2,79.6 145.2,79.2 145.2,79 145,79.2 144.8,79.4 
			144.6,79.6 144.3,79.8 144,80 143.7,80.2 143.3,80.3 143,80.5 142.6,80.6 142.3,80.7 141.9,80.7 141.5,80.8 141.1,80.8 
			140.7,80.8 140.3,80.8 140,80.7 139.5,80.6 139.1,80.5 138.7,80.3 138.3,80.1 138,79.9 137.8,79.6 137.5,79.4 137.3,79.1 
			137.2,78.8 137.1,78.5 136.9,78.2 136.9,77.9 136.8,77.6 136.8,77.3 136.8,77 136.8,76.7 136.8,76.2 136.9,75.7 137,75.2 
			137.2,74.7 137.4,74.3 137.6,73.9 137.9,73.5 138.2,73.2 138.6,72.8 139,72.6 139.4,72.3 139.8,72.1 140.2,71.9 140.6,71.7 
			141.1,71.6 141.6,71.5 141.6,71.5 141.7,71.5 141.8,71.5 141.9,71.5 142.1,71.5 142.3,71.5 142.5,71.4 142.7,71.4 142.9,71.4 
			143.2,71.3 143.4,71.3 143.6,71.3 143.8,71.3 144,71.3 144.2,71.3 144.4,71.3 144.7,71.3 145,71.3 145.3,71.3 145.6,71.3 
			145.9,71.3 146.1,71.3 146.2,71.3 146.3,71.3 146.3,71.2 146.4,71 146.4,70.7 146.4,70.4 146.4,70.1 146.3,69.9 146.1,69.6 
			145.9,69.4 145.6,69.2 145.4,69.1 145.1,69 144.7,69 144.3,69 143.9,69 143.5,69 143.1,69 142.6,69 142.2,69.1 141.8,69.1 
			141.3,69.2 140.9,69.2 140.5,69.3 140.2,69.4 139.8,69.4 139.5,69.5 139.3,69.6 139.1,69.7 139,69.8 139.9,66.5 140.2,66.4 
			140.5,66.2 140.8,66.1 141.2,66.1 141.5,66 141.8,66 142.2,65.9 142.6,65.9 143,65.8 143.3,65.8 143.7,65.8 144.2,65.8 
			144.6,65.8 145,65.8 145.5,65.8 146,65.8 146.3,65.9 146.7,65.9 147.2,66 147.6,66.2 148,66.3 148.4,66.5 148.9,66.7 149.2,67 
			149.6,67.3 149.9,67.6 150.2,68 150.4,68.4 150.5,68.9 150.6,69.3 150.6,69.8 150.6,70.4 149.1,77.6 149.1,77.6 		"/>
		<polygon class="st5" points="148.6,80.7 148.6,80.6 149.2,77.6 149,77.6 148.5,80.6 148.6,80.5 148.6,80.7 148.6,80.7 148.6,80.6 
			148.6,80.7 148.6,80.7 		"/>
		<polygon class="st5" points="145.1,80.6 145.1,80.7 148.6,80.7 148.6,80.5 145.1,80.5 145.2,80.6 145.1,80.6 145,80.7 145.1,80.7 
			145.1,80.6 145.1,80.6 		"/>
		<polygon class="st5" points="145.3,79.1 145.2,79 145.1,79.2 145.1,79.6 145.1,80 145.1,80.6 145.2,80.6 145.2,80 145.3,79.6 
			145.3,79.2 145.3,79.1 145.1,79 145.3,79.1 145.3,79.1 		"/>
		<polygon class="st5" points="140,80.8 140,80.8 140.3,80.9 140.7,80.9 141.1,80.9 141.5,80.9 141.9,80.8 142.3,80.8 142.7,80.7 
			143,80.5 143.4,80.4 143.7,80.2 144.1,80.1 144.3,79.9 144.6,79.7 144.9,79.5 145.1,79.3 145.3,79.1 145.1,79 145,79.2 
			144.8,79.4 144.5,79.6 144.3,79.8 144,79.9 143.6,80.1 143.3,80.2 143,80.4 142.6,80.5 142.2,80.6 141.9,80.7 141.5,80.7 
			141.1,80.7 140.7,80.8 140.3,80.7 140,80.7 140,80.7 140,80.8 140,80.8 		"/>
		<polygon class="st5" points="136.7,76.7 136.7,76.7 136.7,77 136.7,77.3 136.7,77.6 136.8,77.9 136.9,78.2 137,78.5 137.1,78.9 
			137.3,79.1 137.5,79.4 137.7,79.7 138,80 138.3,80.2 138.6,80.4 139,80.6 139.5,80.7 140,80.8 140,80.7 139.5,80.5 139.1,80.4 
			138.7,80.2 138.4,80 138.1,79.8 137.8,79.6 137.6,79.3 137.4,79.1 137.3,78.8 137.1,78.5 137,78.2 137,77.9 136.9,77.6 
			136.9,77.3 136.8,77 136.9,76.7 136.9,76.7 136.7,76.7 136.7,76.7 		"/>
		<polygon class="st5" points="141.6,71.5 141.6,71.5 141.1,71.5 140.6,71.7 140.2,71.8 139.7,72 139.3,72.2 138.9,72.5 138.5,72.8 
			138.2,73.1 137.8,73.4 137.6,73.8 137.3,74.2 137.1,74.7 136.9,75.2 136.8,75.6 136.7,76.2 136.7,76.7 136.9,76.7 136.9,76.2 
			136.9,75.7 137.1,75.2 137.2,74.7 137.5,74.3 137.7,73.9 138,73.6 138.3,73.2 138.6,72.9 139,72.6 139.4,72.4 139.8,72.2 
			140.2,72 140.7,71.8 141.1,71.7 141.6,71.6 141.6,71.6 141.6,71.5 141.6,71.5 		"/>
		<polygon class="st5" points="144.4,71.2 144.4,71.2 144.2,71.2 144,71.2 143.8,71.2 143.6,71.2 143.4,71.2 143.2,71.3 142.9,71.3 
			142.7,71.3 142.5,71.3 142.3,71.4 142.1,71.4 141.9,71.4 141.8,71.4 141.6,71.4 141.6,71.5 141.6,71.5 141.6,71.6 141.6,71.6 
			141.7,71.6 141.8,71.6 141.9,71.6 142.1,71.6 142.3,71.5 142.5,71.5 142.7,71.5 142.9,71.5 143.2,71.4 143.4,71.4 143.6,71.4 
			143.8,71.4 144,71.4 144.2,71.4 144.4,71.4 144.4,71.4 144.4,71.2 144.4,71.2 		"/>
		<polygon class="st5" points="146.2,71.3 146.3,71.2 146.2,71.2 146.1,71.2 145.9,71.2 145.6,71.2 145.3,71.2 145,71.2 144.7,71.2 
			144.4,71.2 144.4,71.4 144.7,71.4 145,71.4 145.3,71.4 145.6,71.4 145.9,71.4 146.1,71.4 146.2,71.4 146.3,71.4 146.4,71.3 
			146.3,71.4 146.4,71.4 146.4,71.3 146.2,71.3 146.2,71.3 		"/>
		<polygon class="st5" points="146.4,70.4 146.3,70.4 146.3,70.7 146.3,71 146.2,71.2 146.2,71.3 146.4,71.3 146.4,71.2 146.4,71 
			146.5,70.7 146.5,70.4 146.5,70.4 146.4,70.4 146.4,70.4 		"/>
		<polygon class="st5" points="144.7,69.1 144.7,69.1 145,69.1 145.3,69.2 145.6,69.3 145.8,69.5 146,69.7 146.2,69.9 146.3,70.2 
			146.4,70.4 146.5,70.4 146.5,70.1 146.4,69.8 146.2,69.6 145.9,69.4 145.7,69.2 145.4,69 145.1,69 144.7,68.9 144.7,68.9 
			144.7,69.1 144.7,69.1 		"/>
		<polygon class="st5" points="138.9,69.8 139,69.8 139.1,69.8 139.3,69.7 139.6,69.6 139.9,69.5 140.2,69.4 140.5,69.4 140.9,69.3 
			141.3,69.2 141.8,69.2 142.2,69.1 142.6,69.1 143.1,69.1 143.5,69.1 143.9,69.1 144.3,69.1 144.7,69.1 144.7,68.9 144.3,68.9 
			143.9,68.9 143.5,68.9 143.1,68.9 142.6,68.9 142.2,69 141.8,69 141.3,69.1 140.9,69.1 140.5,69.2 140.2,69.3 139.8,69.3 
			139.5,69.4 139.3,69.5 139.1,69.6 138.9,69.7 139,69.8 138.9,69.8 138.9,69.8 		"/>
		<polygon class="st5" points="139.9,66.4 139.8,66.5 138.9,69.8 139,69.8 140,66.5 139.9,66.6 139.9,66.4 139.8,66.4 139.8,66.5 
			139.9,66.4 139.9,66.4 		"/>
		<polygon class="st5" points="146,65.8 146,65.8 145.5,65.7 145,65.7 144.6,65.7 144.2,65.7 143.7,65.7 143.3,65.8 143,65.8 
			142.6,65.8 142.2,65.8 141.8,65.9 141.5,65.9 141.2,66 140.8,66.1 140.5,66.2 140.2,66.3 139.9,66.4 139.9,66.6 140.2,66.4 
			140.6,66.3 140.8,66.2 141.2,66.2 141.5,66.1 141.9,66 142.2,66 142.6,66 143,65.9 143.3,65.9 143.7,65.9 144.2,65.9 144.6,65.9 
			145,65.9 145.5,65.9 146,65.9 146,65.9 146,65.8 146,65.8 		"/>
		<polygon class="st5" points="150.6,70.4 150.6,70.4 150.7,69.8 150.7,69.3 150.6,68.8 150.5,68.4 150.2,68 150,67.6 149.6,67.2 
			149.3,66.9 148.9,66.7 148.5,66.4 148.1,66.2 147.6,66.1 147.2,66 146.8,65.9 146.3,65.8 146,65.8 146,65.9 146.3,66 146.7,66 
			147.2,66.1 147.6,66.2 148,66.4 148.4,66.6 148.8,66.8 149.2,67.1 149.5,67.4 149.8,67.7 150.1,68 150.3,68.4 150.4,68.9 
			150.5,69.3 150.5,69.8 150.5,70.4 150.5,70.4 150.6,70.4 150.6,70.4 		"/>
		<polygon class="st5" points="149.2,77.6 149.2,77.6 150.6,70.4 150.5,70.4 149,77.6 149,77.6 149.2,77.6 149.2,77.6 		"/>
		<polygon class="st3" points="145.8,74 145.8,73.9 145.7,73.9 145.6,73.8 145.5,73.8 145.4,73.8 145.2,73.8 145,73.8 144.8,73.8 
			144.5,73.8 144.3,73.8 144.1,73.9 143.9,73.9 143.7,73.9 143.5,74 143.3,74 143.2,74 143.1,74 143,74.1 142.9,74.1 142.7,74.2 
			142.5,74.2 142.4,74.3 142.2,74.4 142,74.6 141.8,74.7 141.7,74.8 141.5,75 141.4,75.2 141.2,75.3 141.1,75.5 141.1,75.8 141,76 
			141,76.5 141.1,76.8 141.2,77.1 141.3,77.3 141.5,77.4 141.8,77.5 142,77.6 142.2,77.6 142.7,77.6 143,77.5 143.4,77.5 
			143.7,77.4 144,77.3 144.3,77.1 144.5,77 144.7,76.8 144.9,76.7 145.1,76.5 145.2,76.3 145.4,76.2 145.4,76 145.5,75.8 
			145.6,75.7 145.6,75.5 145.7,75.1 145.7,74.7 145.8,74.4 145.8,74 145.8,74 		"/>
		<polygon class="st5" points="173.9,78.7 173.9,78.4 174.1,78.1 174.3,77.7 174.5,77.4 174.8,77.2 175.1,77 175.4,76.9 175.8,76.9 
			176.2,76.9 176.6,77 176.9,77.2 177.2,77.4 177.4,77.7 177.6,78.1 177.7,78.4 177.7,78.7 177.3,78.7 177.3,78.5 177.2,78.2 
			177.1,77.9 176.9,77.7 176.7,77.5 176.4,77.4 176.1,77.3 175.8,77.2 175.5,77.3 175.2,77.4 175,77.5 174.7,77.7 174.6,77.9 
			174.4,78.2 174.3,78.5 174.3,78.7 173.9,78.7 173.9,78.7 		"/>
		<polygon class="st5" points="175.2,78.7 175.2,77.9 175.9,77.9 176.1,77.9 176.2,78 176.3,78 176.4,78.1 176.5,78.1 176.5,78.2 
			176.6,78.3 176.6,78.4 176.6,78.5 176.5,78.6 176.5,78.7 176.5,78.7 175.9,78.7 176,78.7 176,78.7 176.1,78.7 176.2,78.7 
			176.3,78.6 176.3,78.6 176.3,78.5 176.3,78.4 176.3,78.3 176.3,78.3 176.2,78.3 176.2,78.2 176.1,78.2 176,78.2 176,78.2 
			175.9,78.2 175.5,78.2 175.5,78.7 175.2,78.7 175.2,78.7 		"/>
		<polygon class="st5" points="173.9,78.7 173.9,78.8 173.9,79.2 174.1,79.6 174.3,79.9 174.5,80.2 174.8,80.4 175.1,80.6 
			175.4,80.7 175.8,80.7 176.2,80.7 176.6,80.6 176.9,80.4 177.2,80.2 177.4,79.9 177.6,79.6 177.7,79.2 177.8,78.8 177.7,78.7 
			177.3,78.7 177.3,78.8 177.3,79.1 177.2,79.5 177.1,79.7 176.9,79.9 176.7,80.1 176.4,80.3 176.1,80.4 175.8,80.4 175.5,80.4 
			175.2,80.3 175,80.1 174.7,79.9 174.6,79.7 174.4,79.5 174.3,79.1 174.3,78.8 174.3,78.7 173.9,78.7 173.9,78.7 		"/>
		<polygon class="st5" points="175.2,78.7 175.2,79.6 175.5,79.6 175.5,78.9 175.8,78.9 176.2,79.6 176.5,79.6 176.1,78.9 
			176.2,78.9 176.3,78.9 176.4,78.8 176.4,78.8 176.5,78.7 175.9,78.7 175.8,78.8 175.5,78.8 175.5,78.7 175.2,78.7 175.2,78.7 		
			"/>
		<path class="st6" d="M173.9,78.8L173.9,78.8l0-0.4l0.1-0.4l0.2-0.3l0.2-0.3l0.3-0.2l0.3-0.2l0.4-0.1l0.4,0l0,0l0.4,0l0.4,0.1
			l0.3,0.2l0.3,0.2l0.2,0.3l0.2,0.3l0.1,0.4l0,0.4l0,0l0,0.4l-0.1,0.4l-0.2,0.3l-0.2,0.3l-0.3,0.2l-0.3,0.2l-0.4,0.1l-0.4,0l0,0
			l-0.4,0l-0.4-0.1l-0.3-0.2l-0.3-0.2l-0.2-0.3l-0.2-0.3l-0.1-0.4L173.9,78.8 M175.5,79.6h-0.3v-1.7h0.8l0,0l0.2,0l0.2,0l0.1,0
			l0.1,0.1l0.1,0.1l0.1,0.1l0,0.1l0,0.1l0,0l0,0.1l0,0.1l0,0.1l-0.1,0.1l-0.1,0.1l-0.1,0l-0.1,0h-0.1l0.4,0.7h-0.3l-0.4-0.7h-0.3
			V79.6 M175.8,78.8L175.8,78.8l0.1,0l0.1,0l0.1,0l0.1,0l0.1,0l0,0l0-0.1v-0.1l0,0l0-0.1l0-0.1l0,0l0,0l-0.1,0l-0.1,0H176h-0.1h-0.4
			v0.5H175.8 M175.8,80.4L175.8,80.4l0.3,0l0.3-0.1l0.3-0.1l0.2-0.2l0.2-0.2l0.1-0.3l0.1-0.3l0-0.3l0,0l0-0.3l-0.1-0.3l-0.1-0.3
			l-0.2-0.2l-0.2-0.2l-0.3-0.1l-0.3-0.1l-0.3,0l0,0l-0.3,0l-0.3,0.1l-0.3,0.1l-0.2,0.2l-0.2,0.2l-0.1,0.3l-0.1,0.3l0,0.3l0,0l0,0.3
			l0.1,0.3l0.1,0.3l0.2,0.2l0.2,0.2l0.3,0.1l0.3,0.1L175.8,80.4"/>
		<polygon class="st5" points="150.1,80.6 154,80.6 154,80.6 155.4,72.8 155.4,72.5 155.5,72.2 155.6,71.9 155.7,71.6 155.8,71.3 
			156,71.1 156.2,70.8 156.4,70.5 156.6,70.3 156.9,70.1 157.2,69.9 157.6,69.7 158,69.6 158.4,69.5 158.9,69.4 159.4,69.4 
			159.6,69.4 159.7,69.4 159.8,69.4 159.8,69.4 160.4,65.8 160,65.9 159.6,65.9 159.3,66 159,66.1 158.7,66.2 158.4,66.3 
			158.1,66.5 157.8,66.6 157.6,66.8 157.4,67 157.1,67.2 156.9,67.5 156.7,67.7 156.5,67.9 156.3,68.2 156.1,68.5 156.5,66 
			152.7,66 150.1,80.6 150.1,80.6 150.1,80.6 		"/>
		<polyline class="st6" points="150.1,80.6 154,80.6 154,80.6 155.4,72.8 155.4,72.8 155.4,72.5 155.5,72.2 155.6,71.9 155.7,71.6 
			155.8,71.3 156,71.1 156.2,70.8 156.4,70.5 156.6,70.3 156.9,70.1 157.2,69.9 157.6,69.7 158,69.6 158.4,69.5 158.9,69.4 
			159.4,69.4 159.4,69.4 159.6,69.4 159.7,69.4 159.8,69.4 159.8,69.4 160.4,65.8 160.4,65.8 160,65.9 159.6,65.9 159.3,66 
			159,66.1 158.7,66.2 158.4,66.3 158.1,66.5 157.8,66.6 157.6,66.8 157.4,67 157.1,67.2 156.9,67.5 156.7,67.7 156.5,67.9 
			156.3,68.2 156.1,68.5 156.5,66 152.7,66 150.1,80.6 150.1,80.6 		"/>
		<polygon class="st5" points="114,80.6 117.9,80.6 117.9,80.6 119.2,72.8 119.3,72.5 119.4,72.3 119.4,72 119.5,71.7 119.6,71.4 
			119.8,71.2 119.9,70.9 120.1,70.7 120.3,70.5 120.6,70.3 120.9,70.1 121.2,70 121.6,69.8 122,69.7 122.5,69.7 123,69.6 
			123.1,69.6 123.1,69.6 123.2,69.7 123.3,69.7 123.3,69.7 123.4,69.7 123.4,69.7 123.4,69.7 123.4,69.6 123.5,69.5 123.5,69.2 
			123.6,68.9 123.7,68.6 123.8,68.2 123.9,67.8 124,67.4 124.2,67.2 124.3,66.9 124.4,66.7 124.6,66.4 124.7,66.2 124.8,66.1 
			124.8,66 124.9,65.9 124.9,65.9 124.8,65.9 124.7,65.9 124.6,65.9 124.5,65.9 124.4,65.9 124.3,65.8 124.2,65.8 123.8,65.9 
			123.4,65.9 123.1,66 122.8,66.1 122.4,66.2 122.2,66.3 121.9,66.4 121.7,66.6 121.4,66.8 121.2,67 121,67.2 120.8,67.4 
			120.6,67.7 120.4,67.9 120.2,68.2 120,68.5 120.5,66 116.6,66 114,80.6 114,80.6 114,80.6 		"/>
		<polyline class="st6" points="114,80.6 117.9,80.6 117.9,80.6 119.2,72.8 119.2,72.8 119.3,72.5 119.4,72.3 119.4,72 119.5,71.7 
			119.6,71.4 119.8,71.2 119.9,70.9 120.1,70.7 120.3,70.5 120.6,70.3 120.9,70.1 121.2,70 121.6,69.8 122,69.7 122.5,69.7 
			123,69.6 123,69.6 123.1,69.6 123.1,69.6 123.2,69.7 123.3,69.7 123.3,69.7 123.4,69.7 123.4,69.7 123.4,69.7 123.4,69.7 
			123.4,69.6 123.5,69.5 123.5,69.2 123.6,68.9 123.7,68.6 123.8,68.2 123.9,67.8 124,67.4 124,67.4 124.2,67.2 124.3,66.9 
			124.4,66.7 124.6,66.4 124.7,66.2 124.8,66.1 124.8,66 124.9,65.9 124.9,65.9 124.9,65.9 124.8,65.9 124.7,65.9 124.6,65.9 
			124.5,65.9 124.4,65.9 124.3,65.8 124.2,65.8 124.2,65.8 123.8,65.9 123.4,65.9 123.1,66 122.8,66.1 122.4,66.2 122.2,66.3 
			121.9,66.4 121.7,66.6 121.4,66.8 121.2,67 121,67.2 120.8,67.4 120.6,67.7 120.4,67.9 120.2,68.2 120,68.5 120.5,66 116.6,66 
			114,80.6 114,80.6 		"/>
		<polygon class="st3" points="173.9,95 173.9,94.9 174.1,94.6 174.3,94.2 174.5,94 174.8,93.7 175.1,93.6 175.4,93.5 175.8,93.4 
			176.2,93.5 176.6,93.6 176.9,93.7 177.2,94 177.4,94.2 177.6,94.6 177.7,94.9 177.7,95 177.3,95 177.2,94.7 177.1,94.4 
			176.9,94.2 176.7,94 176.4,93.8 176.1,93.7 175.8,93.7 175.5,93.7 175.2,93.8 175,94 174.7,94.2 174.6,94.4 174.4,94.7 174.3,95 
			173.9,95 173.9,95 		"/>
		<polygon class="st3" points="175.2,95 175.2,94.5 175.9,94.5 176.1,94.5 176.2,94.5 176.3,94.5 176.4,94.6 176.5,94.7 176.5,94.7 
			176.6,94.8 176.6,95 176.3,95 176.3,94.9 176.3,94.8 176.3,94.8 176.2,94.7 176.2,94.7 176.1,94.7 176,94.7 176,94.7 175.9,94.7 
			175.5,94.7 175.5,95 175.2,95 175.2,95 		"/>
		<polygon class="st3" points="173.9,95.3 173.9,95 174.3,95 174.3,95 174.3,95.3 173.9,95.3 173.9,95.3 		"/>
		<polygon class="st3" points="175.2,95.3 175.2,95 175.5,95 175.5,95.2 175.8,95.2 176,95.2 176,95.2 176.1,95.2 176.2,95.1 
			176.3,95.1 176.3,95.1 176.3,95 176.3,95 176.6,95 176.6,95 176.6,95.1 176.5,95.1 176.5,95.2 176.4,95.3 175.2,95.3 175.2,95.3 
					"/>
		<polygon class="st3" points="177.3,95.3 177.3,95 177.3,95 177.7,95 177.8,95.3 177.3,95.3 177.3,95.3 		"/>
		<polygon class="st3" points="173.9,95.3 173.9,95.3 173.9,95.7 174.1,96.1 174.3,96.4 174.5,96.7 174.8,96.9 175.1,97.1 
			175.4,97.2 175.8,97.2 176.2,97.2 176.6,97.1 176.9,96.9 177.2,96.7 177.4,96.4 177.6,96.1 177.7,95.7 177.8,95.3 177.8,95.3 
			177.3,95.3 177.3,95.3 177.3,95.6 177.2,95.9 177.1,96.2 176.9,96.4 176.7,96.6 176.4,96.8 176.1,96.9 175.8,96.9 175.5,96.9 
			175.2,96.8 175,96.6 174.7,96.4 174.6,96.2 174.4,95.9 174.3,95.6 174.3,95.3 174.3,95.3 173.9,95.3 173.9,95.3 		"/>
		<polygon class="st3" points="175.2,95.3 175.2,96.1 175.5,96.1 175.5,95.4 175.8,95.4 176.2,96.1 176.5,96.1 176.1,95.4 
			176.2,95.4 176.3,95.3 176.4,95.3 176.4,95.3 176.4,95.3 175.2,95.3 175.2,95.3 		"/>
		<path class="st5" d="M114.4,70.3l-0.1-0.8l-0.2-0.7l-0.3-0.6l-0.3-0.5l-0.4-0.5l-0.4-0.4l-0.5-0.3l-0.5-0.2l-0.5-0.2l-0.6-0.1
			l-0.6-0.1l-0.6-0.1l-0.5,0l-1.1,0.1l-1,0.2l-0.9,0.2l-0.8,0.3l-0.7,0.4l-0.6,0.5l-0.5,0.5l-0.4,0.5l-0.4,0.6l-0.3,0.6l-0.2,0.6
			l-0.2,0.6l-0.2,0.6l-0.1,0.5l-0.1,0.5l-0.1,0.4l-0.1,1.1l0,1l0.2,0.9l0.2,0.8l0.3,0.7l0.4,0.6l0.5,0.6l0.5,0.5l0.6,0.4l0.6,0.3
			l0.6,0.3l0.7,0.2l0.7,0.2l0.7,0.1l0.7,0.1l0.7,0h0.4l0.4,0h0.4l0.4,0l0.3,0l0.3,0l0.3,0l0.2,0l0.2,0l0.2-0.1l0.2-0.1l0.2-0.1
			l0.2-0.1l0.2-0.1l0.2-0.1l0.2-0.1l0.5-3.4l-0.4,0.2l-0.4,0.2l-0.4,0.2l-0.4,0.1l-0.4,0.1l-0.4,0.1l-0.4,0.1l-0.4,0.1l-0.4,0
			l-0.4,0h-0.4l-0.4,0l-0.4,0l-0.4,0l-0.3,0l-0.4-0.1l-0.3-0.1l-0.3-0.1l-0.3-0.1l-0.2-0.2l-0.2-0.2l-0.2-0.2l-0.2-0.2l-0.2-0.2
			l-0.2-0.2l-0.1-0.3l-0.1-0.2l-0.1-0.3l-0.1-0.3l0-0.3l0-0.2l0-0.2h8.8l0.1-0.8l0.2-1.1l0.1-1L114.4,70.3z M110.7,71.6h-5l0,0l0,0
			l0-0.2l0.1-0.3l0.1-0.3l0.1-0.3l0.1-0.2l0.1-0.2l0.1-0.2l0.2-0.2l0.2-0.2l0.2-0.2l0.2-0.2l0.2-0.1l0.2-0.1l0.2-0.1l0.2-0.1l0.2,0
			l0.3,0l0.2,0l0.2,0l0.2,0.1l0.2,0.1l0.2,0.1l0.2,0.1l0.2,0.1l0.2,0.2l0.1,0.2l0.1,0.2l0.1,0.2l0.1,0.3l0.1,0.3l0,0.3l0,0.3
			L110.7,71.6z"/>
	</g>
</g>
</svg>
