<?xml version="1.0" encoding="utf-8"?>
<!-- Generator: Adobe Illustrator 22.1.0, SVG Export Plug-In . SVG Version: 6.00 Build 0)  -->
<svg version="1.1" id="Layer_1" xmlns="http://www.w3.org/2000/svg" xmlns:xlink="http://www.w3.org/1999/xlink" x="0px" y="0px"
	 viewBox="0 0 595.3 314.9" style="enable-background:new 0 0 595.3 314.9;" xml:space="preserve">
<style type="text/css">
	.st0{fill:#72207B;}
	.st1{fill:#B69CC4;}
	.st2{fill:#FFFFFF;}
	.st3{fill:none;}
	.st4{opacity:0.95;fill:#FFFFFF;enable-background:new    ;}
</style>
<g>
	<g>
		<polygon class="st0" points="374,226.9 390.3,210.9 395.7,205.5 		"/>
		<path class="st0" d="M231.4,239.3l53.2,53.2c6.6,6.6,17.4,6.6,24.1,0l81.6-81.6l-16.3,16l21.7-21.4l-5.4,5.4l5.4-5.3l71-71H335.3
			L231.4,239.3z"/>
	</g>
</g>
<polygon class="st1" points="166.5,174 228.9,236.4 330.7,134.6 205.6,134.6 "/>
<path class="st2" d="M307.3,257.8c-6.2,6.2-16.4,6.2-22.6,0L161.1,134.2h-2.8l125,125c3.5,3.5,8.1,5.3,12.7,5.3s9.2-1.8,12.7-5.3
	l124.7-124.6h-2.9L307.3,257.8z"/>
<polygon class="st2" points="430.9,134.2 430.5,134.6 433.4,134.6 433.8,134.2 "/>
<polygon class="st2" points="161,134.1 158.1,134 158.3,134.2 161.1,134.2 "/>
<line class="st3" x1="430.9" y1="134.2" x2="433.8" y2="134.2"/>
<polygon class="st4" points="163.7,134.2 123.4,134.2 184.5,193.2 409.2,193.2 468.1,134.6 163.7,134.6 "/>
</svg>
