<?xml version="1.0" encoding="utf-8"?>
<!-- Generator: Adobe Illustrator 22.1.0, SVG Export Plug-In . SVG Version: 6.00 Build 0)  -->
<svg version="1.1" id="Layer_1" xmlns="http://www.w3.org/2000/svg" xmlns:xlink="http://www.w3.org/1999/xlink" x="0px" y="0px"
	 viewBox="0 0 595.3 314.9" style="enable-background:new 0 0 595.3 314.9;" xml:space="preserve">
<style type="text/css">
	.st0{fill:#72207B;}
	.st1{fill:#B69CC4;}
	.st2{fill:#FFFFFF;}
	.st3{fill:#CDCCCC;}
	.st4{opacity:0.95;fill:#FFFFFF;enable-background:new    ;}
</style>
<g>
	<g>
		<path class="st0" d="M433.5,35.5L231.4,239.3l53.2,53.2c6.6,6.6,17.4,6.6,24.1,0l87-87L374,226.9l21.7-21.3L566,35.2L433.5,35.5z"
			/>
	</g>
</g>
<polygon class="st1" points="566,35.2 531.7,35.3 433.1,134.2 467,134.2 "/>
<polygon class="st1" points="277.1,62.4 166.5,174 228.9,236.4 403,62.2 "/>
<path class="st2" d="M529.8,35.3L307.3,257.8c-6.2,6.2-16.4,6.2-22.6,0L161,134.1l-2.9-0.1l125.2,125.2c3.5,3.5,8.1,5.3,12.7,5.3
	s9.2-1.8,12.7-5.3l224-223.9L529.8,35.3z"/>
<polygon class="st3" points="161,134.1 107.8,81 105,81 158.1,134.1 "/>
<polygon class="st4" points="468.5,134.2 123.4,134.2 184.5,193.2 409.2,193.2 "/>
</svg>
