<?xml version="1.0" encoding="utf-8"?>
<!-- Generator: Adobe Illustrator 23.0.0, SVG Export Plug-In . SVG Version: 6.00 Build 0)  -->
<svg version="1.1" id="Layer_1" xmlns="http://www.w3.org/2000/svg" xmlns:xlink="http://www.w3.org/1999/xlink" x="0px" y="0px"
	 viewBox="0 0 283.5 283.5" style="enable-background:new 0 0 283.5 283.5;" xml:space="preserve">
<style type="text/css">
	.st0{fill:none;stroke:#B59BC3;stroke-width:15;stroke-miterlimit:10;}
	.st1{fill:#B59BC3;}
	.st2{fill:#702B85;}
	.st3{fill:none;stroke:#702B85;stroke-width:11;stroke-miterlimit:10;}
</style>
<title>dial</title>
<circle class="st0" cx="141.3" cy="74.9" r="65.1"/>
<g>
	<path class="st1" d="M249.8,197.4c-19.8-19.9-44.4-30.3-72.3-30.9c-25.7-0.5-51.5-1.2-77.2,0.5c-25.2,1.7-46.9,11.8-65,29.2
		C13,217.7,3,244.5,2.3,275.1c-0.1,4.5,1.6,5.4,5.7,5.4c44.5-0.1,89-0.1,133.6-0.1c11.1,0,22.2,0,33.3,0c33.8,0,67.5,0,101.3,0
		c2.5,0,5.1,0.7,5.2-3.6C281.9,245.9,271.5,219.2,249.8,197.4z M262,265.2c-23.7-0.1-47.3,0-71,0c-16.3,0-32.6,0-48.9,0
		c-39.5,0-79,0-118.4,0c-6.1,0-6,0-5-6.7c3-20.1,11.9-37.2,26.4-51.2c15.7-15.2,34.5-24.2,56.6-25.7c24.4-1.6,48.9-1,73.3-0.6
		c33.3,0.6,59.5,15.2,77.7,43.3c7.3,11.2,11.6,23.6,13.2,37C266.2,265.1,264.8,265.2,262,265.2z"/>
</g>
<path class="st2" d="M76.6,54.8c-12,0-21.7,9.8-21.7,21.8c0,12.1,9.7,21.8,21.7,21.8C80.3,98.4,80.3,54.8,76.6,54.8z"/>
<path class="st3" d="M72.3,78.4c0,18.6,27,33.6,60.5,33.6"/>
<circle class="st2" cx="139.5" cy="108.4" r="11.6"/>
</svg>
