<?xml version="1.0" encoding="utf-8"?>
<!-- Generator: Adobe Illustrator 22.1.0, SVG Export Plug-In . SVG Version: 6.00 Build 0)  -->
<svg version="1.1" id="Layer_1" xmlns="http://www.w3.org/2000/svg" xmlns:xlink="http://www.w3.org/1999/xlink" x="0px" y="0px"
	 viewBox="0 0 225.4 140.9" style="enable-background:new 0 0 225.4 140.9;" xml:space="preserve">
<style type="text/css">
	.st0{fill:#2056AA;}
	.st1{fill:#FFFFFF;}
</style>
<title>dial</title>
<g>
	<path class="st0" d="M225.4,133.4c0,4.1-3.4,7.5-7.5,7.5H7.5c-4.1,0-7.5-3.4-7.5-7.5V7.5C0,3.4,3.4,0,7.5,0h210.4
		c4.1,0,7.5,3.4,7.5,7.5V133.4z"/>
	<g>
		<polygon class="st1" points="103.7,91.6 92.7,91.6 99.6,49.3 110.6,49.3 		"/>
		<path class="st1" d="M83.5,49.3L73,78.4l-1.2-6.3v0l-3.7-19c0,0-0.4-3.8-5.2-3.8H45.4L45.2,50c0,0,5.3,1.1,11.5,4.8l9.6,36.7h11.5
			l17.5-42.3H83.5z"/>
		<path class="st1" d="M170.1,91.6h10.1l-8.8-42.3h-8.9c-4.1,0-5.1,3.2-5.1,3.2L141,91.6h11.5l2.3-6.3h14L170.1,91.6z M158,76.7
			l5.8-15.8l3.3,15.8H158z"/>
		<path class="st1" d="M141.9,59.5l1.6-9.1c0,0-4.8-1.8-9.9-1.8c-5.5,0-18.4,2.4-18.4,14c0,10.9,15.2,11.1,15.2,16.8
			c0,5.7-13.7,4.7-18.2,1.1l-1.6,9.5c0,0,4.9,2.4,12.4,2.4c7.5,0,18.9-3.9,18.9-14.5c0-11-15.4-12-15.4-16.8
			C126.4,56.3,137.2,56.9,141.9,59.5z"/>
	</g>
	<path class="st1" d="M71.7,72.1l-3.7-19c0,0-0.4-3.8-5.2-3.8H45.4L45.2,50c0,0,8.3,1.7,16.3,8.2C69.2,64.4,71.7,72.1,71.7,72.1z"/>
</g>
</svg>
