<?xml version="1.0" encoding="utf-8"?>
<!-- Generator: Adobe Illustrator 22.1.0, SVG Export Plug-In . SVG Version: 6.00 Build 0)  -->
<svg version="1.1" id="Layer_1" xmlns="http://www.w3.org/2000/svg" xmlns:xlink="http://www.w3.org/1999/xlink" x="0px" y="0px"
	 viewBox="0 0 285.4 287.7" style="enable-background:new 0 0 285.4 287.7;" xml:space="preserve">
<style type="text/css">
	.st0{fill:#E2A235;}
	.st1{fill:#EAB66A;}
</style>
<g>
	<path class="st0" d="M142.7,20.3c68.9,0,124.7,55.8,124.7,124.7s-55.8,124.7-124.7,124.7S18,213.9,18,145S73.8,20.3,142.7,20.3
		 M142.7,2.3c-38.1,0-73.9,14.8-100.9,41.8S0,106.9,0,145s14.8,73.9,41.8,100.9s62.8,41.8,100.9,41.8s73.9-14.8,100.9-41.8
		s41.8-62.8,41.8-100.9s-14.8-73.9-41.8-100.9S180.8,2.3,142.7,2.3L142.7,2.3z"/>
</g>
<g>
	<path class="st1" d="M157.9,89.1c-1.6,16.5-3,32.2-4.5,47.9c-0.9,9.1-1.8,18.1-2.8,27.2c-0.1,1.2-0.1,2.5-0.4,3.7
		c-1,3.8-2.8,6.8-7.4,6.9c-4.9,0.1-6.9-3.1-7.7-7.1c-0.8-3.9-0.9-8-1.3-12c-2.1-20.9-4.1-41.8-6.2-62.7c-0.5-4.8,0.1-9.5,2.9-13.6
		c3.9-5.7,10.4-8.3,15.9-6.4C153.4,75.1,157.9,81.8,157.9,89.1z"/>
	<path class="st1" d="M142.5,189.3c8.5-0.1,15.3,6.5,15.4,14.7c0.1,8-7,14.9-15.3,14.9c-8.1,0-15-6.6-15.1-14.5
		C127.3,196.2,134.1,189.4,142.5,189.3z"/>
</g>
</svg>
