<?xml version="1.0" encoding="utf-8"?>
<!-- Generator: Adobe Illustrator 22.1.0, SVG Export Plug-In . SVG Version: 6.00 Build 0)  -->
<svg version="1.1" id="Layer_1" xmlns="http://www.w3.org/2000/svg" xmlns:xlink="http://www.w3.org/1999/xlink" x="0px" y="0px"
	 viewBox="0 0 283.5 283.5" style="enable-background:new 0 0 283.5 283.5;" xml:space="preserve">
<style type="text/css">
	.st0{fill:#702B84;}
	.st1{fill:#B59BC3;}
</style>
<circle class="st0" cx="141" cy="107.1" r="36.1"/>
<path class="st0" d="M155,158.8h-26.8c-30.6,0-55.8,24.2-57.5,54.3l141.8-0.6C210.4,182.6,185.3,158.8,155,158.8z"/>
<circle class="st1" cx="219.1" cy="95" r="29.6"/>
<path class="st1" d="M212.5,181.5l65.1-0.3c-1.7-24.4-22.2-43.9-47-43.9h-21.9c-13.3,0-25.3,5.5-33.8,14.4
	C191.2,155.7,204.9,166.8,212.5,181.5z"/>
<circle class="st1" cx="62.3" cy="95" r="29.6"/>
<path class="st1" d="M69,181.5l-65.1-0.3c1.7-24.4,22.2-43.9,47-43.9h21.9c13.3,0,25.3,5.5,33.8,14.4
	C90.3,155.7,76.5,166.8,69,181.5z"/>
</svg>
