<?xml version="1.0" encoding="utf-8"?>
<!-- Generator: Adobe Illustrator 22.1.0, SVG Export Plug-In . SVG Version: 6.00 Build 0)  -->
<svg version="1.1" id="Layer_1" xmlns="http://www.w3.org/2000/svg" xmlns:xlink="http://www.w3.org/1999/xlink" x="0px" y="0px"
	 viewBox="0 0 283.5 283.5" style="enable-background:new 0 0 283.5 283.5;" xml:space="preserve">
<style type="text/css">
	.st0{fill:#722E86;}
	.st1{fill:#B79DC4;}
</style>
<g>
	<path class="st0" d="M141.3,276.2c-74.9,0-134.7-60.1-134.1-136c0.6-76.1,64-133.8,136.5-133C217,8.1,276.4,68.3,276.3,143.7
		C276.3,216.4,215.4,276.2,141.3,276.2z M170.4,257.4c23.4-5.9,43.4-17.6,59.4-35.9c3.5-3.3,6.6-6.9,8.7-11.3
		c0.8-0.8,1.8-1.5,2.3-2.3c11.9-18,18.7-37.6,19.8-59.2c0-5-0.1-9.9-0.1-14.9c-0.8-14.4-4.3-28.1-10.3-41.1
		c-3.7-7.9-7.4-15.9-13.7-22.1c-2-4.3-5-7.8-8.9-10.6c-0.1-1.3-1.1-1.9-1.8-2.7C210.7,42.4,193,32,172.4,26.5
		c-6.8-1.7-13.5-3.4-20.6-3.1c-0.9-0.1-1.8-0.2-2.7-0.3c-4.8-0.7-9.6-0.6-14.4-0.2c-1,0.2-1.9,0.4-2.9,0.6
		c-6.8-0.6-13.2,1.3-19.7,2.9C96.9,29.9,83.4,36.6,71,45.8c-4.9,3.6-10,7.1-13.4,12.4c-3.8,2.7-7.1,5.8-9,10.2
		c-0.8,0.6-1.7,1.1-2.1,1.8C32.1,89.4,24,110.9,22.6,134.8c0,5,0.1,9.9,0.1,14.9c1.5,22.1,8.5,42.1,21.1,60.2
		c3.1,4.5,6.4,8.9,10.4,12.7c4.4,5.3,9.5,9.7,15,13.8c13.7,10.3,28.7,18,45.7,21.2c11.2,3,22.6,3.8,34.1,2.6
		c0.5-0.1,1.1-0.2,1.6-0.3C157.5,260.9,163.9,258.8,170.4,257.4z"/>
	<path class="st1" d="M134.6,22.9c4.8-0.4,9.6-0.5,14.4,0.2c0,17,0,33.9,0,51c0,2.3-0.3,4.9,3.3,4.4c7.7-1.1,15.4-1.2,23.1-2.4
		c4.2-0.7,4.3-2.3,2.8-5.4c-1.9-4.3-3.8-8.6-5.7-12.8c-5.5-12.3-13.6-23.1-20.8-34.3c7.1-0.3,13.8,1.6,20.6,3.1
		c-0.3,1.5,0.5,2.5,1.2,3.6c7.9,12.3,14.6,25.1,19.5,38.9c0.8,2.2,1.8,2.7,4.4,2.1c10.5-2.7,20.2-7.4,30.4-11.1
		c3.9,2.7,6.8,6.3,8.9,10.6c-0.8,1.7-2.5,1.8-4,2.5c-9.8,4.7-19.9,8.6-30.3,11.5c-1.8,0.5-4,0.6-3,4.1c3.7,13.6,6.1,27.4,6.3,41.5
		c0,2.9,1.3,4,4.2,3.9c17-0.2,34-0.3,51.1-0.4c0,5,0.1,9.9,0.1,14.9c-17.2,0-34.3,0-51.6,0c-2.1,0-3.7,0.2-3.7,3
		c-0.1,13.1-2.5,26-5.6,38.7c-0.6,2.2-0.1,3.6,2.4,4.3c4.4,1.3,8.7,2.6,12.8,4.4c8.1,3.2,16.4,5.8,23.4,11.2
		c-1.9,4.5-5.2,8.1-8.7,11.3c-9.8-5.3-20.1-9.4-30.7-12.8c-3.4-1.1-4.8-0.5-5.9,2.9c-3.9,11.3-9.1,22-15.1,32.4
		c-2.5,4.5-5.8,8.5-7.7,13.3c-6.5,1.4-12.9,3.5-19.7,2.6c0.1-1.8,1.4-2.8,2.3-4.2c10.9-14.6,19.6-30.3,26.2-47.4
		c1.5-3.7,0.4-5-3.2-5.3c-7-0.9-14.1-1.8-21.2-2.3c-5.8-0.4-5.7-0.8-5.7,5.2c0,18.1,0,36.3,0,54.4c-11.6,1.2-23,0.4-34.1-2.6
		c-9.8-14.9-18.3-30.4-24.2-47.2c-0.9-2.5-2-2.7-4.4-1.9c-7.4,2.3-14.6,5.1-21.7,8.4c-3.6,1.7-7.7,2.5-10.4,5.8
		c-4-3.9-7.3-8.3-10.4-12.7c0.7,0,1.4,0.2,1.9-0.1c12-6.1,24.3-11.3,37.1-15.3c2.6-0.8,2-2.6,1.7-4.3c-3.2-12.2-5.3-24.6-5.6-37.2
		c-0.1-2.6-1.1-3.8-3.8-3.8c-17.4,0.2-34.9,0.2-52.3,0.4c0-5-0.1-9.9-0.1-14.9c17.1,0,34.3,0,51.5,0.1c2.8,0,3.9-0.7,4.1-3.7
		c1.1-14.3,2.4-28.6,6.6-42.5c1.1-3.7,0.1-5-3.4-6.1C70.1,79,59,74.8,48.7,68.3c1.8-4.4,5.3-7.5,9-10.2c1.9-0.3,3.4,0.9,5,1.7
		c7.7,3.7,15.8,6.8,23.8,9.5c2.9,1,4.4,0.4,5.3-2.6c2.9-8.3,6.7-16.1,10.9-23.8c3-5.5,6.2-10.9,9.3-16.4c6.4-1.7,12.9-3.5,19.7-2.9
		c-1,2.8-3,5-4.7,7.3C118.7,43.1,111.6,56.1,106,70c-1.2,2.9-1,4.2,2.6,4.8c7,1.2,14,2.2,21.1,2.8c3.8,0.4,5.1-0.8,5.1-4.8
		C134.4,56.3,134.6,39.7,134.6,22.9z M134.5,113.6c0-5.6-0.1-11.4,0.1-17c0.1-2.9-0.6-4.4-4-4.4c-8.9-0.1-17.7-1.5-26.4-3.5
		c-3.6-0.9-4.8,0.4-5.6,3.6C95.2,105,94,118,92.6,131c-0.3,3,1.1,4,4,3.9c11.4-0.1,22.7-0.1,34,0c2.9,0,4.1-0.9,4-3.9
		C134.4,125.3,134.5,119.4,134.5,113.6z M149,113.9c0,5.8,0,11.7,0,17.5c0,1.5-0.6,3.6,2.1,3.3c12.2-1.1,24.2-0.2,36.4-0.5
		c2.5,0,3.4-0.9,3.4-3.4c-0.3-13.3-2.5-26.4-5.9-39.2c-0.6-2.1-1.7-2.7-3.4-2.2c-9.6,2.4-19.6,2.5-29.3,3.5c-2.9,0.3-3.4,1.6-3.3,4
		C149.1,102.6,149,108.2,149,113.9z M170.4,148.7c-5.8,0-11.7,0.1-17.5-0.1c-2.9-0.1-4,0.9-3.9,3.9c0.2,9.8,0.2,19.7,0,29.6
		c0,2.7,1.1,3.8,3.6,3.9c9.8,0.7,19.6,1.8,29.3,3.5c1.9,0.3,3.5,0,4.1-2.3c2.6-11.7,5-23.3,5.2-35.3c0.1-2.7-1.4-3.2-3.6-3.1
		C181.7,148.8,176.1,148.7,170.4,148.7z M114.1,149.4c-5.6,0-11.3,0.1-17,0c-2.5-0.1-3.9,0.6-3.8,3.5c0.3,11.9,2.7,23.3,5.3,34.8
		c0.3,1.4,0.8,2.6,2.9,2.2c9.5-1.9,19.1-3.3,28.8-3.6c2.5-0.1,4.4-1.1,4.3-4.5c-0.3-9.5-0.2-19.1,0-28.6c0-3-1.2-3.9-4-3.8
		C125.1,149.5,119.7,149.4,114.1,149.4z M134.5,257.7c0-18.4,0-36.8,0-55.2c0-1.7-0.8-2.3-2.4-2.1c-8.2,1-16.3,1.9-24.5,3
		c-2.1,0.3-4,0.8-2.7,4.1C112.1,225.6,121.3,242.7,134.5,257.7z"/>
</g>
</svg>
