<?xml version="1.0" encoding="utf-8"?>
<!-- Generator: Adobe Illustrator 22.1.0, SVG Export Plug-In . SVG Version: 6.00 Build 0)  -->
<svg version="1.1" id="Layer_1" xmlns="http://www.w3.org/2000/svg" xmlns:xlink="http://www.w3.org/1999/xlink" x="0px" y="0px"
	 viewBox="0 0 283.5 283.5" style="enable-background:new 0 0 283.5 283.5;" xml:space="preserve">
<style type="text/css">
	.st0{fill:#702B84;}
	.st1{fill:#B59BC3;}
	.st2{fill:#FFFFFF;}
	.st3{fill:#064B93;}
	.st4{fill:#129F39;}
</style>
<circle class="st0" cx="141" cy="128.1" r="36.1"/>
<path class="st0" d="M155,179.8h-26.8c-30.6,0-55.8,24.2-57.5,54.3l141.8-0.6C210.4,203.6,185.3,179.8,155,179.8z"/>
<circle class="st1" cx="219.1" cy="116" r="29.6"/>
<path class="st1" d="M212.5,202.5l65.1-0.3c-1.7-24.4-22.2-43.9-47-43.9h-21.9c-13.3,0-25.3,5.5-33.8,14.4
	C191.2,176.7,204.9,187.8,212.5,202.5z"/>
<circle class="st1" cx="62.3" cy="116" r="29.6"/>
<path class="st1" d="M69,202.5l-65.1-0.3c1.7-24.4,22.2-43.9,47-43.9h21.9c13.3,0,25.3,5.5,33.8,14.4
	C90.3,176.7,76.5,187.8,69,202.5z"/>
<circle class="st1" cx="196.5" cy="103.7" r="32.1"/>
<path class="st1" d="M189.3,197.6l70.6-0.3c-1.8-26.5-24.1-47.6-51-47.6h-23.8c-14.4,0-27.4,6-36.7,15.6
	C166.2,169.6,181.1,181.6,189.3,197.6z"/>
<path class="st2" d="M145,210.1c0,6.7,5.5,12.2,12.2,12.2h110c6.7,0,12.2-5.5,12.2-12.2l-0.8-45.7H145V210.1z"/>
<path class="st3" d="M146.4,209.1c0,6.7,5.5,12.2,12.2,12.2h110c6.7,0,12.2-5.5,12.2-12.2v-61.4H146.4V209.1z"/>
<g>
	<path class="st2" d="M156.4,165.2V155h2.9c0.9,0,1.6,0.2,2.4,0.6c0.7,0.4,1.2,0.9,1.6,1.6s0.6,1.6,0.6,2.5v0.6
		c0,0.9-0.2,1.8-0.6,2.5s-0.9,1.3-1.6,1.6s-1.5,0.6-2.4,0.6L156.4,165.2L156.4,165.2z M157.7,156.1v8h1.4c1,0,1.9-0.3,2.4-0.9
		c0.6-0.6,0.9-1.6,0.9-2.7v-0.6c0-1.1-0.3-2.1-0.8-2.7c-0.6-0.6-1.3-1-2.3-1L157.7,156.1L157.7,156.1z"/>
	<path class="st2" d="M171.2,162.5h-4.3l-0.9,2.6h-1.4l3.9-10.2h1.1l3.9,10.2h-1.4L171.2,162.5z M167.4,161.4h3.4l-1.7-4.8
		L167.4,161.4z"/>
	<path class="st2" d="M181.1,156.1h-3.3v9.1h-1.4v-9.1h-3.3V155h7.9L181.1,156.1L181.1,156.1z"/>
	<path class="st2" d="M187.7,162.5h-4.3l-0.9,2.6h-1.4l3.9-10.2h1.1l3.9,10.2h-1.4L187.7,162.5z M183.8,161.4h3.4l-1.7-4.8
		L183.8,161.4z"/>
	<path class="st2" d="M196.3,161.1v4h-1.4v-10.2h3.7c1.1,0,2,0.3,2.6,0.9c0.6,0.6,0.9,1.3,0.9,2.3s-0.3,1.7-0.9,2.3
		s-1.5,0.8-2.6,0.8L196.3,161.1L196.3,161.1z M196.3,160.1h2.4c0.7,0,1.3-0.1,1.6-0.5s0.6-0.9,0.6-1.4c0-0.6-0.2-1.1-0.6-1.4
		s-0.9-0.6-1.6-0.6h-2.5v3.9H196.3z"/>
	<path class="st2" d="M207.6,161h-2.4v4.1h-1.4v-10.2h3.4c1.1,0,2,0.3,2.6,0.8s0.9,1.3,0.9,2.3c0,0.6-0.1,1.2-0.5,1.6
		s-0.8,0.8-1.4,1.1l2.4,4.3v0.1h-1.4L207.6,161z M205.3,159.9h2.1c0.6,0,1.2-0.1,1.6-0.5s0.6-0.8,0.6-1.4s-0.2-1.1-0.6-1.4
		s-0.9-0.5-1.6-0.5h-2.1V159.9L205.3,159.9z"/>
	<path class="st2" d="M220.6,160.4c0,1-0.1,1.9-0.5,2.6s-0.8,1.3-1.4,1.7s-1.4,0.6-2.1,0.6c-0.8,0-1.5-0.2-2.1-0.6s-1.1-0.9-1.4-1.7
		c-0.4-0.8-0.5-1.6-0.5-2.5v-0.7c0-1,0.1-1.9,0.5-2.6c0.4-0.7,0.8-1.4,1.4-1.7c0.6-0.4,1.4-0.6,2.1-0.6c0.8,0,1.5,0.2,2.1,0.6
		c0.6,0.4,1.1,0.9,1.4,1.7c0.4,0.8,0.5,1.6,0.5,2.6V160.4z M219.2,159.7c0-1.2-0.2-2.1-0.7-2.8s-1.1-1-2-1s-1.5,0.4-2,1
		c-0.5,0.6-0.7,1.6-0.7,2.7v0.7c0,1.1,0.2,2.1,0.7,2.8s1.1,1,2,1s1.5-0.3,2-0.9s0.7-1.5,0.7-2.7V159.7z"/>
	<path class="st2" d="M230,161.9c-0.1,1.1-0.5,1.9-1.2,2.5s-1.6,0.9-2.6,0.9c-1.2,0-2.1-0.4-2.9-1.3c-0.7-0.9-1.1-2-1.1-3.4v-1
		c0-0.9,0.1-1.8,0.5-2.5s0.8-1.3,1.4-1.6c0.6-0.3,1.4-0.6,2.1-0.6c1.1,0,1.9,0.3,2.6,0.9c0.6,0.6,1,1.4,1.1,2.5h-1.3
		c-0.1-0.8-0.4-1.4-0.8-1.8c-0.4-0.4-0.9-0.6-1.6-0.6c-0.9,0-1.5,0.3-2,0.9c-0.5,0.6-0.7,1.5-0.7,2.7v1c0,1.1,0.2,2,0.7,2.6
		s1.1,1,1.9,1c0.7,0,1.3-0.1,1.7-0.5c0.4-0.4,0.6-0.9,0.8-1.8L230,161.9L230,161.9z"/>
	<path class="st2" d="M237.6,160.4h-4.4v3.6h5.1v1.1h-6.4v-10.2h6.4v1.1h-5.1v3.3h4.4V160.4L237.6,160.4z"/>
	<path class="st2" d="M243,160.6c-1.1-0.4-2-0.7-2.5-1.2s-0.8-1.1-0.8-1.8c0-0.8,0.3-1.4,0.9-2c0.6-0.6,1.5-0.8,2.5-0.8
		c0.7,0,1.3,0.1,1.9,0.4s1,0.6,1.3,1.1s0.4,1,0.4,1.6h-1.4c0-0.6-0.2-1.1-0.6-1.4c-0.4-0.4-0.9-0.5-1.6-0.5c-0.6,0-1.1,0.1-1.6,0.4
		c-0.4,0.3-0.6,0.7-0.6,1.2c0,0.4,0.1,0.8,0.5,1.1s0.9,0.6,1.8,0.8s1.5,0.5,2,0.8s0.9,0.6,1.1,1s0.4,0.9,0.4,1.4
		c0,0.9-0.3,1.5-0.9,2s-1.5,0.7-2.6,0.7c-0.7,0-1.4-0.1-1.9-0.4c-0.6-0.3-1.1-0.6-1.4-1.1c-0.4-0.4-0.5-1-0.5-1.6h1.4
		c0,0.6,0.2,1.1,0.7,1.4c0.5,0.4,1.1,0.5,1.8,0.5s1.2-0.1,1.6-0.4s0.6-0.7,0.6-1.2s-0.1-0.9-0.5-1.1
		C244.6,161.2,243.9,160.9,243,160.6z"/>
	<path class="st2" d="M251.4,160.6c-1.1-0.4-2-0.7-2.5-1.2s-0.8-1.1-0.8-1.8c0-0.8,0.3-1.4,0.9-2c0.6-0.6,1.5-0.8,2.5-0.8
		c0.7,0,1.3,0.1,1.9,0.4s1,0.6,1.3,1.1s0.4,1,0.4,1.6h-1.4c0-0.6-0.2-1.1-0.6-1.4s-0.9-0.5-1.6-0.5c-0.6,0-1.1,0.1-1.6,0.4
		c-0.4,0.3-0.6,0.7-0.6,1.2c0,0.4,0.1,0.8,0.5,1.1s0.9,0.6,1.8,0.8s1.5,0.5,2,0.8s0.9,0.6,1.1,1s0.4,0.9,0.4,1.4
		c0,0.9-0.3,1.5-0.9,2s-1.5,0.7-2.6,0.7c-0.7,0-1.4-0.1-1.9-0.4c-0.6-0.3-1.1-0.6-1.4-1.1c-0.4-0.4-0.5-1-0.5-1.6h1.4
		c0,0.6,0.2,1.1,0.7,1.4c0.5,0.4,1.1,0.5,1.8,0.5s1.2-0.1,1.6-0.4s0.6-0.7,0.6-1.2s-0.1-0.9-0.5-1.1S252.4,160.9,251.4,160.6z"/>
	<path class="st2" d="M262.7,160.4h-4.4v3.6h5.1v1.1H257v-10.2h6.4v1.1h-5.1v3.3h4.4V160.4z"/>
	<path class="st2" d="M265.1,165.2V155h2.9c0.9,0,1.6,0.2,2.4,0.6c0.7,0.4,1.2,0.9,1.6,1.6s0.6,1.6,0.6,2.5v0.6
		c0,0.9-0.2,1.8-0.6,2.5s-0.9,1.3-1.6,1.6c-0.6,0.4-1.5,0.6-2.4,0.6L265.1,165.2L265.1,165.2z M266.4,156.1v8h1.4
		c1,0,1.9-0.3,2.4-0.9c0.6-0.6,0.9-1.6,0.9-2.7v-0.6c0-1.1-0.3-2.1-0.8-2.7c-0.6-0.6-1.3-1-2.3-1L266.4,156.1L266.4,156.1z"/>
	<path class="st2" d="M162,179.7h-4.3l-0.9,2.6h-1.4l3.9-10.2h1.1l3.9,10.2h-1.4L162,179.7z M158.2,178.5h3.4l-1.7-4.8L158.2,178.5z
		"/>
	<path class="st2" d="M173.1,179.1c-0.1,1.1-0.5,1.9-1.2,2.5s-1.6,0.9-2.6,0.9c-1.2,0-2.1-0.4-2.9-1.3c-0.7-0.9-1.1-2-1.1-3.4v-1
		c0-0.9,0.1-1.8,0.5-2.5s0.8-1.3,1.4-1.6s1.4-0.6,2.1-0.6c1.1,0,1.9,0.3,2.6,0.9c0.6,0.6,1,1.4,1.1,2.5h-1.4
		c-0.1-0.8-0.4-1.4-0.8-1.8s-0.9-0.6-1.6-0.6c-0.9,0-1.5,0.3-2,0.9s-0.7,1.5-0.7,2.7v1c0,1.1,0.2,2,0.7,2.6s1.1,1,1.9,1
		c0.7,0,1.3-0.1,1.7-0.5s0.6-0.9,0.8-1.8L173.1,179.1L173.1,179.1z"/>
	<path class="st2" d="M182.5,179.1c-0.1,1.1-0.5,1.9-1.2,2.5s-1.6,0.9-2.6,0.9c-1.2,0-2.1-0.4-2.9-1.3c-0.7-0.9-1.1-2-1.1-3.4v-1
		c0-0.9,0.1-1.8,0.5-2.5s0.8-1.3,1.4-1.6s1.4-0.6,2.1-0.6c1.1,0,1.9,0.3,2.6,0.9c0.6,0.6,1,1.4,1.1,2.5H181
		c-0.1-0.8-0.4-1.4-0.8-1.8s-0.9-0.6-1.6-0.6c-0.9,0-1.5,0.3-2,0.9s-0.7,1.5-0.7,2.7v1c0,1.1,0.2,2,0.7,2.6s1.1,1,1.9,1
		c0.7,0,1.3-0.1,1.7-0.5s0.6-0.9,0.8-1.8L182.5,179.1L182.5,179.1z"/>
	<path class="st2" d="M192.1,177.5c0,1-0.1,1.9-0.5,2.6s-0.8,1.3-1.4,1.7c-0.6,0.4-1.4,0.6-2.1,0.6s-1.5-0.2-2.1-0.6
		s-1.1-0.9-1.4-1.7c-0.4-0.8-0.5-1.6-0.5-2.5v-0.7c0-1,0.1-1.9,0.5-2.6s0.8-1.4,1.4-1.7c0.6-0.4,1.4-0.6,2.1-0.6s1.5,0.2,2.1,0.6
		s1.1,0.9,1.4,1.7s0.5,1.6,0.5,2.6V177.5z M190.8,176.9c0-1.2-0.2-2.1-0.7-2.8s-1.1-1-2-1s-1.5,0.4-2,1s-0.7,1.6-0.7,2.7v0.7
		c0,1.1,0.2,2.1,0.7,2.8s1.1,1,2,1s1.5-0.3,2-0.9s0.7-1.5,0.7-2.7V176.9z"/>
	<path class="st2" d="M197.8,178.2h-2.4v4.1H194v-10.2h3.4c1.1,0,2,0.3,2.6,0.8s0.9,1.3,0.9,2.3c0,0.6-0.1,1.2-0.5,1.6
		s-0.8,0.8-1.4,1.1l2.4,4.3v0.1H200L197.8,178.2z M195.4,177.1h2.1c0.6,0,1.2-0.1,1.6-0.5s0.6-0.8,0.6-1.4s-0.2-1.1-0.6-1.4
		s-0.9-0.5-1.6-0.5h-2.1V177.1L195.4,177.1z"/>
	<path class="st2" d="M202.9,182.3v-10.2h2.9c0.9,0,1.6,0.2,2.4,0.6c0.7,0.4,1.2,0.9,1.6,1.6s0.6,1.6,0.6,2.5v0.6
		c0,0.9-0.2,1.8-0.6,2.5s-0.9,1.3-1.6,1.6c-0.6,0.4-1.5,0.6-2.4,0.6L202.9,182.3L202.9,182.3z M204.3,173.2v8h1.4
		c1,0,1.9-0.3,2.4-0.9s0.9-1.6,0.9-2.7V177c0-1.1-0.3-2.1-0.8-2.7c-0.6-0.6-1.3-1-2.3-1L204.3,173.2L204.3,173.2z"/>
	<path class="st2" d="M213.7,182.3h-1.4v-10.2h1.4V182.3z"/>
	<path class="st2" d="M224,182.3h-1.4l-5.1-7.9v7.9h-1.4v-10.2h1.4l5.1,7.9v-7.9h1.4V182.3z"/>
	<path class="st2" d="M233.9,181c-0.4,0.5-0.9,0.9-1.4,1.1c-0.6,0.2-1.4,0.4-2.1,0.4c-0.9,0-1.6-0.2-2.2-0.6s-1.1-0.9-1.5-1.6
		s-0.5-1.6-0.6-2.5v-0.9c0-1.5,0.4-2.7,1.1-3.6s1.7-1.3,3-1.3c1.1,0,1.9,0.3,2.6,0.8s1.1,1.3,1.2,2.3h-1.4c-0.3-1.4-1.1-2-2.4-2
		c-0.9,0-1.6,0.3-2.1,0.9s-0.7,1.6-0.7,2.7v0.9c0,1.1,0.3,2.1,0.8,2.7s1.2,1,2.1,1c0.5,0,0.9-0.1,1.3-0.1c0.4-0.1,0.7-0.3,0.9-0.6
		v-2.3h-2.4v-1.1h3.7L233.9,181L233.9,181z"/>
	<path class="st2" d="M246.4,173.2h-3.3v9.1h-1.3v-9.1h-3.3v-1.1h7.9L246.4,173.2L246.4,173.2z"/>
	<path class="st2" d="M255.5,177.5c0,1-0.1,1.9-0.5,2.6s-0.8,1.3-1.4,1.7s-1.4,0.6-2.1,0.6c-0.8,0-1.5-0.2-2.1-0.6s-1.1-0.9-1.4-1.7
		c-0.4-0.8-0.5-1.6-0.5-2.5v-0.7c0-1,0.1-1.9,0.5-2.6s0.8-1.4,1.4-1.7c0.6-0.4,1.4-0.6,2.1-0.6c0.8,0,1.5,0.2,2.1,0.6
		s1.1,0.9,1.4,1.7s0.5,1.6,0.5,2.6V177.5z M254.2,176.9c0-1.2-0.2-2.1-0.7-2.8s-1.1-1-2-1s-1.5,0.4-2,1s-0.7,1.6-0.7,2.7v0.7
		c0,1.1,0.2,2.1,0.7,2.8s1.1,1,2,1s1.5-0.3,2-0.9s0.7-1.5,0.7-2.7V176.9z"/>
</g>
<g>
	<path class="st2" d="M176.2,210.3c-0.9,1.1-2.1,1.9-3.8,2.5c-1.6,0.6-3.4,0.9-5.4,0.9c-2.1,0-3.9-0.4-5.4-1.4
		c-1.6-0.9-2.8-2.2-3.6-3.9c-0.9-1.7-1.3-3.7-1.3-6.1v-1.6c0-2.4,0.4-4.4,1.2-6.2c0.8-1.7,1.9-3.1,3.5-4s3.3-1.4,5.3-1.4
		c2.9,0,5.1,0.6,6.6,2c1.6,1.4,2.6,3.3,2.9,5.9h-4.8c-0.2-1.4-0.7-2.4-1.4-3s-1.8-0.9-3.1-0.9c-1.6,0-2.9,0.6-3.8,1.9
		s-1.3,3.1-1.4,5.6v1.5c0,2.5,0.5,4.4,1.4,5.6s2.4,1.9,4.2,1.9s3.1-0.4,3.9-1.2v-4.1h-4.5v-3.8h9.4L176.2,210.3L176.2,210.3z"/>
	<path class="st2" d="M180.2,213.3v-23.9h7.4c2.1,0,4,0.5,5.6,1.4s2.9,2.3,3.9,4c0.9,1.7,1.4,3.7,1.4,5.9v1.1c0,2.2-0.4,4.2-1.4,5.9
		c-0.9,1.7-2.2,3.1-3.9,4s-3.5,1.4-5.6,1.4L180.2,213.3L180.2,213.3z M185.2,193.4v15.9h2.4c1.9,0,3.4-0.6,4.4-1.9s1.5-3.1,1.6-5.4
		v-1.3c0-2.4-0.5-4.3-1.5-5.5c-1-1.3-2.5-1.9-4.4-1.9L185.2,193.4L185.2,193.4z"/>
	<path class="st2" d="M207,204.8v8.4h-4.9v-23.9h9.3c1.8,0,3.4,0.4,4.7,1c1.4,0.6,2.4,1.6,3.1,2.8s1.1,2.6,1.1,4.1
		c0,2.4-0.8,4.2-2.4,5.5c-1.6,1.4-3.8,2-6.6,2L207,204.8L207,204.8z M207,200.9h4.4c1.3,0,2.3-0.3,3-0.9s1-1.5,1-2.6s-0.4-2.1-1-2.9
		c-0.7-0.7-1.6-1.1-2.9-1.1H207V200.9L207,200.9z"/>
	<path class="st2" d="M232.6,204.5h-4v8.7h-4.9v-23.9h8.9c2.8,0,5,0.6,6.5,1.9s2.3,3,2.3,5.4c0,1.6-0.4,3-1.1,4.1s-1.8,1.9-3.2,2.6
		l5.1,9.8v0.2h-5.3L232.6,204.5z M228.6,200.5h4c1.2,0,2.2-0.3,2.9-0.9c0.6-0.6,1-1.5,1-2.6s-0.3-2-0.9-2.6s-1.6-1-2.9-1h-3.9
		L228.6,200.5L228.6,200.5z"/>
</g>
<g>
	<path class="st4" d="M280.8,46c0-6.7-5.5-12.2-12.2-12.2H158.5c-6.7,0-12.2,5.5-12.2,12.2v102h134.4V46C280.7,46,280.8,46,280.8,46
		z"/>
</g>
<g>
	<g>
		<path class="st2" d="M167.7,100.8c3.1-2.7,6.3-5.6,9.7-8.5c6.6,6.8,13.6,14,21,21.7c17.2-21.4,33.7-41.7,50.5-62.5
			c3.6,2.9,6.9,5.5,10.4,8.4c-11.5,14.5-22.7,28.9-34.1,43.1c-6.6,8.2-13.3,16.4-19.9,24.5c-3,3.6-6.9,4.3-10,1.3
			c-4.8-4.6-9.5-9.2-14.2-13.9c-4.2-4.2-8.4-8.4-12.6-12.5C168.2,102,168.1,101.5,167.7,100.8z"/>
	</g>
</g>
</svg>
