<?xml version="1.0" encoding="utf-8"?>
<!-- Generator: Adobe Illustrator 22.1.0, SVG Export Plug-In . SVG Version: 6.00 Build 0)  -->
<svg version="1.1" id="Layer_1" xmlns="http://www.w3.org/2000/svg" xmlns:xlink="http://www.w3.org/1999/xlink" x="0px" y="0px"
	 viewBox="0 0 283.5 283.5" style="enable-background:new 0 0 283.5 283.5;" xml:space="preserve">
<style type="text/css">
	.st0{fill:#733088;}
	.st1{fill:#712D86;}
	.st2{fill:#B89FC6;}
	.st3{fill:#B79DC4;}
	.st4{fill:#B59BC3;}
	.st5{fill:#712C85;}
</style>
<g>
	<path class="st0" d="M205.4,34.1c0.6-4-0.1-8.2,0.9-12.4c2.5-9.9,10.7-16.5,21.1-16.6c9.4-0.1,19-0.1,28.4,0
		c12.4,0.1,21.7,8.9,22.1,21.4c0.3,9.9,0.3,19.7,0,29.5c-0.4,12.5-9.3,20.6-22.7,21.4c-2.1,0.1-4.2,0.2-6.1,0.4c-4.8,0-9.5,0-14.3,0
		c-0.8-0.1-1.7-0.3-2.5-0.3c-18.9-0.5-26.2-7.9-26.5-26.6c0-0.7-0.1-1.3-0.1-2.1C205.5,43.9,205.4,39,205.4,34.1z M263,41.6
		c0-4.5,0.1-8.9,0-13.5c-0.1-5.8-2.4-8.3-8-8.4c-8.8-0.1-17.5-0.1-26.4,0c-5.4,0.1-7.9,2.6-7.9,8c-0.1,8.9-0.1,18,0,26.9
		c0.1,5.3,2.4,7.7,7.5,7.7c9.1,0.1,18.3,0.1,27.4,0c4.9-0.1,7.3-2.5,7.4-7.3C263.2,50.6,263,46.1,263,41.6z"/>
	<path class="st0" d="M249,205.6c2.9,0.2,5.8,0.4,8.7,0.7c11.9,1.3,19.9,9.5,20.2,21.6c0.2,9.7,0.3,19.3,0,29
		c-0.4,12.5-9.8,21.3-22.1,21.4c-9.1,0.1-18.3,0-27.4,0c-13.3,0-22.4-9-22.7-22.3c-0.1-2.3-0.2-4.5-0.2-6.7c0-4.9,0.1-9.8,0.1-14.6
		c0.1-1.8,0.1-3.4,0.1-5.2c0.1-13.5,7.9-21.9,21.3-23.2c2.6-0.2,5.2-0.4,7.7-0.5C239.5,205.6,244.3,205.6,249,205.6z M242.3,220.9
		c-4.7,0-9.3-0.1-14,0c-5.2,0.1-7.6,2.4-7.6,7.6c-0.1,9.1,0,18.3,0,27.4c0,4.9,2.6,7.5,7.3,7.6c9.1,0.2,18.3,0.2,27.4,0
		c5.1-0.1,7.6-2.7,7.6-7.8c0.1-9.1,0.1-18.3,0-27.4c-0.1-4.9-2.4-7.3-7.3-7.4C251.2,220.9,246.8,220.9,242.3,220.9z"/>
	<path class="st1" d="M77.1,249.2c-0.6,4.5,0.4,8.9-0.9,13.4c-2.8,8.9-10.6,15.4-19.8,15.5c-10.2,0.2-20.4,0.2-30.6,0
		c-11.5-0.2-20.4-9.5-20.6-21.2c-0.1-9.1,0-18.4,0-27.5c0-13.9,7.6-22.1,21.5-23.4c2.3-0.2,4.5-0.2,6.7-0.3
		c5.2,0.9,10.4,0.8,15.6,0.1c2.2,0.1,4.5,0,6.6,0.2c11.3,1,18.9,7.2,21,17.1c0.7,3.6,0.4,7.5,0.5,11.2
		C76.9,239.3,77.1,244.3,77.1,249.2z M41,220.9c-4.7,0-9.3-0.1-14,0c-4.8,0.1-7.4,2.6-7.5,7.4c-0.1,9.3-0.1,18.7,0,28
		c0,4.6,2.8,7.2,7.2,7.3c9.4,0.2,19,0.3,28.5,0c4.4-0.1,7-2.9,7.1-7.5c0.1-9.3,0.1-18.7,0-28c-0.1-4.5-2.6-7.1-7.2-7.2
		C50.4,220.9,45.7,220.9,41,220.9z"/>
	<path class="st1" d="M33.3,77.6c-3.4-0.2-7-0.3-10.3-0.7C13.2,75.6,5.3,66.9,5.1,57c-0.2-10.4-0.2-20.8,0-31.1
		C5.3,14.6,14.4,5.5,25.6,5.2C35.7,5,46,5,56.2,5.2c11.4,0.2,20.4,9.7,20.7,21.1c0,2.6,0.1,5.2,0.2,7.8C77.1,39,77,44,77,48.8
		c0,0.8-0.2,1.8-0.1,2.6c1.8,14.3-7.8,27.1-25.7,25.8c-0.7,0-1.3,0.1-2.1,0.1C43.8,76.9,38.5,76.6,33.3,77.6z M40.5,62.4
		c4.7,0,9.3,0.1,14,0c5.1-0.1,7.7-2.6,7.8-7.6c0.1-9,0.1-18,0-27c-0.1-5.2-2.7-8-8-8.1c-9-0.1-18-0.1-27,0c-5.1,0.1-7.7,2.8-7.7,7.8
		c-0.1,9.1-0.1,18.3,0,27.5c0.1,4.8,2.6,7.3,7.4,7.4C31.5,62.5,36.1,62.4,40.5,62.4z"/>
	<path class="st2" d="M33.3,77.6c5.3-1,10.6-0.6,15.9-0.2c-1,8.1-0.4,16.2-0.4,24.3c0,34.7,0.1,69.4,0.1,104.1
		c-5.2,0.7-10.4,0.8-15.6-0.1C33.3,163.1,33.3,120.3,33.3,77.6z"/>
	<path class="st3" d="M76.9,48.9C76.9,44,77,39,77,34.2c42.8,0,85.6,0,128.4,0c0,4.9,0.1,9.8,0.1,14.6
		C162.7,48.8,119.8,48.8,76.9,48.9z"/>
	<path class="st3" d="M77.1,249.2c0-4.9-0.1-9.9-0.1-14.7c42.9,0,85.7,0,128.6,0.1c0,4.9-0.1,9.8-0.1,14.6
		C162.7,249.2,119.8,249.2,77.1,249.2z"/>
	<path class="st4" d="M249,205.6c-4.8,0-9.5,0-14.3,0c0-42.6,0-85.2,0-127.8c4.8,0,9.5,0,14.3,0C249,120.4,249,162.9,249,205.6z"/>
	<path class="st5" d="M141.7,199.3c-17.7,0-35.6-0.1-53.3,0.1c-3.6,0-4.7-0.9-4.4-4.7c1.5-19.3,17.2-36.2,38-38.4
		c13.7-1.3,27.6-1.7,41.3,0.3c19.1,2.8,33.8,19.2,35.5,38.5c0.3,3-0.3,4.2-3.7,4.2C177.3,199.2,159.6,199.3,141.7,199.3z"/>
	<path class="st1" d="M170.3,112.9c0,16.1-13,29-29,28.9c-15.9-0.1-28.6-12.8-28.6-28.6C112.6,96.9,125.3,84,141.3,84
		C157.3,84.1,170.3,96.9,170.3,112.9z"/>
</g>
</svg>
