<?xml version="1.0" encoding="utf-8"?>
<!-- Generator: Adobe Illustrator 22.1.0, SVG Export Plug-In . SVG Version: 6.00 Build 0)  -->
<svg version="1.1" id="Layer_1" xmlns="http://www.w3.org/2000/svg" xmlns:xlink="http://www.w3.org/1999/xlink" x="0px" y="0px"
	 viewBox="0 0 283.5 283.5" style="enable-background:new 0 0 283.5 283.5;" xml:space="preserve">
<style type="text/css">
	.st0{fill:#B59BC3;}
	.st1{fill:#702B85;}
</style>
<g>
	<path class="st0" d="M196.2,232.8c-19.2-24.7-38.4-49.5-57.5-74.2c-1.8-2.3-2.5-4.6-2.5-7.4c0.1-19.2,0-38.3,0-57.4
		c0-19.3-0.1-38.6,0.1-57.9c0-3.5-0.9-4.8-4.5-4.6c-4.3,0.4-8.5,0.4-12.7,0.9C93.8,35.8,71.4,46,52.8,63.5
		c-32.9,31-45.7,69.4-37.9,114c5,28.8,19.3,52.7,41.7,71.4c25.5,21.3,55,30.9,88.2,28.6c23.5-1.6,44.6-9.4,63.7-23.1
		c2.4-1.7,2.3-2.8,0.7-4.7C205,244.1,200.6,238.4,196.2,232.8z M186.5,251c-41.9,22-93.2,14.2-126.9-19.3
		c-18.6-18.6-29.1-40.8-31.8-67c-5.9-56.2,34.4-108,89.1-117.5c4-0.7,4.5,0.4,4.5,3.8c-0.1,17.1-0.1,34.2-0.1,51.3
		c0,16,0.5,32-0.2,48c-0.5,9.9,5.2,16.1,10.5,23c18.6,24.1,37.3,48.2,56.1,72.3C190,248.5,189.6,249.4,186.5,251z"/>
	<path class="st0" d="M232,65.9c-2.4-2.2-3.6-2.6-5.9,0.4c-7.5,9.6-15.4,18.9-23.1,28.3C188,113,173,131.5,157.8,149.9
		c-1.8,2.2-1.7,3.3,0,5.5c22,28.3,44,56.6,65.9,85c1.9,2.6,3.3,1.8,4.9,0.3c4-3.8,8.3-7.3,12-11.5c19.8-21.9,29.6-47.8,30-77.2
		C270,117.7,257.3,89,232,65.9z M230.4,218.9c-2.2,2.6-3.3,2.2-5.2-0.3c-16.3-21.3-32.8-42.4-49.4-63.6c-1.9-2.5-0.5-3.7,0.7-5.2
		c10.4-12.8,21-25.6,31.5-38.5c6.6-8.1,13.3-16,19.7-24.2c1.8-2.3,2.8-2.2,4.6-0.1c12.4,14.9,20.1,32,22.7,51.2
		c0.6,4.6,1.4,9,1,12.1C255.7,177.4,247.1,199.7,230.4,218.9z"/>
	<path class="st1" d="M226.6,30.1c-19.9-15.2-42.3-23.5-67.5-24.3c-3.1-0.1-3.6,1-3.6,3.8c0.1,36.7,0.1,73.4,0.1,111.6
		c2.3-2.8,3.8-4.5,5.3-6.3c21.8-26.7,43.7-53.4,65.6-80C227.6,33.4,229.4,32.2,226.6,30.1z"/>
</g>
</svg>
