<?xml version="1.0" encoding="utf-8"?>
<!-- Generator: Adobe Illustrator 22.1.0, SVG Export Plug-In . SVG Version: 6.00 Build 0)  -->
<svg version="1.1" id="Layer_1" xmlns="http://www.w3.org/2000/svg" xmlns:xlink="http://www.w3.org/1999/xlink" x="0px" y="0px"
	 viewBox="0 0 283.5 283.5" style="enable-background:new 0 0 283.5 283.5;" xml:space="preserve">
<style type="text/css">
	.st0{fill:#712D86;}
	.st1{fill:#712E86;}
	.st2{fill:#B9A0C6;}
	.st3{fill:#B69CC4;}
	.st4{fill:#B89FC5;}
	.st5{fill:#B69DC4;}
	.st6{fill:#B79DC4;}
	.st7{fill:#B79EC5;}
</style>
<g>
	<path class="st0" d="M165.8,30.7c9.5,0.2,19-0.2,28.5,0.7c18.5,1.7,33.8,17.1,34.1,35.6c0.6,38.3,0.2,76.7,0.2,115.3
		c-4.3-1.6-8.2-3.7-12.5-4.8c-2.8-0.7-1.7-3-1.7-4.8c-0.1-33.4,0-66.9,0-100.3c0-17.1-10.2-27.5-27.4-27.6c-5.4,0-10.8,0.1-16.2,0.1
		c-4.9,0-9.8,0-14.7,0c-14.2,0-28.4,0-42.4,0c-4.9,0-9.7,0-14.7,0C92,45,85,44.4,78,45.2C64.4,47.1,55.6,57,55.4,70.7
		c-0.2,11.7,0,23.5,0,35.2c0,43.3,0,86.6,0,129.9c0,18.6,10.1,28.7,28.8,28.7c34,0,67.8,0.3,101.8-0.2c9-0.1,17.9,2.3,26.9,0.4
		c1.9-0.4,3.8-1.7,5.9-0.8c0.4,1.9-1.1,2.6-2.1,3.5c-7.5,7.5-16.7,11.2-27.4,11.3c-36.3,0.1-72.6,0.1-108.9,0
		c-21.9,0-39.2-17.4-39.3-39.3c0-56.3,0-112.6,0-168.9c0-22.2,16.7-39.1,38.9-39.6c7.9-0.2,15.9-0.1,23.8-0.1
		c4.9,0.8,9.7,0.7,14.6,0c10.8,0.5,21.8,0.5,32.6,0C156.1,31.5,160.9,31.6,165.8,30.7z"/>
	<path class="st1" d="M168.4,220.4c0.1-20.4,16.7-36.8,36.9-36.7c20.2,0,36.8,16.7,37,36.9c0.2,20.3-16.7,37.2-37.1,37.2
		C184.7,257.7,168.3,241.1,168.4,220.4z M189.4,219.7c-2.9,0-4.7,1.2-5.7,3.3c-1.1,2.3-0.6,4.4,1,6.2c2.8,3,5.7,5.9,8.7,8.8
		c3.4,3.2,6.1,3.1,9.4-0.2c7.4-7.3,14.8-14.7,22.2-22.2c3.2-3.3,3.6-6.7,0.9-9c-3.3-2.9-6.4-1.7-9.1,1.1c-5,5-10.3,9.9-15,15.2
		c-2.7,2.9-4.7,3.7-7.3,0.1C193.1,221.3,191.4,219.7,189.4,219.7z"/>
	<path class="st2" d="M99,45.1c4.9,0,9.7,0,14.7,0c-0.1,2.6,0.1,5-0.2,7.6c-0.5,3.7,1.1,4.6,4.6,4.5c9-0.2,18.1-0.1,27.1-0.1
		c11.7,0,11.7,0,11-12c4.9,0,9.8,0,14.7,0c-0.1,7.2-0.3,14.6-0.1,21.8c0.1,3.1-0.7,4.5-4.2,4.5c-21-0.2-42.1-0.2-63.2,0
		c-3.5,0-4.2-1.3-4.1-4.5C99.2,59.6,99.1,52.3,99,45.1z"/>
	<path class="st3" d="M118.5,30.8c-4.9,0.8-9.7,0.8-14.6,0c0.1-2.9-0.1-5.7,0.3-8.6c1.1-9.4,6.9-15.7,17-16.8
		c9.4-1,18.9-1.2,28.4,0.2c10.5,1.5,16,8.3,16.1,18.9c0,2.1,0,4.1,0.1,6.2c-4.9,0.9-9.7,0.8-14.6,0c0.1-1.9,0.1-3.8,0.3-5.7
		c0.2-3.8-1.9-5.7-5.3-5.8c-7.4-0.2-14.8-0.2-22.3,0c-3.6,0.1-5.4,2.3-5.5,5.8C118.3,27,118.4,28.9,118.5,30.8z"/>
	<path class="st4" d="M151.3,117.8c-10.8,0-21.6-0.1-32.4,0.1c-3.4,0.1-4.8-0.7-4.7-4.4c0.1-9.8-0.1-9.8,9.6-9.8
		c19.8,0,39.7,0.1,59.5-0.1c4,0,5.6,0.7,5.4,5.1c-0.3,9.1-0.1,9.1-9.4,9.1C170,117.8,160.6,117.8,151.3,117.8z"/>
	<path class="st5" d="M151.4,160c-11,0-22.2-0.1-33.2,0.1c-2.9,0-3.8-0.9-3.8-3.7c-0.2-10.6-0.3-10.6,10.3-10.6
		c19.8,0,39.6,0.1,59.4-0.1c3.7,0,4.9,0.9,4.9,4.8c-0.2,9.6,0,9.6-9.4,9.6C170,160,160.7,160,151.4,160z"/>
	<path class="st6" d="M174.3,188.5c-3.6,4.4-6.7,8-8.7,12.3c-0.9,1.8-2.3,1.9-4,1.9c-14.6,0-29.2-0.1-43.8,0.1c-3.1,0-3.6-1.2-3.6-4
		c-0.2-10.3-0.3-10.3,10.1-10.3C140.7,188.5,157,188.5,174.3,188.5z"/>
	<path class="st7" d="M93.3,140.9c6.8,0,12.4,5.7,12.2,12.5c-0.1,6.3-6,12-12.4,12.1c-6.6,0.1-12-5.4-12-12.2
		C81.1,146.1,86.1,140.9,93.3,140.9z"/>
	<path class="st7" d="M93.2,122.7c-6.6,0.1-12-5.2-12.1-11.9c-0.1-6.9,5.3-12.7,12-12.7c6.4,0,12.2,5.7,12.4,12.1
		C105.6,116.7,99.8,122.6,93.2,122.7z"/>
	<path class="st5" d="M93,183.6c7.1,0,12,4.7,12.1,11.7c0.1,7.1-4.7,12.2-11.5,12.3c-7,0.1-12.4-5-12.4-12
		C81,188.6,86.1,183.6,93,183.6z"/>
</g>
</svg>
