<?xml version="1.0" encoding="utf-8"?>
<!-- Generator: Adobe Illustrator 22.1.0, SVG Export Plug-In . SVG Version: 6.00 Build 0)  -->
<svg version="1.1" id="Layer_1" xmlns="http://www.w3.org/2000/svg" xmlns:xlink="http://www.w3.org/1999/xlink" x="0px" y="0px"
	 viewBox="0 0 283.5 283.5" style="enable-background:new 0 0 283.5 283.5;" xml:space="preserve">
<style type="text/css">
	.st0{fill:#B69CC4;}
	.st1{fill:#702B85;}
</style>
<path class="st0" d="M157,158.6c-3.8,3.8-8.9,5.9-14.2,5.9s-10.4-2.1-14.2-5.9L34.6,64.7l-12.7,7.9l96.2,96.2
	c6.8,6.8,15.7,10.2,24.5,10.2c8.8,0,17.8-3.4,24.5-10.2l95.7-95.7l-10.8-9.7L157,158.6z"/>
<path class="st1" d="M216.6,246H66.8c-34.2,0-62.1-27.9-62.1-62.1v-77.6c0-34.2,27.9-62.1,62.1-62.1h149.8
	c34.2,0,62.1,27.9,62.1,62.1v77.6C278.7,218.2,250.9,246,216.6,246z M66.8,58.8c-26.2,0-47.6,21.4-47.6,47.6v77.6
	c0,26.2,21.4,47.6,47.6,47.6h149.8c26.2,0,47.6-21.4,47.6-47.6v-77.6c0-26.2-21.4-47.6-47.6-47.6L66.8,58.8L66.8,58.8z"/>
</svg>
