<?xml version="1.0" encoding="utf-8"?>
<!-- Generator: Adobe Illustrator 22.1.0, SVG Export Plug-In . SVG Version: 6.00 Build 0)  -->
<svg version="1.1" id="Layer_1" xmlns="http://www.w3.org/2000/svg" xmlns:xlink="http://www.w3.org/1999/xlink" x="0px" y="0px"
	 viewBox="0 0 283.5 283.5" style="enable-background:new 0 0 283.5 283.5;" xml:space="preserve">
<style type="text/css">
	.st0{fill:#B59BC3;}
	.st1{fill:#702B84;}
</style>
<g>
	<path class="st0" d="M33.9,269.8c-4,0-7.9-1.6-10.7-4.4l-1.5-1.5c-2.9-2.9-4.4-6.7-4.4-10.7c0-4,1.6-7.9,4.4-10.7l64.3-64.3
		c1.6-1.6,3.5-2.3,5.6-2.3c1.9,0,3.8,0.7,5.3,2.1l12.3,11.3c1.6,1.5,2.5,3.4,2.6,5.6c0,2.2-0.8,4.2-2.3,5.7l-64.8,64.8
		C41.8,268.2,38,269.8,33.9,269.8z"/>
	<path class="st1" d="M91.6,183.6l12.3,11.3l-64.8,64.8c-1.5,1.5-3.3,2.2-5.2,2.2c-1.9,0-3.7-0.7-5.2-2.2l-1.5-1.5
		c-2.9-2.9-2.9-7.5,0-10.3L91.6,183.6 M91.6,167.9c-4,0-8.1,1.6-11.1,4.6l-64.3,64.3c-8.9,8.9-8.9,23.6,0,32.6l1.5,1.5
		c4.3,4.3,10.1,6.8,16.3,6.8s12-2.4,16.3-6.8l64.8-64.8c3-3,4.7-7.2,4.6-11.5c-0.1-4.3-2-8.4-5.1-11.2l-12.3-11.3
		C99.1,169.3,95.3,167.9,91.6,167.9L91.6,167.9z"/>
</g>
<rect x="99.2" y="164.5" transform="matrix(0.7071 -0.7071 0.7071 0.7071 -87.1193 132.4962)" class="st1" width="34.3" height="13.9"/>
<path class="st1" d="M182.1,189c-50.6,0-91.7-41.2-91.7-91.7s41.2-91.7,91.7-91.7s91.7,41.2,91.7,91.7S232.7,189,182.1,189z
	 M182.1,17.3c-44.1,0-79.9,35.9-79.9,79.9s35.9,79.9,79.9,79.9s79.9-35.9,79.9-79.9S226.2,17.3,182.1,17.3z"/>
</svg>
