<?xml version="1.0" encoding="utf-8"?>
<!-- Generator: Adobe Illustrator 22.1.0, SVG Export Plug-In . SVG Version: 6.00 Build 0)  -->
<svg version="1.1" id="Layer_1" xmlns="http://www.w3.org/2000/svg" xmlns:xlink="http://www.w3.org/1999/xlink" x="0px" y="0px"
	 viewBox="0 0 204.2 268.2" style="enable-background:new 0 0 204.2 268.2;" xml:space="preserve">
<style type="text/css">
	.st0{fill:#743188;}
	.st1{fill:#732F87;}
	.st2{fill:#B79EC5;}
	.st3{fill:#B89FC6;}
	.st4{fill:#FCFBFC;}
</style>
<g>
	<path class="st0" d="M0,129.1c0-26.3,0-52.7,0-79c0-29,20.1-49.7,48.9-50c26-0.3,52,0,78-0.1c4,0,6.8,1.5,9.4,4.6
		c21.5,26,43.2,52,64.9,77.9c2,2.4,3,5,3,8.2c-0.1,40.3,0.1,80.6-0.1,121c-0.1,26-21.3,46.9-47.3,47c-21.7,0.1-43.3-0.1-65,0.1
		c-4,0-4.6-1.3-4.5-4.8c0.2-9.1,0-9.1,9.2-9.1c19.2,0,38.3,0,57.5,0c21.9-0.1,36.4-14.4,36.4-36.3c0-36,0-72,0.1-108
		c0-3.9-0.9-5.1-4.9-5c-8.1,0.1-16.3,0.7-24.4-0.8c-22-4-38.4-23.2-38.7-45.7c-0.1-10.2-0.2-20.3,0.1-30.5c0.1-3.6-1.2-4.4-4.6-4.4
		c-23,0.1-46,0.1-69,0.1c-20.3,0-35.1,14.3-35.1,34.8c-0.2,53.7-0.1,107.3,0,161c0,17.1,10.3,29.8,27,33.8c3.6,0.9,3.7,2.7,3.7,5.6
		c-0.1,10.3,0,10.3-10,7.3c-20.6-6-34.4-24.4-34.5-46.2C0,183.4,0,156.3,0,129.1z M137.3,27.8c-0.9,9.3-2.1,18.4-0.3,27.2
		c4,19.3,21.9,29.7,44.7,26C166.8,63.1,152.1,45.4,137.3,27.8z"/>
	<path class="st1" d="M51.6,268.2c0-11.5,0-21.8,0-32.1c0-6.2-3.1-10.6-8.8-12.8c-5.1-1.9-7.1-5.4-5.7-10.5c0.9-3.3,0.4-6-1.4-8.9
		c-2.9-4.6-2-8.6,2.3-11.7c2.8-2,4.2-4.4,4.7-7.8c0.7-5.3,3.9-7.9,9.3-7.5c3.4,0.3,6-0.7,8.6-3c3.8-3.4,7.9-3.4,11.6,0.1
		c2.7,2.6,5.5,3.7,9.4,3.5c4.7-0.3,7.8,2.6,8.2,7.5c0.3,3.6,1.7,6.1,4.7,8.3c3.8,2.9,4.6,7.1,2,11c-2.1,3.3-3.1,6.2-2,10.2
		c1.2,4.3-1.5,7.9-6,9.5c-5.9,2.1-8.1,5-8.1,11.4c-0.1,9,0,18,0,27c0,1.6,0.5,3.3-0.8,5.3c-3.7-2.6-7.4-5-10.9-7.7
		c-1.9-1.5-3.4-1.4-5.3,0.1C59.7,262.8,56,265.2,51.6,268.2z M83.8,204.2c0.2-10.1-7.7-18.4-17.7-18.5c-9.8-0.1-18.4,8.2-18.4,17.9
		c-0.1,9.7,7.9,18,17.6,18.2C75.3,222.1,83.6,214.2,83.8,204.2z"/>
	<path class="st2" d="M102.1,122.7c-21.1,0-42.3-0.1-63.4,0.1c-3.9,0-5.6-1-5-5c0.2-1.5,0.2-3,0-4.5c-0.3-3.5,1.2-4.6,4.6-4.6
		c42.4,0.1,84.9,0.1,127.3,0c3.8,0,4.8,1.4,4.8,5c0,9,0.1,9-8.9,9C141.8,122.7,122,122.7,102.1,122.7z"/>
	<path class="st3" d="M102.1,149.8c-21,0-42-0.1-63,0.1c-4,0-5.6-0.8-5.4-5.2c0.4-9.9-0.8-8.8,8.9-8.8c40.5,0,81,0,121.5,0
		c2.1,0,5.4-1.3,6,1.8c0.7,3.7,1.2,7.7-0.4,11.3c-0.7,1.6-3.1,0.8-4.7,0.8C144.1,149.8,123.1,149.8,102.1,149.8z"/>
	<path class="st2" d="M68,95.7c-9.8,0-19.6-0.2-29.4,0.1c-3.6,0.1-4.9-0.8-4.9-4.7c0.1-9.4-0.1-9.4,9.6-9.4c18,0,35.9,0.1,53.9-0.1
		c4,0,5.5,0.9,5.4,5.2c-0.3,8.9,0,8.9-9.1,8.9C85,95.7,76.5,95.7,68,95.7z"/>
	<path class="st3" d="M136.1,177.5c-10.2,0-20.3-0.1-30.5,0.1c-3.1,0-4.1-1-4-4c0.3-12.2-1.5-9.8,9.5-9.9c18-0.2,36,0.1,54-0.1
		c4,0,5.6,0.9,5.4,5.2c-0.4,9.9,0.8,8.8-8.9,8.8C153.1,177.5,144.6,177.5,136.1,177.5z"/>
	<path class="st2" d="M68.6,54.7c9.8,0,19.6,0.1,29.4-0.1c3,0,4.5,0.5,4.5,4c-0.3,11.8,0.9,9.8-9.7,9.9c-17.8,0.1-35.6-0.1-53.4,0.1
		c-4.3,0.1-5.9-1.1-5.7-5.6c0.4-10-1.1-8.3,8.5-8.4C51,54.6,59.8,54.7,68.6,54.7z"/>
	<path class="st4" d="M137.3,27.8c14.7,17.7,29.5,35.4,44.4,53.2c-22.8,3.7-40.7-6.8-44.7-26C135.2,46.1,136.4,37.1,137.3,27.8z"/>
	<path class="st4" d="M83.8,204.2c-0.2,10-8.5,17.9-18.5,17.6c-9.6-0.2-17.6-8.5-17.6-18.2c0.1-9.8,8.6-18.1,18.4-17.9
		C76,185.8,83.9,194.1,83.8,204.2z"/>
</g>
</svg>
