<?xml version="1.0" encoding="utf-8"?>
<!-- Generator: Adobe Illustrator 22.1.0, SVG Export Plug-In . SVG Version: 6.00 Build 0)  -->
<svg version="1.1" id="Layer_1" xmlns="http://www.w3.org/2000/svg" xmlns:xlink="http://www.w3.org/1999/xlink" x="0px" y="0px"
	 viewBox="0 0 283.5 283.5" style="enable-background:new 0 0 283.5 283.5;" xml:space="preserve">
<style type="text/css">
	.st0{fill:#aaa;}
	.st1{fill:#aaa;}
</style>
<title>dial</title>
<g>
	<path class="st0" d="M141.8,23.1c65.5,0,118.6,53.1,118.6,118.6c0,65.5-53.1,118.6-118.6,118.6c-65.5,0-118.6-53.1-118.6-118.6
		C23.2,76.2,76.2,23.1,141.8,23.1 M141.8,5.2c-36.5,0-70.8,14.2-96.6,40c-25.8,25.8-40,60.1-40,96.6c0,36.5,14.2,70.8,40,96.6
		c25.8,25.8,60.1,40,96.6,40s70.8-14.2,96.6-40c25.8-25.8,40-60.1,40-96.6s-14.2-70.8-40-96.6C212.5,19.4,178.2,5.2,141.8,5.2
		L141.8,5.2z"/>
</g>
<g>
	<path class="st1" d="M82.3,155.3c3.9-3.4,7.9-7,12.1-10.7c8.3,8.5,17.1,17.6,26.4,27.2c21.7-26.8,42.4-52.5,63.5-78.5
		c4.5,3.6,8.6,6.9,13.1,10.5C183,122,168.9,140,154.6,157.9c-8.3,10.4-16.7,20.6-25.1,30.8c-3.7,4.5-8.7,5.4-12.6,1.6
		c-11.4-10.9-22.5-22.1-33.7-33.2C82.9,156.8,82.8,156.2,82.3,155.3z"/>
</g>
</svg>
