<?xml version="1.0" encoding="utf-8"?>
<!-- Generator: Adobe Illustrator 22.1.0, SVG Export Plug-In . SVG Version: 6.00 Build 0)  -->
<svg version="1.1" id="Layer_1" xmlns="http://www.w3.org/2000/svg" xmlns:xlink="http://www.w3.org/1999/xlink" x="0px" y="0px"
	 viewBox="0 0 283.5 283.5" style="enable-background:new 0 0 283.5 283.5;" xml:space="preserve">
<style type="text/css">
	.st0{fill:#B59BC3;}
	.st1{fill:#702B84;}
	.st2{fill:#702B85;}
	.st3{fill:#E5DCEA;}
</style>
<g>
	<path class="st0" d="M84.2,175.4c-0.7,0-1.3,0-2.1,0c-0.1-3.5,2.6-5.3,4.5-7.5c5.1-6.1,5.2-11,0.1-17c-2.8-3.4-5.2-3.7-8.6-0.8
		c-3.9,3.3-6.8,7.6-10.1,11.6c-1.2,1.3-1.7,3.6-4.2,3.3c-3.3-3.9-7.9-5.3-12.4-6.6c-12.2-3.7-24.6-7.1-36.9-10.4
		c-2.6-0.7-3.8-2-4.4-4.3c-5.9-19.6-4.1-38.5,4-57c1.2-2.7,2.4-3,5.1-1.8c17.5,7.5,35.2,14.6,52.6,22.3c6.4,2.8,12.2,2.9,18.5,0.2
		c9.2-4,18.8-7.4,27.8-11.8c6.3-3.1,11.9-2.6,18-0.1c1.9,0.8,3.8,1.7,6,1.6c-0.1,1.8-1.6,2.6-2.8,3.8c-7.4,7.3-14.7,14.6-22.1,22.1
		c-3.9,4-3.2,6.5,2.1,8.2c6.3,2,11.9,1.5,17-3c3.5-3.2,7.5-3.9,12-2.9c14.5,3.2,29.1,6.2,43.6,9.3c8.7,1.9,13.6,8.6,19.1,14.5
		c3.2,3.5,5.3,8.1,9.7,10.5c-0.8,1-1,1.7-0.3,3c4.9,8.8,0.8,16.6-9.5,18c-1,0.1-1.9,0-3.3,0c2.4,5.1,2.4,9.7-1.9,13.1
		c-4.5,3.7-9.4,6.4-15,1.4c-3.4,12.1-12.5,16.3-20,9.5c-0.6-0.4-1.5-0.6-1.1-1.7c-0.6,0.4-0.2,1-0.3,1.4c-0.3,1.1,0.1,2.2-0.6,3.2
		c-1.7,4.8-5.6,7.2-10.1,8.5c-3.1,0.9-6.2,0.2-8.2-2.5c-1.5-2-3.8-2.9-5.8-4c-0.6-1-0.1-1.9,0.4-2.7c3.4-4.9,1.9-9.3-1.2-13.7
		c-3.1-4.3-6.4-4.6-10.4-1.1c-1.4,1.3-2.6,2.9-3.9,4.3c-1.1,1.3-2,3-4.2,2.5c-0.7,0-1.3,0-1.9,0.1c-0.1-3.9,3.2-5.7,5.1-8.2
		c5.1-6.6,5.2-11.2-0.2-17.5c-2.8-3.3-4.8-3.5-8.2-0.7c-4,3.5-7.1,7.8-10.5,11.8c-1.5,1.9-2.6,4.4-5.5,5c0-1.3-0.7-1.9-2-2
		c-0.7-1.9,1-2.9,1.8-4.1c3.2-4.2,6.8-8.1,9.8-12.5c3.2-4.7-0.2-14.5-5.6-16.3c-2.5-0.8-4.2,0.7-6,2.2c-5.2,4.6-9,10.5-13.4,15.7
		C87.6,173.5,86.8,175.6,84.2,175.4z"/>
	<path class="st1" d="M220.8,159c-1.8,0.5-3.1,0.5-4.3-1.5c-1.6-2.7-3.9-5-5.9-7.6c-6.5-8.5-14.1-14.7-25.4-16.3
		c-12.8-1.8-25.3-5.2-38-8c-3.8-0.8-6.8,0.1-9.7,2.6c-6.5,5.7-14.5,6.3-21.8,2.1c-3.1-1.7-3.8-4.2-1.4-6.6
		c9.2-9.2,17.6-19,27.7-27.2c5.4-2.1,10.6-1.7,15.9,0.5c10.1,4.1,20.2,8.1,30.3,12.2c4.2,1.7,7.8,0,11.5-1.7
		c22.8-11.4,45.7-22.6,68.4-34.2c3.8-1.9,4.9-1.3,6.1,2.6c5.6,19.6,5.5,38.9-2.2,58c-1.2,2.9-3,4.6-5.9,5.9
		C250.8,146,235.8,152.5,220.8,159z"/>
	<path class="st2" d="M84.2,175.4c4.5-3.9,7.5-9.1,11.4-13.5c1.1-1.2,1.9-2.6,3.1-3.7c2.9-2.8,5.6-7.7,10.1-5.4
		c4.7,2.4,7.6,7.1,8.2,12.8c0.2,2-0.4,3.7-1.7,5.3c-4.3,5.3-8.6,10.7-12.8,16c-2.5,3.1-5,6.3-7.6,9.2c-4.1,4.6-10.1,5.1-14.6,1.5
		c-4.4-3.6-5-9.7-1.5-14.6C80.3,180.5,82.9,178.4,84.2,175.4z"/>
	<path class="st2" d="M104.3,188.9c4.8-5.5,8.8-11.8,14.1-16.8c5-4.8,7.9-4.5,12,1c4.9,6.7,4.7,11.1-0.6,17.6
		c-2.1,2.6-4.1,5.2-6.3,7.8c-2.8,3.5-5.6,7-8.5,10.4c-4.1,4.8-10.4,5.3-14.9,1.4c-4.3-3.7-4.8-9.7-1.2-14.6
		C100.6,193.4,102.5,191.2,104.3,188.9z"/>
	<path class="st2" d="M63.7,164.7c4.2-5,8.2-10.3,12.7-15c4.6-4.8,7.9-4.2,11.8,1.1c5.4,7.5,5.3,10.9-0.7,17.8
		c-1.8,2.2-3.6,4.5-5.4,6.7c-1.3,1.6-2.6,3.3-4,4.7c-4.1,4.5-10.1,5-14.5,1.4c-4.3-3.6-5-9.5-1.5-14.5
		C62.5,166.2,63.1,165.4,63.7,164.7z"/>
	<path class="st2" d="M125.5,198.5c3.3-1.9,4.6-5.6,7.4-8c4.7-4,8.3-3.8,11.8,1.3c4.9,6.9,4.9,9.8,0,17.2c-1.6,1.9-3.3,3.9-5,5.8
		c-4.1,4.8-10.2,5.7-14.9,2.1c-4.7-3.7-5.3-9.7-1.5-14.9C124,200.9,125.3,200,125.5,198.5z"/>
	<path class="st3" d="M168.8,207.1c0-0.9-0.1-1.8,0-2.7c0.1-0.8-0.7-1.9,0.7-2c0.4,0,0.9,1.2,1.3,1.7
		C170.1,205.1,169.4,206.2,168.8,207.1z"/>
</g>
</svg>
