<?xml version="1.0" encoding="utf-8"?>
<!-- Generator: Adobe Illustrator 22.0.1, SVG Export Plug-In . SVG Version: 6.00 Build 0)  -->
<svg version="1.1" id="Layer_1" xmlns="http://www.w3.org/2000/svg" xmlns:xlink="http://www.w3.org/1999/xlink" x="0px" y="0px"
	 viewBox="0 0 566.9 566.9" style="enable-background:new 0 0 566.9 566.9;" xml:space="preserve">
<style type="text/css">
	.st0{fill:#064A94;}
	.st1{fill:#FFFFFF;}
</style>
<circle class="st0" cx="283.2" cy="283.2" r="283.2"/>
<path id="Twitter_10_" class="st1" d="M445.2,191.9c-11.9,5.3-24.7,8.9-38.2,10.5c13.7-8.2,24.3-21.3,29.2-36.8
	c-12.8,7.6-27.1,13.1-42.2,16.1c-12.1-12.9-29.4-21-48.5-21c-36.7,0-66.5,29.8-66.5,66.5c0,5.2,0.6,10.3,1.7,15.1
	c-55.2-2.8-104.2-29.2-137-69.4c-5.7,9.8-9,21.2-9,33.4c0,23.1,11.7,43.4,29.6,55.3c-10.9-0.3-21.1-3.3-30.1-8.3c0,0.3,0,0.6,0,0.8
	c0,32.2,22.9,59.1,53.3,65.2c-5.6,1.5-11.5,2.3-17.5,2.3c-4.3,0-8.4-0.4-12.5-1.2c8.5,26.4,33,45.6,62.1,46.2
	c-22.7,17.8-51.4,28.4-82.5,28.4c-5.4,0-10.7-0.3-15.9-0.9C150.7,413,185.6,424,223.1,424c122.2,0,189.1-101.3,189.1-189.1
	c0-2.9-0.1-5.7-0.2-8.6C425,216.9,436.3,205.2,445.2,191.9z"/>
</svg>
