<svg id="svg" version="1.1" xmlns="http://www.w3.org/2000/svg" xmlns:xlink="http://www.w3.org/1999/xlink" width="400" height="133" viewBox="0, 0, 400,133"><g id="svgg"><path id="path0" d="M44.167 30.219 C 44.167 30.248,44.410 30.491,44.708 30.760 L 45.250 31.250 44.760 30.708 C 44.304 30.203,44.167 30.090,44.167 30.219 M10.250 31.000 C 10.193 31.092,9.783 31.167,9.337 31.167 C 8.892 31.167,8.503 31.241,8.472 31.332 C 8.442 31.423,8.216 31.514,7.970 31.534 C 7.725 31.554,7.561 31.630,7.605 31.702 C 7.650 31.774,7.494 31.833,7.260 31.833 C 7.025 31.833,6.833 31.908,6.833 32.000 C 6.833 32.092,6.726 32.167,6.595 32.167 C 6.265 32.167,3.500 34.906,3.500 35.233 C 3.500 35.380,3.425 35.500,3.333 35.500 C 3.242 35.500,3.167 35.650,3.167 35.833 C 3.167 36.017,3.092 36.167,3.000 36.167 C 2.908 36.167,2.833 36.312,2.833 36.490 C 2.833 36.668,2.758 36.860,2.667 36.917 C 2.575 36.973,2.500 37.320,2.500 37.686 C 2.500 38.075,2.432 38.311,2.338 38.253 C 2.235 38.189,2.174 41.741,2.169 48.160 C 2.164 54.821,2.218 58.167,2.331 58.167 C 2.424 58.167,2.500 58.467,2.500 58.833 C 2.500 59.200,2.575 59.500,2.667 59.500 C 2.758 59.500,2.833 59.605,2.833 59.734 C 2.833 60.097,3.533 61.362,4.041 61.917 C 4.293 62.192,4.499 62.476,4.499 62.549 C 4.500 62.705,5.271 63.500,5.421 63.500 C 5.477 63.500,5.850 63.725,6.250 64.000 C 6.650 64.275,7.094 64.500,7.238 64.500 C 7.382 64.500,7.500 64.575,7.500 64.667 C 7.500 64.758,7.650 64.833,7.833 64.833 C 8.017 64.833,8.167 64.908,8.167 65.000 C 8.167 65.092,8.500 65.167,8.907 65.167 C 9.314 65.167,9.693 65.242,9.750 65.333 C 9.817 65.441,13.221 65.500,19.417 65.500 C 25.613 65.500,29.017 65.441,29.083 65.333 C 29.140 65.242,29.482 65.167,29.843 65.167 C 30.204 65.167,30.500 65.092,30.500 65.000 C 30.500 64.908,30.648 64.833,30.828 64.833 C 31.187 64.833,32.232 64.292,32.617 63.906 C 32.751 63.773,32.941 63.713,33.039 63.774 C 33.145 63.840,33.170 63.806,33.099 63.692 C 33.034 63.587,33.063 63.500,33.164 63.500 C 33.430 63.500,35.167 61.681,35.167 61.402 C 35.167 61.273,35.242 61.167,35.333 61.167 C 35.425 61.167,35.500 61.017,35.500 60.833 C 35.500 60.650,35.575 60.500,35.667 60.500 C 35.758 60.500,35.833 60.354,35.833 60.177 C 35.833 59.999,35.908 59.807,36.000 59.750 C 36.092 59.693,36.167 59.464,36.167 59.240 C 36.167 59.016,36.242 58.833,36.333 58.833 C 36.443 58.833,36.500 55.167,36.500 48.167 C 36.500 41.167,36.443 37.500,36.333 37.500 C 36.242 37.500,36.167 37.275,36.167 37.000 C 36.167 36.725,36.110 36.499,36.042 36.499 C 35.892 36.497,35.500 35.690,35.500 35.383 C 35.500 35.264,35.438 35.167,35.361 35.167 C 35.285 35.167,35.117 34.964,34.986 34.716 C 34.673 34.119,33.026 32.500,32.732 32.500 C 32.604 32.500,32.499 32.444,32.499 32.375 C 32.497 32.225,31.690 31.833,31.383 31.833 C 31.264 31.833,31.167 31.758,31.167 31.667 C 31.167 31.575,31.021 31.500,30.843 31.500 C 30.665 31.500,30.473 31.425,30.417 31.333 C 30.360 31.242,29.906 31.167,29.407 31.167 C 28.908 31.167,28.500 31.092,28.500 31.000 C 28.500 30.891,25.364 30.833,19.427 30.833 C 13.557 30.833,10.317 30.892,10.250 31.000 M339.500 50.380 C 339.362 50.492,339.140 50.733,339.006 50.917 C 338.872 51.100,339.004 51.030,339.298 50.760 C 339.778 50.322,339.917 50.156,339.792 50.172 C 339.769 50.175,339.637 50.269,339.500 50.380 M86.571 55.630 C 86.840 55.923,87.092 56.130,87.133 56.090 C 87.213 56.009,86.939 55.722,86.416 55.340 C 86.233 55.206,86.303 55.336,86.571 55.630 M226.500 56.219 C 226.500 56.248,226.744 56.491,227.042 56.760 L 227.583 57.250 227.094 56.708 C 226.638 56.203,226.500 56.090,226.500 56.219 M11.906 79.708 L 11.417 80.250 11.958 79.760 C 12.256 79.491,12.500 79.248,12.500 79.219 C 12.500 79.090,12.362 79.203,11.906 79.708 " stroke="none" fill="#64247b" fill-rule="evenodd"></path><path id="path1" d="M86.167 21.667 C 86.167 21.758,86.021 21.833,85.843 21.833 C 85.665 21.833,85.473 21.908,85.417 22.000 C 85.360 22.092,85.177 22.167,85.010 22.167 C 84.679 22.167,83.710 23.287,83.352 24.083 C 83.229 24.358,83.062 24.714,82.981 24.873 C 82.771 25.284,82.790 35.287,83.000 35.417 C 83.092 35.473,83.167 35.687,83.167 35.891 C 83.167 36.095,83.389 36.522,83.660 36.840 C 83.931 37.157,84.156 37.510,84.160 37.625 C 84.164 37.740,84.317 37.833,84.500 37.833 C 84.683 37.833,84.833 37.908,84.833 38.000 C 84.833 38.092,84.927 38.168,85.042 38.170 C 85.156 38.172,85.438 38.321,85.667 38.500 C 86.140 38.870,97.167 39.030,97.167 38.667 C 97.167 38.575,97.375 38.500,97.630 38.500 C 97.902 38.500,98.192 38.362,98.333 38.167 C 98.465 37.983,98.694 37.833,98.842 37.833 C 98.990 37.833,99.217 37.627,99.347 37.375 C 99.477 37.123,99.715 36.771,99.875 36.594 C 100.040 36.410,100.167 36.007,100.167 35.663 C 100.167 35.329,100.214 35.009,100.271 34.951 C 100.403 34.819,100.398 25.675,100.265 25.543 C 100.211 25.489,100.165 25.213,100.163 24.931 C 100.161 24.648,100.013 24.229,99.833 24.000 C 99.654 23.771,99.506 23.525,99.504 23.453 C 99.497 23.212,98.347 22.167,98.089 22.167 C 97.948 22.167,97.833 22.092,97.833 22.000 C 97.833 21.908,97.683 21.833,97.500 21.833 C 97.317 21.833,97.167 21.758,97.167 21.667 C 97.167 21.559,95.222 21.500,91.667 21.500 C 88.111 21.500,86.167 21.559,86.167 21.667 M39.250 105.667 C 39.193 105.758,38.926 105.833,38.657 105.833 C 38.387 105.833,38.167 105.900,38.167 105.981 C 38.167 106.062,38.035 106.169,37.875 106.220 C 36.745 106.579,34.833 108.482,34.833 109.248 C 34.833 109.386,34.758 109.500,34.667 109.500 C 34.575 109.500,34.500 109.646,34.500 109.823 C 34.500 110.001,34.425 110.193,34.333 110.250 C 34.226 110.316,34.167 113.113,34.167 118.093 C 34.167 123.142,34.225 125.833,34.333 125.833 C 34.425 125.833,34.500 126.016,34.500 126.240 C 34.500 126.464,34.575 126.693,34.667 126.750 C 34.758 126.807,34.833 126.999,34.833 127.177 C 34.833 127.354,34.908 127.500,35.000 127.500 C 35.092 127.500,35.167 127.603,35.167 127.730 C 35.167 128.101,36.444 129.310,37.167 129.623 C 37.534 129.782,37.833 129.969,37.833 130.039 C 37.833 130.109,37.983 130.167,38.167 130.167 C 38.350 130.167,38.500 130.242,38.500 130.333 C 38.500 130.425,38.796 130.500,39.157 130.500 C 39.518 130.500,39.861 130.576,39.919 130.670 C 40.050 130.882,53.452 130.886,53.530 130.675 C 53.559 130.595,53.883 130.507,54.250 130.480 C 55.429 130.393,58.167 128.515,58.167 127.794 C 58.167 127.716,58.317 127.492,58.500 127.295 C 58.683 127.098,58.833 126.764,58.833 126.552 C 58.833 126.340,58.908 126.167,59.000 126.167 C 59.109 126.167,59.167 123.389,59.167 118.167 C 59.167 112.944,59.109 110.167,59.000 110.167 C 58.908 110.167,58.833 109.942,58.833 109.667 C 58.833 109.392,58.758 109.167,58.667 109.167 C 58.575 109.167,58.500 109.017,58.500 108.833 C 58.500 108.650,58.426 108.500,58.336 108.500 C 58.245 108.500,57.973 108.200,57.730 107.833 C 57.488 107.467,57.203 107.167,57.098 107.167 C 56.993 107.167,56.799 107.017,56.667 106.833 C 56.535 106.650,56.332 106.500,56.217 106.500 C 56.102 106.500,55.762 106.350,55.462 106.167 C 55.162 105.984,54.715 105.834,54.468 105.834 C 54.221 105.834,53.973 105.758,53.917 105.667 C 53.851 105.560,51.224 105.500,46.583 105.500 C 41.943 105.500,39.316 105.560,39.250 105.667 " stroke="none" fill="#bc2c7c" fill-rule="evenodd"></path><path id="path2" d="M100.405 30.167 C 100.405 32.229,100.429 33.073,100.458 32.042 C 100.487 31.010,100.487 29.323,100.458 28.292 C 100.429 27.260,100.405 28.104,100.405 30.167 M14.250 78.333 C 14.193 78.425,14.001 78.500,13.823 78.500 C 13.646 78.500,13.500 78.575,13.500 78.667 C 13.500 78.758,13.388 78.833,13.250 78.833 C 12.909 78.833,11.285 80.467,11.014 81.083 C 10.893 81.358,10.728 81.714,10.647 81.873 C 10.455 82.251,10.455 95.083,10.647 95.461 C 10.728 95.620,10.897 95.972,11.022 96.243 C 11.321 96.890,12.783 98.356,13.417 98.644 C 13.692 98.770,14.047 98.938,14.206 99.019 C 14.618 99.229,27.620 99.211,27.750 99.000 C 27.807 98.908,27.999 98.833,28.177 98.833 C 28.354 98.833,28.500 98.758,28.500 98.667 C 28.500 98.575,28.616 98.500,28.758 98.500 C 29.300 98.500,31.167 96.324,31.167 95.692 C 31.167 95.506,31.242 95.307,31.333 95.250 C 31.562 95.109,31.562 82.224,31.333 82.083 C 31.242 82.027,31.167 81.828,31.167 81.641 C 31.167 80.975,29.558 79.141,28.577 78.689 C 28.306 78.564,27.953 78.395,27.794 78.314 C 27.382 78.104,14.380 78.123,14.250 78.333 " stroke="none" fill="#9c2484" fill-rule="evenodd"></path><path id="path3" d="M42.268 10.264 C 42.088 10.732,42.152 24.833,42.333 24.833 C 42.442 24.833,42.500 22.250,42.500 17.417 C 42.500 13.337,42.471 10.000,42.434 10.000 C 42.398 10.000,42.323 10.119,42.268 10.264 M70.573 30.708 L 70.083 31.250 70.625 30.760 C 70.923 30.491,71.167 30.248,71.167 30.219 C 71.167 30.090,71.029 30.203,70.573 30.708 M272.417 34.667 C 272.360 34.758,272.131 34.833,271.907 34.833 C 271.683 34.833,271.500 34.908,271.500 35.000 C 271.500 35.092,271.402 35.167,271.283 35.167 C 271.036 35.167,269.835 36.218,269.830 36.439 C 269.828 36.518,269.679 36.771,269.500 37.000 C 269.321 37.229,269.172 37.618,269.170 37.865 C 269.168 38.112,269.092 38.360,269.000 38.417 C 268.908 38.473,268.833 38.886,268.833 39.333 C 268.833 39.781,268.908 40.193,269.000 40.250 C 269.092 40.307,269.167 40.611,269.167 40.927 C 269.167 41.242,269.242 41.500,269.333 41.500 C 269.425 41.500,269.500 41.601,269.500 41.723 C 269.500 42.450,271.889 44.167,272.899 44.167 C 273.193 44.167,273.525 44.259,273.637 44.371 C 273.799 44.532,273.911 44.532,274.169 44.371 C 274.348 44.259,274.752 44.167,275.065 44.167 C 276.342 44.167,278.500 42.440,278.500 41.419 C 278.500 41.280,278.575 41.167,278.667 41.167 C 278.768 41.167,278.833 40.444,278.833 39.333 C 278.833 38.222,278.768 37.500,278.667 37.500 C 278.575 37.500,278.500 37.350,278.500 37.167 C 278.500 36.983,278.425 36.833,278.333 36.833 C 278.242 36.833,278.167 36.728,278.167 36.600 C 278.167 36.297,277.036 35.167,276.733 35.167 C 276.605 35.167,276.500 35.092,276.500 35.000 C 276.500 34.908,276.354 34.833,276.177 34.833 C 275.999 34.833,275.807 34.758,275.750 34.667 C 275.693 34.575,274.946 34.500,274.083 34.500 C 273.221 34.500,272.473 34.575,272.417 34.667 M66.917 49.333 C 66.860 49.425,66.410 49.500,65.917 49.500 C 65.423 49.500,64.973 49.575,64.917 49.667 C 64.860 49.758,64.518 49.833,64.157 49.833 C 63.796 49.833,63.500 49.908,63.500 50.000 C 63.500 50.092,63.275 50.167,63.000 50.167 C 62.725 50.167,62.500 50.242,62.500 50.333 C 62.500 50.425,62.275 50.500,62.000 50.500 C 61.725 50.500,61.500 50.575,61.500 50.667 C 61.500 50.758,61.317 50.833,61.093 50.833 C 60.869 50.833,60.640 50.908,60.583 51.000 C 60.527 51.092,60.335 51.167,60.157 51.167 C 59.979 51.167,59.833 51.242,59.833 51.333 C 59.833 51.425,59.683 51.500,59.500 51.500 C 59.317 51.500,59.167 51.557,59.167 51.627 C 59.167 51.697,58.885 51.883,58.542 52.039 C 57.743 52.402,57.020 52.838,56.601 53.208 C 56.419 53.369,56.200 53.500,56.113 53.500 C 56.027 53.500,55.834 53.635,55.686 53.800 C 55.538 53.964,55.154 54.280,54.833 54.502 C 54.172 54.958,51.500 57.654,51.500 57.865 C 51.500 57.941,51.275 58.238,51.000 58.526 C 50.725 58.814,50.500 59.151,50.500 59.275 C 50.500 59.399,50.438 59.500,50.361 59.500 C 50.285 59.500,50.117 59.706,49.987 59.958 C 49.857 60.210,49.713 60.454,49.667 60.500 C 49.545 60.621,49.157 61.318,48.783 62.083 C 48.605 62.450,48.393 62.880,48.312 63.039 C 48.232 63.199,48.167 63.442,48.167 63.581 C 48.167 63.720,48.092 63.833,48.000 63.833 C 47.908 63.833,47.833 64.016,47.833 64.240 C 47.833 64.464,47.758 64.693,47.667 64.750 C 47.575 64.807,47.500 65.032,47.500 65.250 C 47.500 65.468,47.425 65.693,47.333 65.750 C 47.242 65.807,47.167 66.069,47.167 66.333 C 47.167 66.598,47.092 66.860,47.000 66.917 C 46.908 66.973,46.833 67.348,46.833 67.750 C 46.833 68.152,46.758 68.527,46.667 68.583 C 46.575 68.640,46.500 69.315,46.500 70.083 C 46.500 70.852,46.425 71.527,46.333 71.583 C 46.242 71.640,46.167 72.202,46.167 72.833 C 46.167 73.464,46.242 74.027,46.333 74.083 C 46.425 74.140,46.500 74.815,46.500 75.583 C 46.500 76.352,46.575 77.027,46.667 77.083 C 46.758 77.140,46.833 77.515,46.833 77.917 C 46.833 78.318,46.908 78.693,47.000 78.750 C 47.092 78.807,47.167 79.069,47.167 79.333 C 47.167 79.598,47.242 79.860,47.333 79.917 C 47.425 79.973,47.500 80.198,47.500 80.417 C 47.500 80.635,47.575 80.860,47.667 80.917 C 47.758 80.973,47.833 81.203,47.833 81.427 C 47.833 81.650,47.908 81.833,48.000 81.833 C 48.092 81.833,48.167 81.947,48.167 82.086 C 48.167 82.224,48.232 82.468,48.312 82.627 C 48.393 82.786,48.629 83.254,48.837 83.667 C 49.046 84.079,49.299 84.585,49.400 84.790 C 49.501 84.996,49.640 85.165,49.708 85.165 C 49.777 85.166,49.833 85.317,49.833 85.500 C 49.833 85.683,49.896 85.833,49.972 85.833 C 50.048 85.833,50.216 86.040,50.346 86.292 C 50.475 86.544,50.698 86.862,50.840 87.000 C 50.983 87.138,51.282 87.513,51.505 87.833 C 52.000 88.546,54.256 90.800,55.119 91.445 C 55.466 91.705,55.895 92.048,56.073 92.208 C 56.251 92.369,56.460 92.500,56.538 92.500 C 56.617 92.500,56.842 92.650,57.038 92.833 C 57.235 93.017,57.495 93.167,57.615 93.167 C 57.735 93.167,57.833 93.242,57.833 93.333 C 57.833 93.425,57.983 93.500,58.167 93.500 C 58.350 93.500,58.500 93.575,58.500 93.667 C 58.500 93.758,58.650 93.833,58.833 93.833 C 59.017 93.833,59.167 93.890,59.168 93.958 C 59.170 94.108,59.977 94.500,60.283 94.500 C 60.402 94.500,60.500 94.575,60.500 94.667 C 60.500 94.758,60.646 94.833,60.823 94.833 C 61.001 94.833,61.193 94.908,61.250 95.000 C 61.307 95.092,61.536 95.167,61.760 95.167 C 61.984 95.167,62.167 95.242,62.167 95.333 C 62.167 95.425,62.387 95.500,62.657 95.500 C 62.926 95.500,63.193 95.575,63.250 95.667 C 63.307 95.758,63.607 95.833,63.917 95.833 C 64.227 95.833,64.527 95.908,64.583 96.000 C 64.640 96.092,65.015 96.167,65.417 96.167 C 65.818 96.167,66.193 96.242,66.250 96.333 C 66.314 96.436,67.780 96.500,70.093 96.500 C 72.476 96.500,73.833 96.439,73.833 96.333 C 73.833 96.242,74.204 96.167,74.657 96.167 C 75.110 96.167,75.527 96.092,75.583 96.000 C 75.640 95.908,75.944 95.833,76.260 95.833 C 76.575 95.833,76.833 95.758,76.833 95.667 C 76.833 95.575,77.054 95.500,77.323 95.500 C 77.593 95.500,77.860 95.425,77.917 95.333 C 77.973 95.242,78.203 95.167,78.427 95.167 C 78.650 95.167,78.833 95.092,78.833 95.000 C 78.833 94.908,78.979 94.833,79.157 94.833 C 79.335 94.833,79.527 94.758,79.583 94.667 C 79.640 94.575,79.869 94.500,80.093 94.500 C 80.317 94.500,80.500 94.425,80.500 94.333 C 80.500 94.242,80.650 94.167,80.833 94.167 C 81.017 94.167,81.167 94.100,81.167 94.019 C 81.167 93.938,81.298 93.831,81.458 93.780 C 81.837 93.660,82.647 93.162,83.066 92.792 C 83.248 92.631,83.495 92.500,83.615 92.500 C 83.735 92.500,83.833 92.441,83.833 92.369 C 83.833 92.297,84.061 92.104,84.339 91.940 C 85.069 91.509,87.500 89.061,87.500 88.757 C 87.500 88.616,87.575 88.500,87.667 88.500 C 87.758 88.500,87.833 88.236,87.833 87.914 C 87.833 87.592,87.926 87.180,88.040 86.998 C 88.205 86.734,88.205 86.599,88.040 86.336 C 87.926 86.154,87.833 85.815,87.833 85.584 C 87.833 85.122,86.856 83.508,86.573 83.503 C 86.476 83.501,86.235 83.350,86.038 83.167 C 85.842 82.983,85.490 82.833,85.257 82.833 C 85.024 82.833,84.833 82.758,84.833 82.667 C 84.833 82.575,84.425 82.500,83.927 82.500 C 83.428 82.500,82.973 82.575,82.917 82.667 C 82.860 82.758,82.643 82.833,82.433 82.833 C 82.210 82.833,81.716 83.152,81.235 83.606 C 80.785 84.032,80.156 84.575,79.837 84.815 C 79.518 85.054,79.038 85.456,78.771 85.708 C 78.503 85.960,78.183 86.167,78.059 86.167 C 77.935 86.167,77.833 86.242,77.833 86.333 C 77.833 86.425,77.683 86.500,77.500 86.500 C 77.317 86.500,77.167 86.575,77.167 86.667 C 77.167 86.758,77.017 86.833,76.833 86.833 C 76.650 86.833,76.500 86.908,76.500 87.000 C 76.500 87.092,76.354 87.167,76.177 87.167 C 75.999 87.167,75.807 87.242,75.750 87.333 C 75.693 87.425,75.431 87.500,75.167 87.500 C 74.902 87.500,74.640 87.575,74.583 87.667 C 74.527 87.758,74.185 87.833,73.823 87.833 C 73.462 87.833,73.167 87.908,73.167 88.000 C 73.167 88.105,72.114 88.167,70.343 88.167 C 68.641 88.167,67.479 88.100,67.417 88.000 C 67.360 87.908,67.023 87.833,66.667 87.833 C 66.311 87.833,65.973 87.758,65.917 87.667 C 65.860 87.575,65.593 87.500,65.323 87.500 C 65.054 87.500,64.833 87.425,64.833 87.333 C 64.833 87.242,64.720 87.167,64.581 87.167 C 64.312 87.167,64.048 87.054,63.250 86.598 C 62.975 86.441,62.619 86.271,62.458 86.220 C 62.298 86.169,62.167 86.062,62.167 85.981 C 62.167 85.900,62.053 85.833,61.915 85.833 C 61.777 85.833,61.428 85.608,61.140 85.333 C 60.853 85.058,60.548 84.833,60.464 84.833 C 60.264 84.833,57.833 82.347,57.833 82.143 C 57.833 82.057,57.695 81.838,57.526 81.656 C 57.151 81.254,56.167 79.374,56.167 79.060 C 56.167 78.935,56.092 78.833,56.000 78.833 C 55.908 78.833,55.833 78.688,55.833 78.510 C 55.833 78.332,55.758 78.140,55.667 78.083 C 55.575 78.027,55.500 77.764,55.500 77.500 C 55.500 77.236,55.425 76.973,55.333 76.917 C 55.242 76.860,55.167 76.668,55.167 76.490 C 55.167 76.172,55.459 76.167,73.000 76.167 C 84.778 76.167,90.833 76.110,90.833 76.000 C 90.833 75.908,90.949 75.833,91.091 75.833 C 91.700 75.833,93.500 73.595,93.500 72.838 C 93.500 72.663,93.575 72.473,93.667 72.417 C 93.758 72.360,93.833 71.835,93.833 71.250 C 93.833 70.665,93.758 70.140,93.667 70.083 C 93.575 70.027,93.500 69.464,93.500 68.833 C 93.500 68.202,93.425 67.640,93.333 67.583 C 93.242 67.527,93.167 67.185,93.167 66.823 C 93.167 66.462,93.092 66.167,93.000 66.167 C 92.908 66.167,92.833 65.946,92.833 65.677 C 92.833 65.407,92.758 65.140,92.667 65.083 C 92.575 65.027,92.500 64.834,92.500 64.655 C 92.500 64.340,92.440 64.178,92.026 63.377 C 91.920 63.172,91.833 62.891,91.833 62.752 C 91.833 62.614,91.758 62.500,91.667 62.500 C 91.575 62.500,91.500 62.350,91.500 62.167 C 91.500 61.983,91.425 61.833,91.333 61.833 C 91.242 61.833,91.167 61.683,91.167 61.500 C 91.167 61.317,91.092 61.167,91.000 61.167 C 90.908 61.167,90.833 61.068,90.833 60.948 C 90.833 60.828,90.702 60.584,90.542 60.406 C 90.381 60.229,90.144 59.877,90.014 59.625 C 89.883 59.373,89.715 59.167,89.639 59.167 C 89.562 59.167,89.500 59.066,89.500 58.943 C 89.500 58.820,89.181 58.379,88.792 57.963 C 88.402 57.547,87.857 56.954,87.581 56.645 C 86.936 55.924,84.711 53.938,84.450 53.849 C 84.340 53.812,84.129 53.643,83.980 53.474 C 83.832 53.305,83.623 53.167,83.515 53.167 C 83.407 53.167,83.158 53.017,82.962 52.833 C 82.765 52.650,82.505 52.500,82.385 52.500 C 82.265 52.500,82.167 52.425,82.167 52.333 C 82.167 52.242,82.017 52.167,81.833 52.167 C 81.650 52.167,81.500 52.092,81.500 52.000 C 81.500 51.908,81.350 51.833,81.167 51.833 C 80.983 51.833,80.833 51.758,80.833 51.667 C 80.833 51.575,80.683 51.500,80.500 51.500 C 80.317 51.500,80.167 51.425,80.167 51.333 C 80.167 51.242,80.017 51.167,79.833 51.167 C 79.650 51.167,79.500 51.092,79.500 51.000 C 79.500 50.908,79.349 50.833,79.164 50.833 C 78.980 50.833,78.680 50.758,78.498 50.667 C 78.316 50.575,78.018 50.425,77.836 50.333 C 77.654 50.242,77.279 50.167,77.002 50.167 C 76.726 50.167,76.500 50.092,76.500 50.000 C 76.500 49.908,76.200 49.833,75.833 49.833 C 75.467 49.833,75.167 49.758,75.167 49.667 C 75.167 49.574,74.722 49.500,74.167 49.500 C 73.611 49.500,73.167 49.426,73.167 49.333 C 73.167 49.228,72.031 49.167,70.093 49.167 C 68.224 49.167,66.979 49.232,66.917 49.333 M153.083 49.333 C 153.027 49.425,152.652 49.500,152.250 49.500 C 151.848 49.500,151.473 49.575,151.417 49.667 C 151.360 49.758,151.056 49.833,150.740 49.833 C 150.425 49.833,150.167 49.908,150.167 50.000 C 150.167 50.092,149.942 50.167,149.667 50.167 C 149.392 50.167,149.167 50.242,149.167 50.333 C 149.167 50.425,148.984 50.500,148.760 50.500 C 148.536 50.500,148.307 50.575,148.250 50.667 C 148.193 50.758,148.001 50.833,147.823 50.833 C 147.646 50.833,147.500 50.908,147.500 51.000 C 147.500 51.092,147.350 51.167,147.167 51.167 C 146.983 51.167,146.833 51.242,146.833 51.333 C 146.833 51.425,146.683 51.500,146.500 51.500 C 146.317 51.500,146.167 51.575,146.167 51.667 C 146.167 51.758,146.017 51.833,145.833 51.833 C 145.650 51.833,145.500 51.908,145.500 52.000 C 145.500 52.092,145.350 52.167,145.167 52.167 C 144.983 52.167,144.833 52.242,144.833 52.333 C 144.833 52.425,144.740 52.500,144.625 52.500 C 144.510 52.501,144.154 52.725,143.833 53.000 C 143.512 53.275,143.193 53.499,143.123 53.500 C 143.054 53.500,142.754 53.733,142.457 54.017 L 141.917 54.535 141.866 53.476 C 141.838 52.893,141.745 52.345,141.658 52.258 C 141.571 52.171,141.500 51.965,141.500 51.800 C 141.500 51.635,141.425 51.500,141.333 51.500 C 141.242 51.500,141.167 51.402,141.167 51.281 C 141.167 51.012,140.306 50.167,140.033 50.167 C 139.923 50.167,139.833 50.092,139.833 50.000 C 139.833 49.908,139.683 49.833,139.500 49.833 C 139.317 49.833,139.167 49.758,139.167 49.667 C 139.167 49.568,138.556 49.500,137.667 49.500 C 136.778 49.500,136.167 49.568,136.167 49.667 C 136.167 49.758,136.055 49.833,135.919 49.833 C 135.405 49.833,133.833 51.397,133.833 51.909 C 133.833 52.040,133.758 52.193,133.667 52.250 C 133.454 52.381,133.435 110.876,133.647 111.294 C 133.728 111.453,133.897 111.802,134.022 112.069 C 134.652 113.413,136.027 114.167,137.849 114.167 C 138.616 114.167,139.167 114.097,139.167 114.000 C 139.167 113.908,139.310 113.833,139.486 113.833 C 139.662 113.833,139.831 113.777,139.861 113.708 C 139.892 113.640,140.198 113.373,140.542 113.117 C 140.885 112.860,141.167 112.541,141.167 112.408 C 141.167 112.275,141.242 112.167,141.333 112.167 C 141.425 112.167,141.500 112.021,141.500 111.843 C 141.500 111.665,141.575 111.473,141.667 111.417 C 141.775 111.350,141.833 107.776,141.833 101.240 C 141.833 95.700,141.897 91.167,141.974 91.167 C 142.052 91.167,142.251 91.317,142.417 91.500 C 142.583 91.683,142.819 91.833,142.942 91.833 C 143.066 91.833,143.167 91.896,143.167 91.972 C 143.167 92.048,143.373 92.217,143.625 92.347 C 143.877 92.477,144.229 92.715,144.406 92.875 C 144.584 93.035,144.828 93.167,144.948 93.167 C 145.068 93.167,145.167 93.242,145.167 93.333 C 145.167 93.425,145.317 93.500,145.500 93.500 C 145.683 93.500,145.833 93.575,145.833 93.667 C 145.833 93.758,145.983 93.833,146.167 93.833 C 146.350 93.833,146.500 93.908,146.500 94.000 C 146.500 94.092,146.650 94.167,146.833 94.167 C 147.017 94.167,147.167 94.242,147.167 94.333 C 147.167 94.425,147.312 94.500,147.490 94.500 C 147.668 94.500,147.860 94.575,147.917 94.667 C 147.973 94.758,148.203 94.833,148.427 94.833 C 148.650 94.833,148.833 94.908,148.833 95.000 C 148.833 95.092,149.058 95.167,149.333 95.167 C 149.608 95.167,149.833 95.242,149.833 95.333 C 149.833 95.425,150.054 95.500,150.323 95.500 C 150.593 95.500,150.860 95.575,150.917 95.667 C 150.973 95.758,151.311 95.833,151.667 95.833 C 152.023 95.833,152.360 95.908,152.417 96.000 C 152.473 96.092,152.923 96.167,153.417 96.167 C 153.910 96.167,154.360 96.242,154.417 96.333 C 154.478 96.433,155.585 96.500,157.177 96.500 C 158.837 96.500,159.833 96.437,159.833 96.333 C 159.833 96.241,160.274 96.167,160.823 96.167 C 161.368 96.167,161.860 96.092,161.917 96.000 C 161.973 95.908,162.353 95.833,162.760 95.833 C 163.167 95.833,163.500 95.758,163.500 95.667 C 163.500 95.575,163.721 95.500,163.990 95.500 C 164.260 95.500,164.527 95.425,164.583 95.333 C 164.640 95.242,164.869 95.167,165.093 95.167 C 165.317 95.167,165.500 95.092,165.500 95.000 C 165.500 94.908,165.683 94.833,165.907 94.833 C 166.131 94.833,166.360 94.758,166.417 94.667 C 166.473 94.575,166.665 94.500,166.843 94.500 C 167.021 94.500,167.167 94.425,167.167 94.333 C 167.167 94.242,167.317 94.167,167.500 94.167 C 167.683 94.167,167.833 94.092,167.833 94.000 C 167.833 93.908,167.977 93.833,168.153 93.833 C 168.328 93.833,168.497 93.777,168.528 93.708 C 168.597 93.552,169.485 93.011,169.875 92.887 C 170.035 92.836,170.167 92.728,170.167 92.647 C 170.167 92.566,170.265 92.500,170.385 92.500 C 170.505 92.500,170.749 92.367,170.927 92.204 C 171.105 92.041,171.512 91.724,171.833 91.499 C 172.588 90.971,176.167 87.365,176.167 87.133 C 176.167 87.035,176.298 86.834,176.459 86.686 C 176.621 86.538,176.858 86.210,176.988 85.958 C 177.117 85.706,177.285 85.500,177.361 85.500 C 177.438 85.500,177.500 85.350,177.500 85.167 C 177.500 84.983,177.556 84.833,177.625 84.832 C 177.694 84.831,177.833 84.663,177.933 84.457 C 178.034 84.251,178.288 83.746,178.496 83.333 C 178.704 82.921,178.941 82.453,179.021 82.294 C 179.101 82.135,179.167 81.891,179.167 81.752 C 179.167 81.614,179.242 81.500,179.333 81.500 C 179.425 81.500,179.500 81.275,179.500 81.000 C 179.500 80.725,179.575 80.500,179.667 80.500 C 179.758 80.500,179.833 80.275,179.833 80.000 C 179.833 79.725,179.908 79.500,180.000 79.500 C 180.092 79.500,180.167 79.200,180.167 78.833 C 180.167 78.467,180.242 78.167,180.333 78.167 C 180.425 78.167,180.500 77.796,180.500 77.343 C 180.500 76.890,180.575 76.473,180.667 76.417 C 180.769 76.353,180.833 74.974,180.833 72.833 C 180.833 70.693,180.769 69.313,180.667 69.250 C 180.575 69.193,180.500 68.781,180.500 68.333 C 180.500 67.886,180.425 67.473,180.333 67.417 C 180.242 67.360,180.167 67.060,180.167 66.750 C 180.167 66.440,180.092 66.140,180.000 66.083 C 179.908 66.027,179.833 65.796,179.833 65.571 C 179.833 65.346,179.747 64.994,179.641 64.789 C 179.226 63.987,179.167 63.826,179.167 63.502 C 179.167 63.318,179.092 63.167,179.000 63.167 C 178.908 63.167,178.833 63.017,178.833 62.833 C 178.833 62.650,178.758 62.500,178.667 62.500 C 178.575 62.500,178.500 62.350,178.500 62.167 C 178.500 61.983,178.425 61.833,178.333 61.833 C 178.242 61.833,178.167 61.683,178.167 61.500 C 178.167 61.317,178.092 61.167,178.000 61.167 C 177.908 61.167,177.833 61.051,177.833 60.910 C 177.833 60.768,177.683 60.492,177.500 60.295 C 177.317 60.098,177.167 59.839,177.167 59.719 C 177.167 59.598,177.108 59.500,177.036 59.500 C 176.964 59.500,176.774 59.278,176.613 59.006 C 176.453 58.734,176.228 58.416,176.114 58.298 C 175.999 58.180,175.724 57.821,175.501 57.500 C 174.987 56.760,172.334 54.167,172.090 54.167 C 171.989 54.167,171.799 54.017,171.667 53.833 C 171.535 53.650,171.345 53.500,171.245 53.500 C 171.145 53.500,170.917 53.369,170.740 53.208 C 170.562 53.048,170.210 52.810,169.958 52.680 C 169.706 52.550,169.500 52.381,169.500 52.305 C 169.500 52.229,169.356 52.167,169.181 52.167 C 169.005 52.167,168.836 52.110,168.806 52.042 C 168.726 51.862,167.345 51.167,167.068 51.167 C 166.939 51.167,166.833 51.092,166.833 51.000 C 166.833 50.908,166.688 50.833,166.510 50.833 C 166.332 50.833,166.140 50.758,166.083 50.667 C 166.027 50.575,165.797 50.500,165.573 50.500 C 165.350 50.500,165.167 50.425,165.167 50.333 C 165.167 50.242,164.942 50.167,164.667 50.167 C 164.392 50.167,164.167 50.092,164.167 50.000 C 164.167 49.908,163.909 49.833,163.593 49.833 C 163.278 49.833,162.973 49.758,162.917 49.667 C 162.860 49.575,162.485 49.500,162.083 49.500 C 161.682 49.500,161.307 49.425,161.250 49.333 C 161.186 49.230,159.640 49.167,157.167 49.167 C 154.693 49.167,153.147 49.230,153.083 49.333 M206.254 49.326 C 206.195 49.422,205.781 49.500,205.333 49.500 C 204.886 49.500,204.473 49.575,204.417 49.667 C 204.360 49.758,204.023 49.833,203.667 49.833 C 203.311 49.833,202.973 49.908,202.917 50.000 C 202.860 50.092,202.593 50.167,202.323 50.167 C 202.054 50.167,201.833 50.242,201.833 50.333 C 201.833 50.425,201.608 50.500,201.333 50.500 C 201.058 50.500,200.833 50.575,200.833 50.667 C 200.833 50.758,200.720 50.833,200.581 50.833 C 200.442 50.833,200.199 50.902,200.039 50.986 C 199.880 51.069,199.338 51.332,198.833 51.570 C 197.916 52.002,196.990 52.510,196.833 52.667 C 196.787 52.713,196.544 52.857,196.292 52.987 C 196.040 53.117,195.833 53.285,195.833 53.361 C 195.833 53.438,195.735 53.500,195.616 53.500 C 195.496 53.500,195.103 53.772,194.741 54.105 C 194.379 54.437,193.821 54.906,193.500 55.146 C 192.802 55.668,192.111 56.373,191.519 57.167 C 191.280 57.487,190.878 57.949,190.626 58.192 C 190.373 58.435,190.167 58.726,190.167 58.839 C 190.167 58.952,190.035 59.166,189.875 59.314 C 189.544 59.621,189.025 60.441,188.887 60.875 C 188.836 61.035,188.728 61.167,188.647 61.167 C 188.566 61.167,188.500 61.317,188.500 61.500 C 188.500 61.683,188.425 61.833,188.333 61.833 C 188.242 61.833,188.167 61.983,188.167 62.167 C 188.167 62.350,188.092 62.500,188.000 62.500 C 187.908 62.500,187.833 62.650,187.833 62.833 C 187.833 63.017,187.758 63.167,187.667 63.167 C 187.575 63.167,187.500 63.318,187.500 63.502 C 187.500 63.687,187.425 63.987,187.333 64.169 C 187.242 64.351,187.092 64.649,187.000 64.831 C 186.908 65.013,186.833 65.309,186.833 65.488 C 186.833 65.667,186.758 65.860,186.667 65.917 C 186.575 65.973,186.500 66.273,186.500 66.583 C 186.500 66.893,186.425 67.193,186.333 67.250 C 186.242 67.307,186.167 67.682,186.167 68.083 C 186.167 68.485,186.092 68.860,186.000 68.917 C 185.897 68.980,185.833 70.471,185.833 72.833 C 185.833 75.196,185.897 76.686,186.000 76.750 C 186.092 76.807,186.167 77.182,186.167 77.583 C 186.167 77.985,186.242 78.360,186.333 78.417 C 186.425 78.473,186.500 78.773,186.500 79.083 C 186.500 79.393,186.575 79.693,186.667 79.750 C 186.758 79.807,186.833 80.074,186.833 80.343 C 186.833 80.613,186.908 80.833,187.000 80.833 C 187.092 80.833,187.167 81.016,187.167 81.240 C 187.167 81.464,187.242 81.693,187.333 81.750 C 187.425 81.807,187.500 81.999,187.500 82.177 C 187.500 82.354,187.575 82.500,187.667 82.500 C 187.758 82.500,187.833 82.650,187.833 82.833 C 187.833 83.017,187.908 83.167,188.000 83.167 C 188.092 83.167,188.167 83.317,188.167 83.500 C 188.167 83.683,188.242 83.833,188.333 83.833 C 188.425 83.833,188.500 83.983,188.500 84.167 C 188.500 84.350,188.575 84.500,188.667 84.500 C 188.758 84.500,188.833 84.650,188.833 84.833 C 188.833 85.017,188.908 85.167,189.000 85.167 C 189.092 85.167,189.167 85.265,189.167 85.385 C 189.167 85.505,189.317 85.765,189.500 85.962 C 189.683 86.158,189.833 86.386,189.833 86.468 C 189.833 86.550,190.040 86.835,190.293 87.100 C 190.547 87.366,190.940 87.846,191.167 88.167 C 191.705 88.927,193.424 90.642,194.167 91.160 C 194.487 91.384,194.862 91.684,195.000 91.827 C 195.137 91.969,195.456 92.192,195.708 92.321 C 195.960 92.450,196.167 92.619,196.167 92.695 C 196.167 92.771,196.265 92.833,196.385 92.833 C 196.505 92.833,196.765 92.983,196.962 93.167 C 197.158 93.350,197.435 93.500,197.576 93.500 C 197.718 93.500,197.833 93.575,197.833 93.667 C 197.833 93.758,197.983 93.833,198.167 93.833 C 198.350 93.833,198.500 93.908,198.500 94.000 C 198.500 94.092,198.650 94.167,198.833 94.167 C 199.017 94.167,199.167 94.242,199.167 94.333 C 199.167 94.425,199.280 94.500,199.419 94.500 C 199.558 94.500,199.801 94.566,199.961 94.647 C 200.120 94.728,200.475 94.887,200.750 95.000 C 201.025 95.113,201.380 95.272,201.539 95.353 C 201.699 95.434,201.975 95.500,202.155 95.500 C 202.334 95.500,202.527 95.575,202.583 95.667 C 202.640 95.758,202.977 95.833,203.333 95.833 C 203.689 95.833,204.027 95.908,204.083 96.000 C 204.140 96.092,204.515 96.167,204.917 96.167 C 205.318 96.167,205.693 96.242,205.750 96.333 C 205.814 96.436,207.248 96.500,209.500 96.500 C 211.752 96.500,213.186 96.436,213.250 96.333 C 213.307 96.242,213.719 96.167,214.167 96.167 C 214.614 96.167,215.027 96.092,215.083 96.000 C 215.140 95.908,215.402 95.833,215.667 95.833 C 215.931 95.833,216.193 95.758,216.250 95.667 C 216.307 95.575,216.532 95.500,216.750 95.500 C 216.968 95.500,217.193 95.425,217.250 95.333 C 217.307 95.242,217.500 95.167,217.679 95.167 C 217.858 95.167,218.154 95.092,218.336 95.000 C 218.518 94.908,218.816 94.758,218.998 94.667 C 219.180 94.575,219.442 94.500,219.581 94.500 C 219.720 94.500,219.833 94.425,219.833 94.333 C 219.833 94.242,219.983 94.167,220.167 94.167 C 220.350 94.167,220.500 94.092,220.500 94.000 C 220.500 93.908,220.650 93.833,220.833 93.833 C 221.017 93.833,221.167 93.758,221.167 93.667 C 221.167 93.575,221.265 93.500,221.385 93.500 C 221.505 93.500,221.765 93.350,221.962 93.167 C 222.158 92.983,222.398 92.833,222.495 92.833 C 222.591 92.833,222.905 92.608,223.193 92.333 C 223.481 92.058,223.782 91.833,223.864 91.833 C 223.945 91.833,224.260 91.590,224.564 91.292 C 224.868 90.994,225.372 90.522,225.683 90.242 C 226.539 89.476,227.160 88.626,227.164 88.218 C 227.165 88.017,227.242 87.807,227.333 87.750 C 227.425 87.693,227.500 87.243,227.500 86.750 C 227.500 86.257,227.425 85.807,227.333 85.750 C 227.242 85.693,227.167 85.464,227.167 85.240 C 227.167 85.016,227.092 84.833,227.000 84.833 C 226.908 84.833,226.833 84.728,226.833 84.600 C 226.833 84.297,225.703 83.167,225.400 83.167 C 225.272 83.167,225.167 83.092,225.167 83.000 C 225.167 82.908,224.984 82.833,224.760 82.833 C 224.536 82.833,224.307 82.758,224.250 82.667 C 224.193 82.575,223.743 82.500,223.250 82.500 C 222.757 82.500,222.307 82.575,222.250 82.667 C 222.193 82.758,222.001 82.833,221.823 82.833 C 221.646 82.833,221.500 82.908,221.500 83.000 C 221.500 83.092,221.383 83.167,221.241 83.167 C 221.098 83.167,220.540 83.617,220.000 84.167 C 219.460 84.717,218.950 85.167,218.867 85.167 C 218.784 85.167,218.481 85.392,218.193 85.667 C 217.905 85.942,217.557 86.167,217.418 86.167 C 217.280 86.167,217.167 86.242,217.167 86.333 C 217.167 86.425,217.017 86.500,216.833 86.500 C 216.650 86.500,216.500 86.575,216.500 86.667 C 216.500 86.758,216.350 86.833,216.167 86.833 C 215.983 86.833,215.833 86.908,215.833 87.000 C 215.833 87.092,215.688 87.167,215.510 87.167 C 215.332 87.167,215.140 87.242,215.083 87.333 C 215.027 87.425,214.764 87.500,214.500 87.500 C 214.236 87.500,213.973 87.575,213.917 87.667 C 213.860 87.758,213.560 87.833,213.250 87.833 C 212.940 87.833,212.640 87.908,212.583 88.000 C 212.521 88.100,211.359 88.167,209.657 88.167 C 207.886 88.167,206.833 88.105,206.833 88.000 C 206.833 87.908,206.538 87.833,206.177 87.833 C 205.815 87.833,205.473 87.758,205.417 87.667 C 205.360 87.575,205.098 87.500,204.833 87.500 C 204.569 87.500,204.307 87.425,204.250 87.333 C 204.193 87.242,204.001 87.167,203.823 87.167 C 203.646 87.167,203.500 87.092,203.500 87.000 C 203.500 86.908,203.350 86.833,203.167 86.833 C 202.983 86.833,202.833 86.758,202.833 86.667 C 202.833 86.575,202.683 86.500,202.500 86.500 C 202.317 86.500,202.167 86.425,202.167 86.333 C 202.167 86.242,202.017 86.167,201.833 86.167 C 201.650 86.167,201.500 86.104,201.500 86.028 C 201.500 85.952,201.294 85.784,201.042 85.654 C 200.790 85.525,200.462 85.287,200.314 85.126 C 200.166 84.965,199.969 84.833,199.878 84.833 C 199.663 84.833,197.833 83.078,197.833 82.872 C 197.833 82.786,197.627 82.497,197.375 82.230 C 197.123 81.963,196.810 81.539,196.680 81.289 C 196.550 81.038,196.381 80.833,196.305 80.833 C 196.229 80.833,196.167 80.683,196.167 80.500 C 196.167 80.317,196.110 80.166,196.042 80.165 C 195.892 80.164,195.500 79.357,195.500 79.050 C 195.500 78.931,195.425 78.833,195.333 78.833 C 195.242 78.833,195.167 78.608,195.167 78.333 C 195.167 78.058,195.092 77.833,195.000 77.833 C 194.908 77.833,194.833 77.613,194.833 77.343 C 194.833 77.074,194.758 76.807,194.667 76.750 C 193.738 76.176,194.019 76.167,212.375 76.166 L 230.250 76.166 230.750 75.749 C 231.992 74.714,232.500 74.133,232.500 73.748 C 232.500 73.612,232.575 73.500,232.667 73.500 C 232.758 73.500,232.833 73.317,232.833 73.093 C 232.833 72.869,232.908 72.640,233.000 72.583 C 233.092 72.527,233.167 71.814,233.167 71.000 C 233.167 70.186,233.092 69.473,233.000 69.417 C 232.908 69.360,232.833 68.873,232.833 68.333 C 232.833 67.794,232.758 67.307,232.667 67.250 C 232.575 67.193,232.500 66.893,232.500 66.583 C 232.500 66.273,232.425 65.973,232.333 65.917 C 232.242 65.860,232.167 65.593,232.167 65.323 C 232.167 65.054,232.092 64.833,232.000 64.833 C 231.908 64.833,231.833 64.650,231.833 64.427 C 231.833 64.203,231.758 63.973,231.667 63.917 C 231.575 63.860,231.500 63.668,231.500 63.490 C 231.500 63.312,231.425 63.167,231.333 63.167 C 231.242 63.167,231.167 63.017,231.167 62.833 C 231.167 62.650,231.092 62.500,231.000 62.500 C 230.908 62.500,230.833 62.350,230.833 62.167 C 230.833 61.983,230.758 61.833,230.667 61.833 C 230.575 61.833,230.500 61.683,230.500 61.500 C 230.500 61.317,230.425 61.167,230.333 61.167 C 230.242 61.167,230.167 61.017,230.167 60.833 C 230.167 60.650,230.109 60.500,230.039 60.500 C 229.969 60.500,229.727 60.200,229.500 59.833 C 229.273 59.467,229.031 59.167,228.961 59.167 C 228.891 59.167,228.833 59.068,228.833 58.948 C 228.833 58.747,227.187 56.845,226.144 55.840 C 225.117 54.850,224.318 54.167,224.189 54.167 C 224.112 54.167,223.814 53.942,223.526 53.667 C 223.238 53.392,222.924 53.167,222.828 53.167 C 222.732 53.167,222.492 53.017,222.295 52.833 C 222.098 52.650,221.839 52.500,221.719 52.500 C 221.598 52.500,221.500 52.425,221.500 52.333 C 221.500 52.242,221.350 52.167,221.167 52.167 C 220.983 52.167,220.833 52.092,220.833 52.000 C 220.833 51.908,220.683 51.833,220.500 51.833 C 220.317 51.833,220.167 51.758,220.167 51.667 C 220.167 51.575,220.017 51.500,219.833 51.500 C 219.650 51.500,219.500 51.425,219.500 51.333 C 219.500 51.242,219.350 51.167,219.167 51.167 C 218.983 51.167,218.833 51.092,218.833 51.000 C 218.833 50.908,218.682 50.833,218.498 50.833 C 218.313 50.833,218.013 50.758,217.831 50.667 C 217.649 50.575,217.351 50.425,217.169 50.333 C 216.987 50.242,216.612 50.167,216.336 50.167 C 216.059 50.167,215.833 50.092,215.833 50.000 C 215.833 49.908,215.533 49.833,215.167 49.833 C 214.800 49.833,214.500 49.765,214.500 49.681 C 214.500 49.341,206.459 48.995,206.254 49.326 M255.917 49.333 C 255.860 49.425,255.410 49.500,254.917 49.500 C 254.423 49.500,253.973 49.575,253.917 49.667 C 253.860 49.758,253.598 49.833,253.333 49.833 C 253.069 49.833,252.807 49.908,252.750 50.000 C 252.693 50.092,252.500 50.167,252.321 50.167 C 252.142 50.167,251.846 50.242,251.664 50.333 C 251.482 50.425,251.184 50.575,251.002 50.667 C 250.820 50.758,250.558 50.833,250.419 50.833 C 250.280 50.833,250.167 50.908,250.167 51.000 C 250.167 51.092,250.017 51.167,249.833 51.167 C 249.650 51.167,249.500 51.242,249.500 51.333 C 249.500 51.425,249.350 51.500,249.167 51.500 C 248.983 51.500,248.833 51.575,248.833 51.667 C 248.833 51.758,248.683 51.833,248.500 51.833 C 248.317 51.833,248.167 51.892,248.167 51.964 C 248.167 52.036,247.942 52.228,247.667 52.390 C 247.236 52.644,247.167 52.650,247.167 52.431 C 247.167 51.703,245.591 49.833,244.977 49.833 C 244.817 49.833,244.640 49.758,244.583 49.667 C 244.384 49.344,241.899 49.469,241.249 49.834 C 240.073 50.494,239.320 51.472,239.065 52.667 C 238.866 53.600,238.802 92.202,238.999 92.399 C 239.091 92.491,239.167 92.852,239.167 93.200 C 239.167 93.548,239.242 93.833,239.333 93.833 C 239.425 93.833,239.500 93.929,239.500 94.047 C 239.500 94.337,240.649 95.500,240.936 95.500 C 241.063 95.500,241.167 95.575,241.167 95.667 C 241.167 95.758,241.387 95.833,241.657 95.833 C 241.926 95.833,242.193 95.908,242.250 96.000 C 242.307 96.092,242.719 96.167,243.167 96.167 C 243.614 96.167,244.027 96.092,244.083 96.000 C 244.140 95.908,244.363 95.833,244.578 95.833 C 244.982 95.833,246.557 94.429,246.958 93.711 C 247.120 93.422,247.167 90.513,247.167 80.762 C 247.167 72.558,247.225 68.151,247.333 68.083 C 247.425 68.027,247.500 67.389,247.500 66.667 C 247.500 65.944,247.575 65.307,247.667 65.250 C 247.758 65.193,247.833 64.893,247.833 64.583 C 247.833 64.273,247.908 63.973,248.000 63.917 C 248.092 63.860,248.167 63.668,248.167 63.490 C 248.167 63.312,248.242 63.167,248.333 63.167 C 248.425 63.167,248.500 63.017,248.500 62.833 C 248.500 62.650,248.575 62.500,248.667 62.500 C 248.758 62.500,248.833 62.389,248.833 62.253 C 248.833 61.935,249.798 60.814,250.773 60.000 C 251.444 59.440,252.042 59.095,253.083 58.667 C 253.358 58.554,253.714 58.395,253.873 58.314 C 254.032 58.233,254.388 58.167,254.664 58.167 C 254.941 58.167,255.167 58.098,255.167 58.014 C 255.167 57.869,255.875 57.784,258.833 57.573 C 260.649 57.443,262.833 56.052,262.833 55.026 C 262.833 54.839,262.908 54.640,263.000 54.583 C 263.092 54.527,263.167 53.964,263.167 53.333 C 263.167 52.702,263.092 52.140,263.000 52.083 C 262.908 52.027,262.833 51.847,262.833 51.683 C 262.833 51.306,261.454 49.833,261.100 49.833 C 260.953 49.833,260.833 49.758,260.833 49.667 C 260.833 49.575,260.688 49.500,260.510 49.500 C 260.332 49.500,260.140 49.425,260.083 49.333 C 260.024 49.237,259.140 49.167,258.000 49.167 C 256.860 49.167,255.976 49.237,255.917 49.333 M304.583 49.333 C 304.527 49.425,304.035 49.500,303.490 49.500 C 302.941 49.500,302.500 49.574,302.500 49.667 C 302.500 49.758,302.200 49.833,301.833 49.833 C 301.467 49.833,301.167 49.908,301.167 50.000 C 301.167 50.092,300.946 50.167,300.677 50.167 C 300.407 50.167,300.140 50.242,300.083 50.333 C 300.027 50.425,299.797 50.500,299.573 50.500 C 299.350 50.500,299.167 50.575,299.167 50.667 C 299.167 50.758,299.019 50.833,298.838 50.833 C 298.658 50.833,298.243 50.983,297.917 51.167 C 297.590 51.350,297.213 51.500,297.078 51.500 C 296.944 51.500,296.833 51.575,296.833 51.667 C 296.833 51.758,296.683 51.833,296.500 51.833 C 296.317 51.833,296.167 51.900,296.167 51.981 C 296.167 52.062,296.035 52.169,295.875 52.220 C 295.574 52.316,294.647 52.847,294.500 53.008 C 294.454 53.058,294.154 53.280,293.833 53.500 C 293.512 53.720,293.212 53.942,293.167 53.993 C 293.121 54.044,292.792 54.303,292.436 54.568 C 291.601 55.191,289.855 56.937,289.236 57.769 C 288.971 58.125,288.640 58.529,288.501 58.667 C 288.362 58.804,288.142 59.123,288.012 59.375 C 287.883 59.627,287.715 59.833,287.639 59.833 C 287.562 59.833,287.500 59.983,287.500 60.167 C 287.500 60.350,287.425 60.500,287.333 60.500 C 287.242 60.500,287.167 60.598,287.167 60.719 C 287.167 60.839,287.017 61.098,286.833 61.295 C 286.650 61.492,286.500 61.768,286.500 61.910 C 286.500 62.051,286.425 62.167,286.333 62.167 C 286.242 62.167,286.167 62.280,286.167 62.419 C 286.167 62.558,286.092 62.820,286.000 63.002 C 285.908 63.184,285.758 63.482,285.667 63.664 C 285.575 63.846,285.500 64.109,285.500 64.248 C 285.500 64.386,285.425 64.500,285.333 64.500 C 285.242 64.500,285.167 64.725,285.167 65.000 C 285.167 65.275,285.092 65.500,285.000 65.500 C 284.908 65.500,284.833 65.721,284.833 65.990 C 284.833 66.260,284.758 66.527,284.667 66.583 C 284.575 66.640,284.500 67.015,284.500 67.417 C 284.500 67.818,284.425 68.193,284.333 68.250 C 284.242 68.307,284.167 68.794,284.167 69.333 C 284.167 69.873,284.092 70.360,284.000 70.417 C 283.902 70.477,283.833 71.471,283.833 72.833 C 283.833 74.196,283.902 75.189,284.000 75.250 C 284.092 75.307,284.167 75.794,284.167 76.333 C 284.167 76.873,284.242 77.360,284.333 77.417 C 284.425 77.473,284.500 77.848,284.500 78.250 C 284.500 78.652,284.575 79.027,284.667 79.083 C 284.758 79.140,284.833 79.407,284.833 79.677 C 284.833 79.946,284.908 80.167,285.000 80.167 C 285.092 80.167,285.167 80.392,285.167 80.667 C 285.167 80.942,285.242 81.167,285.333 81.167 C 285.425 81.167,285.500 81.314,285.500 81.495 C 285.500 81.675,285.650 82.090,285.833 82.417 C 286.017 82.743,286.167 83.120,286.167 83.255 C 286.167 83.390,286.242 83.500,286.333 83.500 C 286.425 83.500,286.500 83.650,286.500 83.833 C 286.500 84.017,286.575 84.167,286.667 84.167 C 286.758 84.167,286.833 84.282,286.833 84.424 C 286.833 84.565,286.983 84.842,287.167 85.038 C 287.350 85.235,287.500 85.495,287.500 85.615 C 287.500 85.735,287.575 85.833,287.667 85.833 C 287.758 85.833,287.834 85.927,287.834 86.042 C 287.834 86.156,288.059 86.513,288.333 86.833 C 288.608 87.154,288.833 87.479,288.833 87.556 C 288.834 87.765,292.980 91.833,293.193 91.833 C 293.294 91.833,293.499 91.965,293.647 92.126 C 293.795 92.287,294.123 92.525,294.375 92.654 C 294.627 92.784,294.833 92.952,294.833 93.028 C 294.833 93.104,294.983 93.167,295.167 93.167 C 295.350 93.167,295.500 93.230,295.500 93.308 C 295.500 93.386,296.006 93.694,296.625 93.993 C 297.244 94.291,297.880 94.602,298.039 94.684 C 298.199 94.766,298.442 94.833,298.581 94.833 C 298.720 94.833,298.833 94.908,298.833 95.000 C 298.833 95.092,299.058 95.167,299.333 95.167 C 299.608 95.167,299.833 95.242,299.833 95.333 C 299.833 95.425,300.058 95.500,300.333 95.500 C 300.608 95.500,300.833 95.575,300.833 95.667 C 300.833 95.758,301.133 95.833,301.500 95.833 C 301.867 95.833,302.167 95.908,302.167 96.000 C 302.167 96.092,302.537 96.167,302.990 96.167 C 303.443 96.167,303.860 96.242,303.917 96.333 C 303.980 96.436,305.387 96.500,307.583 96.500 C 309.779 96.500,311.187 96.436,311.250 96.333 C 311.307 96.242,311.719 96.167,312.167 96.167 C 312.614 96.167,313.027 96.092,313.083 96.000 C 313.140 95.908,313.440 95.833,313.750 95.833 C 314.060 95.833,314.360 95.758,314.417 95.667 C 314.473 95.575,314.698 95.500,314.917 95.500 C 315.135 95.500,315.360 95.425,315.417 95.333 C 315.473 95.242,315.663 95.167,315.838 95.167 C 316.013 95.167,316.424 95.017,316.750 94.833 C 317.076 94.650,317.454 94.500,317.588 94.500 C 317.723 94.500,317.833 94.425,317.833 94.333 C 317.833 94.242,317.983 94.167,318.167 94.167 C 318.350 94.167,318.500 94.092,318.500 94.000 C 318.500 93.908,318.644 93.833,318.819 93.833 C 318.995 93.833,319.164 93.777,319.194 93.708 C 319.264 93.552,320.152 93.011,320.542 92.887 C 320.702 92.836,320.833 92.728,320.833 92.647 C 320.833 92.566,320.935 92.500,321.059 92.500 C 321.183 92.500,321.505 92.289,321.775 92.031 C 322.536 91.303,322.833 91.247,322.833 91.829 C 322.833 92.095,322.908 92.360,323.000 92.417 C 323.092 92.473,323.167 92.815,323.167 93.177 C 323.167 93.538,323.242 93.833,323.333 93.833 C 323.425 93.833,323.500 93.948,323.500 94.089 C 323.500 95.277,327.824 96.958,328.417 96.000 C 328.473 95.908,328.665 95.833,328.843 95.833 C 329.021 95.833,329.167 95.758,329.167 95.667 C 329.167 95.575,329.288 95.500,329.436 95.500 C 329.747 95.500,330.833 94.374,330.833 94.051 C 330.833 93.931,330.908 93.833,331.000 93.833 C 331.110 93.833,331.167 86.722,331.167 72.833 C 331.167 58.944,331.110 51.833,331.000 51.833 C 330.908 51.833,330.833 51.728,330.833 51.600 C 330.833 50.387,326.357 48.685,325.750 49.667 C 325.693 49.758,325.513 49.833,325.350 49.833 C 324.972 49.833,323.500 51.213,323.500 51.567 C 323.500 51.713,323.425 51.833,323.333 51.833 C 323.242 51.833,323.167 52.129,323.167 52.490 C 323.167 52.851,323.092 53.193,323.000 53.250 C 322.908 53.307,322.833 53.611,322.833 53.927 C 322.833 54.625,322.798 54.629,322.140 54.000 C 321.853 53.725,321.516 53.500,321.392 53.500 C 321.268 53.500,321.167 53.438,321.167 53.361 C 321.167 53.285,320.960 53.117,320.708 52.987 C 320.456 52.857,320.212 52.713,320.167 52.667 C 320.003 52.502,319.078 51.978,318.792 51.887 C 318.631 51.836,318.500 51.728,318.500 51.647 C 318.500 51.566,318.386 51.500,318.248 51.500 C 318.003 51.500,317.826 51.430,317.044 51.026 C 316.839 50.920,316.558 50.833,316.419 50.833 C 316.280 50.833,316.167 50.758,316.167 50.667 C 316.167 50.575,315.946 50.500,315.677 50.500 C 315.407 50.500,315.140 50.425,315.083 50.333 C 315.027 50.242,314.797 50.167,314.573 50.167 C 314.350 50.167,314.167 50.092,314.167 50.000 C 314.167 49.908,313.871 49.833,313.510 49.833 C 313.149 49.833,312.807 49.758,312.750 49.667 C 312.693 49.575,312.243 49.500,311.750 49.500 C 311.257 49.500,310.807 49.425,310.750 49.333 C 310.688 49.232,309.474 49.167,307.667 49.167 C 305.860 49.167,304.646 49.232,304.583 49.333 M355.167 49.333 C 355.167 49.425,354.759 49.500,354.260 49.500 C 353.761 49.500,353.307 49.575,353.250 49.667 C 353.193 49.758,352.893 49.833,352.583 49.833 C 352.273 49.833,351.973 49.908,351.917 50.000 C 351.860 50.092,351.667 50.167,351.488 50.167 C 351.309 50.167,351.032 50.233,350.873 50.314 C 350.714 50.395,350.396 50.534,350.167 50.624 C 349.389 50.927,347.703 51.797,347.500 52.000 C 346.920 52.580,346.167 52.445,346.167 51.762 C 346.167 51.618,346.110 51.500,346.041 51.500 C 345.971 51.500,345.817 51.279,345.698 51.010 C 345.578 50.740,345.260 50.422,344.990 50.302 C 344.721 50.183,344.500 50.029,344.500 49.959 C 344.500 49.890,344.350 49.833,344.167 49.833 C 343.983 49.833,343.833 49.758,343.833 49.667 C 343.833 49.568,343.222 49.500,342.333 49.500 C 341.444 49.500,340.833 49.568,340.833 49.667 C 340.833 49.758,340.702 49.833,340.541 49.833 C 340.094 49.833,338.500 51.594,338.500 52.087 C 338.500 52.314,338.425 52.500,338.333 52.500 C 338.223 52.500,338.167 59.389,338.167 72.833 C 338.167 86.278,338.223 93.167,338.333 93.167 C 338.425 93.167,338.500 93.340,338.500 93.552 C 338.500 93.764,338.650 94.098,338.833 94.295 C 339.017 94.492,339.167 94.727,339.167 94.817 C 339.167 94.907,339.392 95.114,339.667 95.277 C 339.942 95.439,340.167 95.631,340.167 95.703 C 340.167 95.775,340.312 95.833,340.490 95.833 C 340.668 95.833,340.860 95.908,340.917 96.000 C 340.973 96.092,341.611 96.167,342.333 96.167 C 343.056 96.167,343.693 96.092,343.750 96.000 C 343.807 95.908,343.999 95.833,344.177 95.833 C 344.354 95.833,344.500 95.777,344.500 95.707 C 344.500 95.638,344.721 95.484,344.990 95.364 C 345.260 95.245,345.578 94.927,345.698 94.657 C 345.817 94.387,345.971 94.167,346.041 94.167 C 346.110 94.167,346.167 94.021,346.167 93.843 C 346.167 93.665,346.242 93.473,346.333 93.417 C 346.442 93.349,346.500 88.720,346.500 80.073 C 346.500 71.358,346.557 66.833,346.667 66.833 C 346.758 66.833,346.833 66.425,346.833 65.927 C 346.833 65.428,346.908 64.973,347.000 64.917 C 347.092 64.860,347.167 64.593,347.167 64.323 C 347.167 64.054,347.242 63.833,347.333 63.833 C 347.425 63.833,347.500 63.728,347.500 63.599 C 347.500 63.321,348.195 61.941,348.375 61.861 C 348.444 61.831,348.500 61.704,348.500 61.580 C 348.500 61.324,350.269 59.500,350.518 59.500 C 350.607 59.500,350.842 59.350,351.038 59.167 C 351.235 58.983,351.495 58.833,351.615 58.833 C 351.735 58.833,351.833 58.758,351.833 58.667 C 351.833 58.575,351.979 58.500,352.157 58.500 C 352.335 58.500,352.527 58.425,352.583 58.333 C 352.640 58.242,352.865 58.167,353.083 58.167 C 353.302 58.167,353.527 58.092,353.583 58.000 C 353.640 57.908,353.940 57.833,354.250 57.833 C 354.560 57.833,354.860 57.758,354.917 57.667 C 354.979 57.566,356.137 57.500,357.833 57.500 C 359.529 57.500,360.688 57.566,360.750 57.667 C 360.807 57.758,361.074 57.833,361.343 57.833 C 361.613 57.833,361.833 57.908,361.833 58.000 C 361.833 58.092,362.016 58.167,362.240 58.167 C 362.464 58.167,362.693 58.242,362.750 58.333 C 362.807 58.425,362.999 58.500,363.177 58.500 C 363.354 58.500,363.500 58.563,363.500 58.640 C 363.500 58.718,363.852 58.961,364.283 59.182 C 365.051 59.576,367.833 62.187,367.833 62.514 C 367.833 62.606,367.983 62.842,368.167 63.038 C 368.350 63.235,368.500 63.495,368.500 63.615 C 368.500 63.735,368.575 63.833,368.667 63.833 C 368.758 63.833,368.833 63.983,368.833 64.167 C 368.833 64.350,368.908 64.500,369.000 64.500 C 369.092 64.500,369.167 64.683,369.167 64.907 C 369.167 65.131,369.242 65.360,369.333 65.417 C 369.425 65.473,369.500 65.740,369.500 66.010 C 369.500 66.279,369.575 66.500,369.667 66.500 C 369.761 66.500,369.833 66.969,369.833 67.573 C 369.833 68.164,369.908 68.693,370.000 68.750 C 370.109 68.817,370.167 73.196,370.167 81.343 C 370.167 89.559,370.224 93.833,370.333 93.833 C 370.425 93.833,370.500 93.948,370.500 94.089 C 370.500 94.564,372.014 95.833,372.581 95.833 C 372.720 95.833,372.833 95.908,372.833 96.000 C 372.833 96.097,373.389 96.167,374.167 96.167 C 374.944 96.167,375.500 96.097,375.500 96.000 C 375.500 95.908,375.614 95.833,375.752 95.833 C 376.320 95.833,377.833 94.564,377.833 94.089 C 377.833 93.948,377.908 93.833,378.000 93.833 C 378.092 93.833,378.167 93.533,378.167 93.167 C 378.167 92.800,378.243 92.500,378.335 92.500 C 378.564 92.500,378.558 67.222,378.329 67.081 C 378.240 67.026,378.167 66.427,378.167 65.750 C 378.167 65.073,378.092 64.473,378.000 64.417 C 377.908 64.360,377.833 64.060,377.833 63.750 C 377.833 63.440,377.758 63.140,377.667 63.083 C 377.575 63.027,377.500 62.834,377.500 62.655 C 377.500 62.475,377.425 62.180,377.333 61.998 C 377.242 61.816,377.092 61.518,377.000 61.336 C 376.908 61.154,376.833 60.891,376.833 60.752 C 376.833 60.614,376.758 60.500,376.667 60.500 C 376.575 60.500,376.500 60.350,376.500 60.167 C 376.500 59.983,376.425 59.833,376.333 59.833 C 376.242 59.833,376.167 59.683,376.167 59.500 C 376.167 59.317,376.092 59.167,376.000 59.167 C 375.908 59.167,375.833 59.068,375.833 58.948 C 375.833 58.828,375.683 58.569,375.500 58.372 C 375.317 58.175,375.167 57.954,375.167 57.880 C 375.167 57.469,370.944 53.168,370.539 53.166 C 370.472 53.166,370.154 52.941,369.833 52.667 C 369.512 52.392,369.156 52.167,369.042 52.167 C 368.927 52.167,368.833 52.092,368.833 52.000 C 368.833 51.908,368.683 51.833,368.500 51.833 C 368.317 51.833,368.167 51.758,368.167 51.667 C 368.167 51.575,368.017 51.500,367.833 51.500 C 367.650 51.500,367.500 51.425,367.500 51.333 C 367.500 51.242,367.390 51.167,367.255 51.167 C 367.120 51.167,366.743 51.017,366.417 50.833 C 366.090 50.650,365.675 50.500,365.495 50.500 C 365.314 50.500,365.167 50.425,365.167 50.333 C 365.167 50.242,364.942 50.167,364.667 50.167 C 364.392 50.167,364.167 50.092,364.167 50.000 C 364.167 49.908,363.867 49.833,363.500 49.833 C 363.133 49.833,362.833 49.758,362.833 49.667 C 362.833 49.575,362.425 49.500,361.927 49.500 C 361.428 49.500,360.973 49.425,360.917 49.333 C 360.855 49.233,359.693 49.167,357.990 49.167 C 356.219 49.167,355.167 49.229,355.167 49.333 M272.500 49.667 C 272.500 49.758,272.350 49.833,272.167 49.833 C 271.983 49.833,271.833 49.890,271.833 49.959 C 271.833 50.029,271.613 50.183,271.343 50.302 C 271.073 50.422,270.755 50.740,270.636 51.010 C 270.516 51.279,270.362 51.500,270.293 51.500 C 270.223 51.500,270.167 51.646,270.167 51.823 C 270.167 52.001,270.092 52.193,270.000 52.250 C 269.890 52.318,269.833 59.332,269.833 72.750 C 269.833 86.168,269.890 93.182,270.000 93.250 C 270.092 93.307,270.167 93.503,270.167 93.687 C 270.167 94.075,271.857 95.833,272.229 95.833 C 272.367 95.833,272.527 95.908,272.583 96.000 C 272.640 96.092,273.240 96.167,273.917 96.167 C 274.593 96.167,275.193 96.092,275.250 96.000 C 275.307 95.908,275.492 95.833,275.662 95.833 C 276.094 95.833,277.833 94.123,277.833 93.698 C 277.833 93.508,277.908 93.307,278.000 93.250 C 278.110 93.182,278.167 86.168,278.167 72.750 C 278.167 59.332,278.110 52.318,278.000 52.250 C 277.908 52.193,277.833 52.001,277.833 51.823 C 277.833 51.646,277.777 51.500,277.707 51.500 C 277.638 51.500,277.484 51.279,277.364 51.010 C 277.245 50.740,276.927 50.422,276.657 50.302 C 276.387 50.183,276.167 50.029,276.167 49.959 C 276.167 49.890,276.017 49.833,275.833 49.833 C 275.650 49.833,275.500 49.758,275.500 49.667 C 275.500 49.568,274.889 49.500,274.000 49.500 C 273.111 49.500,272.500 49.568,272.500 49.667 M98.083 50.000 C 98.027 50.092,97.847 50.167,97.683 50.167 C 97.306 50.167,95.833 51.546,95.833 51.900 C 95.833 52.047,95.758 52.167,95.667 52.167 C 95.315 52.167,95.464 55.565,95.833 55.962 C 96.017 56.158,96.167 56.401,96.167 56.500 C 96.167 56.599,96.317 56.842,96.500 57.038 C 96.683 57.235,96.833 57.495,96.833 57.615 C 96.833 57.735,96.908 57.833,97.000 57.833 C 97.092 57.833,97.167 57.932,97.167 58.052 C 97.167 58.172,97.317 58.431,97.500 58.628 C 97.683 58.825,97.833 59.067,97.833 59.167 C 97.833 59.266,97.983 59.508,98.167 59.705 C 98.350 59.902,98.500 60.161,98.500 60.281 C 98.500 60.402,98.575 60.500,98.667 60.500 C 98.758 60.500,98.833 60.598,98.833 60.719 C 98.833 60.839,98.965 61.083,99.125 61.260 C 99.285 61.438,99.523 61.790,99.653 62.042 C 99.783 62.294,99.952 62.500,100.028 62.500 C 100.104 62.500,100.167 62.616,100.167 62.757 C 100.167 62.898,100.317 63.175,100.500 63.372 C 100.683 63.569,100.833 63.828,100.833 63.948 C 100.833 64.068,100.908 64.167,101.000 64.167 C 101.092 64.167,101.167 64.265,101.167 64.385 C 101.167 64.505,101.298 64.749,101.458 64.927 C 101.619 65.105,101.856 65.456,101.986 65.708 C 102.117 65.960,102.285 66.167,102.361 66.167 C 102.438 66.167,102.500 66.282,102.500 66.424 C 102.500 66.565,102.650 66.842,102.833 67.038 C 103.017 67.235,103.167 67.495,103.167 67.615 C 103.167 67.735,103.242 67.833,103.333 67.833 C 103.425 67.833,103.500 67.932,103.500 68.052 C 103.500 68.172,103.631 68.416,103.792 68.594 C 103.952 68.771,104.190 69.123,104.320 69.375 C 104.450 69.627,104.619 69.833,104.695 69.833 C 104.771 69.833,104.833 69.983,104.833 70.167 C 104.833 70.350,104.896 70.500,104.972 70.500 C 105.048 70.500,105.217 70.706,105.347 70.958 C 105.477 71.210,105.715 71.562,105.875 71.740 C 106.035 71.917,106.167 72.161,106.167 72.281 C 106.167 72.402,106.242 72.500,106.333 72.500 C 106.625 72.500,106.513 73.257,106.167 73.628 C 105.983 73.825,105.833 74.085,105.833 74.206 C 105.833 74.327,105.683 74.535,105.500 74.667 C 105.317 74.799,105.167 75.006,105.167 75.127 C 105.167 75.248,105.017 75.508,104.833 75.705 C 104.650 75.902,104.500 76.161,104.500 76.281 C 104.500 76.402,104.425 76.500,104.333 76.500 C 104.242 76.500,104.167 76.598,104.167 76.719 C 104.167 76.839,104.017 77.098,103.833 77.295 C 103.650 77.492,103.500 77.752,103.500 77.873 C 103.500 77.994,103.350 78.201,103.167 78.333 C 102.983 78.465,102.833 78.707,102.833 78.870 C 102.833 79.033,102.758 79.167,102.667 79.167 C 102.575 79.167,102.500 79.265,102.500 79.385 C 102.500 79.505,102.369 79.749,102.208 79.927 C 102.048 80.105,101.810 80.456,101.680 80.708 C 101.550 80.960,101.381 81.167,101.305 81.167 C 101.229 81.167,101.167 81.282,101.167 81.424 C 101.167 81.565,101.017 81.842,100.833 82.038 C 100.650 82.235,100.500 82.495,100.500 82.615 C 100.500 82.735,100.425 82.833,100.333 82.833 C 100.242 82.833,100.167 82.932,100.167 83.052 C 100.167 83.172,100.035 83.416,99.875 83.594 C 99.715 83.771,99.477 84.123,99.347 84.375 C 99.217 84.627,99.048 84.833,98.972 84.833 C 98.896 84.833,98.833 84.983,98.833 85.167 C 98.833 85.350,98.771 85.500,98.695 85.500 C 98.619 85.500,98.450 85.706,98.320 85.958 C 98.190 86.210,97.952 86.562,97.792 86.740 C 97.631 86.917,97.500 87.161,97.500 87.281 C 97.500 87.402,97.425 87.500,97.333 87.500 C 97.242 87.500,97.167 87.598,97.167 87.719 C 97.167 87.839,97.017 88.098,96.833 88.295 C 96.650 88.492,96.500 88.768,96.500 88.910 C 96.500 89.051,96.438 89.167,96.361 89.167 C 96.285 89.167,96.117 89.373,95.987 89.625 C 95.857 89.877,95.688 90.129,95.612 90.185 C 95.298 90.414,95.465 93.427,95.827 94.072 C 96.421 95.129,97.322 95.833,98.081 95.833 C 98.311 95.833,98.500 95.908,98.500 96.000 C 98.500 96.092,98.908 96.167,99.407 96.167 C 99.906 96.167,100.360 96.092,100.417 96.000 C 100.473 95.908,100.740 95.833,101.010 95.833 C 101.279 95.833,101.500 95.758,101.500 95.667 C 101.500 95.575,101.621 95.500,101.769 95.500 C 102.080 95.500,103.167 94.374,103.167 94.051 C 103.167 93.931,103.229 93.833,103.305 93.833 C 103.381 93.833,103.550 93.627,103.680 93.375 C 103.810 93.123,104.048 92.771,104.208 92.594 C 104.369 92.416,104.500 92.172,104.500 92.052 C 104.500 91.932,104.562 91.833,104.639 91.833 C 104.715 91.833,104.883 91.627,105.014 91.375 C 105.144 91.123,105.381 90.771,105.542 90.594 C 105.702 90.416,105.833 90.172,105.833 90.052 C 105.833 89.932,105.908 89.833,106.000 89.833 C 106.092 89.833,106.167 89.735,106.167 89.615 C 106.167 89.495,106.298 89.251,106.458 89.073 C 106.619 88.895,106.856 88.544,106.986 88.292 C 107.117 88.040,107.285 87.833,107.361 87.833 C 107.438 87.833,107.500 87.753,107.500 87.655 C 107.500 87.444,108.504 85.941,108.699 85.861 C 108.773 85.831,108.833 85.678,108.833 85.523 C 108.833 85.367,108.983 85.132,109.167 85.000 C 109.350 84.868,109.500 84.626,109.500 84.463 C 109.500 84.300,109.562 84.167,109.639 84.167 C 109.715 84.167,109.883 83.960,110.014 83.708 C 110.144 83.456,110.381 83.105,110.542 82.927 C 110.702 82.749,110.833 82.540,110.833 82.462 C 110.833 82.383,110.983 82.158,111.167 81.962 C 111.350 81.765,111.500 81.505,111.500 81.385 C 111.500 81.265,111.650 81.167,111.833 81.167 C 112.042 81.167,112.167 81.278,112.167 81.463 C 112.167 81.626,112.317 81.868,112.500 82.000 C 112.683 82.132,112.833 82.374,112.833 82.537 C 112.833 82.700,112.896 82.833,112.972 82.833 C 113.048 82.833,113.217 83.040,113.347 83.292 C 113.477 83.544,113.715 83.895,113.875 84.073 C 114.035 84.251,114.167 84.460,114.167 84.538 C 114.167 84.617,114.317 84.842,114.500 85.038 C 114.683 85.235,114.833 85.495,114.833 85.615 C 114.833 85.735,114.908 85.833,115.000 85.833 C 115.092 85.833,115.167 85.932,115.167 86.052 C 115.167 86.172,115.317 86.431,115.500 86.628 C 115.683 86.825,115.833 87.085,115.833 87.206 C 115.833 87.327,115.983 87.535,116.167 87.667 C 116.350 87.799,116.500 88.006,116.500 88.127 C 116.500 88.248,116.650 88.508,116.833 88.705 C 117.017 88.902,117.167 89.161,117.167 89.281 C 117.167 89.402,117.242 89.500,117.333 89.500 C 117.425 89.500,117.500 89.598,117.500 89.719 C 117.500 89.839,117.631 90.083,117.792 90.260 C 117.952 90.438,118.190 90.790,118.320 91.042 C 118.450 91.294,118.619 91.500,118.695 91.500 C 118.771 91.500,118.833 91.598,118.833 91.719 C 118.833 91.839,118.983 92.098,119.167 92.295 C 119.350 92.492,119.500 92.752,119.500 92.873 C 119.500 92.994,119.650 93.201,119.833 93.333 C 120.017 93.465,120.167 93.668,120.167 93.783 C 120.167 94.231,121.986 95.833,122.494 95.833 C 122.761 95.833,123.027 95.908,123.083 96.000 C 123.140 96.092,123.590 96.167,124.083 96.167 C 124.577 96.167,125.027 96.092,125.083 96.000 C 125.140 95.908,125.407 95.833,125.677 95.833 C 125.946 95.833,126.167 95.777,126.167 95.707 C 126.167 95.638,126.387 95.484,126.657 95.364 C 126.927 95.245,127.245 94.927,127.364 94.657 C 127.484 94.387,127.638 94.167,127.707 94.167 C 127.777 94.167,127.833 93.984,127.833 93.760 C 127.833 93.536,127.908 93.307,128.000 93.250 C 128.092 93.193,128.167 92.551,128.167 91.823 C 128.167 91.052,128.097 90.500,128.000 90.500 C 127.908 90.500,127.833 90.350,127.833 90.167 C 127.833 89.983,127.758 89.833,127.667 89.833 C 127.575 89.833,127.500 89.735,127.500 89.615 C 127.500 89.495,127.350 89.235,127.167 89.038 C 126.983 88.842,126.833 88.617,126.833 88.538 C 126.833 88.460,126.702 88.247,126.542 88.065 C 126.381 87.882,126.156 87.568,126.042 87.367 C 125.927 87.165,125.740 86.835,125.625 86.633 C 125.510 86.432,125.285 86.118,125.125 85.935 C 124.965 85.753,124.833 85.505,124.833 85.385 C 124.833 85.265,124.758 85.167,124.667 85.167 C 124.575 85.167,124.500 85.068,124.500 84.948 C 124.500 84.828,124.369 84.581,124.208 84.399 C 123.838 83.980,123.340 83.170,123.220 82.792 C 123.169 82.631,123.062 82.500,122.981 82.500 C 122.900 82.500,122.833 82.402,122.833 82.281 C 122.833 82.161,122.683 81.902,122.500 81.705 C 122.317 81.508,122.167 81.283,122.167 81.205 C 122.167 81.127,122.035 80.914,121.875 80.733 C 121.505 80.314,121.007 79.504,120.887 79.125 C 120.836 78.965,120.728 78.833,120.647 78.833 C 120.566 78.833,120.500 78.735,120.500 78.615 C 120.500 78.495,120.350 78.235,120.167 78.038 C 119.983 77.842,119.833 77.599,119.833 77.500 C 119.833 77.401,119.683 77.158,119.500 76.962 C 119.317 76.765,119.167 76.505,119.167 76.385 C 119.167 76.265,119.092 76.167,119.000 76.167 C 118.908 76.167,118.833 76.068,118.833 75.948 C 118.833 75.828,118.702 75.584,118.542 75.406 C 118.381 75.229,118.144 74.877,118.014 74.625 C 117.883 74.373,117.715 74.167,117.639 74.167 C 117.562 74.167,117.500 74.051,117.500 73.910 C 117.500 73.768,117.350 73.492,117.166 73.295 C 116.983 73.098,116.889 72.895,116.958 72.843 C 117.027 72.792,117.177 72.581,117.292 72.375 C 117.809 71.444,117.935 71.247,118.208 70.935 C 118.369 70.753,118.500 70.505,118.500 70.385 C 118.500 70.265,118.575 70.167,118.667 70.167 C 118.758 70.167,118.833 70.068,118.833 69.948 C 118.833 69.828,118.965 69.580,119.125 69.398 C 119.285 69.216,119.510 68.901,119.625 68.700 C 119.740 68.498,119.927 68.168,120.042 67.967 C 120.156 67.765,120.381 67.451,120.542 67.269 C 120.702 67.086,120.833 66.873,120.833 66.795 C 120.833 66.717,120.983 66.492,121.167 66.295 C 121.350 66.098,121.500 65.839,121.500 65.719 C 121.500 65.598,121.575 65.500,121.667 65.500 C 121.758 65.500,121.833 65.402,121.833 65.281 C 121.833 65.161,121.983 64.902,122.167 64.705 C 122.350 64.508,122.500 64.232,122.500 64.090 C 122.500 63.949,122.562 63.833,122.639 63.833 C 122.715 63.833,122.883 63.627,123.014 63.375 C 123.144 63.123,123.381 62.771,123.542 62.594 C 123.702 62.416,123.833 62.172,123.833 62.052 C 123.833 61.932,123.908 61.833,124.000 61.833 C 124.092 61.833,124.167 61.735,124.167 61.615 C 124.167 61.495,124.317 61.235,124.500 61.038 C 124.683 60.842,124.833 60.565,124.833 60.424 C 124.833 60.282,124.896 60.167,124.972 60.167 C 125.048 60.167,125.217 59.960,125.347 59.708 C 125.477 59.456,125.715 59.105,125.875 58.927 C 126.035 58.749,126.167 58.505,126.167 58.385 C 126.167 58.265,126.242 58.167,126.333 58.167 C 126.425 58.167,126.500 58.068,126.500 57.948 C 126.500 57.828,126.650 57.569,126.833 57.372 C 127.017 57.175,127.167 56.898,127.167 56.757 C 127.167 56.616,127.228 56.500,127.302 56.500 C 127.908 56.500,128.545 52.920,128.000 52.583 C 127.908 52.527,127.833 52.335,127.833 52.157 C 127.833 51.979,127.777 51.833,127.707 51.833 C 127.638 51.833,127.484 51.613,127.364 51.343 C 127.245 51.073,126.927 50.755,126.657 50.636 C 126.387 50.516,126.167 50.362,126.167 50.293 C 126.167 50.223,126.017 50.167,125.833 50.167 C 125.650 50.167,125.500 50.092,125.500 50.000 C 125.500 49.902,124.920 49.833,124.093 49.833 C 123.319 49.833,122.640 49.908,122.583 50.000 C 122.527 50.092,122.309 50.167,122.100 50.167 C 121.656 50.167,120.167 51.502,120.167 51.900 C 120.167 52.047,120.104 52.167,120.028 52.167 C 119.952 52.167,119.783 52.373,119.653 52.625 C 119.523 52.877,119.285 53.229,119.125 53.406 C 118.965 53.584,118.833 53.828,118.833 53.948 C 118.833 54.068,118.758 54.167,118.667 54.167 C 118.575 54.167,118.500 54.265,118.500 54.385 C 118.500 54.505,118.369 54.749,118.208 54.927 C 118.048 55.105,117.810 55.456,117.680 55.708 C 117.550 55.960,117.381 56.167,117.305 56.167 C 117.229 56.167,117.167 56.317,117.167 56.500 C 117.167 56.683,117.104 56.833,117.028 56.833 C 116.952 56.833,116.783 57.040,116.653 57.292 C 116.523 57.544,116.285 57.895,116.125 58.073 C 115.965 58.251,115.833 58.495,115.833 58.615 C 115.833 58.735,115.758 58.833,115.667 58.833 C 115.575 58.833,115.500 58.932,115.500 59.052 C 115.500 59.172,115.350 59.431,115.167 59.628 C 114.983 59.825,114.833 60.102,114.833 60.243 C 114.833 60.384,114.771 60.500,114.695 60.500 C 114.619 60.500,114.450 60.706,114.320 60.958 C 114.190 61.210,113.952 61.562,113.792 61.740 C 113.631 61.917,113.500 62.127,113.500 62.205 C 113.500 62.283,113.350 62.508,113.167 62.705 C 112.983 62.902,112.833 63.161,112.833 63.281 C 112.833 63.402,112.758 63.500,112.667 63.500 C 112.575 63.500,112.500 63.598,112.500 63.719 C 112.500 63.839,112.350 64.098,112.167 64.295 C 111.983 64.492,111.833 64.745,111.833 64.858 C 111.833 64.971,111.683 64.902,111.500 64.705 C 111.317 64.508,111.167 64.283,111.167 64.205 C 111.167 64.127,111.035 63.914,110.875 63.733 C 110.505 63.314,110.007 62.504,109.887 62.125 C 109.836 61.965,109.728 61.833,109.647 61.833 C 109.566 61.833,109.500 61.735,109.500 61.615 C 109.500 61.495,109.350 61.235,109.167 61.038 C 108.983 60.842,108.833 60.599,108.833 60.500 C 108.833 60.401,108.683 60.158,108.500 59.962 C 108.317 59.765,108.167 59.505,108.167 59.385 C 108.167 59.265,108.092 59.167,108.000 59.167 C 107.908 59.167,107.833 59.068,107.833 58.948 C 107.833 58.828,107.683 58.569,107.500 58.372 C 107.317 58.175,107.167 57.950,107.167 57.872 C 107.167 57.794,107.035 57.581,106.875 57.399 C 106.505 56.980,106.007 56.170,105.887 55.792 C 105.836 55.631,105.728 55.500,105.647 55.500 C 105.566 55.500,105.500 55.402,105.500 55.281 C 105.500 55.161,105.350 54.902,105.167 54.705 C 104.983 54.508,104.833 54.266,104.833 54.167 C 104.833 54.067,104.683 53.825,104.500 53.628 C 104.317 53.431,104.167 53.172,104.167 53.052 C 104.167 52.932,104.092 52.833,104.000 52.833 C 103.908 52.833,103.833 52.735,103.833 52.615 C 103.833 52.495,103.702 52.251,103.542 52.073 C 103.381 51.895,103.040 51.469,102.783 51.125 C 102.526 50.781,102.208 50.500,102.075 50.500 C 101.942 50.500,101.833 50.425,101.833 50.333 C 101.833 50.242,101.688 50.167,101.510 50.167 C 101.332 50.167,101.140 50.092,101.083 50.000 C 101.027 49.908,100.352 49.833,99.583 49.833 C 98.815 49.833,98.140 49.908,98.083 50.000 M72.417 57.667 C 72.473 57.758,72.811 57.833,73.167 57.833 C 73.523 57.833,73.860 57.908,73.917 58.000 C 73.973 58.092,74.236 58.167,74.500 58.167 C 74.764 58.167,75.027 58.242,75.083 58.333 C 75.140 58.425,75.332 58.500,75.510 58.500 C 75.688 58.500,75.833 58.575,75.833 58.667 C 75.833 58.758,75.939 58.833,76.068 58.833 C 76.345 58.833,77.726 59.528,77.806 59.708 C 77.836 59.777,77.949 59.834,78.056 59.834 C 78.162 59.834,78.512 60.059,78.833 60.333 C 79.154 60.608,79.478 60.833,79.553 60.833 C 79.765 60.834,82.167 63.343,82.167 63.564 C 82.167 63.671,82.317 63.868,82.500 64.000 C 82.683 64.132,82.833 64.374,82.833 64.537 C 82.833 64.700,82.897 64.833,82.974 64.833 C 83.051 64.833,83.284 65.190,83.492 65.625 C 83.700 66.060,83.937 66.547,84.018 66.706 C 84.100 66.865,84.167 67.109,84.167 67.248 C 84.167 67.386,84.242 67.500,84.333 67.500 C 84.425 67.500,84.500 67.575,84.500 67.667 C 84.500 67.777,79.555 67.833,69.999 67.833 C 56.241 67.833,55.505 67.818,55.648 67.542 C 55.731 67.381,56.050 66.725,56.357 66.083 C 56.664 65.442,56.972 64.892,57.041 64.861 C 57.110 64.831,57.167 64.718,57.167 64.611 C 57.167 64.504,57.392 64.154,57.667 63.833 C 57.941 63.512,58.166 63.190,58.166 63.116 C 58.167 62.909,60.103 61.057,60.666 60.724 C 60.941 60.561,61.167 60.369,61.167 60.297 C 61.167 60.225,61.265 60.167,61.385 60.167 C 61.505 60.167,61.765 60.017,61.962 59.833 C 62.158 59.650,62.435 59.500,62.576 59.500 C 62.718 59.500,62.833 59.425,62.833 59.333 C 62.833 59.242,62.983 59.167,63.167 59.167 C 63.350 59.167,63.500 59.092,63.500 59.000 C 63.500 58.908,63.650 58.833,63.833 58.833 C 64.017 58.833,64.167 58.758,64.167 58.667 C 64.167 58.575,64.350 58.500,64.573 58.500 C 64.797 58.500,65.027 58.425,65.083 58.333 C 65.140 58.242,65.365 58.167,65.583 58.167 C 65.802 58.167,66.027 58.092,66.083 58.000 C 66.140 57.908,66.515 57.833,66.917 57.833 C 67.318 57.833,67.693 57.758,67.750 57.667 C 67.810 57.569,68.776 57.500,70.083 57.500 C 71.390 57.500,72.356 57.569,72.417 57.667 M159.250 57.667 C 159.307 57.758,159.682 57.833,160.083 57.833 C 160.485 57.833,160.860 57.908,160.917 58.000 C 160.973 58.092,161.204 58.167,161.429 58.167 C 161.654 58.167,161.968 58.233,162.127 58.314 C 162.286 58.395,162.604 58.534,162.833 58.624 C 163.645 58.940,165.318 59.809,165.500 60.008 C 165.546 60.058,165.846 60.279,166.167 60.498 C 166.878 60.985,169.500 63.620,169.500 63.849 C 169.500 63.940,169.650 64.175,169.833 64.372 C 170.017 64.569,170.167 64.828,170.167 64.948 C 170.167 65.068,170.242 65.167,170.333 65.167 C 170.425 65.167,170.500 65.317,170.500 65.500 C 170.500 65.683,170.575 65.833,170.667 65.833 C 170.758 65.833,170.833 65.983,170.833 66.167 C 170.833 66.350,170.908 66.500,171.000 66.500 C 171.092 66.500,171.167 66.646,171.167 66.823 C 171.167 67.001,171.242 67.193,171.333 67.250 C 171.425 67.307,171.500 67.532,171.500 67.750 C 171.500 67.968,171.575 68.193,171.667 68.250 C 171.758 68.307,171.833 68.607,171.833 68.917 C 171.833 69.227,171.908 69.527,172.000 69.583 C 172.101 69.646,172.167 70.891,172.167 72.760 C 172.167 74.698,172.105 75.833,172.000 75.833 C 171.908 75.833,171.833 76.129,171.833 76.490 C 171.833 76.851,171.758 77.193,171.667 77.250 C 171.575 77.307,171.500 77.536,171.500 77.760 C 171.500 77.984,171.425 78.167,171.333 78.167 C 171.242 78.167,171.167 78.269,171.167 78.393 C 171.167 78.667,170.135 80.727,169.958 80.806 C 169.890 80.836,169.833 80.953,169.833 81.066 C 169.833 81.178,169.700 81.416,169.537 81.594 C 169.374 81.771,169.057 82.179,168.832 82.500 C 168.308 83.246,167.573 83.980,166.833 84.495 C 166.512 84.718,166.137 85.017,166.000 85.160 C 165.862 85.302,165.544 85.525,165.292 85.654 C 165.040 85.784,164.833 85.952,164.833 86.028 C 164.833 86.104,164.683 86.167,164.500 86.167 C 164.317 86.167,164.167 86.242,164.167 86.333 C 164.167 86.425,164.017 86.500,163.833 86.500 C 163.650 86.500,163.500 86.575,163.500 86.667 C 163.500 86.758,163.354 86.833,163.177 86.833 C 162.999 86.833,162.807 86.908,162.750 87.000 C 162.693 87.092,162.464 87.167,162.240 87.167 C 162.016 87.167,161.833 87.242,161.833 87.333 C 161.833 87.425,161.575 87.500,161.260 87.500 C 160.944 87.500,160.640 87.575,160.583 87.667 C 160.527 87.758,160.152 87.833,159.750 87.833 C 159.348 87.833,158.973 87.908,158.917 88.000 C 158.858 88.095,158.026 88.167,156.990 88.167 C 155.886 88.167,155.167 88.101,155.167 88.000 C 155.167 87.908,154.796 87.833,154.343 87.833 C 153.890 87.833,153.473 87.758,153.417 87.667 C 153.360 87.575,153.056 87.500,152.740 87.500 C 152.425 87.500,152.167 87.425,152.167 87.333 C 152.167 87.242,151.984 87.167,151.760 87.167 C 151.536 87.167,151.307 87.092,151.250 87.000 C 151.193 86.908,151.001 86.833,150.823 86.833 C 150.646 86.833,150.500 86.758,150.500 86.667 C 150.500 86.575,150.350 86.500,150.167 86.500 C 149.983 86.500,149.833 86.434,149.833 86.353 C 149.833 86.272,149.702 86.164,149.542 86.113 C 149.135 85.984,148.300 85.467,148.000 85.159 C 147.863 85.017,147.487 84.720,147.167 84.499 C 146.544 84.070,145.171 82.667,145.168 82.457 C 145.167 82.387,144.942 82.095,144.667 81.807 C 144.392 81.519,144.167 81.189,144.167 81.073 C 144.167 80.956,144.110 80.836,144.041 80.806 C 143.972 80.775,143.664 80.225,143.357 79.583 C 143.050 78.942,142.731 78.286,142.649 78.127 C 142.567 77.968,142.500 77.687,142.500 77.502 C 142.500 77.318,142.425 77.167,142.333 77.167 C 142.242 77.167,142.167 76.871,142.167 76.510 C 142.167 76.149,142.092 75.807,142.000 75.750 C 141.899 75.688,141.833 74.498,141.833 72.740 C 141.833 70.913,141.895 69.833,142.000 69.833 C 142.092 69.833,142.167 69.533,142.167 69.167 C 142.167 68.800,142.242 68.500,142.333 68.500 C 142.425 68.500,142.500 68.275,142.500 68.000 C 142.500 67.725,142.575 67.500,142.667 67.500 C 142.758 67.500,142.833 67.386,142.833 67.248 C 142.833 66.979,142.946 66.714,143.402 65.917 C 143.559 65.642,143.729 65.285,143.780 65.125 C 143.831 64.965,143.938 64.833,144.019 64.833 C 144.100 64.833,144.167 64.700,144.167 64.537 C 144.167 64.374,144.317 64.132,144.500 64.000 C 144.683 63.868,144.833 63.671,144.833 63.564 C 144.833 63.343,147.235 60.834,147.447 60.833 C 147.522 60.833,147.846 60.608,148.167 60.333 C 148.487 60.059,148.844 59.834,148.958 59.834 C 149.073 59.834,149.167 59.758,149.167 59.667 C 149.167 59.575,149.317 59.500,149.500 59.500 C 149.683 59.500,149.833 59.425,149.833 59.333 C 149.833 59.242,149.983 59.167,150.167 59.167 C 150.350 59.167,150.500 59.092,150.500 59.000 C 150.500 58.908,150.650 58.833,150.833 58.833 C 151.017 58.833,151.167 58.758,151.167 58.667 C 151.167 58.575,151.350 58.500,151.573 58.500 C 151.797 58.500,152.027 58.425,152.083 58.333 C 152.140 58.242,152.365 58.167,152.583 58.167 C 152.802 58.167,153.027 58.092,153.083 58.000 C 153.140 57.908,153.515 57.833,153.917 57.833 C 154.318 57.833,154.693 57.758,154.750 57.667 C 154.810 57.570,155.748 57.500,157.000 57.500 C 158.252 57.500,159.190 57.570,159.250 57.667 M211.750 57.667 C 211.807 57.758,212.144 57.833,212.500 57.833 C 212.856 57.833,213.193 57.908,213.250 58.000 C 213.307 58.092,213.611 58.167,213.927 58.167 C 214.242 58.167,214.500 58.242,214.500 58.333 C 214.500 58.425,214.614 58.500,214.752 58.500 C 214.891 58.500,215.135 58.566,215.294 58.646 C 215.453 58.726,215.883 58.938,216.250 59.117 C 217.187 59.573,217.681 59.871,218.065 60.208 C 218.247 60.369,218.460 60.500,218.537 60.500 C 218.716 60.500,221.500 63.271,221.500 63.450 C 221.501 63.523,221.725 63.846,222.000 64.167 C 222.275 64.487,222.499 64.844,222.500 64.958 C 222.500 65.073,222.575 65.167,222.667 65.167 C 222.758 65.167,222.833 65.317,222.833 65.500 C 222.833 65.683,222.908 65.833,223.000 65.833 C 223.092 65.833,223.167 65.983,223.167 66.167 C 223.167 66.350,223.242 66.500,223.333 66.500 C 223.425 66.500,223.500 66.646,223.500 66.823 C 223.500 67.001,223.575 67.193,223.667 67.250 C 224.583 67.817,224.174 67.833,209.446 67.833 L 195.058 67.833 195.131 67.333 C 195.171 67.058,195.271 66.833,195.352 66.833 C 195.434 66.833,195.500 66.736,195.500 66.617 C 195.500 66.310,195.892 65.503,196.042 65.501 C 196.110 65.501,196.167 65.350,196.167 65.167 C 196.167 64.983,196.229 64.833,196.305 64.833 C 196.381 64.833,196.550 64.627,196.679 64.375 C 196.808 64.123,197.046 63.795,197.207 63.647 C 197.368 63.499,197.500 63.311,197.500 63.230 C 197.500 63.013,198.672 61.805,199.429 61.241 C 199.789 60.973,200.196 60.640,200.333 60.501 C 200.471 60.362,200.790 60.142,201.042 60.012 C 201.294 59.883,201.500 59.715,201.500 59.639 C 201.500 59.562,201.650 59.500,201.833 59.500 C 202.017 59.500,202.167 59.425,202.167 59.333 C 202.167 59.242,202.317 59.167,202.500 59.167 C 202.683 59.167,202.833 59.092,202.833 59.000 C 202.833 58.908,202.983 58.833,203.167 58.833 C 203.350 58.833,203.500 58.758,203.500 58.667 C 203.500 58.575,203.725 58.500,204.000 58.500 C 204.275 58.500,204.500 58.425,204.500 58.333 C 204.500 58.242,204.721 58.167,204.990 58.167 C 205.260 58.167,205.527 58.092,205.583 58.000 C 205.640 57.908,206.019 57.833,206.427 57.833 C 206.834 57.833,207.167 57.758,207.167 57.667 C 207.167 57.564,208.024 57.500,209.407 57.500 C 210.720 57.500,211.690 57.569,211.750 57.667 M309.917 57.667 C 309.973 57.758,310.353 57.833,310.760 57.833 C 311.167 57.833,311.500 57.908,311.500 58.000 C 311.500 58.092,311.721 58.167,311.990 58.167 C 312.260 58.167,312.527 58.242,312.583 58.333 C 312.640 58.425,312.817 58.500,312.977 58.500 C 313.341 58.500,314.164 58.875,314.165 59.042 C 314.166 59.110,314.264 59.167,314.383 59.167 C 314.690 59.167,315.497 59.559,315.499 59.708 C 315.499 59.777,315.594 59.834,315.708 59.834 C 315.823 59.834,316.179 60.059,316.500 60.333 C 316.821 60.608,317.141 60.833,317.211 60.833 C 317.378 60.833,319.500 62.955,319.501 63.122 C 319.501 63.192,319.726 63.490,320.001 63.783 C 320.275 64.076,320.500 64.432,320.500 64.574 C 320.500 64.717,320.563 64.833,320.640 64.833 C 320.718 64.833,320.952 65.190,321.160 65.625 C 321.369 66.060,321.681 66.705,321.853 67.057 C 322.026 67.410,322.167 67.879,322.167 68.099 C 322.167 68.320,322.242 68.500,322.333 68.500 C 322.425 68.500,322.500 68.758,322.500 69.073 C 322.500 69.389,322.575 69.693,322.667 69.750 C 322.768 69.812,322.833 71.030,322.833 72.843 C 322.833 74.726,322.772 75.833,322.667 75.833 C 322.575 75.833,322.500 76.129,322.500 76.490 C 322.500 76.851,322.425 77.193,322.333 77.250 C 322.242 77.307,322.167 77.536,322.167 77.760 C 322.167 77.984,322.092 78.167,322.000 78.167 C 321.908 78.167,321.833 78.280,321.833 78.419 C 321.833 78.688,321.720 78.952,321.265 79.750 C 321.108 80.025,320.938 80.381,320.887 80.542 C 320.836 80.702,320.728 80.833,320.647 80.833 C 320.566 80.833,320.500 80.932,320.500 81.052 C 320.500 81.172,320.367 81.416,320.204 81.594 C 320.041 81.771,319.723 82.179,319.498 82.500 C 319.001 83.209,318.284 83.929,317.470 84.539 C 317.136 84.790,316.762 85.090,316.639 85.206 C 316.517 85.322,316.210 85.523,315.958 85.653 C 315.706 85.783,315.500 85.952,315.500 86.028 C 315.500 86.104,315.350 86.167,315.167 86.167 C 314.983 86.167,314.833 86.242,314.833 86.333 C 314.833 86.425,314.683 86.500,314.500 86.500 C 314.317 86.500,314.167 86.575,314.167 86.667 C 314.167 86.758,314.053 86.833,313.914 86.833 C 313.776 86.833,313.513 86.908,313.331 87.000 C 313.149 87.092,312.851 87.242,312.669 87.333 C 312.487 87.425,312.116 87.500,311.845 87.500 C 311.575 87.500,311.307 87.575,311.250 87.667 C 311.193 87.758,310.818 87.833,310.417 87.833 C 310.015 87.833,309.640 87.908,309.583 88.000 C 309.525 88.095,308.696 88.167,307.667 88.167 C 306.637 88.167,305.808 88.095,305.750 88.000 C 305.693 87.908,305.318 87.833,304.917 87.833 C 304.515 87.833,304.140 87.758,304.083 87.667 C 304.027 87.575,303.722 87.500,303.407 87.500 C 303.091 87.500,302.833 87.425,302.833 87.333 C 302.833 87.242,302.650 87.167,302.427 87.167 C 302.203 87.167,301.973 87.092,301.917 87.000 C 301.860 86.908,301.668 86.833,301.490 86.833 C 301.312 86.833,301.167 86.758,301.167 86.667 C 301.167 86.575,301.017 86.500,300.833 86.500 C 300.650 86.500,300.500 86.434,300.500 86.353 C 300.500 86.272,300.369 86.164,300.208 86.113 C 299.801 85.984,298.966 85.467,298.667 85.159 C 298.529 85.017,298.154 84.720,297.833 84.499 C 297.172 84.043,296.490 83.354,295.852 82.500 C 295.613 82.179,295.285 81.771,295.125 81.594 C 294.965 81.416,294.833 81.178,294.833 81.066 C 294.833 80.953,294.777 80.836,294.708 80.806 C 294.638 80.775,294.331 80.225,294.023 79.583 C 293.716 78.942,293.398 78.286,293.316 78.127 C 293.234 77.968,293.167 77.687,293.167 77.502 C 293.167 77.318,293.092 77.167,293.000 77.167 C 292.908 77.167,292.833 76.867,292.833 76.500 C 292.833 76.133,292.758 75.833,292.667 75.833 C 292.562 75.833,292.500 74.722,292.500 72.833 C 292.500 70.944,292.562 69.833,292.667 69.833 C 292.758 69.833,292.833 69.533,292.833 69.167 C 292.833 68.800,292.908 68.500,293.000 68.500 C 293.092 68.500,293.167 68.275,293.167 68.000 C 293.167 67.725,293.242 67.500,293.333 67.500 C 293.425 67.500,293.500 67.352,293.500 67.172 C 293.500 66.991,293.662 66.560,293.859 66.213 C 294.056 65.867,294.375 65.283,294.567 64.917 C 294.759 64.550,295.048 64.129,295.208 63.980 C 295.369 63.832,295.500 63.634,295.500 63.539 C 295.500 63.335,297.916 60.834,298.114 60.833 C 298.189 60.833,298.512 60.608,298.833 60.333 C 299.154 60.059,299.510 59.834,299.625 59.834 C 299.740 59.834,299.833 59.758,299.833 59.667 C 299.833 59.575,299.983 59.500,300.167 59.500 C 300.350 59.500,300.500 59.425,300.500 59.333 C 300.500 59.242,300.650 59.167,300.833 59.167 C 301.017 59.167,301.167 59.092,301.167 59.000 C 301.167 58.908,301.317 58.833,301.500 58.833 C 301.683 58.833,301.833 58.758,301.833 58.667 C 301.833 58.575,302.016 58.500,302.240 58.500 C 302.464 58.500,302.693 58.425,302.750 58.333 C 302.807 58.242,303.074 58.167,303.343 58.167 C 303.613 58.167,303.833 58.092,303.833 58.000 C 303.833 57.908,304.166 57.833,304.573 57.833 C 304.981 57.833,305.360 57.758,305.417 57.667 C 305.477 57.570,306.415 57.500,307.667 57.500 C 308.918 57.500,309.857 57.570,309.917 57.667 M383.367 87.367 C 382.682 88.051,383.432 89.167,384.577 89.167 L 385.167 89.167 385.172 92.375 C 385.178 96.100,385.215 96.218,386.359 96.135 L 387.083 96.083 387.128 92.625 L 387.173 89.167 387.897 89.167 C 388.457 89.167,388.721 89.067,389.061 88.727 L 389.500 88.288 389.500 91.777 C 389.500 95.987,389.557 96.199,390.667 96.130 L 391.417 96.083 391.464 94.118 C 391.493 92.906,391.572 92.192,391.672 92.253 C 391.761 92.308,391.833 92.536,391.833 92.760 C 391.833 92.984,391.908 93.167,392.000 93.167 C 392.092 93.167,392.167 93.392,392.167 93.667 C 392.167 93.942,392.242 94.167,392.333 94.167 C 392.425 94.167,392.500 94.392,392.500 94.667 C 392.500 94.942,392.575 95.167,392.667 95.167 C 392.758 95.167,392.833 95.285,392.833 95.429 C 392.833 95.863,393.274 96.167,393.905 96.167 C 394.390 96.167,394.500 96.105,394.500 95.831 C 394.500 95.646,394.575 95.346,394.667 95.164 C 394.758 94.982,394.908 94.684,395.000 94.502 C 395.092 94.320,395.167 94.025,395.167 93.845 C 395.167 93.666,395.242 93.473,395.333 93.417 C 395.425 93.360,395.500 93.135,395.500 92.917 C 395.500 92.698,395.573 92.475,395.661 92.420 C 395.760 92.359,395.840 93.045,395.869 94.202 L 395.917 96.083 396.667 96.130 C 397.778 96.199,397.833 95.990,397.833 91.742 C 397.833 87.398,397.764 87.167,396.465 87.167 C 395.548 87.167,395.182 87.438,395.172 88.125 C 395.169 88.331,395.092 88.500,395.000 88.500 C 394.908 88.500,394.833 88.725,394.833 89.000 C 394.833 89.275,394.758 89.500,394.667 89.500 C 394.575 89.500,394.500 89.725,394.500 90.000 C 394.500 90.275,394.425 90.500,394.333 90.500 C 394.242 90.500,394.167 90.672,394.167 90.883 C 394.167 91.094,394.098 91.338,394.014 91.425 C 393.930 91.512,393.831 91.771,393.793 92.000 C 393.731 92.384,393.716 92.391,393.600 92.083 C 393.532 91.900,393.406 91.620,393.321 91.461 C 393.236 91.301,393.167 91.025,393.167 90.845 C 393.167 90.666,393.092 90.473,393.000 90.417 C 392.908 90.360,392.833 90.135,392.833 89.917 C 392.833 89.698,392.758 89.473,392.667 89.417 C 392.575 89.360,392.500 89.131,392.500 88.907 C 392.500 88.683,392.425 88.500,392.333 88.500 C 392.242 88.500,392.164 88.331,392.161 88.125 C 392.147 87.116,390.185 86.659,389.833 87.583 C 389.746 87.813,389.599 88.000,389.507 88.000 C 389.415 88.000,389.293 87.813,389.235 87.583 L 389.131 87.167 386.349 87.167 C 384.407 87.167,383.506 87.227,383.367 87.367 " stroke="none" fill="#24448c" fill-rule="evenodd"></path><path id="path4" d="M48.918 2.331 C 48.861 2.424,48.630 2.500,48.405 2.500 C 48.180 2.500,47.865 2.567,47.706 2.648 C 47.547 2.730,47.060 2.967,46.625 3.175 C 46.190 3.382,45.833 3.616,45.833 3.693 C 45.833 3.770,45.740 3.834,45.625 3.834 C 45.322 3.836,43.833 5.290,43.833 5.584 C 43.833 5.721,43.758 5.833,43.667 5.833 C 43.575 5.833,43.500 5.932,43.500 6.052 C 43.500 6.172,43.350 6.431,43.167 6.628 C 42.983 6.825,42.833 7.162,42.833 7.376 C 42.833 7.591,42.759 7.841,42.669 7.931 C 42.523 8.077,42.412 26.267,42.552 27.000 C 42.788 28.237,45.465 31.833,46.150 31.833 C 46.253 31.833,46.506 31.920,46.711 32.026 C 47.493 32.430,47.670 32.500,47.914 32.500 C 48.053 32.500,48.167 32.575,48.167 32.667 C 48.167 32.896,66.775 32.896,66.917 32.667 C 66.973 32.575,67.278 32.500,67.593 32.500 C 67.909 32.500,68.167 32.425,68.167 32.333 C 68.167 32.242,68.317 32.167,68.500 32.167 C 68.683 32.167,68.833 32.092,68.833 32.000 C 68.833 31.908,68.936 31.833,69.062 31.833 C 69.307 31.833,71.372 30.069,71.483 29.765 C 71.520 29.665,71.595 29.546,71.650 29.500 C 71.847 29.336,72.167 28.667,72.167 28.419 C 72.167 28.280,72.242 28.167,72.333 28.167 C 72.425 28.167,72.500 27.984,72.500 27.760 C 72.500 27.536,72.575 27.307,72.667 27.250 C 72.758 27.193,72.833 26.856,72.833 26.500 C 72.833 26.144,72.910 25.806,73.003 25.748 C 73.214 25.618,73.222 9.167,73.012 9.167 C 72.933 9.167,72.829 8.885,72.781 8.542 C 72.662 7.690,72.471 6.934,72.350 6.833 C 72.096 6.622,71.688 5.699,71.796 5.580 C 71.862 5.507,71.823 5.501,71.708 5.566 C 71.594 5.633,71.500 5.601,71.500 5.497 C 71.500 5.275,70.286 4.118,69.625 3.711 C 69.373 3.555,69.167 3.369,69.167 3.297 C 69.167 3.225,69.017 3.167,68.833 3.167 C 68.650 3.167,68.500 3.092,68.500 3.000 C 68.500 2.908,68.349 2.833,68.164 2.833 C 67.980 2.833,67.661 2.747,67.456 2.641 C 67.251 2.535,66.957 2.387,66.803 2.313 C 66.377 2.108,49.045 2.125,48.918 2.331 " stroke="none" fill="#3c6cb4" fill-rule="evenodd"></path></g></svg>