<?xml version="1.0" encoding="utf-8"?>
<!-- Generator: Adobe Illustrator 22.0.1, SVG Export Plug-In . SVG Version: 6.00 Build 0)  -->
<svg version="1.1" id="Layer_1" xmlns="http://www.w3.org/2000/svg" xmlns:xlink="http://www.w3.org/1999/xlink" x="0px" y="0px"
	 viewBox="0 0 298 96.4" style="enable-background:new 0 0 298 96.4;" xml:space="preserve">
<style type="text/css">
	.st0{fill:#0E6EB6;}
	.st1{fill:#72217B;}
	.st2{fill:#B12384;}
	.st3{fill:#E72887;}
	.st4{fill:#004691;}
</style>
<g id="Artwork">
	<g>
		<g>
			<path class="st0" d="M47.1,22.7H36.2c-3.3,0-5.9-2.6-5.9-5.9V5.9c0-3.2,2.6-5.9,5.9-5.9h10.9C50.3,0,53,2.6,53,5.9v10.9
				C53,20.1,50.4,22.7,47.1,22.7"/>
			<path class="st1" d="M18.8,47.2H6.6c-3.7,0-6.6-3-6.6-6.6V28.3c0-3.6,3-6.6,6.6-6.6h12.3c3.7,0,6.6,3,6.6,6.6v12.3
				C25.5,44.3,22.5,47.2,18.8,47.2"/>
			<path class="st2" d="M17.7,72.7h-7.5c-2.2,0-4-1.8-4-4v-7.5c0-2.2,1.8-4,4-4h7.5c2.2,0,4,1.8,4,4v7.5
				C21.7,70.9,19.9,72.7,17.7,72.7"/>
			<path class="st3" d="M37.8,96.4h-8.9c-2.6,0-4.8-2.1-4.8-4.8v-8.9c0-2.6,2.1-4.8,4.8-4.8h8.9c2.6,0,4.8,2.1,4.8,4.8v8.9
				C42.6,94.3,40.5,96.4,37.8,96.4"/>
			<path class="st3" d="M70.3,27.2h-6.1c-1.8,0-3.3-1.5-3.3-3.3v-6.1c0-1.8,1.5-3.3,3.3-3.3h6.1c1.8,0,3.3,1.5,3.3,3.3v6.1
				C73.7,25.7,72.2,27.2,70.3,27.2"/>
			<path class="st4" d="M204.9,31.3c2,0,3.5-1.6,3.5-3.5c0-2-1.6-3.5-3.5-3.5c-2,0-3.6,1.6-3.6,3.5S202.9,31.3,204.9,31.3z"/>
			<path class="st4" d="M75.6,69.1c-0.5,0.8-1.4,1.2-2.4,1.2c-0.5,0-1.2-0.1-1.6-0.4c-0.8-0.5-1.3-1.5-1.3-2.5c0-0.5,0.1-1,0.4-1.4
				l8.2-12.9l-8.2-12.9c-0.3-0.4-0.4-1-0.4-1.4c0-1,0.5-2,1.4-2.5c0.5-0.3,1-0.4,1.5-0.4c1,0,1.9,0.4,2.5,1.2l6.7,10.6l6.8-10.6
				c0.5-0.8,1.5-1.2,2.5-1.2c0.5,0,1,0.1,1.5,0.4c0.9,0.5,1.4,1.5,1.4,2.5c0,0.5-0.1,1-0.4,1.4L86,53.1L94.2,66
				c0.3,0.4,0.4,0.9,0.4,1.4c0,1-0.5,2.1-1.3,2.5c-0.5,0.3-1.1,0.4-1.6,0.4c-1,0-1.8-0.4-2.4-1.2l-6.8-10.5L75.6,69.1z"/>
			<path class="st4" d="M104.9,39.8c3.1-2.8,7.3-4.5,11.8-4.5c9.9,0,17.7,7.9,17.7,17.7c0,9.7-7.9,17.6-17.7,17.6
				c-4.5,0-8.7-1.7-11.8-4.5v15.1c0,1.5-1.4,2.8-2.9,2.8c-1.4,0-2.9-1.3-2.9-2.8V38.4c0-1.5,1.4-2.8,2.9-2.8c1.6,0,2.9,1.3,2.9,2.8
				V39.8z M116.6,41.2c-6.6,0-11.8,5.2-11.8,11.8c0,6.6,5.2,11.8,11.8,11.8s11.8-5.2,11.8-11.8C128.5,46.4,123.3,41.2,116.6,41.2z"
				/>
			<path class="st4" d="M184.5,49.8v17.7c0,1.5-1.4,2.8-2.9,2.8c-1.6,0-2.9-1.3-2.9-2.8V38.4c0-1.5,1.4-2.8,2.9-2.8
				c1.4,0,2.8,1.2,2.9,2.7c2.4-1.8,5.5-2.9,8.8-2.9c1.8,0,3.2,1.4,3.2,2.9c0,1.6-1.4,3-3.2,3C188.8,41.4,184.5,43,184.5,49.8z"/>
			<path class="st4" d="M204.9,35.6c-1.6,0-2.9,1.3-2.9,2.8v29.2c0,1.5,1.4,2.8,2.9,2.8c1.4,0,2.9-1.3,2.9-2.8V38.4
				C207.8,36.9,206.4,35.6,204.9,35.6z"/>
			<path class="st4" d="M242.1,38.4c0-1.5,1.4-2.8,2.9-2.8c1.4,0,2.9,1.3,2.9,2.8v29.2c0,1.5-1.4,2.8-2.9,2.8
				c-1.6,0-2.9-1.3-2.9-2.8v-1.4c-3.2,2.8-7.3,4.5-11.8,4.5c-9.9,0-17.7-7.9-17.7-17.7c0-9.7,7.9-17.6,17.7-17.6
				c4.5,0,8.6,1.7,11.8,4.5V38.4z M230.3,64.8c6.6,0,11.8-5.2,11.8-11.8c0-6.6-5.2-11.8-11.8-11.8c-6.6,0-11.8,5.2-11.8,11.8
				S223.7,64.8,230.3,64.8z"/>
			<path class="st4" d="M277.6,50.2c0-4.9-4.2-9.1-9.1-9.1c-4.7,0-9.1,1.9-9.1,8.8v17.7c0,1.5-1.4,2.8-2.9,2.8
				c-1.6,0-2.9-1.3-2.9-2.8V38.4c0-1.5,1.4-2.8,2.9-2.8c1.4,0,2.8,1.2,2.9,2.7c2.5-1.9,5.6-2.9,9-2.9c7.9,0,15,6.2,15,14v18.2
				c0,1.5-1.4,2.8-2.9,2.8c-1.6,0-2.9-1.3-2.9-2.8V50.2z"/>
			<path class="st4" d="M68.6,52c-0.1-9-8.1-16.6-17.6-16.6c-9.9,0-17.7,7.9-17.7,17.6c0,9.9,7.9,17.7,17.7,17.7
				c4.7,0,9.1-1.8,12.3-5c0.6-0.5,1-1.4,1-2.2c0-1.6-1.4-2.9-2.9-2.9c-0.9,0-1.7,0.5-2.3,1.2c-2,2.1-4.9,3.1-8,3.1
				c-5.9,0-10.7-4-11.7-9.6h26.4c0,0,0,0,0.1,0H66h0.1c0.1,0,0.2,0,0.3-0.1C67.6,54.7,68.6,53.5,68.6,52z M51,41.2
				c5.3,0,9.7,3.4,11.2,8.2H39.7C41.2,44.6,45.6,41.2,51,41.2z"/>
			<path class="st4" d="M173.8,52c-0.1-9-8.2-16.6-17.6-16.6c-9.9,0-17.7,7.9-17.7,17.6c0,9.9,7.9,17.7,17.7,17.7
				c4.7,0,9.1-1.8,12.3-5c0.6-0.5,1-1.4,1-2.2c0-1.6-1.4-2.9-2.9-2.9c-0.9,0-1.7,0.5-2.3,1.2c-2,2.1-4.9,3.1-8,3.1
				c-5.9,0-10.7-4-11.7-9.6H171c0,0,0,0,0.1,0h0.1c0.1,0,0.2,0,0.2,0h0.1C172.7,54.8,173.8,53.5,173.8,52z M156.2,41.2
				c5.3,0,9.7,3.4,11.2,8.2h-22.5C146.4,44.6,150.8,41.2,156.2,41.2z"/>
		</g>
		<g>
			<g>
				<path class="st4" d="M289.6,70.4c-0.3,0-0.5-0.2-0.5-0.5V65H288c-0.3,0-0.5-0.2-0.5-0.5s0.2-0.5,0.5-0.5h3.2
					c0.3,0,0.5,0.2,0.5,0.5s-0.2,0.5-0.5,0.5h-1.1v4.9C290.1,70.2,289.9,70.4,289.6,70.4z"/>
			</g>
			<g>
				<path class="st4" d="M295.3,70.4c-0.3,0-0.4-0.2-0.5-0.4l-1.4-4v3.9c0,0.3-0.2,0.5-0.5,0.5s-0.5-0.2-0.5-0.5v-5.2
					c0-0.4,0.3-0.7,0.7-0.7c0.3,0,0.6,0.2,0.7,0.5l1.4,4.1l1.4-4.1c0.1-0.3,0.4-0.5,0.7-0.5c0.4,0,0.7,0.3,0.7,0.7v5.2
					c0,0.3-0.2,0.5-0.5,0.5s-0.5-0.2-0.5-0.5V66c-0.2,0.6-0.5,1.6-0.8,2.4c-0.5,1.6-0.6,1.6-0.6,1.6
					C295.7,70.3,295.5,70.4,295.3,70.4z"/>
			</g>
		</g>
	</g>
</g>
</svg>
