<svg  xmlns="http://www.w3.org/2000/svg" viewBox="0 0 75.86 96.38"><defs><style>.cls-1{fill:#406eb3;}.cls-2{fill:#632678;}.cls-3{fill:#982881;}.cls-4{fill:#ba2f7d;}.cls-5{fill:#26478d;}</style></defs><title>Experian ABM TM RGB</title><path class="cls-1" d="M59.91,35.43H49a5.88,5.88,0,0,1-5.88-5.88V18.63A5.88,5.88,0,0,1,49,12.76H59.91a5.88,5.88,0,0,1,5.88,5.88V29.55a5.88,5.88,0,0,1-5.88,5.88" transform="translate(-12.76 -12.76)"/><path class="cls-2" d="M31.66,59.92H19.37a6.61,6.61,0,0,1-6.61-6.61V41a6.61,6.61,0,0,1,6.61-6.61H31.66A6.61,6.61,0,0,1,38.27,41V53.31a6.61,6.61,0,0,1-6.61,6.61" transform="translate(-12.76 -12.76)"/><path class="cls-3" d="M30.49,85.42H23a4,4,0,0,1-4-4v-7.5a4,4,0,0,1,4-4h7.5a4,4,0,0,1,4,4v7.5a4,4,0,0,1-4,4" transform="translate(-12.76 -12.76)"/><path class="cls-4" d="M50.64,109.13H41.76A4.77,4.77,0,0,1,37,104.36V95.48a4.77,4.77,0,0,1,4.78-4.78h8.87a4.77,4.77,0,0,1,4.78,4.78v8.87a4.77,4.77,0,0,1-4.78,4.77" transform="translate(-12.76 -12.76)"/><path class="cls-4" d="M83.15,39.9H77a3.31,3.31,0,0,1-3.31-3.3V30.46A3.31,3.31,0,0,1,77,27.15h6.15a3.31,3.31,0,0,1,3.3,3.31V36.6a3.3,3.3,0,0,1-3.3,3.3" transform="translate(-12.76 -12.76)"/><path class="cls-5" d="M81.4,64.68C81.27,55.71,73.26,48,63.8,48a17.67,17.67,0,1,0,0,35.34,17.29,17.29,0,0,0,12.26-5,2.92,2.92,0,0,0-1.92-5.14,3.48,3.48,0,0,0-2.33,1.16,10.79,10.79,0,0,1-8,3.08,11.73,11.73,0,0,1-11.71-9.65H78.67l.15,0a2.07,2.07,0,0,0,.3-.06A3.16,3.16,0,0,0,81.4,64.68ZM63.8,53.86A11.7,11.7,0,0,1,75,62H52.51A11.73,11.73,0,0,1,63.8,53.86Z" transform="translate(-12.76 -12.76)"/><path class="cls-5" d="M81.81,83.38a.38.38,0,0,1-.39-.37V79.07h-.88a.38.38,0,0,1-.37-.39.37.37,0,0,1,.37-.39H83.1a.37.37,0,0,1,.37.39.38.38,0,0,1-.37.39H82.2V83A.37.37,0,0,1,81.81,83.38Z" transform="translate(-12.76 -12.76)"/><path class="cls-5" d="M86.37,83.39a.4.4,0,0,1-.38-.3l-1.1-3.23V83a.37.37,0,0,1-.39.37.38.38,0,0,1-.39-.37V78.85a.6.6,0,0,1,.58-.58.6.6,0,0,1,.56.43L86.37,82l1.1-3.25a.61.61,0,0,1,.56-.43.6.6,0,0,1,.58.58V83a.37.37,0,0,1-.39.37.38.38,0,0,1-.39-.37V79.87l-.68,2-.41,1.21A.42.42,0,0,1,86.37,83.39Z" transform="translate(-12.76 -12.76)"/></svg>