<?xml version="1.0" standalone="no"?>
<!DOCTYPE svg PUBLIC "-//W3C//DTD SVG 20010904//EN"
 "http://www.w3.org/TR/2001/REC-SVG-20010904/DTD/svg10.dtd">
<svg version="1.0" xmlns="http://www.w3.org/2000/svg"
 width="300.000000pt" height="150.000000pt" viewBox="0 0 300.000000 150.000000"
 preserveAspectRatio="xMidYMid meet">
<metadata>
Created by potrace 1.10, written by Peter Selinger 2001-2011
</metadata>
<g transform="translate(0.000000,150.000000) scale(0.100000,-0.100000)"
fill="#000000" stroke="none">
<path d="M1352 1258 c-5 -7 -13 -35 -17 -62 -7 -43 -11 -50 -42 -63 -33 -13
-37 -13 -85 18 l-50 32 -50 -50 -50 -50 34 -45 c18 -24 98 -137 178 -251 80
-113 147 -206 150 -206 5 -1 352 485 359 502 4 10 -78 97 -93 97 -5 0 -30 -13
-56 -30 -42 -27 -49 -29 -78 -18 -28 11 -33 19 -43 68 -6 30 -16 58 -23 62
-19 13 -123 9 -134 -4z m70 -95 l2 -88 3 83 c4 79 5 83 26 80 17 -2 25 -14 34
-53 13 -52 30 -71 72 -82 23 -6 39 0 98 38 21 13 26 11 60 -23 l37 -37 -17
-33 c-10 -18 -35 -57 -57 -86 l-39 -54 -25 41 c-30 47 -99 91 -156 98 l-40 6
0 -55 c0 -40 -4 -55 -14 -55 -37 0 -76 -27 -96 -67 -11 -23 -20 -48 -20 -54 0
-24 -20 -11 -48 31 -31 45 -31 45 11 110 10 15 22 25 27 22 5 -3 13 1 17 10 5
8 33 23 63 34 38 14 47 20 30 20 -40 1 -102 -33 -142 -77 -21 -23 -38 -47 -38
-52 0 -23 -18 -6 -50 48 -19 31 -43 66 -52 76 -25 27 -23 37 16 75 l34 33 50
-27 c45 -25 54 -26 86 -15 41 13 53 30 62 88 6 40 8 42 57 51 4 0 8 -38 9 -86z
m67 -137 c54 -12 96 -47 124 -102 15 -29 15 -33 -2 -51 -10 -10 -24 -29 -30
-41 -14 -26 -31 -29 -31 -6 0 45 -64 118 -105 119 -5 0 -11 21 -13 47 -3 51
-8 48 57 34z m-6 -126 c39 -31 52 -81 32 -124 -20 -42 -73 -70 -115 -61 -44
10 -80 58 -80 107 0 82 98 129 163 78z m-90 -210 c11 0 29 -10 40 -22 l19 -23
-6 22 c-6 19 -4 22 10 16 12 -4 15 -3 10 5 -4 7 -1 12 9 12 12 0 11 -6 -7 -34
-17 -26 -26 -32 -35 -24 -10 8 -13 5 -13 -13 l0 -24 -19 24 c-27 36 -56 88
-40 74 7 -7 22 -13 32 -13z"/>
<path d="M120 1030 l0 -40 140 0 140 0 0 -210 0 -210 50 0 50 0 0 210 0 210
135 0 135 0 0 40 0 40 -325 0 -325 0 0 -40z m205 0 c-7 -11 -136 -12 -155 0
-7 4 27 8 75 9 57 1 84 -2 80 -9z m209 -2 c-3 -4 -9 -6 -13 -3 -5 2 -17 -5
-27 -16 -16 -18 -19 -38 -20 -123 -2 -288 -2 -286 -25 -286 -17 0 -20 6 -19
33 1 17 2 107 1 198 l-1 166 -27 14 c-14 8 -34 13 -45 11 -10 -2 -18 2 -18 7
0 8 34 11 100 10 54 -1 97 -6 94 -11z m76 6 c0 -8 -19 -13 -24 -6 -3 5 1 9 9
9 8 0 15 -2 15 -3z m124 -4 c3 -3 -19 -5 -49 -5 -29 0 -56 3 -59 6 -4 3 18 5
48 5 30 -1 57 -4 60 -6z"/>
<path d="M836 836 c-92 -130 -172 -239 -177 -242 -21 -13 -5 -21 45 -22 l54
-1 101 145 c100 145 128 198 71 137 -17 -18 -30 -35 -30 -38 0 -8 -53 -79 -62
-83 -5 -2 -8 -10 -8 -18 0 -8 -4 -14 -10 -14 -5 0 -12 -11 -16 -25 -3 -14 -9
-25 -13 -25 -4 0 -14 -11 -21 -25 -9 -18 -22 -25 -42 -25 -15 0 -28 3 -28 7 0
4 20 32 43 62 24 31 49 66 55 78 7 12 18 27 25 35 8 7 44 58 82 113 91 133
102 145 139 145 34 0 26 15 -14 25 -24 6 -37 -10 -194 -229z"/>
<path d="M1790 1060 c-13 -9 -13 -11 -1 -19 8 -5 20 -7 27 -4 6 2 25 -13 40
-34 16 -21 32 -40 35 -43 3 -3 19 -25 34 -50 15 -25 48 -70 72 -101 23 -30 43
-60 43 -66 0 -6 7 -13 15 -17 8 -3 20 -16 25 -28 15 -34 33 -62 48 -71 21 -14
13 -27 -15 -26 -24 0 -37 14 -83 85 -30 46 -58 84 -62 84 -5 0 -8 10 -8 22 0
12 -3 18 -7 15 -3 -4 -30 30 -59 74 -29 45 -61 87 -72 95 -19 13 -23 12 -41
-12 -20 -25 -25 -39 -22 -57 1 -6 -30 -53 -177 -262 l-49 -70 -113 0 -114 0
-114 165 -114 165 -41 -3 c-22 -1 -47 -8 -54 -14 -14 -11 -18 -115 -5 -134 4
-7 32 -17 62 -23 49 -10 57 -15 68 -43 11 -29 9 -36 -18 -78 -17 -26 -30 -51
-30 -56 0 -14 84 -94 99 -94 7 0 32 13 56 30 42 29 44 29 79 15 26 -11 36 -21
36 -38 0 -12 5 -39 11 -60 l10 -38 71 3 c79 3 70 -6 92 91 4 18 17 31 39 41
30 12 35 11 74 -16 23 -15 47 -28 54 -28 18 0 99 81 99 98 0 7 -13 32 -28 55
-27 39 -28 44 -16 74 10 22 23 34 41 38 93 19 88 15 91 84 2 36 -2 68 -8 76
-7 8 -31 17 -56 21 l-44 6 23 28 22 27 35 -40 c19 -22 38 -49 42 -58 4 -10 51
-82 104 -159 l97 -140 53 0 c30 0 54 2 54 4 0 3 -107 155 -305 434 -44 61 -64
72 -95 52z m-625 -302 c50 -72 95 -143 102 -157 7 -14 12 -21 13 -16 0 6 5 2
11 -7 8 -14 23 -18 69 -18 l60 0 0 -85 c0 -76 -2 -85 -19 -85 -25 0 -41 21
-48 64 -6 39 -22 57 -70 76 -30 11 -36 10 -66 -13 -49 -37 -60 -36 -97 6 -28
32 -32 42 -22 55 30 43 43 76 38 96 -10 40 -45 76 -75 76 -42 0 -60 19 -61 70
-2 61 -1 67 10 50 6 -9 10 -10 10 -3 0 6 10 14 23 16 12 2 24 5 27 6 3 0 46
-58 95 -131z m682 65 l4 -52 -43 -11 c-63 -17 -71 -23 -91 -64 l-18 -37 30
-52 30 -53 -36 -32 c-20 -18 -40 -32 -45 -32 -5 0 -29 11 -52 25 -41 24 -45
24 -79 10 -40 -17 -52 -33 -62 -88 -6 -30 -11 -37 -31 -37 -23 0 -24 2 -24 80
l0 80 54 0 c49 0 57 3 76 30 12 17 26 28 31 25 5 -4 6 1 3 9 -3 9 -1 16 6 16
6 0 9 4 6 8 -2 4 4 19 15 32 11 14 47 65 80 113 l60 88 41 -3 41 -3 4 -52z"/>
<path d="M2240 820 l0 -250 50 0 50 0 0 105 0 106 205 -3 205 -3 0 38 0 37
-205 0 -205 0 0 70 0 70 220 0 220 0 0 40 0 40 -270 0 -270 0 0 -250z m160
208 c0 -5 -12 -8 -27 -8 -46 0 -63 -25 -63 -94 0 -40 6 -70 16 -84 15 -22 21
-23 157 -22 216 1 239 1 233 -8 -3 -5 -83 -8 -178 -7 -165 2 -203 -3 -220 -29
-4 -6 -8 -48 -8 -93 0 -66 -3 -81 -15 -79 -8 1 -17 4 -19 7 -8 8 -8 407 -1
419 7 11 125 9 125 -2z m44 3 c-9 -9 -34 -9 -34 -1 0 5 9 8 20 7 10 -1 17 -3
14 -6z m51 -1 c3 -5 1 -10 -4 -10 -6 0 -11 5 -11 10 0 6 2 10 4 10 3 0 8 -4
11 -10z m80 -1 c-6 -9 -45 -8 -45 2 0 4 11 7 25 7 13 0 22 -4 20 -9z m170 0
c3 -4 -28 -7 -69 -8 -42 -1 -76 2 -76 7 0 9 136 10 145 1z"/>
<path d="M1014 970 c-30 -30 -39 -43 -47 -65 -4 -12 9 -3 31 22 l39 42 20 -27
c11 -15 24 -24 28 -20 8 7 -24 54 -41 62 -7 2 -20 -4 -30 -14z"/>
<path d="M136 273 c7 -30 12 -39 18 -32 2 2 6 16 10 32 5 23 3 27 -14 27 -17
0 -19 -4 -14 -27z"/>
<path d="M375 270 c0 -16 5 -30 11 -30 6 0 9 13 6 30 -2 17 -7 30 -11 30 -3 0
-6 -13 -6 -30z"/>
<path d="M536 288 c-15 -44 -15 -47 5 -45 20 1 22 10 9 42 -7 18 -8 18 -14 3z"/>
<path d="M1232 272 c-9 -27 -8 -30 9 -29 20 1 25 23 10 45 -6 10 -11 6 -19
-16z"/>
<path d="M2080 270 c0 -16 5 -30 10 -30 6 0 10 7 10 15 0 8 6 15 13 15 9 0 8
3 -2 9 -11 7 -11 9 0 14 8 3 4 6 -8 6 -19 1 -23 -4 -23 -29z"/>
<path d="M2711 275 c-1 -24 3 -31 20 -32 16 -2 18 1 10 11 -6 7 -7 17 -3 21 4
5 2 5 -5 1 -6 -3 -13 1 -16 11 -3 10 -5 5 -6 -12z"/>
<path d="M917 284 c-3 -3 -3 -14 0 -25 6 -20 33 -27 33 -8 0 5 -4 7 -10 4 -5
-3 -10 -2 -10 4 0 5 5 11 12 13 8 3 6 6 -4 10 -9 4 -18 4 -21 2z"/>
<path d="M1387 284 c-3 -3 -3 -14 0 -25 6 -20 33 -27 33 -8 0 5 -4 7 -10 4 -5
-3 -10 -2 -10 4 0 5 5 11 12 13 8 3 6 6 -4 10 -9 4 -18 4 -21 2z"/>
<path d="M1697 284 c-3 -3 -3 -14 0 -25 6 -20 33 -27 33 -8 0 5 -4 7 -10 4 -5
-3 -10 -2 -10 4 0 5 5 11 12 13 8 3 6 6 -4 10 -9 4 -18 4 -21 2z"/>
<path d="M210 260 c0 -13 7 -20 20 -20 13 0 20 7 20 20 0 13 -7 20 -20 20 -13
0 -20 -7 -20 -20z m30 0 c0 -5 -4 -10 -10 -10 -5 0 -10 5 -10 10 0 6 5 10 10
10 6 0 10 -4 10 -10z"/>
<path d="M290 260 c0 -15 5 -20 18 -18 9 2 17 10 17 18 0 8 -8 16 -17 18 -13
2 -18 -3 -18 -18z m30 6 c0 -3 -4 -8 -10 -11 -5 -3 -10 -1 -10 4 0 6 5 11 10
11 6 0 10 -2 10 -4z"/>
<path d="M600 266 c0 -8 5 -18 11 -22 8 -4 7 -9 -2 -16 -11 -7 -9 -8 6 -6 13
2 21 12 23 31 3 22 -1 27 -17 27 -12 0 -21 -6 -21 -14z m30 0 c0 -3 -4 -8 -10
-11 -5 -3 -10 -1 -10 4 0 6 5 11 10 11 6 0 10 -2 10 -4z"/>
<path d="M681 258 c1 -17 2 -19 6 -5 2 9 9 17 15 17 5 0 8 -7 4 -15 -3 -8 -1
-15 4 -15 6 0 10 9 10 20 0 13 -7 20 -20 20 -14 0 -20 -6 -19 -22z"/>
<path d="M760 260 c0 -15 5 -20 18 -18 9 2 17 10 17 18 0 8 -8 16 -17 18 -13
2 -18 -3 -18 -18z"/>
<path d="M838 268 c9 -9 15 -9 24 0 9 9 7 12 -12 12 -19 0 -21 -3 -12 -12z"/>
<path d="M1000 270 c13 -9 13 -11 0 -20 -12 -8 -11 -10 7 -10 16 0 20 5 16 20
-3 11 -13 20 -22 20 -14 0 -14 -2 -1 -10z"/>
<path d="M1072 263 c2 -10 12 -19 23 -20 16 -1 16 -1 3 3 -10 3 -18 9 -18 14
0 5 8 11 18 13 12 3 11 5 -6 6 -17 1 -23 -4 -20 -16z"/>
<path d="M1302 263 c2 -10 11 -19 21 -21 12 -3 17 3 16 20 0 22 -1 22 -9 3 -7
-17 -9 -17 -9 -2 -1 9 -6 17 -12 17 -6 0 -9 -8 -7 -17z"/>
<path d="M1460 259 c0 -14 5 -19 17 -17 26 5 29 38 4 38 -15 0 -21 -6 -21 -21z
m30 1 c0 -5 -4 -10 -10 -10 -5 0 -10 5 -10 10 0 6 5 10 10 10 6 0 10 -4 10
-10z"/>
<path d="M1540 260 c0 -25 20 -27 21 -2 0 14 2 14 9 -3 8 -19 9 -19 9 3 1 16
-5 22 -19 22 -13 0 -20 -7 -20 -20z"/>
<path d="M1617 266 c-7 -18 1 -26 26 -26 13 0 17 5 13 16 -3 9 -6 18 -6 20 0
11 -29 2 -33 -10z"/>
<path d="M1786 269 c3 -6 0 -15 -7 -20 -11 -7 -9 -9 8 -9 16 0 20 5 16 20 -3
11 -10 20 -15 20 -5 0 -6 -5 -2 -11z"/>
<path d="M1850 259 c0 -14 5 -19 17 -17 26 5 29 38 4 38 -15 0 -21 -6 -21 -21z
m30 1 c0 -5 -4 -10 -10 -10 -5 0 -10 5 -10 10 0 6 5 10 10 10 6 0 10 -4 10
-10z"/>
<path d="M1931 258 c1 -17 2 -19 6 -5 2 9 8 17 13 17 5 0 7 -7 4 -15 -4 -8 -1
-15 5 -15 6 0 11 9 11 20 0 13 -7 20 -20 20 -14 0 -20 -6 -19 -22z"/>
<path d="M2160 260 c0 -11 5 -20 10 -20 6 0 9 6 8 13 -2 6 3 11 10 10 6 -2 12
2 12 7 0 6 -9 10 -20 10 -13 0 -20 -7 -20 -20z"/>
<path d="M2246 264 c-9 -23 -8 -24 14 -24 13 0 20 7 20 20 0 24 -25 27 -34 4z"/>
<path d="M2320 260 c0 -25 20 -27 21 -2 0 14 2 14 9 -3 8 -19 9 -19 9 3 1 16
-5 22 -19 22 -13 0 -20 -7 -20 -20z"/>
<path d="M2400 261 c0 -14 6 -21 19 -21 24 0 22 34 -2 38 -12 2 -17 -3 -17
-17z"/>
<path d="M2472 263 c2 -10 12 -18 23 -18 11 0 21 8 23 18 2 9 -2 17 -8 17 -6
0 -8 -6 -4 -12 6 -10 4 -10 -7 0 -19 17 -31 15 -27 -5z"/>
<path d="M2552 263 c5 -26 38 -29 38 -4 0 15 -6 21 -21 21 -14 0 -19 -5 -17
-17z m28 -3 c0 -5 -4 -10 -10 -10 -5 0 -10 5 -10 10 0 6 5 10 10 10 6 0 10 -4
10 -10z"/>
<path d="M2630 258 c1 -21 2 -21 11 -5 6 9 14 15 20 12 5 -4 9 -1 9 4 0 6 -9
11 -20 11 -14 0 -20 -7 -20 -22z"/>
<path d="M845 250 c-19 -8 -19 -9 3 -9 12 -1 22 4 22 9 0 6 -1 10 -2 9 -2 0
-12 -4 -23 -9z"/>
</g>
</svg>
