<?xml version="1.0" encoding="UTF-8"?>
<svg xmlns="http://www.w3.org/2000/svg" xmlns:xlink="http://www.w3.org/1999/xlink" width="75pt" height="38pt" viewBox="0 0 75 38" version="1.1">
<g id="surface1">
<path style=" stroke:none;fill-rule:nonzero;fill:rgb(0%,0%,0%);fill-opacity:1;" d="M 33.800781 6.113281 C 33.675781 6.292969 33.476562 7 33.375 7.679688 C 33.199219 8.765625 33.101562 8.945312 32.324219 9.273438 C 31.5 9.601562 31.398438 9.601562 30.199219 8.816406 L 28.949219 8.007812 L 27.699219 9.273438 L 26.449219 10.535156 L 27.300781 11.671875 C 27.75 12.277344 29.75 15.132812 31.75 18.015625 C 33.75 20.871094 35.425781 23.21875 35.5 23.21875 C 35.625 23.246094 44.300781 10.964844 44.476562 10.535156 C 44.574219 10.285156 42.523438 8.085938 42.148438 8.085938 C 42.023438 8.085938 41.398438 8.414062 40.75 8.84375 C 39.699219 9.523438 39.523438 9.574219 38.800781 9.296875 C 38.101562 9.019531 37.976562 8.816406 37.726562 7.578125 C 37.574219 6.820312 37.324219 6.113281 37.148438 6.011719 C 36.675781 5.683594 34.074219 5.785156 33.800781 6.113281 Z M 35.550781 8.515625 L 35.601562 10.738281 L 35.675781 8.640625 C 35.773438 6.644531 35.800781 6.542969 36.324219 6.621094 C 36.75 6.671875 36.949219 6.972656 37.175781 7.957031 C 37.5 9.273438 37.925781 9.753906 38.976562 10.03125 C 39.550781 10.183594 39.949219 10.03125 41.425781 9.070312 C 41.949219 8.742188 42.074219 8.792969 42.925781 9.652344 L 43.851562 10.585938 L 43.425781 11.421875 C 43.175781 11.875 42.550781 12.859375 42 13.59375 L 41.023438 14.957031 L 40.398438 13.921875 C 39.648438 12.734375 37.925781 11.621094 36.5 11.445312 L 35.5 11.292969 L 35.5 12.683594 C 35.5 13.695312 35.398438 14.074219 35.148438 14.074219 C 34.226562 14.074219 33.25 14.753906 32.75 15.765625 C 32.476562 16.347656 32.25 16.980469 32.25 17.128906 C 32.25 17.738281 31.75 17.410156 31.050781 16.347656 C 30.273438 15.210938 30.273438 15.210938 31.324219 13.566406 C 31.574219 13.1875 31.875 12.9375 32 13.011719 C 32.125 13.085938 32.324219 12.988281 32.425781 12.757812 C 32.550781 12.558594 33.25 12.179688 34 11.898438 C 34.949219 11.546875 35.175781 11.394531 34.75 11.394531 C 33.75 11.371094 32.199219 12.230469 31.199219 13.339844 C 30.675781 13.921875 30.25 14.527344 30.25 14.652344 C 30.25 15.234375 29.800781 14.804688 29 13.441406 C 28.523438 12.660156 27.925781 11.773438 27.699219 11.519531 C 27.074219 10.839844 27.125 10.585938 28.101562 9.625 L 28.949219 8.792969 L 30.199219 9.476562 C 31.324219 10.105469 31.550781 10.132812 32.351562 9.855469 C 33.375 9.523438 33.675781 9.097656 33.898438 7.628906 C 34.050781 6.621094 34.101562 6.570312 35.324219 6.339844 C 35.425781 6.339844 35.523438 7.300781 35.550781 8.515625 Z M 37.226562 11.976562 C 38.574219 12.277344 39.625 13.164062 40.324219 14.554688 C 40.699219 15.285156 40.699219 15.386719 40.273438 15.839844 C 40.023438 16.09375 39.675781 16.574219 39.523438 16.878906 C 39.175781 17.535156 38.75 17.609375 38.75 17.027344 C 38.75 15.890625 37.148438 14.046875 36.125 14.023438 C 36 14.023438 35.851562 13.492188 35.800781 12.835938 C 35.726562 11.546875 35.601562 11.621094 37.226562 11.976562 Z M 37.074219 15.160156 C 38.050781 15.941406 38.375 17.207031 37.875 18.292969 C 37.375 19.355469 36.050781 20.0625 35 19.832031 C 33.898438 19.582031 33 18.367188 33 17.128906 C 33 15.058594 35.449219 13.871094 37.074219 15.160156 Z M 34.824219 20.464844 C 35.101562 20.464844 35.550781 20.71875 35.824219 21.019531 L 36.300781 21.601562 L 36.148438 21.046875 C 36 20.566406 36.050781 20.492188 36.398438 20.640625 C 36.699219 20.742188 36.773438 20.71875 36.648438 20.515625 C 36.550781 20.339844 36.625 20.210938 36.875 20.210938 C 37.175781 20.210938 37.148438 20.363281 36.699219 21.070312 C 36.273438 21.730469 36.050781 21.878906 35.824219 21.679688 C 35.574219 21.476562 35.5 21.550781 35.5 22.007812 L 35.5 22.613281 L 35.023438 22.007812 C 34.351562 21.097656 33.625 19.785156 34.023438 20.136719 C 34.199219 20.3125 34.574219 20.464844 34.824219 20.464844 Z M 34.824219 20.464844 "/>
<path style=" stroke:none;fill-rule:nonzero;fill:rgb(0%,0%,0%);fill-opacity:1;" d="M 3 11.875 L 3 12.886719 L 10 12.886719 L 10 23.496094 L 12.5 23.496094 L 12.5 12.886719 L 19.25 12.886719 L 19.25 10.863281 L 3 10.863281 Z M 8.125 11.875 C 7.949219 12.152344 4.726562 12.179688 4.25 11.875 C 4.074219 11.773438 4.925781 11.671875 6.125 11.648438 C 7.550781 11.621094 8.226562 11.699219 8.125 11.875 Z M 13.351562 11.925781 C 13.273438 12.027344 13.125 12.078125 13.023438 12 C 12.898438 11.949219 12.601562 12.128906 12.351562 12.40625 C 11.949219 12.859375 11.875 13.367188 11.851562 15.511719 C 11.800781 22.789062 11.800781 22.738281 11.226562 22.738281 C 10.800781 22.738281 10.726562 22.585938 10.75 21.90625 C 10.773438 21.476562 10.800781 19.203125 10.773438 16.902344 L 10.75 12.707031 L 10.074219 12.355469 C 9.726562 12.152344 9.226562 12.027344 8.949219 12.078125 C 8.699219 12.128906 8.5 12.027344 8.5 11.898438 C 8.5 11.699219 9.351562 11.621094 11 11.648438 C 12.351562 11.671875 13.425781 11.800781 13.351562 11.925781 Z M 15.25 11.773438 C 15.25 11.976562 14.773438 12.101562 14.648438 11.925781 C 14.574219 11.800781 14.675781 11.699219 14.875 11.699219 C 15.074219 11.699219 15.25 11.75 15.25 11.773438 Z M 18.351562 11.875 C 18.425781 11.949219 17.875 12 17.125 12 C 16.398438 12 15.726562 11.925781 15.648438 11.851562 C 15.550781 11.773438 16.101562 11.722656 16.851562 11.722656 C 17.601562 11.75 18.273438 11.824219 18.351562 11.875 Z M 18.351562 11.875 "/>
<path style=" stroke:none;fill-rule:nonzero;fill:rgb(0%,0%,0%);fill-opacity:1;" d="M 20.898438 16.777344 C 18.601562 20.0625 16.601562 22.816406 16.476562 22.890625 C 15.949219 23.21875 16.351562 23.421875 17.601562 23.445312 L 18.949219 23.472656 L 21.476562 19.808594 C 23.976562 16.144531 24.675781 14.804688 23.25 16.347656 C 22.824219 16.800781 22.5 17.230469 22.5 17.308594 C 22.5 17.507812 21.175781 19.304688 20.949219 19.402344 C 20.824219 19.453125 20.75 19.65625 20.75 19.859375 C 20.75 20.0625 20.648438 20.210938 20.5 20.210938 C 20.375 20.210938 20.199219 20.492188 20.101562 20.84375 C 20.023438 21.199219 19.875 21.476562 19.773438 21.476562 C 19.675781 21.476562 19.425781 21.753906 19.25 22.109375 C 19.023438 22.5625 18.699219 22.738281 18.199219 22.738281 C 17.824219 22.738281 17.5 22.664062 17.5 22.5625 C 17.5 22.460938 18 21.753906 18.574219 20.996094 C 19.175781 20.210938 19.800781 19.328125 19.949219 19.023438 C 20.125 18.722656 20.398438 18.34375 20.574219 18.140625 C 20.773438 17.964844 21.675781 16.675781 22.625 15.285156 C 24.898438 11.925781 25.175781 11.621094 26.101562 11.621094 C 26.949219 11.621094 26.75 11.242188 25.75 10.992188 C 25.148438 10.839844 24.824219 11.242188 20.898438 16.777344 Z M 20.898438 16.777344 "/>
<path style=" stroke:none;fill-rule:nonzero;fill:rgb(0%,0%,0%);fill-opacity:1;" d="M 44.75 11.117188 C 44.425781 11.34375 44.425781 11.394531 44.726562 11.597656 C 44.925781 11.722656 45.226562 11.773438 45.398438 11.699219 C 45.550781 11.648438 46.023438 12.027344 46.398438 12.558594 C 46.800781 13.085938 47.199219 13.566406 47.273438 13.644531 C 47.351562 13.71875 47.75 14.273438 48.125 14.90625 C 48.5 15.539062 49.324219 16.675781 49.925781 17.457031 C 50.5 18.214844 51 18.976562 51 19.125 C 51 19.277344 51.175781 19.453125 51.375 19.554688 C 51.574219 19.632812 51.875 19.960938 52 20.261719 C 52.375 21.121094 52.824219 21.828125 53.199219 22.058594 C 53.726562 22.410156 53.523438 22.738281 52.824219 22.714844 C 52.226562 22.714844 51.898438 22.359375 50.75 20.566406 C 50 19.402344 49.300781 18.445312 49.199219 18.445312 C 49.074219 18.445312 49 18.191406 49 17.886719 C 49 17.585938 48.925781 17.433594 48.824219 17.507812 C 48.75 17.609375 48.074219 16.75 47.351562 15.640625 C 46.625 14.503906 45.824219 13.441406 45.550781 13.238281 C 45.074219 12.910156 44.976562 12.9375 44.523438 13.542969 C 44.023438 14.175781 43.898438 14.527344 43.976562 14.984375 C 44 15.132812 43.226562 16.320312 39.550781 21.601562 L 38.324219 23.371094 L 32.648438 23.371094 L 29.800781 19.203125 L 26.949219 15.035156 L 25.925781 15.109375 C 25.375 15.132812 24.75 15.3125 24.574219 15.460938 C 24.226562 15.742188 24.125 18.367188 24.449219 18.847656 C 24.550781 19.023438 25.25 19.277344 26 19.429688 C 27.226562 19.683594 27.425781 19.808594 27.699219 20.515625 C 27.976562 21.25 27.925781 21.425781 27.25 22.488281 C 26.824219 23.144531 26.5 23.773438 26.5 23.902344 C 26.5 24.253906 28.601562 26.277344 28.976562 26.277344 C 29.148438 26.277344 29.773438 25.949219 30.375 25.519531 C 31.425781 24.785156 31.476562 24.785156 32.351562 25.140625 C 33 25.417969 33.25 25.671875 33.25 26.101562 C 33.25 26.402344 33.375 27.085938 33.523438 27.617188 L 33.773438 28.574219 L 35.550781 28.5 C 37.523438 28.425781 37.300781 28.652344 37.851562 26.199219 C 37.949219 25.746094 38.273438 25.417969 38.824219 25.164062 C 39.574219 24.863281 39.699219 24.886719 40.675781 25.570312 C 41.25 25.949219 41.851562 26.277344 42.023438 26.277344 C 42.476562 26.277344 44.5 24.230469 44.5 23.800781 C 44.5 23.625 44.175781 22.992188 43.800781 22.410156 C 43.125 21.425781 43.101562 21.300781 43.398438 20.542969 C 43.648438 19.984375 43.976562 19.683594 44.425781 19.582031 C 46.75 19.101562 46.625 19.203125 46.699219 17.457031 C 46.75 16.550781 46.648438 15.742188 46.5 15.539062 C 46.324219 15.335938 45.726562 15.109375 45.101562 15.007812 L 44 14.855469 L 44.574219 14.148438 L 45.125 13.464844 L 46 14.476562 C 46.476562 15.035156 46.949219 15.714844 47.050781 15.941406 C 47.148438 16.195312 48.324219 18.015625 49.648438 19.960938 L 52.074219 23.496094 L 53.398438 23.496094 C 54.148438 23.496094 54.75 23.445312 54.75 23.394531 C 54.75 23.320312 52.074219 19.480469 47.125 12.429688 C 46.023438 10.890625 45.523438 10.613281 44.75 11.117188 Z M 29.125 18.746094 C 30.375 20.566406 31.5 22.359375 31.675781 22.714844 C 31.851562 23.066406 31.976562 23.246094 32 23.117188 C 32 22.964844 32.125 23.066406 32.273438 23.296875 C 32.476562 23.648438 32.851562 23.75 34 23.75 L 35.5 23.75 L 35.5 25.898438 C 35.5 27.816406 35.449219 28.046875 35.023438 28.046875 C 34.398438 28.046875 34 27.515625 33.824219 26.429688 C 33.675781 25.441406 33.273438 24.988281 32.074219 24.507812 C 31.324219 24.230469 31.175781 24.253906 30.425781 24.835938 C 29.199219 25.769531 28.925781 25.746094 28 24.683594 C 27.300781 23.875 27.199219 23.625 27.449219 23.296875 C 28.199219 22.207031 28.523438 21.375 28.398438 20.871094 C 28.148438 19.859375 27.273438 18.949219 26.523438 18.949219 C 25.476562 18.949219 25.023438 18.46875 25 17.179688 C 24.949219 15.640625 24.976562 15.488281 25.25 15.917969 C 25.398438 16.144531 25.5 16.171875 25.5 15.992188 C 25.5 15.839844 25.75 15.640625 26.074219 15.589844 C 26.375 15.539062 26.675781 15.460938 26.75 15.4375 C 26.824219 15.4375 27.898438 16.902344 29.125 18.746094 Z M 46.175781 17.105469 L 46.273438 18.417969 L 45.199219 18.695312 C 43.625 19.125 43.425781 19.277344 42.925781 20.3125 L 42.476562 21.25 L 43.226562 22.5625 L 43.976562 23.902344 L 43.074219 24.710938 C 42.574219 25.164062 42.074219 25.519531 41.949219 25.519531 C 41.824219 25.519531 41.226562 25.242188 40.648438 24.886719 C 39.625 24.28125 39.523438 24.28125 38.675781 24.632812 C 37.675781 25.0625 37.375 25.46875 37.125 26.859375 C 36.976562 27.617188 36.851562 27.792969 36.351562 27.792969 C 35.773438 27.792969 35.75 27.742188 35.75 25.769531 L 35.75 23.75 L 37.101562 23.75 C 38.324219 23.75 38.523438 23.675781 39 22.992188 C 39.300781 22.5625 39.648438 22.285156 39.773438 22.359375 C 39.898438 22.460938 39.925781 22.335938 39.851562 22.132812 C 39.773438 21.90625 39.824219 21.730469 40 21.730469 C 40.148438 21.730469 40.226562 21.628906 40.148438 21.527344 C 40.101562 21.425781 40.25 21.046875 40.523438 20.71875 C 40.800781 20.363281 41.699219 19.074219 42.523438 17.863281 L 44.023438 15.640625 L 45.050781 15.714844 L 46.074219 15.792969 Z M 46.175781 17.105469 "/>
<path style=" stroke:none;fill-rule:nonzero;fill:rgb(0%,0%,0%);fill-opacity:1;" d="M 56 17.179688 L 56 23.496094 L 58.5 23.496094 L 58.5 18.167969 L 68.75 18.316406 L 68.75 16.421875 L 58.5 16.421875 L 58.5 12.886719 L 69.5 12.886719 L 69.5 10.863281 L 56 10.863281 Z M 60 11.925781 C 60 12.050781 59.699219 12.128906 59.324219 12.128906 C 58.175781 12.128906 57.75 12.757812 57.75 14.503906 C 57.75 15.511719 57.898438 16.269531 58.148438 16.625 C 58.523438 17.179688 58.675781 17.207031 62.074219 17.179688 C 67.476562 17.15625 68.050781 17.15625 67.898438 17.382812 C 67.824219 17.507812 65.824219 17.585938 63.449219 17.558594 C 59.324219 17.507812 58.375 17.636719 57.949219 18.292969 C 57.851562 18.445312 57.75 19.503906 57.75 20.640625 C 57.75 22.308594 57.675781 22.6875 57.375 22.636719 C 57.175781 22.613281 56.949219 22.539062 56.898438 22.460938 C 56.699219 22.257812 56.699219 12.179688 56.875 11.875 C 57.050781 11.597656 60 11.648438 60 11.925781 Z M 61.101562 11.851562 C 60.875 12.078125 60.25 12.078125 60.25 11.875 C 60.25 11.75 60.476562 11.671875 60.75 11.699219 C 61 11.722656 61.175781 11.773438 61.101562 11.851562 Z M 62.375 11.875 C 62.449219 12 62.398438 12.128906 62.273438 12.128906 C 62.125 12.128906 62 12 62 11.875 C 62 11.722656 62.050781 11.621094 62.101562 11.621094 C 62.175781 11.621094 62.300781 11.722656 62.375 11.875 Z M 64.375 11.898438 C 64.226562 12.128906 63.25 12.101562 63.25 11.851562 C 63.25 11.75 63.523438 11.671875 63.875 11.671875 C 64.199219 11.671875 64.425781 11.773438 64.375 11.898438 Z M 68.625 11.898438 C 68.699219 12 67.925781 12.078125 66.898438 12.101562 C 65.851562 12.128906 65 12.050781 65 11.925781 C 65 11.699219 68.398438 11.671875 68.625 11.898438 Z M 68.625 11.898438 "/>
<path style=" stroke:none;fill-rule:nonzero;fill:rgb(0%,0%,0%);fill-opacity:1;" d="M 25.351562 13.390625 C 24.601562 14.148438 24.375 14.476562 24.175781 15.035156 C 24.074219 15.335938 24.398438 15.109375 24.949219 14.476562 L 25.925781 13.417969 L 26.425781 14.097656 C 26.699219 14.476562 27.023438 14.703125 27.125 14.605469 C 27.324219 14.425781 26.523438 13.238281 26.101562 13.039062 C 25.925781 12.988281 25.601562 13.136719 25.351562 13.390625 Z M 25.351562 13.390625 "/>
<path style=" stroke:none;fill-rule:nonzero;fill:rgb(0%,0%,0%);fill-opacity:1;" d="M 3.398438 31 C 3.574219 31.757812 3.699219 31.988281 3.851562 31.808594 C 3.898438 31.757812 4 31.40625 4.101562 31 C 4.226562 30.421875 4.175781 30.320312 3.75 30.320312 C 3.324219 30.320312 3.273438 30.421875 3.398438 31 Z M 3.398438 31 "/>
<path style=" stroke:none;fill-rule:nonzero;fill:rgb(0%,0%,0%);fill-opacity:1;" d="M 9.375 31.078125 C 9.375 31.480469 9.5 31.835938 9.648438 31.835938 C 9.800781 31.835938 9.875 31.507812 9.800781 31.078125 C 9.75 30.648438 9.625 30.320312 9.523438 30.320312 C 9.449219 30.320312 9.375 30.648438 9.375 31.078125 Z M 9.375 31.078125 "/>
<path style=" stroke:none;fill-rule:nonzero;fill:rgb(0%,0%,0%);fill-opacity:1;" d="M 13.398438 30.621094 C 13.023438 31.734375 13.023438 31.808594 13.523438 31.757812 C 14.023438 31.734375 14.074219 31.507812 13.75 30.699219 C 13.574219 30.242188 13.550781 30.242188 13.398438 30.621094 Z M 13.398438 30.621094 "/>
<path style=" stroke:none;fill-rule:nonzero;fill:rgb(0%,0%,0%);fill-opacity:1;" d="M 30.800781 31.027344 C 30.574219 31.707031 30.601562 31.785156 31.023438 31.757812 C 31.523438 31.734375 31.648438 31.179688 31.273438 30.621094 C 31.125 30.371094 31 30.472656 30.800781 31.027344 Z M 30.800781 31.027344 "/>
<path style=" stroke:none;fill-rule:nonzero;fill:rgb(0%,0%,0%);fill-opacity:1;" d="M 52 31.078125 C 52 31.480469 52.125 31.835938 52.25 31.835938 C 52.398438 31.835938 52.5 31.660156 52.5 31.457031 C 52.5 31.253906 52.648438 31.078125 52.824219 31.078125 C 53.050781 31.078125 53.023438 31 52.773438 30.851562 C 52.5 30.671875 52.5 30.621094 52.773438 30.496094 C 52.976562 30.421875 52.875 30.34375 52.574219 30.34375 C 52.101562 30.320312 52 30.445312 52 31.078125 Z M 52 31.078125 "/>
<path style=" stroke:none;fill-rule:nonzero;fill:rgb(0%,0%,0%);fill-opacity:1;" d="M 67.773438 30.949219 C 67.75 31.558594 67.851562 31.734375 68.273438 31.757812 C 68.675781 31.808594 68.726562 31.734375 68.523438 31.480469 C 68.375 31.304688 68.351562 31.050781 68.449219 30.949219 C 68.550781 30.824219 68.5 30.824219 68.324219 30.925781 C 68.175781 31 68 30.898438 67.925781 30.648438 C 67.851562 30.394531 67.800781 30.519531 67.773438 30.949219 Z M 67.773438 30.949219 "/>
<path style=" stroke:none;fill-rule:nonzero;fill:rgb(0%,0%,0%);fill-opacity:1;" d="M 22.925781 30.722656 C 22.851562 30.800781 22.851562 31.078125 22.925781 31.355469 C 23.074219 31.859375 23.75 32.039062 23.75 31.558594 C 23.75 31.429688 23.648438 31.378906 23.5 31.457031 C 23.375 31.53125 23.25 31.507812 23.25 31.355469 C 23.25 31.230469 23.375 31.078125 23.550781 31.027344 C 23.75 30.949219 23.699219 30.875 23.449219 30.773438 C 23.226562 30.671875 23 30.671875 22.925781 30.722656 Z M 22.925781 30.722656 "/>
<path style=" stroke:none;fill-rule:nonzero;fill:rgb(0%,0%,0%);fill-opacity:1;" d="M 34.675781 30.722656 C 34.601562 30.800781 34.601562 31.078125 34.675781 31.355469 C 34.824219 31.859375 35.5 32.039062 35.5 31.558594 C 35.5 31.429688 35.398438 31.378906 35.25 31.457031 C 35.125 31.53125 35 31.507812 35 31.355469 C 35 31.230469 35.125 31.078125 35.300781 31.027344 C 35.5 30.949219 35.449219 30.875 35.199219 30.773438 C 34.976562 30.671875 34.75 30.671875 34.675781 30.722656 Z M 34.675781 30.722656 "/>
<path style=" stroke:none;fill-rule:nonzero;fill:rgb(0%,0%,0%);fill-opacity:1;" d="M 42.425781 30.722656 C 42.351562 30.800781 42.351562 31.078125 42.425781 31.355469 C 42.574219 31.859375 43.25 32.039062 43.25 31.558594 C 43.25 31.429688 43.148438 31.378906 43 31.457031 C 42.875 31.53125 42.75 31.507812 42.75 31.355469 C 42.75 31.230469 42.875 31.078125 43.050781 31.027344 C 43.25 30.949219 43.199219 30.875 42.949219 30.773438 C 42.726562 30.671875 42.5 30.671875 42.425781 30.722656 Z M 42.425781 30.722656 "/>
<path style=" stroke:none;fill-rule:nonzero;fill:rgb(0%,0%,0%);fill-opacity:1;" d="M 5.25 31.328125 C 5.25 31.660156 5.425781 31.835938 5.75 31.835938 C 6.074219 31.835938 6.25 31.660156 6.25 31.328125 C 6.25 31 6.074219 30.824219 5.75 30.824219 C 5.425781 30.824219 5.25 31 5.25 31.328125 Z M 6 31.328125 C 6 31.457031 5.898438 31.582031 5.75 31.582031 C 5.625 31.582031 5.5 31.457031 5.5 31.328125 C 5.5 31.179688 5.625 31.078125 5.75 31.078125 C 5.898438 31.078125 6 31.179688 6 31.328125 Z M 6 31.328125 "/>
<path style=" stroke:none;fill-rule:nonzero;fill:rgb(0%,0%,0%);fill-opacity:1;" d="M 7.25 31.328125 C 7.25 31.707031 7.375 31.835938 7.699219 31.785156 C 7.925781 31.734375 8.125 31.53125 8.125 31.328125 C 8.125 31.128906 7.925781 30.925781 7.699219 30.875 C 7.375 30.824219 7.25 30.949219 7.25 31.328125 Z M 8 31.179688 C 8 31.253906 7.898438 31.378906 7.75 31.457031 C 7.625 31.53125 7.5 31.480469 7.5 31.355469 C 7.5 31.203125 7.625 31.078125 7.75 31.078125 C 7.898438 31.078125 8 31.128906 8 31.179688 Z M 8 31.179688 "/>
<path style=" stroke:none;fill-rule:nonzero;fill:rgb(0%,0%,0%);fill-opacity:1;" d="M 15 31.179688 C 15 31.378906 15.125 31.632812 15.273438 31.734375 C 15.476562 31.835938 15.449219 31.960938 15.226562 32.136719 C 14.949219 32.316406 15 32.339844 15.375 32.289062 C 15.699219 32.238281 15.898438 31.988281 15.949219 31.507812 C 16.023438 30.949219 15.925781 30.824219 15.523438 30.824219 C 15.226562 30.824219 15 30.976562 15 31.179688 Z M 15.75 31.179688 C 15.75 31.253906 15.648438 31.378906 15.5 31.457031 C 15.375 31.53125 15.25 31.480469 15.25 31.355469 C 15.25 31.203125 15.375 31.078125 15.5 31.078125 C 15.648438 31.078125 15.75 31.128906 15.75 31.179688 Z M 15.75 31.179688 "/>
<path style=" stroke:none;fill-rule:nonzero;fill:rgb(0%,0%,0%);fill-opacity:1;" d="M 17.023438 31.378906 C 17.050781 31.808594 17.074219 31.859375 17.175781 31.507812 C 17.226562 31.277344 17.398438 31.078125 17.550781 31.078125 C 17.675781 31.078125 17.75 31.253906 17.648438 31.457031 C 17.574219 31.660156 17.625 31.835938 17.75 31.835938 C 17.898438 31.835938 18 31.609375 18 31.328125 C 18 31 17.824219 30.824219 17.5 30.824219 C 17.148438 30.824219 17 30.976562 17.023438 31.378906 Z M 17.023438 31.378906 "/>
<path style=" stroke:none;fill-rule:nonzero;fill:rgb(0%,0%,0%);fill-opacity:1;" d="M 19 31.328125 C 19 31.707031 19.125 31.835938 19.449219 31.785156 C 19.675781 31.734375 19.875 31.53125 19.875 31.328125 C 19.875 31.128906 19.675781 30.925781 19.449219 30.875 C 19.125 30.824219 19 30.949219 19 31.328125 Z M 19 31.328125 "/>
<path style=" stroke:none;fill-rule:nonzero;fill:rgb(0%,0%,0%);fill-opacity:1;" d="M 20.949219 31.128906 C 21.175781 31.355469 21.324219 31.355469 21.550781 31.128906 C 21.773438 30.898438 21.726562 30.824219 21.25 30.824219 C 20.773438 30.824219 20.726562 30.898438 20.949219 31.128906 Z M 20.949219 31.128906 "/>
<path style=" stroke:none;fill-rule:nonzero;fill:rgb(0%,0%,0%);fill-opacity:1;" d="M 25 31.078125 C 25.324219 31.304688 25.324219 31.355469 25 31.582031 C 24.699219 31.785156 24.726562 31.835938 25.175781 31.835938 C 25.574219 31.835938 25.675781 31.707031 25.574219 31.328125 C 25.5 31.050781 25.25 30.824219 25.023438 30.824219 C 24.675781 30.824219 24.675781 30.875 25 31.078125 Z M 25 31.078125 "/>
<path style=" stroke:none;fill-rule:nonzero;fill:rgb(0%,0%,0%);fill-opacity:1;" d="M 26.800781 31.253906 C 26.851562 31.507812 27.101562 31.734375 27.375 31.757812 C 27.773438 31.785156 27.773438 31.785156 27.449219 31.683594 C 27.199219 31.609375 27 31.457031 27 31.328125 C 27 31.203125 27.199219 31.050781 27.449219 31 C 27.75 30.925781 27.726562 30.875 27.300781 30.851562 C 26.875 30.824219 26.726562 30.949219 26.800781 31.253906 Z M 26.800781 31.253906 "/>
<path style=" stroke:none;fill-rule:nonzero;fill:rgb(0%,0%,0%);fill-opacity:1;" d="M 32.550781 31.253906 C 32.601562 31.507812 32.824219 31.734375 33.074219 31.785156 C 33.375 31.859375 33.5 31.707031 33.476562 31.277344 C 33.476562 30.722656 33.449219 30.722656 33.25 31.203125 C 33.074219 31.632812 33.023438 31.632812 33.023438 31.253906 C 33 31.027344 32.875 30.824219 32.726562 30.824219 C 32.574219 30.824219 32.5 31.027344 32.550781 31.253906 Z M 32.550781 31.253906 "/>
<path style=" stroke:none;fill-rule:nonzero;fill:rgb(0%,0%,0%);fill-opacity:1;" d="M 36.5 31.355469 C 36.5 31.707031 36.625 31.835938 36.925781 31.785156 C 37.574219 31.660156 37.648438 30.824219 37.023438 30.824219 C 36.648438 30.824219 36.5 30.976562 36.5 31.355469 Z M 37.25 31.328125 C 37.25 31.457031 37.148438 31.582031 37 31.582031 C 36.875 31.582031 36.75 31.457031 36.75 31.328125 C 36.75 31.179688 36.875 31.078125 37 31.078125 C 37.148438 31.078125 37.25 31.179688 37.25 31.328125 Z M 37.25 31.328125 "/>
<path style=" stroke:none;fill-rule:nonzero;fill:rgb(0%,0%,0%);fill-opacity:1;" d="M 38.5 31.328125 C 38.5 31.960938 39 32.011719 39.023438 31.378906 C 39.023438 31.027344 39.074219 31.027344 39.25 31.457031 C 39.449219 31.9375 39.476562 31.9375 39.476562 31.378906 C 39.5 30.976562 39.351562 30.824219 39 30.824219 C 38.675781 30.824219 38.5 31 38.5 31.328125 Z M 38.5 31.328125 "/>
<path style=" stroke:none;fill-rule:nonzero;fill:rgb(0%,0%,0%);fill-opacity:1;" d="M 40.425781 31.179688 C 40.25 31.632812 40.449219 31.835938 41.074219 31.835938 C 41.398438 31.835938 41.5 31.707031 41.398438 31.429688 C 41.324219 31.203125 41.25 30.976562 41.25 30.925781 C 41.25 30.648438 40.523438 30.875 40.425781 31.179688 Z M 40.425781 31.179688 "/>
<path style=" stroke:none;fill-rule:nonzero;fill:rgb(0%,0%,0%);fill-opacity:1;" d="M 44.648438 31.101562 C 44.726562 31.253906 44.648438 31.480469 44.476562 31.609375 C 44.199219 31.785156 44.25 31.835938 44.675781 31.835938 C 45.074219 31.835938 45.175781 31.707031 45.074219 31.328125 C 45 31.050781 44.824219 30.824219 44.699219 30.824219 C 44.574219 30.824219 44.550781 30.949219 44.648438 31.101562 Z M 44.648438 31.101562 "/>
<path style=" stroke:none;fill-rule:nonzero;fill:rgb(0%,0%,0%);fill-opacity:1;" d="M 46.25 31.355469 C 46.25 31.707031 46.375 31.835938 46.675781 31.785156 C 47.324219 31.660156 47.398438 30.824219 46.773438 30.824219 C 46.398438 30.824219 46.25 30.976562 46.25 31.355469 Z M 47 31.328125 C 47 31.457031 46.898438 31.582031 46.75 31.582031 C 46.625 31.582031 46.5 31.457031 46.5 31.328125 C 46.5 31.179688 46.625 31.078125 46.75 31.078125 C 46.898438 31.078125 47 31.179688 47 31.328125 Z M 47 31.328125 "/>
<path style=" stroke:none;fill-rule:nonzero;fill:rgb(0%,0%,0%);fill-opacity:1;" d="M 48.273438 31.378906 C 48.300781 31.808594 48.324219 31.859375 48.425781 31.507812 C 48.476562 31.277344 48.625 31.078125 48.75 31.078125 C 48.875 31.078125 48.925781 31.253906 48.851562 31.457031 C 48.75 31.660156 48.824219 31.835938 48.976562 31.835938 C 49.125 31.835938 49.25 31.609375 49.25 31.328125 C 49.25 31 49.074219 30.824219 48.75 30.824219 C 48.398438 30.824219 48.25 30.976562 48.273438 31.378906 Z M 48.273438 31.378906 "/>
<path style=" stroke:none;fill-rule:nonzero;fill:rgb(0%,0%,0%);fill-opacity:1;" d="M 54 31.328125 C 54 31.609375 54.125 31.835938 54.25 31.835938 C 54.398438 31.835938 54.476562 31.683594 54.449219 31.507812 C 54.398438 31.355469 54.523438 31.230469 54.699219 31.253906 C 54.851562 31.304688 55 31.203125 55 31.078125 C 55 30.925781 54.773438 30.824219 54.5 30.824219 C 54.175781 30.824219 54 31 54 31.328125 Z M 54 31.328125 "/>
<path style=" stroke:none;fill-rule:nonzero;fill:rgb(0%,0%,0%);fill-opacity:1;" d="M 56.148438 31.230469 C 55.925781 31.808594 55.949219 31.835938 56.5 31.835938 C 56.824219 31.835938 57 31.660156 57 31.328125 C 57 30.722656 56.375 30.648438 56.148438 31.230469 Z M 56.148438 31.230469 "/>
<path style=" stroke:none;fill-rule:nonzero;fill:rgb(0%,0%,0%);fill-opacity:1;" d="M 58 31.328125 C 58 31.960938 58.5 32.011719 58.523438 31.378906 C 58.523438 31.027344 58.574219 31.027344 58.75 31.457031 C 58.949219 31.9375 58.976562 31.9375 58.976562 31.378906 C 59 30.976562 58.851562 30.824219 58.5 30.824219 C 58.175781 30.824219 58 31 58 31.328125 Z M 58 31.328125 "/>
<path style=" stroke:none;fill-rule:nonzero;fill:rgb(0%,0%,0%);fill-opacity:1;" d="M 60 31.304688 C 60 31.660156 60.148438 31.835938 60.476562 31.835938 C 61.074219 31.835938 61.023438 30.976562 60.425781 30.875 C 60.125 30.824219 60 30.949219 60 31.304688 Z M 60 31.304688 "/>
<path style=" stroke:none;fill-rule:nonzero;fill:rgb(0%,0%,0%);fill-opacity:1;" d="M 61.800781 31.253906 C 61.851562 31.507812 62.101562 31.707031 62.375 31.707031 C 62.648438 31.707031 62.898438 31.507812 62.949219 31.253906 C 63 31.027344 62.898438 30.824219 62.75 30.824219 C 62.601562 30.824219 62.550781 30.976562 62.648438 31.128906 C 62.800781 31.378906 62.75 31.378906 62.476562 31.128906 C 62 30.699219 61.699219 30.75 61.800781 31.253906 Z M 61.800781 31.253906 "/>
<path style=" stroke:none;fill-rule:nonzero;fill:rgb(0%,0%,0%);fill-opacity:1;" d="M 63.800781 31.253906 C 63.925781 31.910156 64.75 31.988281 64.75 31.355469 C 64.75 30.976562 64.601562 30.824219 64.226562 30.824219 C 63.875 30.824219 63.75 30.949219 63.800781 31.253906 Z M 64.5 31.328125 C 64.5 31.457031 64.398438 31.582031 64.25 31.582031 C 64.125 31.582031 64 31.457031 64 31.328125 C 64 31.179688 64.125 31.078125 64.25 31.078125 C 64.398438 31.078125 64.5 31.179688 64.5 31.328125 Z M 64.5 31.328125 "/>
<path style=" stroke:none;fill-rule:nonzero;fill:rgb(0%,0%,0%);fill-opacity:1;" d="M 65.75 31.378906 C 65.773438 31.910156 65.800781 31.910156 66.023438 31.507812 C 66.175781 31.277344 66.375 31.128906 66.523438 31.203125 C 66.648438 31.304688 66.75 31.230469 66.75 31.101562 C 66.75 30.949219 66.523438 30.824219 66.25 30.824219 C 65.898438 30.824219 65.75 31 65.75 31.378906 Z M 65.75 31.378906 "/>
<path style=" stroke:none;fill-rule:nonzero;fill:rgb(0%,0%,0%);fill-opacity:1;" d="M 21.125 31.582031 C 20.648438 31.785156 20.648438 31.808594 21.199219 31.808594 C 21.5 31.835938 21.75 31.707031 21.75 31.582031 C 21.75 31.429688 21.726562 31.328125 21.699219 31.355469 C 21.648438 31.355469 21.398438 31.457031 21.125 31.582031 Z M 21.125 31.582031 "/>
</g>
</svg>
